<mxfile host="app.diagrams.net" modified="2021-03-12T09:35:25.882Z" agent="5.0 (Windows)" etag="1d_lM6TXA2vvGWpOJv76" version="14.4.7" type="github">
  <diagram id="C5RBs43oDa-KdzZeNtuy" name="Page-1">
    <mxGraphModel dx="1422" dy="763" grid="1" gridSize="10" guides="1" tooltips="1" connect="1" arrows="1" fold="1" page="1" pageScale="1" pageWidth="827" pageHeight="1169" math="0" shadow="0">
      <root>
        <mxCell id="WIyWlLk6GJQsqaUBKTNV-0" />
        <mxCell id="WIyWlLk6GJQsqaUBKTNV-1" parent="WIyWlLk6GJQsqaUBKTNV-0" />
        <mxCell id="BPp37XixHK6xMraPsEmh-0" value="" style="shape=image;verticalLabelPosition=bottom;labelBackgroundColor=#ffffff;verticalAlign=top;imageAspect=0;image=data:image/png,iVBORw0KGgoAAAANSUhEUgAACWAAAAZACAYAAAD9qXmxAAAABHNCSVQICAgIfAhkiAAAAAlwSFlzAAA9hAAAPYQB1ayvdAAAADh0RVh0U29mdHdhcmUAbWF0cGxvdGxpYiB2ZXJzaW9uMy4xLjMsIGh0dHA6Ly9tYXRwbG90bGliLm9yZy+AADFEAAAgAElEQVR4nOzdeXTW5Zk38CuELSEsgoAguNRB3FDRDop1wXEUqlBRtEUrY1urKFNt1XM6eurp8nbsqDN2dA4zio7AuFVR64J2qIgg1l1BQUFUloIIEVQEwhaSvH/0ra+Q34PJnSd5Anw+53BOue7nuX5XfoRfTfLlvotqampqAgAAAAAAAAAAgHprUegBAAAAAAAAAAAAdlYCWAAAAAAAAAAAAIkEsAAAAAAAAAAAABIJYAEAAAAAAAAAACQSwAIAAAAAAAAAAEgkgAUAAAAAAAAAAJBIAAsAAAAAAAAAACCRABYAAAAAAAAAAEAiASwAAAAAAAAAAIBEAlgAAAAAAAAAAACJBLAAAAAAAAAAAAASCWABAAAAAAAAAAAkEsACAAAAAAAAAABIJIAFAAAAAAAAAACQSAALAAAAAAAAAAAgkQAWAAAAAAAAAABAIgEsAAAAAAAAAACARAJYAAAAAAAAAAAAiQSwAAAAAAAAAAAAEglgAQAAAAAAAAAAJBLAAgAAAAAAAAAASCSABQAAAAAAAAAAkEgACwAAAAAAAAAAIJEAFgAAAAAAAAAAQCIBLAAAAAAAAAAAgEQCWAAAAAAAAAAAAIkEsAAAAAAAAAAAABIJYAEAAAAAAAAAACQSwAIAAAAAAAAAAEgkgAUAAAAAAAAAAJBIAAsAAAAAAAAAACCRABYAAAAAAAAAAEAiASwAAAAAAAAAAIBEAlgAAAAAAAAAAACJBLAAAAAAAAAAAAASCWABAAAAAAAAAAAkEsACAAAAAAAAAABIJIAFAAAAAAAAAACQSAALAAAAAAAAAAAgkQAWAAAAAAAAAABAIgEsAAAAAAAAAACARAJYAAAAAAAAAAAAiQSwAAAAAAAAAAAAEglgAQAAAAAAAAAAJBLAAgAAAAAAAAAASCSABQAAAAAAAAAAkEgACwAAAAAAAAAAIJEAFgAAAAAAAAAAQCIBLAAAAAAAAAAAgEQCWAAAAAAAAAAAAIkEsAAAAAAAAAAAABIJYAEAAAAAAAAAACQSwAIAAAAAAAAAAEgkgAUAAAAAAAAAAJBIAAsAAAAAAAAAACCRABYAAAAAAAAAAEAiASwAAAAAAAAAAIBEAlgAAAAAAAAAAACJBLAAAAAAAAAAAAASCWABAAAAAAAAAAAkEsACAAAAAAAAAABIJIAFAAAAAAAAAACQSAALAAAAAAAAAAAgkQAWAAAAAAAAAABAIgEsAAAAAAAAAACARAJYAAAAAAAAAAAAiQSwAAAAAAAAAAAAEglgAQAAAAAAAAAAJBLAAgAAAAAAAAAASCSABQAAAAAAAAAAkEgACwAAAAAAAAAAIJEAFgAAAAAAAAAAQCIBLAAAAAAAAAAAgEQCWAAAAAAAAAAAAIkEsAAAAAAAAAAAABIJYAEAAAAAAAAAACQSwAIAAAAAAAAAAEgkgAUAAAAAAAAAAJBIAAsAAAAAAAAAACCRABYAAAAAAAAAAEAiASwAAAAAAAAAAIBEAlgAAAAAAAAAAACJBLAAAAAAAAAAAAASCWABAAAAAAAAAAAkEsACAAAAAAAAAABIJIAFAAAAAAAAAACQSAALAAAAAAAAAAAgkQAWAAAAAAAAAABAIgEsAAAAAAAAAACARAJYAAAAAAAAAAAAiQSwAAAAAAAAAAAAEglgAQAAAAAAAAAAJBLAAgAAAAAAAAAASCSABQAAAAAAAAAAkEgACwAAAAAAAAAAIJEAFgAAAAAAAAAAQCIBLAAAAAAAAAAAgEQCWAAAAAAAAAAAAIkEsAAAAAAAAAAAABIJYAEAAAAAAAAAACQSwAIAAAAAAAAAAEgkgAUAAAAAAAAAAJBIAAsAAAAAAAAAACCRABYAAAAAAAAAAEAiASwAAAAAAAAAAIBEAlgAAAAAAAAAAACJBLAAAAAAAAAAAAASCWABAAAAAAAAAAAkEsACAAAAAAAAAABIJIAFAAAAAAAAAACQSAALAAAAAAAAAAAgkQAWAAAAAAAAAABAIgEsAAAAAAAAAACARAJYAAAAAAAAAAAAiQSwAAAAAAAAAAAAEglgAQAAAAAAAAAAJBLAAgAAAAAAAAAASCSABQAAAAAAAAAAkEgACwAAAAAAAAAAIJEAFgAAAAAAAAAAQCIBLAAAAAAAAAAAgEQCWAAAAAAAAAAAAIkEsAAAAAAAAAAAABIJYAEAAAAAAAAAACQSwAIAAAAAAAAAAEgkgAUAAAAAAAAAAJBIAAsAAAAAAAAAACCRABYAAAAAAAAAAEAiASwAAAAAAAAAAIBEAlgAAAAAAAAAAACJBLAAAAAAAAAAAAASCWABAAAAAAAAAAAkEsACAAAAAAAAAABIJIAFAAAAAAAAAACQSAALAAAAAAAAAAAgkQAWAAAAAAAAAABAIgEsAAAAAAAAAACARAJYAAAAAAAAAAAAiQSwAAAAAAAAAAAAEglgAQAAAAAAAAAAJBLAAgAAAAAAAAAASCSABQAAAAAAAAAAkEgACwAAAAAAAAAAIJEAFgAAAAAAAAAAQCIBLAAAAAAAAAAAgEQCWAAAAAAAAAAAAIkEsAAAAAAAAAAAABIJYAEAAAAAAAAAACQSwAIAAAAAAAAAAEgkgAUAAAAAAAAAAJBIAAsAAAAAAAAAACCRABYAAAAAAAAAAEAiASwAAAAAAAAAAIBEAlgAAAAAAAAAAACJBLAAAAAAAAAAAAASCWABAAAAAAAAAAAkEsACAAAAAAAAAABIJIAFAAAAAAAAAACQSAALAAAAAAAAAAAgkQAWAAAAAAAAAABAIgEsAAAAAAAAAACARAJYAAAAAAAAAAAAiQSwAAAAAAAAAAAAEglgAQAAAAAAAAAAJBLAAgAAAAAAAAAASCSABQAAAAAAAAAAkEgACwAAAAAAAAAAIJEAFgAAAAAAAAAAQCIBLAAAAAAAAAAAgEQCWAAAAAAAAAAAAIkEsAAAAAAAAAAAABIJYAEAAAAAAAAAACQSwAIAAAAAAAAAAEgkgAUAAAAAAAAAAJBIAAsAAAAAAAAAACCRABYAAAAAAAAAAEAiASwAAAAAAAAAAIBEAlgAAAAAAAAAAACJBLAAAAAAAAAAAAASCWABAAAAAAAAAAAkEsACAAAAAAAAAABIJIAFAAAAAAAAAACQSAALAAAAAAAAAAAgkQAWAAAAAAAAAABAIgEsAAAAAAAAAACARAJYAAAAAAAAAAAAiQSwAAAAAAAAAAAAEglgAQAAAAAAAAAAJGpZ6AEAduSjjz6KJ598cpva1772tWjXrl2BJgIAAAAAAADIj4qKili0aNE2taFDh0bPnj0LNBGQQgALaNaefPLJGD16dKHHAAAAAAAAAGgS48aNi0suuaTQYwD14AhCAAAAAAAAAACARAJYAAAAAAAAAAAAiQSwAAAAAAAAAAAAErUs9AAAO/K1r32tVm3cuHHRr1+/AkwDAAAAAAAAkD9z586N0aNHb1PL+hkp0LwJYAHNWrt27WrV+vXrFwMHDizANAAAAAAAAACNK+tnpEDz5ghCAAAAAAAAAACARAJYAAAAAAAAAAAAiQSwAAAAAAAAAAAAEglgAQAAAAAAAAAAJBLAAgAAAAAAAAAASCSABQAAAAAAAAAAkEgACwAAAAAAAAAAIJEAFgAAAAAAAAAAQCIBLAAAAAAAAAAAgEQCWAAAAAAAAAAAAIkEsAAAAAAAAAAAABIJYAEAAAAAAAAAACQSwAIAAAAAAAAAAEgkgAUAAAAAAAAAAJBIAAsAAAAAAAAAACCRABYAAAAAAAAAAEAiASwAAAAAAAAAAIBEAlgAAAAAAAAAAACJBLAAAAAAAAAAAAASCWABAAAAAAAAAAAkEsACAAAAAAAAAABIJIAFAAAAAAAAAACQSAALAAAAAAAAAAAgkQAWAAAAAAAAAABAIgEsAAAAAAAAAACARAJYAAAAAAAAAAAAiVoWegAAAAAAIFtNTU1s2LAhKioqoqqq6otfNTU1hR4NAACgWSoqKooWLVpEcXFxFBcXR0lJSbRr1y6Ki4sLPRqwCxPAAgAAAIBmpLq6OtavXx/r1q2L9evXR3V1daFHAgAA2OmVlJREWVlZlJWVRdu2bQs9DrCLEcACAAAAgGZiw4YNsWLFitiyZUuhRwEAANilbNy4MTZu3BirVq2KTp06RdeuXaNlS5EJID88TQAAAACgwGpqaqK8vDw+++yzQo8CAACwy1uzZk2sW7cu9tprr+jQoUOhxwF2AS0KPQAAAAAA7M6ErwAAAJpeVVVVLF++PNauXVvoUYBdgB2wAAAAAKCAVq9eXafwVVFRURQXF0dxcXG0aOHfVQIAAGSprq6OqqqqqKqqipqamq98/fLlyyMi7IQFNIgAFgAAAAAUyKZNm2L16tU511u1ahXt27ePsrKyKC0tjaKioiacDgAAYOdVU1MTW7ZsifXr10dFRUVs2LAhZyBr5cqVUVpaGi1bilAAaTw9AAAAAKAAampq4uOPP85cKyoqiq5du0bnzp2FrgAAABIUFRVFmzZtok2bNtGlS5eorKyM8vLyWLduXa3XVlVVxapVq6JHjx4FmBTYFdirHAAAAAAKYMOGDVFRUZG5tvfee0eXLl2ErwAAAPKkVatWX3ytlWXNmjWxefPmJp4K2FUIYAEAAABAAWT9q+uIiC5dukT79u2beBoAAIBd3193G871NVeur9MAvooAFgAAAAAUwIYNG2rViouLY8899yzANAAAALuHoqKi6N69e+aOw+vXry/ARMCuQAALAAAAAJrY1q1bM4+2aNeuXbRo4Vt2AAAAjalVq1ZRWlpaq75x48aoqqoqwETAzs53cwAAAACgiVVUVGTW27Vr18STAAAA7J5yff2V6+s1gB0RwAIAAACAJrZp06bMeta/wAYAACD/ysrKMusbN25s4kmAXYEAFgAAAAA0sawjLVq0aBGtW7cuwDQAAAC7n9atW0dRUVGtuiMIgRQCWAAAAADQxLK+oV9cXFyASQAAAHZPRUVFmV+HVVdXF2AaYGcngAUAAAAATSzrG/otWvhWHQAAQFPKCmDZAQtI4bs6AAAAANDEampqatUEsAAAAJpW1tdhWV+vAXwV39UBAAAAAAAAAABIJIAFAAAAAAAAAACQqGWhBwAAAAAAAABg57ZlS0R1dURxcUSrVoWeBgCalgAWAAAAAAAAAEk2b45YtixizZq//L6oKKJLl4hevSJa+mk0ALsJRxACAAAAAAAAUG9VVREffPD/w1cRETU1EatXRyxZ8pf/DQC7AwEsAAAAAAAAAOrtk08iNm7MXluzJmLduqadBwAKRQALAAAAAAAAgHr78s5XWT7/vGnmAIBCE8ACAAAAAAAAoN7Wrt3xenl508wBAIUmgAUAAAAAAAAAAJBIAAsAAAAAAAAAACCRABYAAAAAAAAAAEAiASwAAAAAAAAAAIBEAlgAAAAAAAAAAACJBLAAAAAAAAAAAAASCWABAAAAAAD1MmjQoCgqKqr1a8aMGYUejZ2QzycaYmf9/OnZs2fm3CtWrCj0aABAAgEsAAAAAAAAgCZSXl6eGbTq0aNH9OjRowATAQANJYAFAAAAAAAA0ETeeOONzPrRRx/dxJMAAPkigAUAAAAAAADQRASwAGDXI4AFAAAAAAAA0ERmzZqVWRfAAoCdlwAWAAAAAAAAQBOxAxYA7HoEsAAAAAAAAACawOrVq2PZsmW16nvttVf07NmzABMBAPkggAUAAAAAAADQBOx+BQC7ppaFHgAAAAAAANi5zJgxo9AjsAvx+cTuZNasWZl1ASwA2LnZAQsAAAAAAACgCdgBCwB2TQJYAAAAAAAAAE3ADlgAsGsSwAIAAAAAAABoZJ999lksXry4Vr179+6x9957F2AiACBfBLAAAAAAAAAAGpndrwBg19Wy0AMAAAAAAEBztGrVqnjiiSdi2rRp8fbbb8fy5ctj7dq10a5du+jatWt07949jjvuuBgyZEgcf/zx0bp16yaZa9GiRTFlypR48cUXY8GCBbF06dJYt25dbNmyJUpLS2OPPfaI/fffPw4//PA44YQTYsiQIdG+ffsmmS0f3n///Zg2bVq8+eabMWfOnCgvL4/PP/881q5dG0VFRVFSUhKlpaXRuXPn2GeffWLfffeNgw46KI455pjo379/tGnTptAfwk5rV7/3ixYtisceeyyee+65mD9/fqxcuTI2bNjwxd+bAw88MI466qgYOnRoHH/88VFUVFSrx6pVq2Lz5s216l27dm3Uj785PY8qKyvjtddei9dffz3mz58f7777bixbtizWrl0ba9eujaqqqigpKYnOnTtHr1694tBDD40BAwbE4MGDo1evXo02187gjTfeyKzvKID11ltvxVNPPRWvvvpqzJs3L1atWhXr16+PsrKy6NKlS/Tr1y9OOumkOO+886J79+6NNToA8BWKampqago9BEAuL730Uhx33HHb1F588cUYOHBggSYCAACAhluyZEls3Lhxm1pJSUnst99+hRkIdhNZYYqIiO2/Tf7hhx/GL3/5y7jnnntiy5Ytderdu3fv+Od//ucYNWpUzus0RHV1dfz+97+Pm2++OV5++eV6vbdt27YxYsSIuOaaa+Kwww7L+2z5UF1dHRMnTow77rgjXnnlleQ+rVu3jpNOOinOPffcOPvss6NLly45X9uvX794++23a9Wvu+66+PWvf508Qy5Lly6N/fffP6qrq2ut/elPf4pvfOMbeb9mXRTi3je12bNnx89+9rOYMmVKrb/vufTt2zeuvfbauPDCC7epDxo0KJ577rlar58+fXoMGjSozjPtbM+j5cuXx0MPPRR/+MMf4sUXX4yKioqkPieeeGL85Cc/ibPOOisvc0Xk78+kKYwcOTIefPDBWvXHH388vvWtb33x+82bN8eECRNi7Nix8c4779Spd9u2beOSSy6JG264IUpKSvI281d5/fWvfs3Xv974c0Cq5vC1mZ+Hwq7BEYQAAAAAAPD/jB8/Pg455JC466676hx2iIhYtmxZXHjhhTFo0KD4/PPP8zrT3LlzY+DAgXHuuefWO3wVEbFp06a477774ogjjogf/ehHsW7dugbPNGjQoCgqKqr1a8aMGfXu9cYbb8SAAQPioosualAAKCJiy5YtMXXq1Ljkkku+MkR12WWXZdbvuuuu2Lp1a4PmyHLnnXdmhq8OO+ywgoWvCnXvt5fPz6cv27p1a1x77bXx9a9/Pf73f/+3zuGriIgFCxbE9773vTjllFPi448/btAcqZrD82ju3LlxwgknRO/evePKK6+MqVOnJoevIiJmzpwZZ599dhx//PHxwQcfNGi2nVFddsB66KGH4qCDDorLLruszuGriL886//jP/4jBg4cGCtWrGjwrABA/QhgAQAAAABARFx99dVx0UUXNSigNHPmzBg0aFCsWrUqLzPdd999MWDAgHj11Vcb3Ku6ujr+8z//M4455ph4//338zBdw02dOjVOPPHEnKGExjRq1KjMoxlXrFgRkydPzuu1tm7dGuPHj89cGz16dF6vVVeFvPdNoaKiIoYNGxY33HBDZvCtrp599tkYOHBgLF68OI/TfbXm8jxasGBB/OlPf6pXeK0uXnjhhTjqqKNi2rRpee3bnK1duzYWLlxYq969e/fYe++9Y/369XHBBRfEt7/97ViyZEnydd56660466yzMo/KBAAajwAWAAAAAAC7vX/6p3+K3/72t3np9eabb8ZFF13U4D7jxo2LUaNGxaZNm/Iw1f83f/78OOGEE+Ldd9/Na9/6ev3112PYsGGxYcOGgly/ffv2ccEFF2SujRs3Lq/Xmjx5cnz00Ue16qWlpTFq1Ki8XqsuCn3vG1tlZWWcffbZMWXKlLz0W7RoUZx++umxZs2avPT7Ks3xedQY1q1bF2eccUa8+OKLhR6lScyaNSszyHb00UfHxx9/HIMGDYr77rsvL9d65ZVX4uabb85LLwCgbloWegAAAAAAACik++67L2666aZtai1btozTTz89hgwZEgMGDIhu3bpFp06d4tNPP41FixbFlClTYvz48bF69erMnpMnT47f/e53cd555yXNNHny5Ljssst2uOvMkUceGSNHjowTTzwxevbsGZ06dYqVK1fG0qVLY/LkyTFp0qQoLy/PfG95eXmcdtppMWvWrNhzzz2TZmyIqqqquOSSS3Lu0NKqVav45je/Gaeeemoceuihsf/++0dZWVmUlJRERUVFrF27Nj755JOYN29ezJ07N1599dV4+eWXo6qqql5zjBkzJm677bZa9aeffjoWL14c+++/f9LHt71cga6RI0dGx44d83KNumou974xXXXVVfH000/nXG/fvn0MGzYszjrrrOjbt2/06NEjampqYsWKFbFgwYJ49NFHY/LkybF+/fov3vPuu+/GmDFjGn325vg82l7r1q3juOOOi/79+8cRRxwRBx10UOyxxx7RqVOnKC0tjXXr1sWaNWvinXfeiddffz0efvjhzJ2fIiI2b94cI0aMiHfeeSc6d+6cl/maq1mzZmXW+/TpE6eeemrMmTNnm3q3bt3ijDPOiMGDB8fBBx8c3bp1i9LS0vj0009j9uzZ8eCDD8bDDz+c8+/eb3/727jyyiujpKQk7x8LAFCbABYAAAAAALu1Sy+9dJvfDx8+PG666abo06dPrde2b98+9t133zj55JPj2muvjR/96Ec5dyz52c9+FiNHjoyioqJ6zfPhhx/GqFGjcoavunfvHv/1X/8VZ599dq21jh07Rt++fePUU0+Nf/3Xf42f//zncfPNN2f+gH7ZsmVxwQUX5G2XoPr4/e9/H7Nnz85cGzFiRNxyyy3Rq1evzPV27dpFt27d4m/+5m/imGOO+aL+6aefxpQpU2LixInxzDPP1GmOww47LE444YR4/vnnt6nX1NTEnXfeGb/5zW/q+BHltnjx4pg6dWrmWiGOH2wu976xTJkyJcaOHZtz/Tvf+U7ceuut0b1791prXbt2jcMPPzzOPffcWLlyZVxxxRXx0EMPfbH+u9/9LvPYynxqbs+jv2rZsmWceeaZMWLEiDjjjDOiQ4cOOV9bVlYWPXr0iIMPPjjOOeec+Jd/+Zf44x//GJdffnl88MEHtV6/cuXKuPbaa/O+81xzk+u4z4kTJ8bnn3/+xe+7du0a11xzTVx22WWZ4akOHTrEfvvtF2eddVa89NJLMXz48Pj4449rve6TTz6J559/Pk477bT8fRAAQE6OIAQAAAAAYLf25V1ufvWrX8Wjjz6aGXbYXqdOneKee+7JeYzd4sWLY/r06fWe5/LLL9/mh/FfdvDBB8ecOXMyw1fba9OmTdx4443x1FNPRevWrTNf88c//jFvR17Vx8MPP5xZv/DCC+Phhx/OGQDakc6dO8f5558fTz/9dMybNy9OP/30Or0v165G48ePj8rKynrPsb0777wzqqura9X79+8fAwYMaHD/+mpO9z7fKisr44orrsi5fuONN8YDDzyQGb7a3l577RWTJk2qFcJbt25dg+fckeb2PCorK4sf//jH8cEHH8TDDz8c55133g7DV1mKiopiyJAhMWfOnDjzzDMzXzN+/PhYsmRJvefbmeTaAevLz/tBgwbF3Llz46qrrqrTzlUDBw6Mxx9/PGewbubMmWnDAgD1JoAFAAAAAAARcd1118XPf/7zer2nqKgoxo4dG3vttVfm+sSJE+vV7+WXX47HHnssc613794xderU6NatW716Dh48OO69996cP6C/7rrrYuvWrfXq2VBZQZCSkpK45ZZb8tL/oIMOqvOuLyNGjMgM5JSXl8fjjz/eoDkqKytjwoQJmWuF2P0qonnd+3y755574v33389cu+aaa+KnP/1pvXtee+21cfXVVzd0tHprDs+jiIghQ4bELbfcEvvuu2+937u9kpKSmDRpUhx//PG11rZu3Rp33XVXg6/RXFVUVMR77723w9dceOGF8cwzz9QpIPhlxx57bM5g27Jly+rVCwBI5whCAAAAANgFbdoUsXBhoadgZ3PAARFt2xZ6isI47rjj4pe//GXSezt27Bg/+clP4pprrqm19sILL9Sr14033phz7fbbb4+999673vNFRJx77rnx5JNPxt13311rbcmSJfHAAw/k3Dkn3yorK2P16tW16t/4xjeiU6dOTTLDl7Vq1Sp++MMfxvXXX19rbdy4cXHOOeck93788cdj5cqVteplZWXx3e9+N7lvquZ27/MtV4isb9++8atf/Sq57/XXXx+PP/545vF5jaG5PI8aQ+vWreP222+PI444otbRqA8++GD8+te/LtBkjWv27NmZO+H91be+9a246667ori4OKn/kCFDMsO7n3zySVI/AKD+BLAAAAAAYBe0cGHEYYcVegp2Nm+/HXHooYWeojCuv/765B98R0Scf/75mYGHRYsWxZo1a+oUblm1alU89dRTmWvDhg1r8LFuN910Uzz22GOxdu3aWmvjx49vsgDW6tWro6ampla9a9euTXL9LKNHj44bbrihViBk2rRpsXDhwjjggAOS+o4bNy6z/t3vfjfKysqSejZEc7z3+TJnzpyYO3du5trNN9+c8xjOumjTpk3827/9WwwfPjy5R300h+dRYzr00EPjpJNOimeffXab+vvvvx9Lly6NffbZp0CTNZ433ngj59q+++4b999/f4P+zHMdHdqQngBA/TiCEAAAAACA3doRRxwRgwYNalCP3r175wwNvPnmm3Xq8cQTT0RlZWXm2pVXXpk821917949565Lzz33XJPtlFJaWppZX7p0aZNcP0vv3r1j6NChteo1NTVxxx13JPVcuHBhTJs2LXPt0ksvTerZUM3x3ufLE088kVnfe++945vf/GaD+w8dOjR69OjR4D5fpbk8jxpbrj+THQWVdmazZs3KuTZu3Lho165dg/rnOka20GE7ANidCGABAAAAALBbO+OMM6gf8LkAACAASURBVPLS5/DDD8+sl5eX1+n9U6dOzazvs88+DQ5k/NU//MM/ZNarq6tzhoXyrWPHjtE246zLl156KecORk1hzJgxmfUJEybEli1b6t3vjjvuyNxt6phjjokjjzyy3v3yobne+3zYfjelvzr//POjRYuG/zisuLg4zj///Ab3+SrN5XnU2HIFxN55550mnqRp5AqWnXrqqTF48OAG91+2bFlmvVu3bg3uDQDUjQAWAAAAAAC7tRNOOCEvfXr27JlZ//zzz+v0/ldeeSWzPmzYsCgqKkqe68uOPfbYnLv4vPrqq3m5Rl0MHDiwVq26ujqGDx8e8+fPb7I5vuzUU0+NPn361KqvWrUqHn300Xr12rJlS0yYMCFzbfTo0Unz5UtzvPf5MHv27Mz6SSedlLdr5LNXLs3ledTY9txzz8z6hx9+2MSTNL6NGzfGu+++m7n24x//OC/XeP/99zPrBx54YL36vPTSS1FUVLTNr9RdAAFgdyOABQAAAADAbq2+P6DOpUOHDpn1ugQe1q9fH3/+858z14466qgGzbW9/v37Z9bnzJmT1+vsyJlnnplZX7RoURxxxBFx8cUXx2uvvdZk80REFBUV5TwacNy4cfXq9eijj8aqVatq1Tt16hTf+c53kubLl+Z47xtq+fLlsWbNmsy1XJ/vKfLZK5fm8Dyqi82bN8ezzz4b//7v/x4/+MEP4thjj42+fftGjx49oqysrFaIZ/tfp5xySmbfjz/+OC/zNSdvvfVWVFVV1ar37NkzTj/99LxcY968eZn1vn371qtP1lGJTfF5DwC7AgEsAGCn9NlnEf/n/0SceWbE2WdHPPBARMb3MQAAAOAr7bHHHnnp065du8z6hg0bvvK9S5YsyTyuLiL/Aaxc/ZYsWZLX6+zIxRdfHN27d89cq6ysjP/+7/+OAQMGxL777htjxoyJBx98MFasWNHoc33/+9+PkpKSWvXp06fHe++9V+c+uQJbo0aNitLS0uT58qG53vuGyLVr0h577JFzJ6gUvXr1io4dO+atX5bm8DzakRkzZsQPfvCD2GuvveKUU06Jq666KiZMmBCvvPJKvPfee7Fy5cqoqKhI7t/Q+ZqjXMcP/v3f/33edjfMFaA95JBD6tVn+wBWy5Ytcx5nCQBsSwALANjpLFwY0adPxC9+EfHEExGPPhpx3nkRQ4ZEbN1a6OkAAADY2XTq1KlR++cKVn3ZRx99lHOtd+/e+Rwn9tlnn3rPkG+lpaXxP//zP1FcXLzD1y1dujRuu+22GDlyZPTs2TP222+/OO+88+K2225rlOPy9thjjxg5cmTmWl2P4Xrvvfdi+vTpmWuFPn4wovne+4YoLy/PrHfu3Dnv12qMnl/WHJ5HWRYuXBjDhg2Lk08+OSZMmJBzx7GG2rx5c6P0LaSsXaUi/hLAyofly5dn7hzWu3fvnEc95rL9rIcccki0adOmQfMBwO5CAAsA2KnU1EScc07EJ5/UXnvmmYjrr2/6mQAAANi55WsHkobY0bFguY4SS5VrB5+KiorMY7Iay+DBg+Oee+7J3HEqlz//+c/xwAMPxJgxY+KQQw6JHj16xOWXXx4vvfRS3ub6x3/8x8z6xIkT6xQOyRXUOv744+PQQw9t0Gz50lzvfapcuybl++9ORO6/P/nSHJ5H27v//vvjsMMOiyeffLLRr5UaEGvOcu2ANXDgwEbtX9/dE7ds2RLvvPNOg3oAwO6sZaEHAACojz//OeLNN3OvP/roX3bGAgCA3d0BB0S8/Xahp2Bnc8ABhZ5g95Ur2NO2bdto1apVXq+1owDJpk2bch5d1hjOO++8OOyww+KKK66IGTNm1Pv9K1eujLFjx8bYsWPj8MMPj1/84hdx1llnNSjEcvTRR8ff/u3fxmuvvbZN/ZNPPolHHnkkzj///Jzv3bx5c0ycODFz7dJLL02eqTE0x3ufasuWLZn1xvhcLisry3vP5uz++++PCy64YJcMRjWFzZs3x7x582rVO3ToEAfk6f90c+2wVd/w1Ny5c6OysrJBPQBgdyaABQDsVMaP3/H6W2/95RjClv4rBwCA3VzbthHNZKMVoA5yhRsaI8zS3IIU/fr1i+nTp8e0adNi3Lhx8cQTTyQdQzZnzpwYMWJE/N3f/V3ce++90aNHj+SZxowZE9///vdr1ceNG7fDANYjjzwSn2Rs292lS5c455xzkudpLM3x3qfIFVLMtTNWQ1RUVOS9Z3O1YMGC+OEPf7jDZ0bnzp1j0KBBcfTRR0efPn2id+/e0bVr12jfvn2UlJREy5YtM59jM2fOjMGDBzfm+M3CnDlzaoWaIiL69++ft+d7vnbAygpyCWABQN350SQAsFNZuPCrX9PMvo8MAAAAX6lt27aZ9Y0bN0ZlZWVed8Fau3ZtvedoCqecckqccsop8fnnn8czzzwT06dPjxkzZsS8efPqFRp79tlno3///vHCCy8k7zAzcuTIuPrqq+PTTz/dpj5z5syYP39+HHzwwZnvu/322zPr3/ve96JNmzZJszSF5nTvU5SWlmbWd/S5nmpHx4Xuaq666qrYuHFj5trBBx8cv/nNb2Lo0KHRMuFfQrZo0aKh4+0U8rU7VVNcY/s+LVq0iCOPPDJ5LgDY3ewe/3UDAAAAAADNWKdOnXKu5TtEkitA0q5duyguLs7rtVJ07NgxRowYEWPHjo233347Vq9eHZMnT46f/vSncdxxx9UpjFZeXh6nn3568g5Ibdu2zdwBK+Ivu2BlmT9/fjz//PO16kVFRTF69OikOZpac7j3Kbp165ZZ3z5Alw+fffZZ3ns2R++++2784Q9/yFwbNmxYvPbaazF8+PCk8FXE7nMf87U7VS7l5eXx0Ucf1ap37949evbsWa9es2fP3ub3Bx54YJMeSQsAOzsBLAAAAAAAKLAdHdm2bNmyvF4rV7/6/rC+qXTu3DmGDh0aN954Y7zwwguxevXqePDBB+Pss8/eYfjjvffei1tvvTX5updddlnmEWF33313bNq0qVY9VzDr5JNPjj59+iTPUUiFuvf11bt378z6p59+GitXrszbdT766KPdJjj00EMPZdb32WefuPfeexsczGmMcFxz1Ng7YOUr4FVVVRVz5szZpta/f//kuQBgdySABQAAAAAABbbffvtlhn0iau9K0lC5AgH7779/Xq/TWDp06BDf/va345FHHonFixfHueeem/O1t956a72O0PuyAw44IE477bRa9c8++ywmTZq0TW3Tpk1x9913Z/a59NJLk67fHDXVva+vXr16Rfv27TPX3nzzzbxdJ5+9mrus3dwi/hJM7NChQ4P7L1y4sME9mrvKysqYO3durXppaWkcdNBBeblGvgJe8+fPr3XcZD6PSQSA3YEAFgAAAAAAFFhZWVnst99+mWu5fsCeKlegq1+/fnm9TlPo1atXTJo0KS6++OLM9fLy8njrrbeS+48ZMyazvv1uV5MmTcrcGal79+4xfPjw5Os3Z4197+sr1249M2fOzNs18tmruVuwYEFmfejQoXnp/8L/Ze++w6Mq8/eP3wmBkEBCD72t0hWkSERUAkhR4EuzsrIWVEAFC+sq6iqIiKJYFmzsggVZAV1UmhSBgFKkd5ASSiAk1JBCSJ3fH/NDCTlnkpk505L367pyaZ5n5jl3cuZkQuYzn2fNGkvW8We7du1SVlZWgfFWrVopONial2itKsAyWocCLAAAnEMBFgAAAAAAAAAAfiA6OtpwfP78+ZZ1EtqwYYMSEhKcOn4gmDRpksLDww3njDrQFFXv3r1Vv379AuNr167Vrl27/vjcbPvBRx55RKVLl3b5+IHAU997Z3Xp0sVwfObMmZZcP3l5eZo5c6bb6wSK06dPG47XqVPH7bVTUlJMt84rTsy+xrZt23r8GFYUYLEFIQAAzqEACwAAAAAAAAAQsC5dkuLipC1b7B/790tpab5O5Zpu3boZjh89etR0OzBnmW2TFxwcbFrAEggiIiLUsWNHw7lTp065vG5wcLAef/xxw7nLRVe7du3S2rVrDe9r1h2qOPHU995Zffr0MRw/duyYli5d6vb6ixcv1vHjx91eJ1BkZ2cbjoeFhbm99vTp05WZmen2Ov7Oqu5UZs6ePatjx44VGK9cubJpR0UzV2dt2LChKlWq5E48AABKHAqwAAAAAAAAAAABKTNT2rdPOndOysuzf6SkSL//HphFWP/3f/9n2i3p/fffd3v906dP6+uvvzac69y5s6pUqeL2MXzJLL+73Y8effRRlSlTpsD4jBkzdPHiRdPuV927d1fDhg3dOnag8NT33hlt2rRRs2bNDOdGjRqlnJwcl9fOysrSqFGjXL5/IDIrvjl58qRb62ZlZWny5MlurREorOpO5en1bTZbge1C2X4QAADnUYAFAAAAAAAAAAhIx45JRjUVNpt0+LD387iratWq6t27t+HcDz/8oCVLlri1/gsvvKALFy4Yzj388MNure0PzLZWrF27tlvrRkVFaeDAgQXGL1y4oM8//9y0qG3o0KFuHTeQeOp776ynn37acHz37t0aN26cy+uOHTtW+/btc/n+gahatWqG47GxsW6t+8orryguLs6tNQJBTk6O4RacoaGhat68uSXHsKrD1oEDB5SSkuLWGgAAgAIsAAAAAAAAAEAAstmk1FTz+cxMKSvLe3ms8sILL5jODRs2zOXuM3PnztUXX3xhONegQQPde++9Lq3risOHD+vMmTOWrpmQkGC4DaAkXXvttW6v/8QTTxiOP//880pOTi4wXrt2bdMt8XwpEL/3znjooYdMt157/fXXXeq89MEHH+jNN990M1ngad26teH45MmTXe5stmjRIk2aNMmdWAFjz549ysjIKDB+/fXXm3Y6dJZVBVhG61CABQCA8yjAAgAAAAAAAAAEnEuX7FsOOnL2rHeyWCk6Olr9+/c3nDty5Ii6d++us05+YcuWLdOgQYNMiybGjx+vkJAQp7O6atWqVapXr56eeOIJHThwwO31srOz9cgjjxhuMVe/fn21a9fO7WPccsstatmyZYFxowILSRoyZIhKlSrl9nGtFojfe2eEhobqgw8+MJ0fOXKkHnnkkSJdQ2fOnNFDDz2kZ599Nt94uXLl3M4ZCHr06GE4vmXLFo0dO9bp9b799lv1799feYX94C4mrCqOcsSqLQi3bt3q9hoAAIACLAAAAAAAAABAACpKAxYXm7T43L/+9S9VqFDBcG7Xrl1q2bKl5s2bV+g6mZmZeumll3THHXcoMzPT8DY9e/bUoEGD3MrrioyMDH3yySdq2rSpOnXqpClTpphuY+fIzp07FRMTY7o940MPPaSgoCB340qShg8fXqTblSpVSo899pglx/SEQPzeO6Nv374aMmSI6fznn3+uRo0a6dFHH9WiRYt08OBBpaenKy0tTQcPHtSCBQs0ZMgQNWrUSF9++WW++w4cONDrRWW+0qdPH9OfQ2PHjtWIESNMCxCvlJSUpEcffVT33Xefsq5oS1ilShXLsvojq4qjzCQnJ+uwwV67kZGRTneeu7pYrFatWoqKinIrHwAAJZH33tICAAAAAAAAAAAKVadOHc2YMUN9+/Y17FqVkJCgvn37qm3btrrvvvt06623qlatWqpQoYKSkpJ09OhRLViwQLNnz1ZiYqLpcerWrasZM2Z48kspVF5enlavXq3Vq1dr5MiRatWqldq2bas2bdrouuuuU9WqVVWpUiVFRkYqMzNTKSkpOnTokLZt26aFCxcqNjbWtLNXkyZNHG7p6KwHHnhAL7zwglJSUhzerlevXqpTp45lx/WUQPreO2vKlCk6cOCAVq9ebTh//vx5TZs2TdOmTSvymtdcc40+/fRT3XXXXYbzvig286SKFSvq73//u/75z38azk+ZMkVz5szRww8/rC5duqhZs2aqWLGi0tPTlZSUpF27dmnevHlatGiR0tLS8t03MjJS7777rh5++GFvfCk+4ekOWFu2bDG8/m644QanH4tXd8Ci+xUAAK6hAAsAAAAAAAAAAD/Tp08fffzxxw67Lm3evNm0y0phoqKitGTJElWtWtXViJaz2Wzatm2btm3b5lRhjJEKFSro66+/VlhYmEXppPLly2vw4MH66KOPHN5u6NChlh3TW/z9e++ssmXLat68eerbt69WrVrl9nq1a9fWokWLVLVqVdOiszJlyrh9HH/z3HPPae7cuYZb1EnSqVOn9Pbbb+vtt98u8pohISGaOXOmypcvb1VMv5OXl6ft27cXGA8JCTHcytQVVhV4HT16tMCWnBRgAQDgGrYgBAAAAAAAAADADw0bNkxfffWVypYta+m6TZo00S+//KJmzZpZuq6/qFGjhlatWuWRreKeeOIJh/P169dXz549LT9uoPDk995ZFSpU0JIlS/TUU0+5tU50dLTWr1+vxo0bS5JpB7TQ0FC3juOPwsPDNW/ePNWuXduS9cqUKaMvv/xSvXv3tmQ9f7Vv3z6lp6cXGG/evLlljxOrCrCM1qEACwAA11CABQAAAAAAAACAnxo8eLB+++033XjjjW6vFRwcrOHDh2vjxo1/FJP4QlRUlEe63wQFBelvf/ubtm7dqlatWlm+vmQvoOjUqZPp/GOPPabgYP996SWQv/euCA0N1eTJk7VmzRqH581I3bp1NWXKFK1duzbflpLJycmGt69UqZJbWf1VnTp1tGHDBnXs2NGtdRo0aKAVK1Zo0KBBFiXzX2adCa0sbLLqGBRgAQBgHf/9VwAAAAAAAAAAAFDLli21fv16zZ49W9HR0U7fv2zZsho0aJC2bdumjz/+WBERER5IWXR33nmnzp49q6VLl+rpp5/W9ddf71bRUkREhB588EH99ttv+vLLL1WjRg0L0xZ0//33G46HhIRoyJAhHj22uwL9e++qm2++WbGxsdq1a5def/113X777apdu7ZCQkIk2c9d1apVdfPNN2vEiBH66aefFBcXpyeffDLf98dmsxXYru0yf/3arVCrVi3Fxsbqww8/VL169Zy6b82aNTVu3Djt2bPH7SKuQGFVdyozaWlpOnjwYIHx8PBwNW3a1Km1rs5atWpV1a1b1618AACUVCG+DgAAAAAAAAAAgDfYbDaPrj9mzBiNGTPGI2sHBwfrnnvu0T333KODBw/qp59+0rp16/T7778rPj5eqampysrKUlhYmCpXrqwGDRqoZcuWuvXWW3XHHXcoMjLSI7lcVaZMGXXr1k3dunWTJKWmpmrDhg3asmWLDh48qEOHDunYsWO6cOGC0tLSlJmZqXLlyikyMlIVK1ZU48aN1apVK7Vt21ZdunRRWFiY17LHxsYajvft2zcginAC+XvvrhYtWqhFixb5xrKzs1W6dOki3X///v1KTU0tMF69enWnvw+B9vMoJCREI0eO1PDhw7V06VKtWLFCa9eu1cmTJ3X27FllZGSoXLlyqlKliho1aqQbbrhBt99+u2JiYgy/v7feeqvh97JUqVJOZzO7Jn3l/fff1/vvv++x9cuXL6/c3FxL1rq6AIvuVwAAuI4CLAAAAAAAAAAAAsi1116rESNGaMSIET7LYHXBQ0REhLp27aquXbtauq7Vzp07p++//95wbtiwYV5OYw1/+N77soCmqMVXkrR+/XrD8auLuoqz0qVLq1evXurVq5db65QqVcoj22Gi6BITE5WYmJhvjAIsAABcRwEWAAAAAABAMZCeLn35pXTihBQRIT38sFS9uq9TAQBQvHz11VfKzMwsMH7ttdf6ffEY3Dd37lzD8fbt23s5CeA+o60SW7du7YMkAAAUDxRgAQAAAAAg6eRJ6dQpe+HKX/7i6zSAczZtku64Qzpz5s+xsWOl//xH+utffZcLAIDixGaz6ZNPPjGce/zxxxUUFOTlRPCmw4cPa8GCBYZznTt39nIawH1GBVh0wAIAwHXBvg4AAAAAAIAvJSdLDz0k1a0r3XCDdM019kKWgwd9nQwomvPnpf798xdfSdKlS9KQIdL27b7JBQBAcfPTTz9p//79BcZDQ0P18MMP+yARvOnFF19UXl5egfHKlSsrJibG+4EAN11dgFWhQgVdc801PkoDAEDgowALAAAAAFBi5eXZuwN9+aWUm/vn+OLFUp8+UkqK77IBRfXzz9Lx48ZzmZnSrFnezQMAQHE1btw4w/H77rtPVatW9XIaeNNnn32mOXPmGM4NGjRIZcqU8XIiwH1XF2DdcMMNdPIDAMANFGABAAAAAEqsFSukRYuM5/btk6ZN824ewBVvv+14/q23vJMDAIDibMaMGVq/fr3h3HPPPeflNChMbm6uhg4dqri4OLfXeu+99/Tkk08azoWEhGjUqFFuHwPwtnPnzuno0aP5xth+EAAA91CABQAAAAAosRYscDw/d653cgDu2LzZ1wkAACjetm7dqhEjRhjO9e3bVy1btvRyIhTGZrNp6tSpaty4se6//34tWrRI2dnZTq2xYcMG9e7dW6NGjVLule1yrzBy5Eg1aNDAgsSAd13d/UqiAAsAAHeF+DoAAAAAAAC+8uGHjud//dU7OQAAAOBbWVlZysvL++Pz9PR0HThwQHPnztXkyZN16dKlAvcJDg7WG2+84c2YcFJubq5mzZqlWbNmqVKlSurWrZvatWunNm3aqHbt2qpUqZLKlSunlJQUnT9/XkePHtUvv/yiFStWaMOGDQ7XbtasmV5//XUvfSWAtSjAAgDAehRgAQAAAAAAAACAEq179+5atWqVU/d56qmndN1113koEax2/vx5zZkzR3PmzHF7rRo1amjevHkqV66cBckA79u6dWu+z8PDw9WkSRMfpQEAoHhgC0IAAAAAAAAAAAAnNG3aVBMmTPB1DPhAo0aNtGrVKl177bW+jgK47JtvvpHNZvvjIz09XaVKlfJ1LAAAAhoFWAAAAAAAAAAAAEVUu3ZtLViwQOHh4b6OAi8qVaqUhg4dqs2bN6tx48a+jgMAAAA/QwEWAAAAAAAAAABAEQwYMECbN2/WNddc4+socCAkJETr16/X888/7/a5ioiI0GOPPaYdO3bo008/VUREhEUpAQAAUJyE+DoAAAAAAAAAAACAvwkNDVXFihXVqFEjdezYUYMHD1aLFi18HQtFFB0drejoaE2cOFEnTpzQunXrtGnTJh0+fFhHjx5VQkKC0tLSdPHiRWVnZ6tMmTIqX768atasqYYNG+qGG25Qx44dFRMTozJlyvj6ywEAAICfowALAAAAAAAAAACUaLGxsV49Xl6edOaMdPasZLNJZctKNWpI7GroGbVr19Zdd92lu+66y9dRAAAAUExRgAUAAAAAAAAAAOAlNpt04ICUmvrn2MWL0rlzUuPGUmSk77IBAAAAcE2wrwMAAAAAAAAAAACUFImJ+YuvrhQXJ+XmejcPAAAAAPdRgAUAAAAAAAAAAOAlKSnmczk59m5YAAAAAAILBVgAAAAAAAAAAABeYtb96rKTJ72TAwAAAIB1KMACAAAAAAAAAADwE9nZvk4AAAAAwFkUYAEAAAAAAAAAAAAAAACAiyjAAgAAAAAAAAAAAAAAAAAXUYAFAAAAAAAAAAAAAAAAAC6iAAsAAAAAAAAAAAAAAAAAXEQBFgAAXrJxo9S7txQebv+46y5p505fpwIAAAAAAAAAAAAAuCPE1wEAACgJtmyRbrtNunTpz7H//U9atsxemNW4se+yAQAAAAAAAAAAAABcRwcsAAC84OGH8xdfXZaSIg0b5v08AAAAAAAAAAAAAABrUIAFAICHnT0r7dhhPr92rZSZ6b08AAAAAAAAAAAAAADrUIAFAICH/fCD4/nMTGndOu9kAQAAAAAAAAAAAABYK8TXAQAAKO6ysgq/TW6u53MAAAAAgL+w2aTz56WMDCkoSKpcWSpb1tepAAAAAAAAXEMBFgAAAAAAAACvyc6W9u+3F19dlpAg1awp1a7tu1wAipfcXOnMGfsb44KDpapVpdBQX6cCAAAAUFxRgAUAAIASLSNDSkuzd1yIiPB1GgAAgOLNZpPi4vIXX1128qQUFmbvhgUURVCQrxPAX6Wn2ws9r+w4npgo1asnVavmu1wAAAAAiq9gXwcAAAAAfCEjQ3rpJal6dSkqyv5C35Ah9j/KAwAAwDMyM6XUVPP5M2e8lwVA8ZSTIx06lL/4SrIXgB47Zi/OAgAAAACrUYAFFCM2m02dOnVSUFCQ4ceYMWN8HREAAL9gs0nDhkkTJvz5AmBOjjR9utSvn/2FQQAAAFjv7FnH8ykp3skBoPhKTbVvO2jEZpPOnfNuHgAAAAAlAwVYQDHy6aefavXq1b6OAQCA31uzRvrqK+O5336zF2IBAADAeo66XwGAFQrrapyU5J0cAAAAAEoWCrCAYuL48eN68cUXfR0DgItyc6VZs6SOHaUWLaSuXaWFC+3vzARgvVWrHM+vXOmdHAAABILjx6Wnn5ZatrR/vPiidOqUr1MBAGCMLQYBAAAA+EKIrwMAsMawYcOUQp9+IGA984y0d++fn+/ZI61YIb31lvTCC77LBRRXr7zieP7bb72TAwAAf3f4sNSuXf7tmnbulL7+Wtq8Wape3XfZAAAAAAAAAH9BByygGJg5c6YWLlz4x+dBQUE+TAPAFVcWX11p9Ghp+3bvZgEAAAAue+ih/MVXl504IQ0f7vU4AAAAAAAAgF+iAAsIcKdPn9YzzzyTb2w4fwUHig2bTVq+3NcpAAAAUBKlpkq//mo+v2yZfSttAAAAAAAAoKSjAAsIcCNHjtSZM2f++LxWrVqaMGGCDxMBsNqoUb5OAAAAAH+RlyfNmyf16SPdfrv0+OOeO9a8efbjmUlLkzZu9NzxAQAAAAAAgEAR4usAAFy3YMECzZo1K9/Y5MmTFRkZ6aNEAAAAJdeRI1JGhlS9ulS5sq/TACiObDbp0Uelzz//c8yT3VJTUgq/TUaG544PAAAAAAAABAo6YAEBKiUllA53wQAAIABJREFURcOGDcs31rdvXw0YMMBHiQAAAEqm3bulbt2khg2l5s2lOnWkZ56RMjN9nQxAcfPNN/mLrwAAAAAAAAD4BzpgAQHq+eef14kTJ/74PCIiQlOmTPFhIgAAgJLnzBnpzjulY8f+HMvIkD780L4117//LQUF+S4fgOJl3jxfJwAAAAAAAABghA5YQABatWqV/v3vf+cbGz9+vOrUqeOjRAAAACXT++/nL7660rRp0q5d3s0DoHibPdvXCQD/YrNJublSXp6vkwAAAAAAgJKODlhAgMnIyNCjjz4qm832x1h0dLSefPJJH6YCAAAomX780fH8kiXS9dd7JwsAACWFzSadPi0lJkpZWfaxypWl2rWl0FDfZgMAAAAAACUTHbCAAPPqq6/q4MGDf3weEhKiqVOnKjiYyxkAAMDbdu92PP/CC97JAQBASZKYaO9Aebn4SpLOnZP275dycnyXCwAAAAAAlFxUbAABZNOmTXr//ffzjf39739Xy5YtfZQIAAAAAICS5/RpaetWae9eezcmeE9WlnTihPFcZqa9OAsAAAAAAMDbKMACAkR2draGDBmi3NzcP8auueYavfrqqz5MBQAAAABAyZGZKY0YIdWtK7VpIzVvLt18s7R5s6+TlRxpae7NAwBQ0qSlSUeOSHFxUkKClJ3t60QAAADFU4ivAwAomrfeeks7duzIN/bpp58qLCzMR4kAAAAAAN5y5IivE8Bmk556SvrPf/KPr18v9eplL8KqXds32UqS+HjH8xRgAQDwp/h4KSkp/1hiotSkiVSunG8yAQAAFFcUYAEBYO/evRo/fny+scGDB+v222/3UaKiW7dunVv337lzp0VJAAAAACAwJSZKHTv6OgX27y9YfHVZUpI0aZL03nvezQQAAGDm3LmCxVeSlJcnHToktWghlSrl/VwAAADFFQVYgJ/Ly8vTkCFDlJmZ+cdYlSpV9F6A/FX35ptv9nUEAAAAAAhozz5r3y4GvvXTT47nZ82iAAvwRzabrxMAgG+cP28+l5UlpadLkZHeywMAAFDcBfs6AADHJk+eXKCL1KRJk1S1alUfJQIAAAAAeIvNJi1f7usUkKRx4xzPnzzpnRwA4C9iYmIUFBRU4CM2NtbX0eAhGzdu1IQJE9S/f381bdpUNWrUUFhYmOHjoF+/fr6OW+I5KsCS7F1WA4nNZi8cy8y0d/GyCj/L4I5AfPzUqlXLMPNJ/kEDAG6jAxbgx44cOaKXX34531jXrl314IMP+igRAAAAAMCbEhKk06d9nQIAAJRkCxcu1NixY7Vx40ZfR4GFLl70dYKiS0uT4uPtXbskqXRpqUYNKSpKCgrybTYgkCQlJRkWWtWsWVM1a9b0QSIAKF4owAL82NChQ5V++V8UksqWLatPP/3Uh4kAAAAAAN5k5bv7AQAAnJGXl6dRo0bpgw8+8HUUlGAZGdL+/fl/L87OthdkBQXZi7AAFM3mzZsNx9u2bevlJABQPFGABfipL774QkuXLs039s9//lPXXnutjxK5Zu3atW7df+fOnRo6dKhFaQAAAAAAAAAARfHqq69SfAWfO3HC/E0J8fFS1apScLB3MwGBigIsAPAsCrAAP5SUlKTnnnsu39h1112n559/3keJXNehQwdfRwAAAIAfOnHC/q7lqCgpPNzXaQAAAABcae3atXrzzTd9HQMlnM0mXbjgeD49XYqI8F4mIJBt2bLFcJwCLACwBjXhgB968skndf78+T8+Dw4O1r///W+VLl3ah6kAuMpm83UCAAD8x9atUteuUp06UsOGUr160oQJbLMGAAAA+JOJEyfKZvJHrfvuu08//vijDh8+rAsXLigjI6PAx7fffuvlxCiObLbC/7Z6+rR3sgDFAR2wAMCz6IAF+Jnvv/9e//vf//KNDR8+XDfddJOPEgEAAADWOH5c6tlTOnXqz7GzZ6WXXpJycqR//tN32QAAAADYnTp1SvPnzzecmz59uh5++GEvJwIAuOvMmTOKj48vMF6jRg3VqlXLB4kAoPihAxbgR5KTk/Xkk0/mG6tduzatngHAg5KTpaQkKSPD10kAoPgbNy5/8dWVXnuNdy4DxVVqqvTuu9Ldd0v33ivNmSPl5vo6FQAAMLN27VrlGbSojY6OpvgKAAIU3a8AwPPogAX4kVWrVunkyZP5xh588EHt2bPHkvWPHz+u9evXFxhv3ry5IiMjLTkGAASKY8ekF1+UZs+2b3tVoYI0YoS9+0qZMr5OBwDF08KF5nM2m7RqlXTXXd7LA8Dzjh+X2reXrvyn7pw59q1If/pJKl3ad9kAAO6JjY31dQR4yG+//WY43qdPHy8nATyPn2UoKbZs2WI4TgEWAFiHAizAj9gMNjN/8803LeuANW3aNE2bNq3A+MqVKxUTE2PJMQAgEKSlSb16Sbt2/Tl24YL0xhvSuXPSRx/5LhtQ0s2dK40fL+3bZy+GfOghe7Fk9eq+TgYrnDjheH7CBAqwgOLmvvvyF19dtny59Prr9s54AIDiITPT3u00N1cKCZGqVZNCQ32dCq5ISEgwHG/atKmXkwAArEIHLADwPLYgBAAAJc6UKfmLr6708cfS9u3ezQPAbto0aeBAacsW6eJF+xahH3wgde8upaf7Oh0AwFmJidKaNebz//uf97IAADzr7Flp504pKUk6c8b+HLBrl/1NTgg8ycnJhuMVKlTwchIAgFXogAUAnkcBFgAAKHFWrHA8T+dxwPvOnZOeeMJ4bscOe2ckAEBgmTnT8fzevfYupACAwJaRIR05UnDcZrOPX7rk7URwV2pqquF4SAibqgBAIDp//rwOHz5cYLx69eqqXbu2DxIBQPFEARYAAChxli1zPP/MM97JAeBP69ZJWVnm8xRGAkDgiYsr/DaOfvYDAAJDcrK92MpIXh7FtoEoLy/P1xFKrNxcKSHB/kakbdukPXuk8+fNrzEAKAq6XwGAd/B2BcCP9OvXTzaL/iUVFBRUYOy1117TmDFjLFkfAADASi+95Hje0RZWAAAAgKecPn1a8+bN0/Lly7Vr1y6dOHFCKSkpKleunKpVq6bq1avr5ptvVs+ePXXLLbeoTJkyXskVFxenxYsXa+3atfr999917NgxpaamKisrS+Hh4apUqZIaNmyoli1b6tZbb1XPnj0VERHhkSwnTjiej4+Xqld3bs0DBw5o+fLl2rZtm3bs2KGkpCRduHBBKSkpCgoKUlhYmMLDw1W5cmXVq1dP9evXV9OmTRUdHa28vNYqUybU9S+oEPv27dPy5cu1bt067d+//4/v/aVLlxQWFqbKlSurYcOGat26tTp37qwePXqobNmyHsvjjpycHOXk5BQYNyvAysrK0qUitDQLDQ01/Pu0s+Lj4/XTTz/pl19+0b59+/74Xufk5KhatWpq1KiRJk2a5FYBgT+dz7w86eBB6coGZDk50vLl+3Tw4HLt2uX7jJ5kdt1fuGC/7kNDw1S2bLgiIyurRo16qlmzvurXb6qbb45W7dqtFRrqueveXXFxcfrhhx+0atUq7d27V4mJibp48eIfP68bN26sNm3aqHfv3rrlllsMr5/Tp08rMzOzwHi1atU8/rUX9lxYrlx1tWx5szp06KkbbrhFpUt77rkwOztbGzdu1KZNm7R3717t27dP8fHxSklJUUpKinJzc/+4LurUqaMWLVqoffv26tGjh+rUqeOxXP5u8+bNhuOOfn5u375dCxcu1IYNG7Rnzx6dPn1aaWlpKl++vKpUqaLrr79enTp10v3336/qzj7RA0AxRQEWAAAAAJ8z2eECAAAAsJRZUcjVb4o8fvy4xowZoxkzZijLoF2fvSjggg4ePKg1a9bonXfeUd26dfXGG29o8ODBlhSfXC0vL09z587VpEmTtH79etPbpaamKjU1VceOHdOqVas0efJklS1bVgMHDtSLL76o6667zvJsVsjLy9MXX3yhqVOn6rfffnN426ysLF24cEEnT57U7t27882VLl1Gbdp0Uteud6tz5wGqWLGK29kyMzP1xRdf6KOPPtLOnTtNb5eenq709HTFx8dr9erV+vDDDxUZGamHH35Y//jHP1SrVi23s1jpjTfe0NixY4t8+x49ehTpdocPH1aDBg0KjBf1+tu4caPGjRunhQsXmhaDJSQkKCEhQfHx8U4XYPnr+Tx9+s9/G2dlZWrBgi/07bcf6eBB1zL26PEPVavmX4+5qzlz3WdnZykt7YLOnDmpuLg/r/v33pPKlCmjTp066e6779aAAQNUpYr7170Vtm7dqpdfflmLFy82fPP9lT+vf/75Z02cOFFNmjTR6NGj9eCDD+a77d13361Vq1YVWGPlypWKiYlxKpczz4WvvjpGM2c6fi6UDmr79jWaMeMdVa9eV8OHv6E777TuufDEiRP69ttvtWjRIq1du1bp6ekOb3/5+3r06FGtWbNGU6dOlSTddttteuaZZ9S/f39LcgUSsw5Y7dq1y/d5ZmamPv/8c02ZMqXA8+tlycnJSk5O1qFDh/TDDz9o9OjRevzxx/XWW28pLCzM8uwAEEjYghAAAAAAUKJkZEhvvilFRfk6CQAA8EfTp09X8+bNNW3aNMMXnM3Ex8frwQcfVExMzP9/Qdo6O3fuVIcOHXT33Xc7LL4yc+nSJc2cOVOtWrXSU089pVQL3gERExOjoKAg3Xhj/o/Nm2OdXmvz5s1q3769hgwZUmgRRmGys7P022/L9Oabj2vatHFurSVJc+fOVaNGjTRs2DCHxTpmUlJS9OGHH6pJkyaaPHmy23mKs+zsbI0cOVI33XST5s+f75GtEP35fF6+LFesmKsBAxppwoRhDouvCst4111NNHu2/z7mrLzus7KytGzZMj3++OMaN8656/7yz7KrP2JjY13Ok5OTo9GjR6tdu3b66aefnNr55Pfff9dDDz2krl276tSpUy5ncNf06dPVrFlzff65c8+FSUnxGjPmQQ0dGqO0NPeeC3fu3Klbb71VdevW1bPPPqtly5YVWnzlyOrVqzVgwADdcsstOnjwoFvZAk1ROmB9++23atq0qYYPH25afGXk0qVL+te//qUOHTro5MmTbmcFgEBGARYAAAAAoMSw2aTHH5deftn+DnMAAIArjRo1SkOGDHGrQGn16tWKiYnRaYt+2Zg5c6bat2+vDRs2uL1WXl6ePvroI0VHR+vAgQMWpHPfsmXLdNttt5m+OOwrly5d0pAhQzRw4EDFx8e7vV5aWppGjhype++9V1lZBbcRK+nS0tJ0++23a/LkyR4pvPLk+TTaFs4VSUmXNG7cEL3wwkAlJbmf8eLFNL377kiNHu1/jzl/ve6tkJ6erj59+uitt95y67G8YsUKdejQQYcPH7YwXdFcfi5MS3P9uXDr1tUaOjRG58+7/lz4+++/69dff3WqgK0o1qxZozZt2mj58uWWruuvUlJSdOjQoQLj1atXV+3atZWWlqYHHnhA99xzj44cOeLycbZv367+/ftb9jMRAAIRBVgAAAAAgBJj2TLp66+tWSspSVq8WFqyRHLjTbgAAMBPvPDCC3rvvfcsWWvbtm0aMmSI2+t89tlnGjx4sC5dumRBqj/t3btXt956q/bt22fpus7atGmT+vTpo4sXL/o0x9XS0tLUvXt3TZ8+3fK158yZo+ef76/s7KJ3lCnucnJyNGDAAK1evdoj63v6fPbv39+pDkFG0tLSNGJEd82bZ33Gn3/2r8ecv173VsjOztaAAQO0ePFiS9aLi4vTnXfeqeTkZEvWk6TsbMfzVj4X7t+/TePGuf9c6Ampqanq1auX1q5d6+soHrdlyxbDIra2bdvq1KlTiomJ0cyZMy051m+//aZJkyZZshYABKIQXwcAAAAAABR/Bm+29IlVq9xfw2aTXnhBmjxZuvxaaNWq0oQJ0qOPur8+AADwvpkzZ2rixIn5xkJCQnTnnXeqZ8+eat++vaKiolSxYkWdO3dOcXFxWrx4saZPn64zZ84Yrjl//nx98803uv/++13KNH/+fA0fPtxh548bbrhB9913n2677TbVqlVLFStWVGJioo4dO6b58+drzpw5SkpKMrxvUlKSunfvri1btqhq1aouZXRHbm6uHn/8cdNOGaVLl9Ydd9yhbt26qUWLFmrYsKHKly+vsLAwpaenKyUlRWfPntWePXu0c+dObdiwQevXr1dubq5bubKzs9W7d2/98ssvprcpVy5Ct93WV+3adVaTJm3UqFEVNWtWUcnJyUpISFBsbKy+//57023V1q79Se+8M0IvvfSZW1mLi/Hjx2vZsmX5xkqVKqVu3bqpV69eio6OVlRUlKpUqaKMjAwdOXJE69evL1LBQFHOZ0REhPr27avOnTurTZs2qlKliipWLPr5/OmnnzRixAh99plr5/Nyxq1bC3/M3XWXaxmdeczl5UnnzklpafbPK1aUKlSQgoJc+vLycfa6r1+/oeLiyis0NEwZGelKT0/RhQtnFRe3R4cO7dTu3Ru0a5f7171VnnvuOS1dutR0PiIiQn369FH//v3VpEkT1axZUzabTSdPntTvv/+u77//XvPnz1fa5W++pH379umJJ56wJF9SknTihPm80XNhqVIh6tjxTnXo0FMtWrRXpUpRioioqKCgc8rNtT8XTp06XcnJxs+Fv/wyX0uWfKN27Vx7LrxamTJldPPNN6t169Zq1aqVmjZtqkqVKqlixYoKDw9XamqqkpOTtXv3bm3atEnfffedYfcnScrMzNTAgQO1e/duVa5c2ZJ8/mjLli2G440aNVK3bt20Y8eOfONRUVHq1auXevTooWbNmikqKkrh4eE6d+6ctm7dqtmzZ+u7774zve7ee+89PfvsswoLC7P8awEAf0cBFgAAAADAo956y77lnz94803315gwQXrnnfxjZ87YtzasVUu68073jwEAALxr2LBh+T7v16+fJk6cqEaNGhW4bUREhOrXr6/OnTtr9OjReuqpp0wLQV5++WXdd999CnKycuH48eMaPHiwafFV9erV9fHHH2vAgAEF5ipUqKAmTZqoW7dueuedd/Tqq69q0qRJhi+UxsfH64EHHrCsW4sz5s6dq61btxrODRw4UB988IHq1KljOF+uXDlFRUXp2muvVXR09B/j586d08cfL9aCBV9ow4afXcr11FNPaZVJ1X5oaFk9+OBo3XffSEVEVMw3FxFhf2zUrVtX0dHReuGFFzR//nw9/fTThluIff/9VEVHd1PXrne5lNMKY8aM0ZgxYwqMx8TEGH4PVq5cqZiYGMtzvPHGG/k+79Kliz788ENdd911BW5bvnx5VatWTTfeeKNGjBhR6FZXjs5n2bJlNXr0aI0cOVIVK1YsMO/M+Zw6daq6deumu+5y/nw685hr1871jEV5zOXkSPv2/flGE8n+b53ISKlRI/eLsJy97i8Xg0lSWFg5Va4cpbp1r9V11/153QcHn9O+fYv1xRdf6OefXbvurbB48WJNmTLFdP7ee+/Vhx9+qOrVqxeYq1atmlq2bKm7775biYmJGjlypL799ts/5r/55htFRES4lS85WSps982rnwtjYvppxIiJqlev4HNhUFCE2ra1Pxf27DlaEyc+pcWLjZ8LP/74Zb30kvPPhZeFhISob9++GjhwoHr16qXIyEjT25YvX141a9ZUs2bNdNddd2nChAlasmSJRowYoYMHDxa4fWJiokaPHu1yAWUgMNvq8/PPv1BKyoU/Pq9cuZoeeeRF3X//cNWtG6YqVaTgK/bSioyMVIMGDdS/f3+tW7dO/fr106lTpwqse/bsWf3yyy/q3r275V8LAPg7tiAEAAAAAHjMTz9Jo0fb/3BeHGRnS+PHG8/ZbNK4cd7NAwAArHFlt5GxY8fq+++/Nyy+ulrFihU1Y8YMPfDAA4bzhw8f1sqVK53OM2LECF24cMFwrlmzZtqxY4dh8dXVQkND9fbbb2vhwoUqU6aM4W2WLFli2dZDzvjuu+8Mxx988EF99913psVXjlSuXFk9ew7SlClLNWfOHnXs6Fxl/KJFizR16lTDuVq1GmratLV67LFXCxRfmenTp4/Wr1+vtm3bGs6/++5IZWSwl3VOTs4f/z98+HD9/PPPhsVXRkJDQ03nHJ3Phg0bau3atXr11VcNi6+MFHY+R44cqXQn9yb3t8fckSP5i68uS0mREhKKFMEhT1z3FStW1qBBg7R06VLt2bNHd/rgHTHZ2dkaOXKk6fzbb7+tWbNmGRZfXa1GjRqaM2eO3rzq3UOpqaluZTRphpjPlc+Fjz8+Vu+8871h8dXVIiIq6vXXZ+iOO4yfCxMSXHsuLF++vJ5++mkdPHhQ3333ne6//36HxVdGgoKC1LNnT+3YsUN9+/Y1vM306dN15MgRp/MFCrMOWFcWX7VtG6P//nen7r33OeXlhenoUSkuzv53DiMdOnTQjz/+aFpU56ktZQHA31GABQAAip3sbOm//7V3OfngA+n0aV8nAoCS66uvfJ3AWr/+Kl28aD6/fr3k5GsuAOBQVpb9504hDT4AWOSVV17Rq6++6tR9goKCNGXKFNWoUcNw/osvvnBqvfXr1+uHH34wnKtbt66WLVumqKgop9bs0aOHvv76a9MXSl955ZV8RTDeYPRifFhYmD744ANL1m/QoKluuqno3Teys7P11FNPGc5VqVJDn30WqyZNWjudIyoqSkuXLjUsLDlz5qS+++5jp9csrgYPHqyPP/7Y5S45V3J0PmvUqKHY2Fi1bm3t+Tx58qQ+/rjo59PTj7moKOcec7m59i5JZi53onKHp6/7pk2b+qTrzowZM3TgwAHDuRdffFH/+Mc/nF5z9OjRGjVqlLvRJNmLaJyp33rllVf02GPOPxf+4x9TVKWKNc+FktSzZ0998MEHql+/vtP3vVpYWJjmzJmjW265pcBcTk6Opk2b5vYx/FF6err279/v8Da9ej2ojz76WVWq5C8QTE62d8Azc9NNN5kWtcUX1m4NAIoptiAEiqnXXnutwJgn2kMDgD9q3Fg6ceLPz19+WfrkE+lvf/NdJgAoqWbN8nUCay1dWvhtEhOla67xfBYAxVtOjnTsWP4XOytWlOrWlRw0+8jv0iXp0CGP5HNVmTiprINCVklSmPlU6EGpVGE1Ig7ujyK45hqpbFlfp/CJm2++2XA7tqKoUKGCnnnmGb344osF5tasWePUWm+//bbp3KeffqratWs7nU+S7r77bi1YsEBfGVTIHzlyRLNmzTLt5GW17OxsnTF4Vbdjx45F7kZktenTpxtu2xYcHKx33vleNWrUc3ntypUr66uvvlKXLl0KzM2ePVl//esoBQeX7PfL16xZU//6178sW8/R+fz+++9Vr55nzufkyZM1alTRzqenH3Njx36l4cPNH3NX92g4f97xmpmZ9sJwk2Z6hfLH694qZgVkTZo00dixY11ed/z48frxxx8Nt85zhlkXIyOXnwtNdop0qHz5Crr//mc0ZYr7z4WeUKZMGX366adq1apVgW15Z8+erXHFsKX11q1bleegJfltt/2f/vnPaSpVqpThfEqKVK2a+fo9e/Y0LBo/e/as01kBoDigAAsoplz9YxEAFAdXFl9J9o4Bjz0mNW8utWvnm0wAAABAUdls9rqpqzsVJCfbX/hs0kQyeY0kv0OHpCJu4eQtf3Hz/k0tSQGHdu2SWrTwdQqfGD9+vOkLkEUxaNAgwwKsuLg4JScnF6nA4PTp01q4cKHhXJ8+fdzeWmvixIn64YcflJKSUmBu+vTpXivAOnPmjGwGFQHVHL3K62GTJ082HH/ggQd0/fU3ub1+586d1alTJ61atSrfeFJSvDZuXKHo6NvdPkYge+211ywtwnF0Pm+6yXPnMz4+XitWrNDttxd+Ps0y3nGHNY+5du06q02bTtqyxfgx17Fj/oxF6bZ5Vc2KU/zxurfCjh07tHPnTsO5SZMmmW7/WhShoaF699131a9fP6fuZ7PZOzPn5EghIVJ4eNHv6+5zYY8egwwLsJx5LvSkFi1aqFOnTlqxYkW+8QMHDujYsWNuFWf6o82bN5vO1axZX2+88V+H57uwwkyzbUPdeQwBQCAr2W+pAAAAJUZWlvTll75OAQAAgEBlwW5IRXbhgvk2MRcvWrMFEID8WrVq5Xb3+Lp165q+cLtt27YirTFv3jxlZ2cbzj377LMuZ7usevXq+utf/2o4t2rVKq91rAg3qQY4duyYV45/tU2bNmn37t2Gc0Y7DbhqxIgRhuNr1y6y7BiBKDw8XIMGDbJsPV+fz0WLCj+fjjI++qh1Ge+9138ec/523Vtl3rx5huO1a9fWHXfc4fb6vXv3Vs2aNYt8+0uXpH377B8HD9r/u3dv0e5rxXNhjRp1Tbu3FfW50NPMzoujYqVAtWXLFtO50aM/U1hYObfWN9u+2NeFdgDgKxRgAQBQDNhs0sKFUufOUtOmUnS09NVX9nc54U9Tpvg6AQAA8Be5udLq1dKyZX63Qxug5GT35gE4r1evXpas07JlS8PxpKSkIt1/2bJlhuP16tVz+0Xxy/72t78Zjufl5Wn58uWWHKMwFSpUUFmDrS7XrVtn2knGk+bPn284fuONN+ovf3G3d9+funTpoiCDit7Nm2MtO0Yg6t27tyIiIixbz9fnMzY2ttD7mmVs3vxG1aljXcZ27fznMedv171Vru6kdNmgQYMs2Vq0VKlSRS5QzM21F12lp+cfz8go2rGsei689lr3ngs9zaxY2qwoMpCZFZVFR3dThw493F4/Pj7ecDwqKsrttQEgEFGABQBAMfDuu1Lv3lJsrPT779KGDdKDD0pPPOHrZAAAoDhbv96+ze/gwdLYsdKZM75OVDQrV9q3Ju7USereXWrcWBo0qOALFWYOHZKeflq6915p6FBpxw7P5kXJU9i1dOGCd3IAJcmtt95qyTq1atUyHL9QxAv3t99+Mxzv06ePYRHgOqkyAAAgAElEQVSFK2666SbTbiobNmyw5BhF0aFDhwJjeXl56tevn/YWtV2LRVauXGk43rdvX0uPU6lSJTVtWnAz1bi43crJMe58VhK0b9/e0vV8fT53795t2snuMrOMnTpZmzEyspIaNDB+zBWW0RP86bq3ytatWw3HO3XqZNkxirrW+fP2Dliusuq5sFo1954LPa1q1aqG48ePH/dyEs/KyMjQvn37DOfuu+9pS45x4MABw/HGjRs7vda6desUFBSU72Pq1KnuRgQAr6IACwDgkoQE6e9/l26/XerZ0761mw/+zQ5Ju3dLL75oPPfvf0smb6gDAABwWlKSvdB7+3b774IdOkj/+Y/09dfSmDFSgwbSpk2+TunYgQNS//7S/v1/juXlSd98Iw0ZYu8s6si339oLtv71L2nOHGnqVKlVK/vnAIDA5coLhUYiIyMNx4vyonNaWpqOHj1qONemTRu3cl2tdevWhuM7vFhVbFYMExcXp1atWumxxx7Txo0bPZ7DZrOZbovVqlUry49nVKSXnZ2lhIQjlh8rULRr186ytfzhfGZlZenIkSOm93GUsVEj6zNWreo/jzl/ue6tcuLECSWbtCY1+znriM1m32o6KUk6fdre0cqZtdx9Q4xVz4Xlyrn+XFgUmZmZWrFihd5//3098sgjuummm9SkSRPVrFlT5cuXL1DEc/VH165dDdc9deqUJfn8xfbt25V7+UF0hWrVaqljxzstOcaePXsMx5s0aeL0WkbbJbpyHQGAL1GABQBw2s6d9hedJk2Sli+XliyRHnrIXojFlnfe9/PP9hcNzSxd6r0sAACgeLp0SRo+XKpXz77V8Q032H8XvFp6ujRgQNE7SfnC+++bdw+aPdveTdTM4cP233uNfvd67jkpgF4rAgBcpVKlSpasU65cOcPxixcvFnrfI0eOyGZSCWx1AZbZeo6KRqz22GOPqXr16oZz2dnZ+s9//qP27durfv36euKJJzR79mydPHnS8hzx8fFKTU01nDPqbuSuKlWqGI6fPn3C8mMFCrPtwFzhL+fzxAnz8+koo1G3qsLYbPbOR4cP2z/OnMn/+2qFCv7zmHPluj9zxvrr3ipmHZMqVapk2hHRTEaGtGuXFBcnxcdLR4/aO+0mJ0t16tRRhQoVCl0jLc2pQxZg1XNhWJjrz4WOxMbG6pFHHlGNGjXUtWtXPffcc/r888/122+/af/+/UpMTFS6G/8YdTefvzHbfrB9+9st66ppVrjdvHlzp9e6ugArJCTEdGtnAPBXIb4OAAAILHl55i+qrVghvfWW9Mor3s9Vkj3zjOP5KVOkyZO9kwUAABQ/Npv05JPS9OlFu318vH1rQpM3Ffvcp586np87V3rpJeO5JUsks7/J5+ZKP/4o3Xije/kAAL5RsWJFj65vVlh1pYSEBNO5unXrWhnHtODFUQarhYeH68svv1SvXr0MO3RcduzYMX3yySf65JNPJEn169dXhw4ddNtttykmJkbNmjVzK0d8fLzpXKNGjdxa2xkpKedN57KyspTn6N13RRAcHKwyZcq4tYanmHWOc4W/nM/z583Pp6OMAwb4x2POU1y97mvWrK/rr++g1q1vU9u2MWrY0L3r3ipJSUmG45UrV3Zqndxc+zbnmZkFx+PipGbN7Gt6egs/f3guNHLo0CE988wzWrBggcWJ8su8+gQEOKOOUpK9AMsKJ06cMOwaVrduXdNtHh25Om/z5s0VGhrqcj4A8AU6YAEAnLJ3r3TwoPn8vHneywIAAADPO3Cg6MVXl02c6JksVijsb/6OCtdHjXJ83/Hjnc8DAPAPVnWCcIejF9atLFCRZNpJJT093WFRhNV69OihGTNmKCwsrMj3OXr0qGbNmqUnnnhCzZs3V82aNTVixAitW7fOpQynT5926X5Wy8zMMJ3r3r27wsLC3Pro3r27F78a5xSls09R+cv5zMgwP5/+ktHRY86TXLnuT548qqVLZ+ntt5/QPfc0V8+eNfXOOyO0Y4dr171VzDomOfszOzXV3nXYSF6efVtCK68TM/7wXHi1//73v7ruuus8XnwluV4g5q/MOmBdf30Hj67vStfOrKws7d692+11AMDX6IAFAHDKRx85nmfbFQAAgOJl4ULn77N+vfU5/EEx25ECJcE119j3svEjcXGFX0vXXWc+t2+flJPj+v1RBNdc4+sEJZZZ542yZcuqdOnSlh7L0Qv5ly5dMt1K0RPuv/9+XXfddRo5cqRiY2Odvn9iYqKmTJmiKVOmqGXLlvrrX19T5879i1xI4KhQxptycrJ9HcFnQkKse6nKX85ndrb5+QyEjJ7m7nV/9myi5syZojlzpqhp05YaP/419e9f9OveKllZWYbjzv4MNWmk9YeTJ6Xy5cs7tWZx8N///lcPPPBAsSuM8obMzEzt2bOnwHi5cpGqU8e53/VSUqTTp+3FgKGhUvXq9v+addhypXBq586dBX4mUYAFIBBRgAUAcMrhw75OAAAAAG96801fJwDgsrJlpRYtfJ0in6xS0qW0Qm7kIHJmjlTo68X+9SUDRWb2ArMnCgr87cXs66+/XitXrtTy5cv12Wefad68eS5tBbVjxw7t2DFQ7dp10bhxX6tq1ZqF3iensKpOL/G3cxKoAuF8+ktGybePOauu+337dmjgwIHq0qWLvv76a9WsWfh1bxWz4lizzlhmUlMLv016erpTawa633//XY8++qjDa6ly5cqKiYlR27Zt1ahRI9WtW1fVqlVTRESEwsLCFBISYvgcunr1avXo0cOT8X1ux44dhkWWTZq0dvr3iv37839++rTUqJG1HbCMirkowAIQiCjAAgAAAAAAAIqZS5eky6/TRUZKFjfPAXzGZrM/vm02eyeG4qRs2bKG4xkZGcrOzra0C1ZKSorTObyha9eu6tq1qy5cuKCff/5ZK1euVGxsrPbs2eNUgdKmTSv017+21rRpawrt9OHLrxfWC4TzGQgZvcmq637FihVq3bq11qxZo2u81M0xPDzccNzRz1hXOdqm1iq//y41aGDvbuRrzz33nGm3uGbNmunNN99U7969XeqgFxwc7G48v2fWnappU/eLmmw2e1dbKztgXb1WcHCwbrjhBpfyAYAvUYAFAICH8QZGAAAAAN5is0nHjtnfmX5ZUJBUs6ZUq5bvcgFWSE+3P76LaxOQihUrms6lpKSoSpUqlh3L7IX8cuXKqVSpUpYdx1UVKlTQwIEDNXDgQEnSuXPntHbtWv3yyy/69ddftXHjxkK3Tzt3LklPP32nZs7cqrJljYskJCkiIsJwPDIyUkn/f18wkyYf+bRtW/htLjNaLySESlkrFOV8eoOjgkmzjOXKRWrJEscZr3ycpaXZC2ZcVbasfz3mjK77X39dq//97xdt2/ar9uzZWOhWnUlJSbrzzju1detW0+IoK0VFRRmOnzt3zvJjnT9/3vI1r5aaKh08KDVt6vFDObRv3z4tWrTIcK5Pnz765ptv3Noq1xvfS18z607VpIk1XaWSkpKUkJBQYLx69eqq5cI/OrZu3Zrv88aNG3t1O2QAsAoFWAAAAAAAAEAxkZCQv/hKshdlJSRIZcpIVav6JhfgrsxM6cAByW927vIAR9tmxcfHW1qAFR8fbzjuyoum3lC5cmX17t1bvXv3lmQvSFu8eLFmz56tefPmmW7pduzYfn3zzYd6+OHRpmvXrVvXcDwlJUXp6emqUqVKkbrBONPUyNnuMrGxsc7doQQryvn0NbOM6ekpyshIV8WK5hmvfJzl5LjXqcjfmwBdvu5r1bJf92lpKVq3brGWLZut1avnKTfX+Lrfv3+/PvzwQ40ebX7dW8XsXJ47d06JiYmqUaOGJcc5fTrBa0VDGRmSr+uTvv32W8PxevXq6euvv3a7MMcTBXL+xpMdsCRp3z7rth/Mzc3Vjh078o21bt3apVwA4Gt+/usVAKCky8z8c2sBAABQvAUF+ToBAAQ2m01y1NzDi40/AMslJhbv4itJatCggYJMfiG6ujOEu8xemG3YsKGlx/GUyMhI3XPPPfrf//6nw4cP6+677za97axZHzrcxqxhw4am21EdOHDA7azwrkA4n44yxsf7R0Z/VL58pLp1u0cTJ/5PP/54WLffbn7dv/fehzpxwqZCGuW5rU6dOqYdzbZt22bZcfbvt26tovB1fdIvv/xiOD58+HBFRka6vf6hQ4fcXsOfZWdna+fOnQXGw8PD1aCBNe3N9u2zbvvBvXv3Fthu0pV1AMAfUIAFAPBLu3ZJ/fvb39UVFiZdf7303Xe+TgUAAAAA/is1VcrLM5/PyJDHX4gEPMXX3Ti8oXz58mrQoIHhnFnBlKvMCrquv/56S4/jDXXq1NGcOXP02GOPGc6fO5ek/fu3m94/PDxczZo1M5xbsWKFJRnhPYFwPh1l3LTJPzL6u+rV62jChDnq18/4uj9zJkmxsdu1Y4eUnOzZLGadelavXm3ZMbZssW6tokhJ8erhCvjdZG/Ny10Q3bVmzRpL1vFXu3btUlZWVoHxVq1amRZ/OsvKAiyj33EowAIQqCjAAgD4nfh4qUsX6Ycf/hzbvVu6+25pzhzf5QIAoKSz2aSFC6Vbb5Xq1pWaNJEmTZLS0z1zvIwM6cwZKS3NM+sDQHFTlJ/HFGAhUBX37leXRUdHG47Pnz/fYRcnZ2zYsEEJCQlOHT8QTJo0SeHh4YZzhw4V7ARypdtuu81w/Icr/ziFgBEI59MsY2ys/2QMBM88M0lhYebXvc0mHT5s32XBU7p06WI4PnPmTEt+bufl5Wnx4plurxNITl+9n/b/V6dOHbfXTklJ0ebNxtvnFRdmX1/btm0tO4aVWxAaFWCxBSGAQEUBFgDA77zwgmTybyw9+igvGACAt6WnS3v3Svv3syWst1zegtdRFxNf+OwzqXdv6ddfpePH7Y+Jv/9duusuKTfXuuNcvCi9+KJUvbpUrZpUpYo0dKh06pR1xyjJzp2TXn9dGjhQuvde6ccf/e+xBgCBICtLOnpU2rJF2rxZ2rPH8102UPx169bNcPzo0aOmWzI566uvvjIcDw4ONi0kCAQRERHq2LGj4dy5c45/kezXr5/h+KZNm7R9u3n3rECSlyedPSudOCElJHi2IMXXHJ3PzZv943yaZdy7d5PDjm3Ir1y5CLVt6/i6z82VLlzwXIY+ffoYjh87dkxLly7NN5aVZX/z8YED0sGD9t8bCvs7y7p1i3Xq1HGr4gaEbJMXAMLCwtxee/r06coszj8AZd4106quUsnJZ5WYeKzAeOXKlU07eTpydd6GDRuqUqVKrsYDAJ+iAAsA4FdsNmnVKvP51FSpmPzdCwD8ns0mTZwo1a8vNW9u73bUtq20cqWvkxVf+/bZOz6Ghf0/9u47PIpyfR/4HRJCSAhdUKkKSFGBowgekSMqeMQCiijqTznYsGNBxXYUUPGgIHAAxQ6CUkU6ApEO0ou0BBKSkJCekF53d35/vN+ctO07M+/s7P25rlyEmd137mzfmWeeV/xcfTXwsw4nupaViUI7Z0XOSUnA2LH21/3+O/Dtt+pkURRRcD1linjfB8RO6m++AYYPF7+T92JigM6dgQ8/BFasEN1F77tPFGOxCIuIyH0WiyhEzswUr5+KIgqIY2NFgQORt4YOHYr69evbXTd9+nSfx8/MzMTChQvtrrv11lvRokULn7chk6P8rrrQ3HbbbWjXrp3d640fP16VbDKVlYnu8vHxQGqqKMA6cQJIS5OdTBvO7s+XXx5viBM7nGWcNcv/H3N6atrU9fP+wgXttn/dddc5nFJy3LhxsPxfC8eiIuD4cSA9XRSE5eaKzw3x8Y7Hrqgox4wZ47SIbWiOim9SU1N9Gre8vByzZs3yaQx/4KgDlloFWGp2v1IUpU6hM6cfJCJ/xgIsIiIylPJysRPImZkz9clCRBToZswQXQmrH0Q8cgS4916x815N7KwlDoTcdhuwfHnV7REdDTz2GDB/vjbbzM4WRVVNmwKNGgGXXgp89JH9s+F37HBeoPXHH+pk2rYNWLTI/rrduwEHDRvIDTabKGK7eLHuupUrxXOeasrPF91tHHVnJaLAlZoqulXak5iobmdICiwtW7bEPffcY3fdypUrsXHjRp/GHz9+PPIctIJ54oknfBrbCBxNrdiqVRun1wsJCcFLL71kd93GjRuxfv0Cn7PJYrMBcXF1P+Mriuhqq2VnIFmc3Z9//rkRc+cukN6x0FnGvXv9+zGnt4wM1897rd+XX3nlFbvLT548iY8++gg2myi2srfvIyfH8bjffjsRCQnRKqX0H5dccond5du2bfNp3Pfffx/nzp3zaQyjs1gsOH687rS7DRo0QI8ePVTZRnS0eh22zp49i/z8fJ/HISIyChZgERGR39GiO0NODjBhAtC7N9CrF/D880BCgvrbISLyFyUlovjKnqIi4L339M0TCN5/XxzMtee558R9oqaKClGMM2tW1QHknBzggw+Al1+ue3lH3a8qLV+uTi5nnTABUaBF3omOFtNjOfLrr/plMbriYuC110RRYseOYjrMhx+WncqYbrtN3E7/+AewYYPsNET6qXWcqAabTbyOEHnLWcel5557zusOICtWrMC8efPsruvYsSNGjhzp1bjeiI+PR1ZWlqpjpqSkYM+ePXbXtW3b2eX1X3rpJbRt29buuo8/fhqHDm3zJZ5DhYVOXlBUUFLi/DXJrF37nn/+JbRq5fj+XL16mybbrV1I4IxZH3OOaPG8z8xMweHD3j/v1TJ69GiHU69NmjQJ06bNcnpCkz2//DIDP/442fdwfuhvf/ub3eWzZs1y2dHQkfXr12PatGm+xPILp06dQomdHUjXXnutww6bnoqJUa8Ay950iSzAIiJ/xgIsIiIKeLm5QL9+wMSJYnrDv/4C5s4FevYUByqJiMzIZhPFFvfdB9x1F/DGGzU7EO7a5bzb0apV7FqlNmeFR6WlgIMO8l6bN090tbLn22+B2seunJ2Vq6aJE52v12NKRrOaO9f5egfHKwNO5TSYM2ZUFT4qCrBkidxcRpaeDuzcKd5PFrBZAwUIV4XRrjo7EznTr18/3H///XbXJSQk4I477kC2h1UzmzdvxqOPPurwwPUnn3yCkJAQj7N6a/v27Wjfvj1eeOEFnD171ufxKioq8OSTT/5vqq/qLrusA3r06ONyjPDwcMyePdvB+OV45ZUhWL78K5+zVkpKisXUqWMxdGgH1ca0x1UnT70+5+vNYgnHW285vj/HjBmCOXPUuz9jY2MxduxYdOjg/v1p1secI2o/7y2WCkya5NvzXi0NGjTADCcthd96aywmTXoSubmuX7tzc7MwYcJoTJ/+Wo3lERERPudUk5b7hP75z3/aXX748GFMdLXTwI5ly5bh/vvvh02LM7sNxl5BE6BuUdPp0+pNQXjkyBFVxiEiMgoWYBERUcB79VXRArq2ggLgkUf0z0NEpDWbDXjwQWDECFFItWEDMG0a0LlzVZHPd9+5Nw6pJy7O+fr//Efd7Tkqvqq0a5e62yP5WFjunvR0x9NgkmtjxgAqNzYg8kssVCdvFBcDaWniZ8qU/6JJkyZ2L3fixAn07NkTq1evdjlmWVkZ3n33XQwZMgRl9uaZBnDnnXfi0Ucf9Sm7N0pKSvDVV1+hW7duuOWWWzB79myHUwg6c/z4cQwcONDh9Iz33DMaQUFBbo01bNgwvPjii3bXlZWVYsqUF/Dii4Oxb1+UxzkB4Pz585g9ezZeeGEQRozoiiVLZqG4uMCrsdxlxikG3ZGXB9xyyzA8+KDj+/Oll17A4MGDERXl2/05aNAgdO3aFbNmzUJBgWf3p9aPubS081i6VN/HnDNqPe9jY4/j2WcHYu9e35/37srPF9+pDh0SP+fO1ZyOeNiwYXjqqaccXn/Nmh/xwANd8PHHT2P37vVISopFSUkRiosLkZQUi5071+Kjj57C8OFdsG7d/BrXve22B9Cnj34FZbLde++9Dt8DJ06ciJdfftlul6fa0tPT8fTTT+Phhx9GeXn5/5a3aNFCtaxGc8jB2XtqFTUVFOQiJSW+zvLGjRujc2fPu87VLhi7/PLL0apVK6/zERHJpt8pLURERAakKMDvvztef/SoOAjXurV+mYiItPbll8CKFXWXl5QA999vvyiV5FO74G3hQufrx48H3npL3W0SkfmVlgJ//gnce6/sJERE/kNRgPj42p2I2mLq1AUYM2aY3a5VKSkpGDZsGK6//no8/PDDGDBgAC6//HI0adIE6enpSExMxNq1a7FkyRKkpaU53Ha7du2wQHL7QpvNhh07dmDHjh0YO3YsevXqheuvvx7XXXcdrrnmGrRs2RLNmjVD48aNUVZWhvz8fMTFxeHo0aNYt24dtm3b5rCzV4cOXTFqlOMpHe2ZOXMmkpKSHBa47d8fhf37o9CxYzfccMPt6N37ZnTo0A1NmjRH69ZNYbPZkJeXh7y8PKSlpeH48eM4duwYjhw5ghMnTnh8+5Bvxo2bifT0JOzYYf/+jIqKQlRUFLp164bbb78dN998M7p164bmzZujaVN97k9PHnN3312VsUGD5igsbApFsaGwMA+FhXnIzk5DbOxxnD17DDExRxAXZ8zHnLvP+0aNGiMvrwxFRflITo7DmTNHsXv3Ohw6pO7z3pW8PKB2066cHFGU1aMHEBoqls2ePRtnz57FDgdnPOXnX8SqVd9j1arv3d5227ad8M47c/HxxyPsrle70MwImjZtijfeeAP//ve/7a6fPXs2li5diieeeAK33XYbunfvjqZNm6KoqAjp6ek4ceIEVq9ejfXr16OwsLDGdRs3boypU6fiiSee0ONP0Z3WHbCiow/bfe717t3bq8di7Q5Y7H5FRP6OBVhERBTQEhJEgZUzP/8MvP66LnGIiHSxcqXjdUlJgJ3u30RERG4bP54FWEREnkhJsT8NXO/e92Ly5C/xzjvPO7zuoUOHHHa7cKVVq1bYuHEjWrZs6dX1taAoCo4ePYqjR4/i++/dL1Cwp1GjJpg0aSHCwhrWWWe1AsHB9q8XHByMZcuWYdSoUVjiZA7ihIRoJCREY9myOT7lJG0FBwfjP/9Zhg8/HIXNmx3fn9HR0YiOjsacOfrfn5WPuXvucZ4xISEac+bIyaglvZ733lIUsQ/ZHotF7Efp1En8PywsDKtXr8awYcOwfft2n7fdqlUbzJixHk2btnRYcBZaWf1lMq+//jpWrFhhd4o6AMjIyMCUKVMwZcoUt8cMCQnBzz//jEaNGqkV01BsNhuOHTtWZ3lISAh69uypyjaio9Ur8EpMTKwzpTILsIjI33EKQiIiCmjVOg87dPGi9jmIiPT0xx/O10+bpk8OIiIyJ3tFBEREZJ+iAJmZjtcPGfIc5s//CWFhYaput2vXrti5cye6d++u6rhG0aLFpfj66+3o0cP+lF1xcc6nCg0NDcWiRYvw6aefon79+hqlJL3Urx+KTz5ZhBdf/BQhIca8P0NDjZ/R6Fw9771VWgpUVDheX1BQ8/WkSZMm2LhxI1566SWftnvNNf3www970aHDVQCA/Px8u5dr0KCBT9sxqvDwcKxevRpt2rRRZbzQ0FDMnz8f99xzjyrjGVF0dDSKiorqLO/Ro4dqj5OYGPUKsOx162IBFhH5OxZgERGRqcTFAc89B9xyCzB4sOheZbHITkVE5F+io2UnICKiSiacUYSIiKopLna+36KiAhgx4nHs27cPN9xwg8/bq1evHp5//nkcOHAAV111lc/jeatVq1aadCAJCgrC3XePwsKFR3DVVb0cXi4/33nhW+VYb7/9Ng4ePIgbbrhd5aRCr1798fbbczUZm2oKCgrC6NFv46eftLs/+/fvj7lzvb8/9cgo8zEn+3nvraws5+stlrqv4w0aNMCsWbOwe/du3HLLLR5tr3Xrdnjzzdn4/vs9aN267f+W5+bm2r18s2bNPBrfn7Rt2xb79+9H//79fRqnY8eO2LJlCx599FGVkhmTo46YahY1nT6t3jZYgEVEZsQpCImIyDR27QJuu63mGUlRUcCSJWK6rXosOzaF1atlJyAiItlWrQIyMoBmzYBhwwA2JSAiPbhTDHfhAqDSSfpEFCBKS11fprwc6NmzJ/bu3Yvly5fjiy++wL59+zzaTlhYGIYPH463334b1157rZdp1XPXXXchOzsb27dvx7p167B58xZER5+EzWbzarzIyEgMHz4cL774IoKC3CtUy88HWrVyfbmePXviyy+jcOzYbixbNgc7dqxGSUndDiPuCAsLw0033YRu3QZh8OCRaNv2Sq/GIe916VJ1f0ZFzcGaNavtdoxxR+X9OWjQIIwcORJXXqnO/Vk9o6+PuQYNwnDttTehb1/5j7naz/stW7bg5Envn/cREZEYOHA4nn76RbRt63uBqiPOuuW5ctNNN2Hbtm1YvvwkoqJW4MiRHUhIOI3s7HRYrRYEB4cgMrIp2re/Ct27X4+bbroLffsOQkhIzcO3iqLUmaqt0qWXXup9QD9w+eWXY9u2bfjyyy8xbdo0nD9/3u3rXnbZZXjhhRcwbtw4NGyo3rSURmWvoAlQr6ipuLgQycmxdZaHh4ejW7duHo9XO2/Lli3Rrl07r/MRERkBC7CIiMgUSkqAESPst4NeswaYPRsYO1b/XKS+wkLZCYiISLb77qv6vX17YNEi4Kab5OUhIqr06afiuwcRGZfiy5F0N0yYMAETJkzQZOx69erhoYcewkMPPYTY2Fhs2LABf/75J2JiYpCUlISCggKUl5ejYcOGaNasOVq37ogrr+yJ3r0H4I47hqBr18aIjNQkmldCQ0MxePBg3HjjYDz2GFBUVICTJ/cjJuYwkpJikZwch5yc8ygoyENhYSHKysoQERGBhg0bo1EjUbDQpUsvXHPN9XjoodvQurU4uH7woHvbd9BMxqFevfqjV6/+KCsrxcGDW7GdeZkAACAASURBVHHixF6cOXMUKSnxyMpKRUlJISoqyhEeHo7IyEhERkaiTZs26Nq1K7p164aePXvi73//O8LCwtzOKMumTZvsFsWEhoY6vE5hIZCSAlTWMjVrBlx2GVB91iutn3+e6NWrP/71r/6wWEqxdetW7N27F0ePHkV8fDxSU1NRWFiI8nL37k8tM9Z+zGVk1M0YFhaO8PBIhIdHolWrNujQoSs6dOiGLl164tpr/44GDbTL6KnK5/3gwYMBAAUFBdi/fz8OHz6M2NhYxMXF4fz588jLq3reh4VFICKi8f8Klbp06YXu3a9Hnz63ISysIZo3N/4U2B07Xo2nn766xjKLpcLt6SYTE8+goKCgzvLWrVt7VVh04IC2z8UxYyZgzJgJNZb18WFmyJCQEIwdOxbPP/88Nm3ahC1btmDPnj1ITU1FdnY2SkpKEBERgRYtWqBLly7o3bs3Bg0ahIEDB9qdRnbAgAF2b8/g4GCPs23bts2bP0kT06dPx/Tp0zUbPzy8Efbts/7v/0FBwPXXez9e7QIsdr8iIjNgARYREZnCwYNAerrj9WvXsgDLDKxW15ch/5WSAmzdKn4fMEAUVRARuXL+PDB8OHDkiDjAQ0Qk06pVLMAiIn107twZL7/8Ml5++eU66woKgJiYutc5cwbo1g2IiFAnQ+VBZ1+LiZKSxL8REZHo2/d29O1bNfVaaCjQs6f4vaICOHXK/sl3qami4MdJfZBqGjQIQ//+Q9C//xC7630pMjAKZ4VW9th7zGVlAXl5QI8exu5YGxYWhiFDhmDIEPv3pxFUf8xVf3wVFgLR0d6Pa7WK71OXXqrPc8eeyMhI3H777bj9dvtTLtpsgIOmPqrRuoCmvNz+cneLrwDgxIm9dpdfffXVdpebVf369XH33Xfj7rvv9mmc4OBgTabDJPelpaUhLS2txjIWYBGRGXAyJiIiMoXPPnO+fvNmfXKQtiwW2QlIC4oCvP8+cMUVwGOPiZ9OnYDXXvOtzTuREdhsorjQ38XHy07gXHo6sHSp7BRE5sP3Yc8lJ8tOQEQEJCbaX64ootjCVzabmA46Ph5ISPBtLKsVKC52vL68HCgrE7/n5tovvgLE/oKLF33LYgZlZUBmpvhxZ3pLb1ksosAqI0NM5XjunP3LVVRUFdiRMWVkiOJMo+5zc2cKaKNzMHOgR7ZuXWF3ed++fX0fnHRhs4kffscS7E2X+Le//U1CEiIidbEDFhERmUJcnOwEROStuXOBTz6pucxiAWbMEN1s3npLTi4itXTrBuzbB3TvLjuJ50pLgTFjgJ9/lp3EtalTgVdekZ2CiIiInLFYROF05cHohg3FZ342oVBPRYXzwpuiIlH05MUsSwBEQVR0tOOOLp6qnK7Ombw8oFUr0eXKmdRUoHVrdXL5G0URRcAZGTUP7l9yifrbys4WhXzudikvKBCZzFBIY1alpeL5U48tGzRRWOjb9S9ciMeuXWvtrrv11lt9G5xgtYrXqHr1tHkOFBYCFy6I10JAfOa5/HKgcWP1t+VP7BVgsQMWEZkBP04RERERkVRTpzpf5+mZYWfOABs3Atu3c9pKMoaCAmDEiLqP5Q0bgH79xMEvo07J8cILwIIF4ixNo/P3rjMnTgAPPywOkl1yCTBqlP2pg4iIiPyV1Sre21JTRfFOebkorImOFv+SOty5LX0pBjh3Tr3iK0+52q5RO/joISNDFDfW/s6Rmem4a5g3iopE1zNPvmtXVAT2feMvKotDyHhmz34bNjtfyps3b46BAwfqH6gaq1W89vij8nLxenb0qPg5dkx0MFdz/0dxsdhPWf35VVgInD3re2Gev6tdgNWkSRN06tRJUhoiIvWwAIuIiIgCiq/TI5C6EhIcT1UAiJ3FR464N1Z+vihy6dYNuPNOYOBA4OqrRSEWkWynTtV8/Vm7FrjrLmD/frFzz6gHJH78UXYC/+Rp4ejJk8CNNwJLloipXLKyROHbjTeyyydxigot5OeLok1OVUWkr9RUoKTE/rpz5/yj4NsfaPm+UV7OA8ZGpVcBRGYmP5uYlbOpQEmeFSu+RlTUUrvrHn30UYSGhuqcqKYzZ/xzmlGbDYiNFd+9K1/TrFZRgKXGVL2VEhPtf75RFO6jrl2A1bt3bwSxVSIRmQALsIiIiCig3H+/7ARUXXS068scPer6MjYb8K9/Ab/+WnNncEwMcN99LGAgY/j2W/Gv1Soer+SftNgf+OST9qffyc0VU0ASkTry84GxY8X0VO3aiemsnnjCf8/a90dFRSzeCGT5+Y7XWa08+O8PKqeOJGMpLdWvK1lWlj7bIfJXVqsVzz77LM45O9vQTT///AU+++xFu+tCQkIwbtw4n7fhK3emkTWizEzHnzuystTpCGezOf9sU1oqOgRWdsQ6flx0xk5NNX9H/5ycHCQmJtZYxukHicgsWIBFREREAcWdYh7yP8ePAytX2l+XmwvMmqVvHiJ7LlwQ/544AeTkyM1CxpGfDxw44Hj9rl1AWZl+eezhSahkBpXF2rNmiYMdgOg+OG+eKNCXNZ1WIMnKAk6flp2CZHJVYJWWpk8O8l7l6yfJpyiiIO7cOfdObCIifSiKgm+++QZXXXUVHnnkEaxfvx4VHs4DevLkfrz22j2YMWMcrA4qccaOHYuOHTuqkDgwuTohICZGnW246hiYmFg1FXNZmXifvXBBdBYzc2fQ2t2vABZgEZF5hMgOQERERETkq+XLna+fOxeYMUOfLESuzJ4tO4F5LVwIdO8OXH+97CTuW7fO+U7Z8nJg505g0CD9MhGZ0ebNjou1//xTvH48+aS+mQJJWZk4wETkjNm7PZD3+NioyWoVxQHsGkeBwF+nvLRarVi8eDEWL16MJk2a4YYbBqNHjz7o2vU6tGrVBpGRzdCwYQSKivKRn38RaWmJOHJkJw4e3IKTJ/c7Hbt79+6YNGmSTn+JObkzFbmiaH8yUm6u/eVFRaIw/fLLtd2+LCzAIiIzYwEWEREREfm9L75wvl529xii6nx9PCoKcPCg2CHXrh3QqZM6uczg8cfFv0OGAIsXA40by83jDnc6SXh4wjQR2REV5Xo9C7C0k5/vvwdQiUi+Cxf843OdXpKTWXxF5E/y8i4iKmopoqKW+jzWpZdeitWrVyMiIkKFZORMURHQqJG87efnm7cA68iRIzX+Hx4ejq5du0pKQ0SkLk5BSEREREREpAN3zrB05dAhoE8foG9f4NZbgS5dgAcfdHzWZKDasEFMNabFwX4WEBD5p6lTna9ftEifHIEqKUl2AiLyd3FxshMYg6JoO515aSlQUMACL6Pi1OCBrUuXLti+fTs6d+4sO0pAkN190dU0if5s0aJFUBTlfz9FRUUIDg6WHYuISBXsgEVERERERKSDNWt8u35qKnDvveLfSooipuAsLgZWrwYq91dZLEBWFlCvHnDJJYG5o37lSuDcOTkdwgLx9q6NhWpExiXjYJLNpv82ichcystlJzCG4mJtXscrKsRUsdVP7GjUCOjQAWjYUP3tEZH7goODMWzY05g373NERkbKjkNEREROsAMWERFJc+4c8OyzQLdu4ufNN8Xc5q5ERQH//CdwzTXA3/8OLFggDjRr5eOPgc2btRufiIjIHUeP1iy+qm79emDvXvH7ggXiffWyy4DWrYEBA4Bdu/TLaSSLF8tOQERkPGp0ZHRXRQWngibfKYooLCci7aamPneublfdwkIgNlbbfW5EZhMSEoK9e/fizTffRCcfzwaKiIjEffc9g19++QvvvDOXxVdERER+gB2wiIhIdYWFrudHP3MGuOEGMZd5pZgYYP581+NnZACbNlX9v/KAs5b++U9g7Vrgrrs8vy47QBARkR5WrBBTPI0aVXP57t3AnXcC+/YBV18tJ5u71O4ctXgx8N576o5JxlRUBJSUAOHh4oeIHMvKAtq313YbpaVAcjKnyCV1ZGYC58/LTkFkbgUF9peXlQHZ2eLEDiJyT79+/dCvXz989tlnuHDhAlas+BMHDx5ESko80tISkZmZgpKSQpSWFsNiqUD9+qFo2LARWra8DJdffgWuuqo3evXqj+uvH4j69UNl/zlERETkARZgERGR6jp0AN55B3jjDceXefzxmsVXlTIztcvlC0URmTMyqqZ3IqqtrExMBdCgAR8n5JzFIroZ2WxA165AkyayE5EZfPEF0KyZ/XVFReJ9ecMGfTMRaS03F/jgA+Dbb0XBR8OGwJgxwMSJfG0lckTr6QAtFuDsWXa+InVUVIgCc1JXURHfJ42upETsizLC1NYswKLqTp4Un7lbtwZatDDGY9TI2rRpgzvvHIG//32E7ChERESkA05BSEREqsvJEdMJfvON4/X79+ubSQ05OcDx47JTkBElJQFPPik6v0VEiCLE//5X+4NbstlswKpVwGefATNnujeFKInbrGtX0QWwXz/RgWLSJHbLI3U4m1ZqyxZRJEpkRGlpwA8/AN99B/z1l3vXsVqBhx8GZs0SxVeAOFg5cybw2GPmfx8mMqqMDBZfkXqKivg5WQvZ2bITkDvS02UnEIqLZScgoykpARISRLdLIrUpijhx+/x58ZOdzc8CRETkP9gBi4iIPOLJl53x44Gnnwbq1Sr3/fVXdTPp6b//FQcHqa6yMmDePOC338QBzxtvBF55RZwNZ2YFBWJqr1OnqpZduCD+9squHEZRVAR8/z0QHQ2EhgKjRwO9e3s3VkqKmJrzxImqZW+/DUybBrzwgipxTWnvXuChh4Dy8qpl+fnAhx+KKbOcdQ4k8lV5uTiIc/nlspMQicfitGnA0qVAYmLd9Q8+CCxcKN6vHFmxAti40f66tWuB1auB++5TJ68MmZnAnDnAnj2ykxB5Ji9PdgJ1lZWJz/WKIk62aNSI3T70xIP72jBzkaSZDtInJ4sOtw0ayE5CZF96uniMNmokOwmZhaIA587VPbksLU2czBjCo9oeqagQJy4FBwP168tOQ0QUGPhWRUREmsnNBQ4fBvr0qbnc3tSD/sLMOyl9UVIC/OMfwMGDVcs2bwa+/FIs69jR8zGLioCvvwaiosT///lPYNQoVeK65b33RCFZ377AsGF1CwkrTZtWs/iqug8/FJm9+fvVduYMMGCA6EhQaeZM4K23gClTPBvLagVGjKhZfAWI7iMvvwx07w7ceqvvmc2ioEA8F374QdwPjrz/vrj9uHOdiMwuN1e8J5096/gyy5YBl1wiCpAc2b7d+Xa2b/ffAqzt24EhQ8RnLH9kpoPf5LmiItkJ1JOSAqSm1nxMR0YCnTvLy6SW8nIxXWRwsLE/f/L1hDzl7POFPyooMPZzlCg/370CrPJyUQwSHAyEhWmfS29ZWWJaRkf7D8k9aWn2O3tXdl0zw2cwPVRO4ZyTI/4fFCROkm7bVm4uIqJAwAIsIiLS1Nq1dQuwyHzeeadm8VWl7GzgkUeAP//0bLzsbFH4dO5c1bING4Dp033L6YnJk6t+v+464I8/gKZN615uxw7n4+zeLb8Aq6JCHICuXnxV6bPPxFR4I0a4P97x447vU5tNTB/FAiyhogK4917XRQKAKPDcuRMYNEj7XEREMo0f797B0W++AT7/XHQItMdZcRYAzJih72cHtWRniw5g/lp8RWQW2dmiAKu2ggJxANBf1T4gB4jvOe3bO+86SOQv/PmkP3sSE4GWLWWnIHIsJcV5l+WKCjGNXPWimiZNxPuOmYoLL1wQnx26dWOXJl84myI3N1cUj/P2dc5mA+LigMLCqmWKIooEeXI5EZH2WItNREQUIMrLxTQ/c+eKKXssFvXGXrXK8bq9e0VLck+MGVOz+KqSvSmK9HD4MPDEE/bXbd3q/LqPPSamUHL3C25ZmTgoHRsrvjCr4ehR4PRpx+t//tmz8b77zvn6X37xbDwz++9/3Su+qrRsmXZZjMRiEYUFFRVVy9jdgChwVHa3dMViAdav1zaLEW3dKqYfJCK5nD0P7XVm8AeV0/pUL74CxAFNNb9/mJXNJm6rnBxzdXojY+P3JPJnNhtw7Fjd9828PPG+Y7XKyaWV0lLt910qSlWReFqa2N9rFhaLuA2d8dfPYHq6eLFm8VV1BQX6ZiEiCkQswCIiIgoAe/eKFs0jRwLPPw888ADQtStw5IjvY6enuz4DfOHCususVmDNGmDePNEprXKnS3m5MQ+2rlzp/Zf8xx8HOnUCDhxwfrlvvxWXu+oqoEsXoFcv4Pffvdtmda46hKxc6dl4q1d7nyXQbN4sO4GxlJQAEyYArVqJjjbNmgFvvikOZBFRYCgttV9k7ciuXdplMapJk2QnICJFcXzgyp/l5jo+8FZc7LzrRKDLzRWdgGNjxfvY6dNATIy6JzYREZmJxSJOaHSkpMSc7zu5udoVlpWVASdOAPHxogArOVm8N9nreO+P3LndXBVokShwJCIieViARUREFADuv19MM1HduXNiWjpfd3a488W39tQdhw+LltxDh4rOUvfeC/ToIc6K++MP436ZXrrU++teuAAMHy7aPduzYIHo/HXhQtWyEyeAIUNEoZovdu/27frkvY0bZScwDkUBnnkGmDixqpixqAiYOlVMVWq2M1+d4YE6CmTs4uDa8eOyE1Cgs1iA1FTgzBnxk5EReJ2RzPpa5eqAHIvi7SspEd+fq3dvBUQx27lz5n28EBH5wp3pes3YzUhRtCuAiYur22FfUcQUj+xsRJVqdzolIiJ9caZcIiIijRlhZ2xamv3l58+L6QOffFL7DGVlwJYt4mDOU0/VXX/mjCgIe/VV7bN4y9eOYcnJotvX6NE1l9tszv/uoUOBnTuBm2/2bfukHZtNFFtlZIiuTnfdBYTwk3YNW7Y4nu5SjU5v/kJRgEWLZKcIHDab6Nq3apW47Y30OnrxIjBrFvDhh7KTEBFVKS8XnX2qF5rk54vp+Lp1A4KD5WUj3zk6GaQSOybYl5npuAgxP190D4uI0CeL1Sry5OeL/zdpArRsyecmERlLRYV7Rb1mLRqqXSSlluJix+uysoDISG22S0RERO7jYSEiIiINpaQAY8fKTuHcjBnaF2CtWAEsXly3E1ZtCQnAb79pm0W2adPqFmAdP+767KQBA0QhXevWmkVTXU6OKDQpKgI6dBBTX5qxKOn0aWDECODUqaplV14J/PKLvExGtGOH7ATGYG9KVtLOqVPAsGFV///xR3lZqktNBfr0cf2+SETGEhQkO4H24uPrdvkBRAeg5GTxmY4o0Lia2iknR58CrIoK8d2jvLxqWfUCSTN+1yIi/8QOPPrLzgauuEJ2CiIiIuLXMiIiIo2Ul4uiDKPTY5obd9qOV9q+XbMYhnDiRN1lv/7q3nWvvRZIT/ePg3+//AI8+yxQWFi17MorRaejLl2qlhmhQ5wv8vNFccfZszWXnzsnpv70V1rcL5MmqT+mP1q/XnYCMoInnzR/8ZU/vFcRUU1Wq/NOFLm5QPv2fH6Tdvz1u0FmJtCunfbbSUysWXxVqbRUdLe+8krtMwSaggLxmc2sXXrMju9XnktNVWccPmcEq1V8fmKHSX0piuhcGRQE1KsnOw0REQUaFmARERFpZNcu4M8/ZacgM8nMFFM1du0qO4lrTz5Zt+X6uXNimskDB4DwcPfHMvJO0zVr6hZfVVJrxyVpJyMD+O47sUO0dWsxPWrTptpuc/Fibccn4ysuBqKiZKcgMg5/Lbgwo4sXna+vqBCf78LC9MlDgaewUHTP1Ws6P39iszk/gJ+XJ15Pjfzdyd8UFIjv33yfIiJv5OaKE1ItFtlJAoeiiH2naWmiYDkoCGjeHLj8cqBBA/W3V14u9iuVlYlCr5YtOQ0kERGxAIuIiEgz8+fLTkBmtGaNfxRg1S6+qnTqFLB7NzB4sL55tPLVV7ITkDOlpeLfBg3qHoz69Vfg8cfFlEqVJk0S06Dedpt+GfU2ejSwYIF/TWdqNmvXcic8GcPJk2Iqq/r1gTvuABo2lJ1IvtdeE11kIiKA554DbrpJdiJ92Zt6sDabTfscFNhiY4Hu3YHQUNlJjCU/33khkNUqitcaNdIvk9klJrL4irxTUiJOuggKAho35vSgerDXHVCm0lJxUh4/N+krNbVmp2lFEVMzFhWJzxbBweptq7AQiImp+T6RnQ20aiU6xhIRUeBi80UiIrKrrExMk7RypSiYIM/99JPsBGRGn30mO4Hv5syRnUA9u3fLTkD2HDwI3HmnKCZo2BC44YaaU//FxACjRtUsvgLEga2HHjJ397LNm8X0uEbbQR1IsrJkJ6BAV1QEDB8OXHMN8OCDojvlFVcAy5fLTibfjBnAihWiULV/f+C992QnIjMoLBQHA1NSak7PTfZVVIjuFVSTOwWSVqv2OQJFeXnVyRxE7rLZROfvkyeB+Hjx+19/iQ45pC2jvb9mZ7P4Sm/l5TWLr6orLRVdsdRitQJxcfaLdDMygJwc9bZFRET+h7X3REQBLidHdHBJTBRnej/zjDjj9IUXgAsXqi53//0sKDKKzEzRuaWiArj6atlpyKzOnhXFXqdOic4Yo0YBjz2mzpnoq1b5PgYJCQniQHrr1qLVOQHR0aKDVUFB1bJDh4B77wU2bBBdXpYvF2ck25OdLYq1nnpKn7wy7NrFqRBJnuqfL6mmU6eAiRO13YaiAE8/Lbr9VZeeLt7nO3QQRaskTJ4MDBgginqJPKUo4rt1bm7VspQUMd1xp06cKs6ZrCygTRt52y8oEPdVaam576eKCvFdj+pyNSUrkT1JSXULL2w20V0zNFT76e7NxmIRz0UWl5I7XBXhqVmkV1jovDA6N1dMfUhERIGJBVhERAHszz/FgejqX0BmzLB/2d9+Ewej1Wi/zh1ZnrPZxFzyX34JvPFG3a4tRGratUsUsFTfmbB9O7BkSc0uQiRPTAwwdiywaZP4f2ioeI3+/HNRTBvIXnmlZvFVJZtN3EbnzwPvv+98jAkTzF2ABVQ9doj0tnCh7ATGlJAA/OMfoghUS4mJjgswy8rEd4Gff9Y2g79ZsYIFWOSdoiL7y3NzRTFq27b65vEnld9DiosdT22uldxcUTgXCDIzgcsvl53CmDj1oH4slpodY+r935wtlcWPLVqIk43qGXwuF6vVefe+9HT1C7CsVvPuH8zJEZ9bWXxlLnl5QJMm2ox9/rzz9fb2E7nDYhHP38rrN27s+thGTg5w5ZXebY+IiPwfC7CIiAJUbi7wwAOenf2xdKk4U9cXVivwySe+jRGIPv8c6NMHePlltrAmbZWVienJ7J3JtWkTMH26/pmoppwc4K67xHQGlcrLRTfD3Fxx4NzMZ+o7Y7E4nxYyOVkUObiSnKxaJMNigQXJYrTpQYzilVe0L74CgGXLnK//5Re+PtT27bfAN99oM3aQnTdsGz/sB4TKDk+B+pnNHVlZ7n1uU5PNJqYNCxQ5OSzAIrmsVuDMGcfdiQFRzJqTA1x1lbGLsKp3O7SnoEAU9lV/3bfZxN9W+fm4WTP3tqUoQGqqKAoxY4FScbF4LTZSISSnkVRHbKx4LkdGyk7invJy8Vmk+j5Sfp81L3vfw+x9XyMicsXAH1mJiEhL69aJL+ueiovzbbsHD/p2/UD144+i+xWPx5DWDh8WO/EcWbdOvyyVnnzS+Q7ZQPPllzWLr6pbtAg4cEDfPEZy5ozjbhOVFizQJwuRmXCfo7ZsNtFpUg+evgZ6e99nZAROBxlf1LNzJNlqxiOpVIfFws+3riQm6r/NoiJzFjM4UloqOwEFutRU914LCwuBtDTt8/giP9/1ZaoXFOXmiv0vCQmi4DQrCzh71r1tpaWJaVLN+nqVlWWs4qusLNkJzENRxFSd/iIx0flUg2Qu9r6HBQcHS0hCRP6OBVhERAFozx7gscfkbHvJEjnbdcRfDijGxIjpT4i0cuGC+Pezz5xfbts2zaPYNWaMnO0a0W+/OV//++/65DAid3bSGmlHLhERIAqV8vJkp1Bf167A6tWyUxibvR36VqsVFot7b1bFxeY9+BoI9J5az9/I+Mxm9AIPIrPx5POPo8sWF4siibg4MQWZ0V9bbTZRaOVtobqiVO2/MSsjdZvyt4Ihf8DPr545edL9gmmbTRT5k+cURWEBFhGphgVYREQBJjNTTD2ol9o7TTl9GZExXX+92Iln1Ck3fv7Z/DsZ3XX4sPP1H36oTw4iV7KzgXfekZ2CvKEowJYtwCOPAMOGGesgiD/49FPggw+A+fPFtBWumLXDqc0WGFO6+iIkJKTOMkVREBvr3lGWU6eAv/4SXTBYYEzkOx4QJtJXSYn7l7XX6TgtTbwXZmYCFy+Kz6zHj4vfjSo52ZyF92bFYiFtcBo/95WUiG7vzgqrFEW8Hh4/Dhw9ql82MykuLoZi5wuVve9rRESu8JWDiCjArF/PszqJqK70dOCZZ2SncO7XX4GxY2WnoECRkAB07Cimhti0SRQSXHcdcNVVspP5h7Iy4K67gP37ZSeh6jZvdu9yw4YBa9Zom8XM3n236vf33xfFbF26yMtDxhUeHo7s7OwayywWoKysEEBDt8awWkUBVlAQcNllGoT0czabOBBvswGhoUDjxv7TBVlt3kyhoyiiUCA1VRSU1qsHXHKJ+GFDADIjRQEKCsSJBFpyp0CbnCssdFzoHR8PRETom8cdisLp7PyNkYv5KHCUl4v3pdat7a9PSRGf1ch7hQ6qAiOM+GZCRIbHAiwiogAzebLsBMbCM8WJqmzdClxxhewUji1b5rgAK1APpJF2OncWB7UbNqw6MzsoCPh//w/44Qegfn25+Yzuiy9YfGU0Gze6dzm+nqorOVkUbpaUAGFhstOQ0YSHhyMoKKjG2daiy0IhgEs8GuvCBaBVK1Xj+b28PFFQXb3wqGFD8R7foIG0WFIoCnDunOfXy8wUU3pVl5wM5OeLwlK+ZxgT7xfvlJaKaew86crkLRZ1+C431/E6m82YXaYKCszb+VQt3hQLeI3FhwAAIABJREFUE7nLYgH8taFRTo79AqyyMhZf+UpRFBQUFNRZHhwcjIYN3TsphoioOk5BSEQUYM6ckZ2AiIyqtBQ4fVp2CiJjqJxmoPoBGEUBFi4Exo2Tk8mfbN0qO4F2Nm2SncA7ixfLThDY/PVxs22b7ATmVq9ePYSHh9dYJqYXKQVQ9yCAK3aOGwSs0lJRcFT7QG5JCRAbG3gHwIuKPH98lJUBSUn21+Xni+Isf2GGE69YVKUtq1W/4iuABVhqcNXd34jTIJe6N8NwQDNi4RyZx7FjQGKi8+n8jMreNKwAp3NUQ05ODirsVH9GREQgiB/AiMgLLMAiIiIiIiLywJw5PMjtirtT3fmjw4f136YaB47nzfN9DDOQdVBn2DA52/XFwYPA0qWyU5hfo0aNHKxJA+DZHFWc1qhKVlZVMXVtJSWB9z7uzXRqhYXO338C7TYkc8vP16/4ivTh6D2AjM2finvJ/yiKeIzFx8tOop7ERNkJ/FtBQQEyHbzwREZG6pyGiMyCBVhERERE5BEznEFO5AubDVi3TnYKksHdM+n5OmlMeXlAv36yU/gPR9P+krqaNGmC4ODg//2/uLjyNwuARHjTCYtcd0YJtAO83vy9tacerM0sHXwURUxllpRkni4S/BziuUB7TSAiCmTstEY2mw0ZGRlITk6uMR18pdDQUCcnyhAROccCLCIiIiIig2Bna/+xcaPsBMaUkCA7gTbeektMGcJuQMZw8iTw6KOeX+/114GYGPXzmFFxMbBvn+wUgSE4OBitWrX63/+Tk8XUb4IFQDKAeACZAEoAsLJCDbm5shMYXyB0j7FYgEOHxLSU6emy05BM+fmyExAREZFWFEVBeXk5Ll68iAsXLiA2NhbZTlrEXnbZZahXjyUUROSdENkBiIiIiIjIeFgMRt64/35gzx7vr2/Ux93nn4vprK6+WnYSOn4cuPHG6l2C3KMowPr12mQyo/37Rbc/0keTJk2Ql5eH4uJiWK1iKpG2bYHw8MpLlP7fTxaAIADB//dT86BAcTFQ7uashfYKZt15XqWkACE67E10VtCrVmGQs23o0UEoM9OYRR+eFFP7S+F1Xp4otqrOYlGvEE9RfLstqoouHXPn+ZmeLjqTlZa6v21Pc/vSJczRttx93dKKFo9jV2O6c587Gk/W7eXr7ZSUBPh6LNvTDO5MlXr+vO+5APeeG2bpHGhPbGzVYzMkxLPXofj4qu+Bnj43POXpY6ioSJMYmvGX9+XK96va3PmMl59v/+802neXhAT1X6/t/d1G6Hpp5MedzWaDzWaD1WqFzc0HSbNmzRBe9UWMiMhjLMAiIiIikszTAy+FhcCpU2IHVa9eQGioNrmIiDx19Kh5u4P9+CPwyCOyU9Djj3tefAWIg36upiQjkiUoKAht27ZFUlISgJL/FWE1bgy0bAk0aFD90gpEZyxLnXFstrpFJo6UlNRd5s51y8qAigr3tuELe/kqqXWgydk29FBebryDhYBnt4vs29BdFkvNrIriWXGAO3y5Ldx57rnzWCkvFwev3X0dADzLbbP5VhzhaFuyu61p8Th2Naanz/3q48m6vXy9nS5eFPsufCni9TSDO7dVaak6J4G4sy093j9l8aWgtbi4qghO62ISTx9DnryeGoG/vC9Xvl/V5s5rY+339EpGKESqrqRE/ddro96/Rs3ljWbNmqF169ayYxCRn2MBFhEREZFEViswc6b7l8/MBDp2BCq7JLdtC/znP8D/+3+axCNyymg7uMgYfvxRdgLtREXJTuA/Kl8fcnKAOXOAM2dEEcnJk96PmZkJHDvm3XW1PpueyFfBwcFo164doqOT0a2bqDLMzxc/ISFAo0biJzQUCA4WP0btGkhkdDabMYvfjKy83P8KEchYFEV8HgsKEu9hepBd3EfusVh4YiERydeyZUu0bNkSQfySRUQ+YgEWERER1XHgAPDhh1VdTAYPBiZOBPr1k5vLjBYs8Pw61aeoT04GRo0CLrkEuOMO9XI5w6Ib48vPB7ZuFQeWrrsO6NBBdiIKJKtXy06gncxM2Qn8y7FjwD/+od4UW0uXqjNOoCotFVM4knEFBwfj00/bY8CAPIwcmYHISHHkuHKqNFfdJZo2BSIigAsXXG+rT5+6y7Ky3Ltuu3bis6ejKZtOn3Y9hiv28lU6e1adLiLOtqEo6vwdznTqBDRrpu02Knnyt1TeLu5cx9lt6GsONV12GdCmTdX/4+PVm34QEM+F667z/vp5eSKTM02bus7cpQvQpIm4nLvTAblzH2ZlqTO9kKNtFRWJQm1Z+vRR/7Hp6nZNSPBsOsfq4xUUiOne9ObJa4MzYWHANdd4N1b120Gt+6x3b3Wm1k1Jqbmvxp62bcU+HKqp+mPC0+eGpzx938rI8K8uulq8nmmh8v2qNovFdf7gYOBvf6u7/MwZYxUK9+mj/vubvcdvTIzcYtOgIOD66+VtXw0RERFo1aoVwsLCZEchIpNgARYREenGSF+CqCabDTh8WJzVWlAA3H9/zfbBGzcCO3YAu3fb/5JL3tu+3fcxbDbgnXf0K8BSE4u5tNGhQ9UBmpAQ4JlngFmz1D/TuH59sZO5eXN1xyUi/1daCtx3n+/FV9VPPi0q8m2sQPfii7IT+D89ijAVJQg7djTFoUORuPnmPFx7bSG6dy9G/frG+dCUlCSmC+rYURSOWK3i80bjxuzKRcaUmioO6F92mXicqll8BVR11HJUlOjvMjJkJzAXi0XsewlUpaWiiLZ+fdlJiEiW7Gyx3zk4WOxP8mRfldUqpjTVq4idzKlBgwYIDw9HZGQkwsPD2fWKiFTFAiwiItLNtm2yE5AjvXoBJ044v0xJiSjiOHhQn0yBYt48dcY5fFgcALN3BhkFnuoHlSwW4KuvxFnzkyerv60WLUSBRWSk+mMTkf+qqFCnWwap54cfZCfwb2p0XPJEUVEwNm5sjo0bm6N+fRu6di1Gjx7FaNzYgogIGyIirAgJqVmU1b490LKle51RBgyou6yw0P2uKrGxwL59NZc1awbceqs6nVns5auUkFDzZBEttmGzad9hpl07oGFDbbdRyZO/pfJ28fZxpFYOLRw5AgwcqE2O5GTRweWaazwvRCwrc52pfXvg/Hnnl7nySvGYKilx/290dR+WlQF//eXeWN5uKzdX7mNjwAD1t2/vby0uFvtT4uM9nwKz+nhZWXJuL09eG1xp316cNOTpWNVvB7Vug759xTTZvsrOdp2paVP5r4NG1LQpcMMN4veUFG2LPj1938rL86/7TIvXM62Fhoquye3aieIqd/JnZYmTh6uLjzfWtPMDBohCMTXvD3uP33Pn9P+eUl29esDNN8vbvitBQUGoV68egoODERwcjLCwMERERCBEjdaHRESOKEREBrZnzx4FQI2fPXv2yI7l10S/Gf1+/v3vqm1Pnar/9qv/2BMd7dkYjz5q3Ntaj5+gIEXJy6v5dyYkyM+l18+zz6pzP2v1ONm71/5jsXNndbfTpo3vY1Rat87969x8s+PnW0SE+re7O/R4jKm1zdBQRSktdW+Ma65RlJEj3R/7xRf1ua1cOXHC9RgTJqiTZfRobR4Dgf5zww3yM6jxc/as48fpnDmej7dunevHvx7PQRk/r75a9TdMmeL59SudOSP/b3Hk9Gn52Wrn3LpVv+2lp/v++HaHr7fJ/v3uX76wUFEKChTFZtM357BhivLxx94/HidP9v3+7NZNvcehI5deqv02Kiq0f+wvXer548Nbnt4uZWW+34a+5tDqJzxc2/GnTnX898fFKcqYMYrSs6ei9O6tKBMnKkpOjqL89JPrcYcOdX2ZDRvEdr77Tp3ngaJ4vs/Em2398Yfcx4QWj83aSksVpV8/38YrKvLus5Daf5MaY61Y4d1Y1an1d2Vnu34euOPxx11vS+b9Z+Sf7t2rbscbb9R2W5566y35t4+nf5/sDN78REaK72vx8e5fJzW15n3VvLn8v6P2fREVpf6YtTVqJPfvrF/f8+cVOcbjoUTmYNLGyERERPooKhI/iiI7iT4UBdiwQXYKoipWqzjTy9MziANReTnwxx/ajL1xozbjEhH5qrAQmD9fdAIk8sW0ae5ftlEj0RnyuuuANWu0y2RE0dGyE7jvppuAN94Q09NRFUUBnnzSvcs+9xywZYt/fR8uLtZ2/Lfftj9l7smTQM+ewDffiI5SR48CH34I/P3vvk/XS8a3cGHdroGeUBRg1Chg/Hj1MhERGUVBAfD440Dv3u5f59gx7fIQERH5ggVYREREXtixQ7T9bdRI/Nx0k3aFDUZjtcpOQCTajb/6qji4GRqqzjQ0gSAqSptxY2OB0lJtxiYi8kWHDsDo0cD06bKTkL/zpkDi6FFg2DCewGBUf/4pCut69ADi4mSnMY7ly4Gff3bvsl9/Ddx+O/DwwzwhopLFAnz3Xd3lDz9svzArJgYYN077XEbm6ZSN/sjXE1aWLQN+/VWdLKQNfypEJTKiffvElI9ERET+jgVYREREHjp4ELjjDmDXrqple/cCQ4YAu3fLy0UUKMrLgaFDgZkzWXhlJNzhTGQ8ViuwZAnw0kuyk8iTkyM7AQU6RQGeflqf98lAKGLQQm6uKI4hYfNmz6+zdCnwxRfqZ/FXr74qnveVRWnJycCJE44vX1amTy6SZ9ky366/das6OUguvk8TERERmR8LsIiISFNmPCD//PP2d5BWVADPPqt/HtKPGR/P/ujrr0XHAjKWbdtkJyAzOHBAdgJ1ODu4otd7SX4+cMMNoqhgzhx9tklE9qWkAPHx+myroECf7ZjNwYNARobsFMbw7bfeXW/RInVz+LvvvwcmThS/z5vn+3jufH5gcYd5zZ0rOwGRObz3npiaXOvpaImIiChwsQCLiIjIA4WFwOHDjtefPAlkZ+uXhygQbd8uO4H5KQoQHe3ZdVav1iYLEXk39dmYMcCRI+pnIfWxwDswLFigz3ZYEO29X36RncC/HT4sOtXaU1Gh33PASGbNEl2wuI+AiMgYJk8GXngB6NgROHRIdhoiIiIyIxZgEREReWDbtqppBBxZu1aXKEQB69dfZSfQT3o68M034gxNvbt+HTvm2eV5VjZRldRUdcd75BHg/Hn3L19cHFivlUT+QK9Cu3379NmO3vbuFR39br8dSEvTZhuZmdqMG0gslrrL0tOBa64BRo3SP49sFy8C+/fLTkFEzuhZCJ+bq9+2yLnMTOD++3mfEBERkfpCZAcgIiLyJ+xQQERaqv4aM3068O67QGlp1bLBg/XJ4arQlIicmzwZWL9e3TEfekgUILhj7Vr7B8GJjIhTZpErM2cCr74qOwV5a+RI4MwZ2SnkOX5cu6JBIvIvan8/MCM997smJQF//AE88IB+2yQiIiLzYwcsIiIiIiKD+OYb8e+aNcDrr9csvgKAzZv1yXHhgj7b8WcsbiFnNmxQf8x9+4DkZPcuGxur/vaJiGQ4dgwYN052CvJWUhKnDweAxYtlJyAiIzh6VHYCqu2zz2QnICIiIrNhARYRERERkYGsWgXMnq3N2Hl52ozrihmLlTidDMkwb57sBERE+tqwAbBaZacgb/30k+wE8hUUyE5ARGR80dHAwYP6nwzG7/VERESkNhZgEREREREZyMqVwKZN2oy9apU247ry1Vdytqul8nLZCSgQxcXJTkAUuDgVuRzvvCM7gbEpiuiocuAAkJUlO01dBw/KTiDfypWyExARGdvp00D37sANN7jf8ZeIiIjIqFiARURERGQSeh0Y5AFIbWnZ4SY7W7uxndFr6kQiMqfCQmDqVGD8eNlJKJD9/rvsBEQ1bd8O9O4N/O1vQN++QPv2YgprM3Ye9WdpabITEBERERERkV5CZAcgIiIiIm0FBclOoJ6iItkJyBtr1shOoA0e4CSj2LMHmD9fdGbr3h3Iz5edSD15eUCfPkBMjOwkFMjOnpWdQH1ffQU8/7zsFIHNl5MazpwBhg6t+XpfUgJMny4++0+b5ns+UodaJ69ERakzDpEvdu+WnYCIiIiIyNhYgEVEREREfqGkBBg4UHYKcsfhw8DcuaJrTbt2stNoIyEB6NpVdgoi4KWXgDlzZKfQzo8/yk5ARnPsWNVUvYMGie4/Wtu2Tftt6G3sWOCWW4AePaqWGanLaVAQ8P77slMYQ2mpmII2KEh89ggOBiZPdlxs+8UXwJtvApdeqm9Osu/CBXXGKSlRZxwiXzz7rOwERERERETGxgIsIiIiIvILhw7JTmAONpu243/8MfDvf2u7DV/Ex6s31rlz6o1F5I2FC81dfEXyGLF7ps0GjB4NLFhQc/mjjwI//SSKUrQyZox2Y8tisYhCtuoFWEbz8ceyE8g3dy4wcWLVNHZXXQVMmVL3eVDb77+L5wvJx8IpMovsbODkSdkp1JeVBbRoITsFEREREZlFPdkBiIiIiIhIPyEanoKxZYuxi68AMU0bkVksXiw7AZF+PvrIftHJL78AEyboHseQPC2ce+01bXKQOn76SUwTWVl8BYipBx980HVB/ezZ2mYjosCzbp3sBNro1092AiLyxnvvAR98ABw/LjuJfbt3A/fdJzsFERHJwAIsIiIKWIoCfPWV7BRERPrScnqhFSu0G5uIgOLimv8364Ews9K6A6GZKQrw5ZeO18+da6zp88j/ye4CpyjA66/bX2ex6JuFiAhQ/322enGpTHl5QG6u7BRE5KlDh8QJGj17iqm1jfZd4OabgcJC2SmIiEgGFmAREVHAmjIFmDlTdgqiwGa0HSTkG06FRqSt/ftlJyBfmHHaHr389ReQkeF4fVYWpyomczl+XEz3RURkRpMnA1dc4f31KyrUywI4L/Im8/vpJ+CJJ8TP8uU8acIfzZoFXLwoO4X2hg4FYmNlpyAiIldYgEVERAEpORl4913ZKYiIiIjcl5AgOwH54rvvZCfwX+4caDh7VvscRHpZudK36x86BDRvDjRuDPTvr04mIiK1HDwIlJZ6f/0NG9TLAnAq40D3r38B8+aJnwcfBG65BSgrk52KqK41a4C77mLXPiIio2MBFhERBaTdu73rvMNuPWS1ig4MmZl8PBAREZH7oqJkJyCiQHLxIlBQAOzZIy8Dvy9RoJo/X/0uTVRlxQp1x1PjvuLrnXns2gW8+absFET2nT0rOn4REZFxsQCLiIg0ZdQdEK+84t313Jm7/dNPgbw878YnY1u6FLj6aqB1a6BVK+Cmm2QnIqLqiopkJyAiIiIiAPjtN2DVKtkpAsuddwKvvgqkpMhOYl9Wlv3lRt1v5IvRo4GuXYGkJNlJzGn+fNkJxMl5K1YAM2cC338P5OfLTkRqWrzYnK9NZA7r1slOQEREzoTIDkBERIEjKEh2gioWi3Zjx8QA11+v3fgkT25uzTbPe/fKy0KkJX/defzNN7ITEFXZuRMYMEB2CiIKJNu3y05AJKxYATzwgOwUgWnmTM8uv3QpcOONQPv22uSprk0b4KmngM8/ByIitN+ebPHxwPDhwL59spOQN8rKxMmV9esDzZrVXHf2LHD33Zz+2MwyM4Hjx2WnILKP7ytERMbGDlhERKSpJUvEWUOJibKT6CsuTnYC/RipsM6fVFQA5eWyU3iHZwGSUW3aJDsBUZURI8SUtUTk3NSpwMsvA+PH80Cmr3JyZCcgEl1hnn5adgpy18iRQKdOwNixgM2m7bbKy4GvvgKeeSZwvlMePAicOiU7BXnCZgOmTQM6dBDdz5s3B+67D4iOFuuLi8X/+ZnF/LKzZSfwnDszNxAREZG2WIBFRESaio0FHnkE6NwZGDdOdhpSU0UFUFoqdrCTZx5+GGjQQPyoKVB2YhM5wik+yEgyMoCNG2WnIDK+zz4DZs8W/3brBkyfLjuRNvg5jQLFyZPAxYuyU5AnLBZg1izgk0/02d6iRcD+/fpsywi+/VZ2AnUEysl3kycDb7wBpKdXLVu1CrjjDtEVads2FtUFitOnRRc0f7J1q+wERERExAIsIiLShZZT/rmLO4HVkZoKPPcc0KgR0LAhcOWVshP5nyVLeBBOBq3P6CYiqu3jj2UnIPIvNps46Lljh+wkROStL7+UnYC89fnndU+w0qroZsMG4I8/gKFDgdtv12YbRrFzp+wE5K60NOCDD+yvS0oSRYp8jQscL74IfP217BSe4X4vIiIi+ViARUREAaNDB+CLL2Sn8H9vvCF2QPjr9HlmdvSo7ATGFh8vOwERBZozZ9Qfc9480YWSzINF2TXZbKI7SuXv27YBa9dKjUREHmCHZP9VUADs2qXPtiZOBAYNAtas0Wd7RO7YudP557ItW4B16/TLQ0TkyMiRwNtvc9pJIiIjCpEdgIiISC8FBWIaxLZtZSch0saaNcDzz8tOQaSd0lIgLEx2CiK5nngCWL0aWL5cdhIi7cydC4waBTz1lJj+hYiI9LF2LRAXJ0646tEDaN1adiIi/bz7rvP1x4/rk4OIyJWlS2UnICIiR1iARUREAec//5GdgEgbGzbITmBsa9YA114LDBwoOwl566efgDFjZKcgku+334Dvv5edgkhbw4YBmZmyU6gvPx+YMwdYsEB0s7v6anHAt29fIDdXdjoiCnRTp9b8fyAUYE2eLDsBERERERGZBQuwiIgo4Bw5AgQHy05BRHp77TXxb+fOcnOQ9559FhgyBGjXTnYSIu/99ps64/z+uzrjkH5OnQKOHQN69ZKdxD94W3x14gTwxx/i98GDRQcXoygrE5n2769aFhsrutqtXw/Mni0vGxGRPenpshNo7733ZCcgo+C00ERERETkKxZgERFRQLJaZScgIlliY2UnIF906iS6vd1+u+wkRJ67cKGqMMRXK1aoMw7pq3dv4Ouv2c1PC1YrMHo0MH9+1bKgIDGN4ddfS4tVw+TJNYuvKimKKDAmIiIieeLiZCcgIiIiIn/HAiwiIiIi8gjPCiWZKiqAkSOBmBigRQvZaYg8s3mz7ARkBC+9BPTvL6aeI/VMmgScPVtzmaIA330HXHGFnEy1bdokOwH5i5QU2QmIiIiIiIiIyFP1ZAcgIiIiIm3VPhhJ5O+ys4GdO2WnIPLcW2/JTkBGUFEhppsjdTn7vGOU6aX27pWdgPyFUbq2ERFVCgqSnYCIiIiIyPhYgEVERERkYrt3y05ApI0PP5SdgMg9r78uOvCUlQGZmbLTkFGwGI+IiIiIiIiIiMhcWIBFREREZGITJshOQKSNv/6SnYDIPdOnA888A3TpIjsJGc3HH3NaXyIiIiJ37d8vOwERERERkXMswCIiIiIyKYsFiIqSnYKIiAAgKUl2AjKaf/8bmDNHdgr7OM1Q4OjeHbj1VmDNGhYEEhGRsc2cKTsBEREREZFzLMAiIiIiMqmCAtkJXOOBPiIiCmTvvQfYbLJTUCCLjga2bQOGDgWmTJGdJrCcOCH+PXQIWLwY+O03oLRUbiZf8bM9EWnpl19kJyAiIiIici5EdgAiIiIiClw8SENERIEsPx84cEB2CiLBH4r3taR357ePPhI/1V12GTB3rr45iIgI+OAD2QmIiIiIyAxYgEVEREREuqssvGIBFqnBYgEWLZKdgojIO+++KzsBERlFaiowbJjsFEREgad2QSwRERERkTc4BSERERGRifTpA6xYITuFa82bA/Xq8QAT+c5iAe68Exg1SnYSIiLvpKXJTkBERETkH/LzZScgIiIiInKMBVhEREREJnLoEPDAA8B338lO4lxuruwErjVqJH6GDweOHZOdhhyZPBn44w/ZKYiIiIiIiMxL72laHfnXv2QnIDKuxETZCYiIiIgFWEREREQm9OKLQFaW7BT+rahI/Pz2G3DzzcCpU7ITUW0ffggsXCg7BRERkWucdpmIiMh3K1fKTkBkXLt3y05ARERELMAiIiIiMqHycmDPHtkpzKOwEHj6adkpqLZJk4CzZ2WnICIico0FWERERESkpaVLZScgIiIiFmARERERmdTbb8tOYC7794uOWERERERERERERERERETVsQCLiIiIyKQKC7UZNy1Nm3GNzmoFoqJkpyAiIiIirbFjmXceeEC77yBEJNeff8pOQERERERkfCGyAxARERER+QuLRXYCIiIiIiJj2rhRdgIi0sqXX8pOQERERhMUJDsBEZHxsAMWERERERERERERERERERERERGRl1iARUREREREREREpKGZM2UnICIiIiIiIiIiLbEAi4iIiIjIA6WlwNy5wKBBspMQERGRvygokJ2A6P+zd+dBVpVn/sCf083mAs0mChjFEFEzouISlx+gqIgGNS5JVMyojBqTaDKpjHFGs7ikxmTiJFNxmRKXkjDjilvABVFAwQWjuBHFdUQFF1C0lX3p8/vDujfd3Fbg9u0+fbo/n6pb3n5On/f9dplK5Y9v3hfIwpIlWScAAABaSoesAwAAQF6sXBkxfHjEU09lnQQAAIDWbs2arBMAAAAtRQELAAA20i9+EfHWW1mnAAAAIA+SJOsEAABAS3EFIQAAbCTlKwDaug8/zDoBALQdCxdmnQAAAGgpClgAAAAARETE9OlZJwAAAKC1W7064m9/i6itzToJQOuhgAUAAABARERcfHHWCQAAAMiDwYMjvvKViF/8ImLduqzTAGSvQ9YBAABoHkuXZp0AAMibl17KOgFkI00//3/xJ8nnHwAAYMM++yzi0ks//9/Tl16adRqAbDkBCwAAAIAi5RPao0svjejcOaJLl4iTTso6DQAA5MtvfxuxaFHWKQCypYAFAAAAABARdXURt9+edQoAAMifBx/MOgFAthSwAAAAAAAAAICy/fGPWScAyJYCFgAAAAAAAAAAQJkUsAAAAAAoStOsEwAAAABAvihgAQAAAFB05ZVZJwAAAACAfFHAAgAAAKBo4sSsEwAAAABAvihgAQAAAAAAAAAAlEkBCwAAAAAAAAAAoEwKWAAAAAAAAABA2Wprs04AkC0FLAAAAAAAAADF8JOaAAAgAElEQVSgbG+8kXUCgGwpYAEAAAAAAAAAAJRJAQsAAAAAAAAAAKBMClgAAAAAAAAAAABlUsACAAAAAAAAAAAokwIWAAAAAAAAAABAmRSwAAAAAAAAAAAAyqSABQAAAAAAAAAAUKYOWQeg6VasWBHPPPNMzJkzJ5577rn44IMPora2Nmpra2P58uWRpmlF90uSJN54442KrgkAAAAAAAAAAHmkgJVjs2bNiuuvvz5uv/32WLFiRcnzShevCpIkaZZ1AQAAAAAAAAAgbxSwcuidd96J73//+zF16tSI+PKiVaXLUs1V6gIAAAAAAAAAgDxSwMqZ++67L0466aRYunRpsQzlRCoAAAAAAAAAAMiGAlaOPPzww/Htb387Vq5cGRGKV8CmW7Ag6wQAAAAAAAAA0LYoYOXERx99FMcee2ysXLmyWLxK07RBCcv1gMCGzJiRdQIAAAAAAAAAaFsUsHLi4osvjtra2kbLV2maRlVVVYwYMSKGDh0au+22W/Tr1y+6desWW2yxRZaxgVbmlFOyTgAAAAAAAAAAbYsCVg4sXrw4xo0b1+C0q8L3JEniBz/4Qfzyl7+Mvn37ZhURAAAAAAAAAADaJQWsHHjggQdizZo1JdcNbrbZZnHXXXfFYYcdlmE6AAAAAAAAAABov6qyDsCGTZkypcHPhesHr732WuUrAAAAAAAAAADIkAJWDsybN6/4vVC+2m+//WLMmDEZpgIAAAAAAAAAABSwcmDx4sUNrh+MCOUrAAAAAAAAAABoBRSwcmDx4sUls+HDh2eQBAAAAAAAAAAAqE8BKweqqkr/NW2zzTYZJAEAAAAAAAAAAOpTwMqB7t27l8y6dOmSQRIAAAAAAAAAAKA+Bawc+NrXvhZpmjaYLVq0KKM0AAAAAAAAAABAgQJWDgwZMqRktmDBggySAAAAAAAAAAAA9Slg5cCRRx5ZMps2bVoGSQAAAAAAAAAAgPoUsHJgxIgRsd1220VERJIkkaZpTJo0KeNUAAAAAAAAAACAAlYOVFdXx7nnnhtpmhZnc+fOjTvvvDPDVAAAAAAAAAAAgAJWTvzoRz+KPfbYIyL+fgrWz3/+81iyZEnGyQAAAAAAAAAAoP1SwMqJqqqquOWWW6KmpiYiPi9hzZ8/P4466qhYsWJFxukAAAAAAAAAAKB9UsDKkUGDBsXdd98dW2yxRXE2e/bs2GeffeJvf/tbhskAAAAAAAAAAKB9UsDKmeHDh8e0adOib9++kaZpRES89NJLsc8++8Tpp58eL7zwQsYJAQAAAAAAAACg/eiQdQA2zoQJExr8/NOf/jQuueSSWLZsWSRJEqtWrYrx48fH+PHjo1+/fjFs2LAYNGhQ9OjRI7p37x5JklQ0zymnnFLR9QAAAAAAAAAAII8UsHLitNNOa7RElaZpJEkSSZIUT8RauHBh3Hrrrc2aRwELAAAAAAAAAAAUsHKnULJaf1YoYX3Z71VKpU/TAgAAAAAAAACAvFLAypn1y0+FolX9wtX6ZaxKas5iFwAAAAAAAAAA5I0CVs45jQoAAAAAAAAAALKjgJUjTp8CAAAAAAAAAIDWRQErJ0499dSsIwAAAAAAAAAAAOtRwMqJG264IesIAAAAAAAAAADAeqqyDgAAAAAAAAAAAJBXClgAAAAAAAAAAABlUsACAAAAAAAAAJokTbNOAJAdBSwAAAAAAAAAoEmeey7rBADZUcACAAAAAAAAAJpkypSsEwBkRwELAAAAAAAAAGiSCy7IOgFAdjpkHQDYNMuXL4958+bFa6+9FkuWLIna2tro2LFj9OjRI3r06BFf//rXY6eddookSbKOCgAAAAAAAADQ5ilgQSu3aNGimDFjRkyfPj0eeeSReO2116Kuru5L3+nRo0cMGzYszjjjjBg9enRUVTnsDgAAAAAAAACgOShgQSu0aNGiuP3222PixIkxc+bMDRau1vfxxx/HpEmTYtKkSTFgwIC4/PLL46ijjmqmtAAAAAAAAAAA7ZdjcaAVuuCCC+Lss8+Ohx9+eJPLV+ubP39+HH300TF27NhYtWpVhRICAAAAAAAAABDhBKwW9/bbb3/p8+22267sd1val2Wl+XXv3j223nrr6NOnT0RELF68OF599dUvLGyNHz8+Pvroo7jjjjuiY8eOLRkVAAAAAAAAAKDNUsBqYQMGDIgkSRp9liRJrF27tqx3W9qGslJ5m2++eRxzzDFx8MEHx/Dhw2PHHXcs+Z3a2tq499574/e//308//zzJc8nT54cZ599dlxzzTUtERkAAAAAAAAAoM1zBWEG0jT9wk9T3m3pDy1j3333jeuuuy7ef//9uPHGG+P0009vtHwVEVFTUxNjxoyJOXPmxK9//etGf+e6666Lxx9/vDkjAwAAAAAAAAC0G07AykBjp1htbKGpNZyApXzVMvbff/+48MILY9SoUZv8bnV1dVx88cXRqVOn+OUvf9ngWZqm8Ytf/CJmzJhRqagAAAAAAAAAAO2WAha0QhdffHH079+/yetccMEFMXny5HjyyScbzGfOnBmLFi2KPn36NHkPAAAAAAAAAID2zBWE0ApVonwV8fmJaeedd17JvK6uLh544IGK7AEAAAAAAAAA0J45AauFbbfddmVfI9iUd2m/DjvssEbnb731VgsnAQAAAAAAAABoexSwWtj8+fMzeZf2a8stt4wePXrExx9/3GD+/vvvZ5QIAAAAAAAAAKDtcAUhtAOdOnUqmVVXV2eQBAAAAAAAAACgbVHAgjZu2bJlsXjx4pJ53759M0gDAAAAAAAAANC2KGBBGzdz5syoq6srmQ8cODCDNAAAAAAAAAAAbYsCFrRxN9xwQ8msY8eOcdhhh2WQBgAAAAAAAACgbVHAgjZs7ty5ceedd5bMDznkkKipqckgEQAAAAAAAABA29Ih6wBA86irq4sf/OAHsW7dupJn5557bovleOKJJ5r0/ty5cyuUBAAAAAAAAACg8hSwoI269NJL4/HHHy+ZH3nkkXHIIYe0WI4DDjigxfYCAAAAAAAAAGhpriCENujBBx+MCy+8sGReU1MTV111VQaJAAAAAAAAAADaJgUsaGPmzZsX3/3ud6Ourq7k2bhx42K77bbLIBUAAAAAAAAAQNukgAVtyLvvvhtHHHFEfPLJJyXPfvrTn8YJJ5yQQSoAAAAAAAAAgLarQ9YBgMr48MMPY+TIkfHWW2+VPDvuuOPiP//zPzNIFfH444836f25c+fGWWedVaE0AAAAAAAAAACVpYDVRqxbty5mz54dTz/9dLz44ouxYMGCWLRoUSxfvjxWrVoVaZpWbK8kSeLFF1+MLl26VGxNmqa2tjZGjRoVL730Usmzww8/PG6++eaorq7OIFnE/vvvn8m+AAAAAAAAAAAtQQEr55544om4+uqr46677oply5Y1eFbJ0lV9SZJEXV1ds6zNpvvss89i1KhR8cwzz5Q8GzFiRNx5553RqVOnDJLR2jTTfyUAAAAAAAAAQLumgJVT//d//xdnn312TJ06NSK+uGyVJElF922uUhflWbZsWXzzm9+MJ598suTZ0KFDY/LkybHZZptlkIzW6JVXsk4AAAAAAAAAAG2PAlYO3XnnnXHqqafG8uXLi4WoShetaP2WL18eo0ePjkcffbTk2X777Rf33XdfbLHFFhkko7W6+uqsEwAAAAAAAABA26OAlTM33XRTnHLKKcUrAL+seNXYaVWV/H2ys2LFijjqqKPikUceKXm29957x5QpU6Jr164ZJKM1+/jjrBMAAAAAAAAAQNujgJUjc+bMibFjx0ZdXV2xGJWmaYPvG/JlVxU2to4rB1uflStXxre+9a2YPn16ybMhQ4bE1KlTo6amJoNkAAAAAAAAAADtjwJWTtTV1cWpp54aa9asaXAqVZIkkaZp1NTUxPHHHx9HHHFEbLfddtGrV6/42te+VlLUmjdvXlRXV8fHH38cS5YsiTfeeCMee+yxeOSRR2LhwoXFNQvv9O7dO/77v/879tlnnwZ5Nt988xb6y6lv1apVceyxx8aDDz5Y8my33XaLBx98MHr06JFBMgAAAAAAAACA9kkBKyf+53/+J1566aUG5avC6VQnnHBCXH755bHVVlttcJ0BAwZEp06dGsx++MMfRpqm8Ze//CX+8Ic/xGOPPVY8EevDDz+Mk08+Oa644or4/ve/X9k/ik2yevXqOO6442LKlCklz/7hH/4hHnrooejVq1cGyQAAAAAAAAAA2q+qrAOwcS6//PIGPxdOtDr77LPj5ptv3qjy1ZdJkiSOOeaYmDVrVlx55ZWx2WabFedr1qyJH/7wh/HHP/6xSXtQvjVr1sR3vvOduO+++0qe7bLLLjF9+vQm/2cAAAAAAAAAAIBNp4CVA6+//no8++yzJdcJ7rXXXiXFrEr40Y9+FDNnzoyuXbtGxN+vOTzvvPNi8uTJFd+PL7d27do44YQTYtKkSSXPdtppp5g+fXr06dMng2QAAAAAAAAAAChg5cDUqVMbnV9xxRUNriSspD333DMmT54cHTt2jIjPS1h1dXVx5plnxieffNIse1Jq3bp1MWbMmLjrrrtKnu24444xffr02GabbTJIBgAAAAAAAABAhAJWLjz99NPF72maRkTEbrvtFvvuu2+z7jts2LD4yU9+UtwzImLx4sXxu9/9rln35XN1dXVxyimnxMSJE0ueDRw4MKZPnx79+vXLIBkAAAAAAAAAAAUKWDkwb968Bj8nSRLHHntsWWvVL1NtjF/96lfRs2fP4r5pmsa1114bK1euLGt/Nk6apnH66afHTTfdVPJshx12iBkzZsS2226bQTIAAAAAAAAAAOrrkHUANmzhwoUlVw3utddeZa21Zs2a6Ny580b/fteuXePoo4+O8ePHFzN88sknMW3atBg9enRZGdiwH//4xzF+/PiS+eabbx6//e1vY+HChbFw4cIm7dG5c+cYMmRIk9YAAAAAAAAAAGjvFLBy4JNPPimZ7bTTTht8b/3SVkTE8uXLY8stt9yk/Y888siSMtBDDz2kgNWM7rnnnkbny5cvjxNPPLEie2y//fYxf/78iqwFAAAAAAAAANBeuYIwB1asWFEyq6mp2eB7jRWtPvvss03ev7Gy19y5czd5HQAAAAAAAAAAaGsUsHKgU6dOJbMttthig+917dq1ZLZo0aJN3n/rrbcufk+SJNI0jddff32T1wEAAAAAAAAAgLZGASsHunXrVjJbunTpBt9rrID19ttvb/L+nTt3Lpk1di0iAAAAAAAAAAC0NwpYOdDYdYO1tbUbfK93796RpmmD2SuvvLLJ+y9ZsqRktnz58k1eh403f/78SNO0WT/z58/P+s8EAAAAAAAAAMg9Bawc2H777UuKVB999NEG39t1111LZk899dQm7z937tyS2cZcgQgAAAAAAAAAAG2dAlYO7LLLLiWzF198cYPvDR48uPg9SZJI0zRmzpwZq1ev3qT9p06dWjLr1avXJq0BAAAAAAAAAABtkQJWDuy8884ls+eff36D7+2xxx4ls6VLl8bEiRM3eu9PPvkkJkyYEEmSREREmqaRJEl85Stf2eg1AAAAAAAAAACgrVLAyoF99923ZDZnzpwNvrfffvvF1ltvXfy5cArWBRdcsFFXGEZEnHXWWfHpp5+WzIcOHbpR7wMAAAAAAAAAQFumgJUDe+yxR3Tv3j0i/l6i+utf/7rBElVVVVV85zvfiTRNG8wXLFgQRx99dCxcuPAL3125cmWcfvrpMXHixOKe9R1yyCFl/jUAAAAAAAAAANB2KGDlQJIkMWzYsAYlqLq6upg0adIG3x07dmzx+sDCWmmaxuzZs2PXXXeNs88+O+6777544YUX4rXXXouZM2fGJZdcEoMGDYrx48eXvBcRscsuu8RBBx1Usb8PAAAAAAAAAADyqkPWAdg4Rx11VEyePLnBbOLEiTF27NgvfW/IkCHxj//4jzFhwoRiiarwz9ra2rj66qvj6quvLnmvULaq/07h5/PPP79CfxUAAAAAAAAAAOSbE7By4rjjjosOHT7vyxVKUVOnTo1XXnllg+/+/ve/L7nCMEmS4vfGPvWf1y9fHXPMMXHyySc33x8KAAAAAAAAAAA5ooCVEz179oyDDz64WJCK+Pwawssuu2yD7/bp0ycmTpwYnTp1iogouZKwsU9ENChfpWkagwcPbnAtIQAAAAAAAAAAtHeuIMyRG264Id59990Gs0KpakMOOeSQmDJlSpxwwgmxaNGiBiWsL1I4ASsi4ogjjohbbrklunbtuunBAQAAAAAAAACgjVLAypG+fftG3759y37/wAMPjL/97W9x4YUXxg033BArV64sPqt/0lV9AwcOjIsuuijGjBmzUaUtAAAAAAAAAABoTxSw2pnevXvHVVddFZdeemlMnjw5Zs2aFa+88kosXrw41qxZEz169IitttoqhgwZEqNGjYr9998/qqurs44NAAAAAAAAAACtkgJWO1VTUxPf+9734nvf+17WUQAAAAAAAAAAILeqsg4AAAAAAAAAAACQVwpYAAAAAAAAAAAAZXIFYQ6sXLkyVq9eXTLv1q1bBmkAAAAAAAAAAIACJ2DlwPHHHx89evRo8Nljjz1i3bp1WUcDAAAAAAAAAIB2zQlYOfDyyy9HmqbFn5MkiVNPPTWqq6szTAUAAAAAAAAAADgBKwfef//9SJIkkiQpzkaMGJFhIgAAAAAAAAAAIEIBKxcau2pw0KBBGSQBAAAAAAAAAADqU8DKgS233LJk1q1btwySAAAAAAAAAAAA9Slg5cA222xTMvvss88ySAIAAAAAAAAAANSngJUDO+20U6Rp2mC2aNGijNIAAAAAAAAAAAAFClg5sO+++5bMXnrppQySAAAAAAAAAAAA9Slg5cDhhx9eMrvnnnsySAIAAAAAAAAAANSngJUDu+22W+y5554REZEkSaRpGvfcc08sWbIk42QAAAAAAAAAANC+KWDlxHnnnRdpmhZ//vTTT+PXv/51hokAAAAAAAAAAAAFrJz47ne/GwcddFCkaVo8BWvcuHFxyy23ZB0NAAAAAAAAAADaLQWsHLn55pujX79+EfH5VYTr1q2LU045JcaPH59tMAAAAAAAAAAAaKcUsHJk6623jgcffDD69+9fPAlr7dq1cfrpp8dRRx0Vr732WtYRAQAAAAAAAACgXVHAyplddtklZs+eHQcffHCD6wjvu+++2HnnneOggw6KcePGxbPPPhtr167NOi7QiiRJ1gkAAAAAAAAAoO3pkHUANs7BBx/c4Oc0TaNDhw6xbt26YgkrImLWrFkxa9asiIjo1KlTbLPNNtGtW7eoqamJDh0q8687SZKYNm1aRdYCAAAAAAAAAIA8U8DKiYcffjiSRo6vKRSvCs8KP0dErFq1Kt56660Gz5uqcOoWAAAAAAAAAACggJU79QtWjc2/qKT1Re9tCsUrAAAAAAAAAABoSAErZ9YvQa1frKr/c+F3FacAAAAAAAAAAKB5KGDlnHIVsLGWLcs6AQAAAAAAAAC0PQpYOVKJawSB9mvatKwTAAAAAAAAAEDbo4CVEzNmzMg6ApBzH3+cdQIAAAAAAAAAaHsUsHLiwAMPzDoCAAAAAAAAAACwnqqsAwAAAAAAAAAAAOSVAhYAAAAAAAAAAECZFLAAAAAAAAAAAADKpIAFAAAAAAAAAABQJgUsAAAAAAAAAACAMnXIOgAb5+233y6Zbbfddm1+bwAAAAAAAAAAaM0UsHJiwIABkSRJ8eckSWL58uXRqVOnZt131apVje69du3aZt0XAAAAAAAAAADyQAErR9I0bZd7AwAAAAAAAABAa1WVdQA2XpIkDU6iai97AwAAAAAAAABAa6WABQAAAAAAAAAAUCYFLAAAAAAAAAAAgDIpYAEAAAAAAAAAAJRJAYsvtXbt2pJZVZX/2AAAAAAAAAAAQIQCFhuwdOnSklnnzp0zSAIAAAAAAAAAAK2PAhZf6s033yyZ1dTUZJAEAAAAAAAAAABaHwUsvtRjjz1W/J6maURE9O3bN6s4AAAAAAAAAADQqihg8YVWrlwZ48aNiyRJirMkSWLHHXfMMBUAAAAAAAAAALQeClg5Vr8YVUmrV6+O+++/P0aMGBGvv/56yfO99967WfYFAAAAAAAAAIC86ZB1gPbsz3/+c/z5z38u+/2RI0dGVVVlOnR1dXWxfPny+Oijj+Ltt9+Ourq64rM0TRuUvQ477LCK7AkAAAAAAAAAAHmngJWh+fPnx8MPP7zRJ1mladrg+6xZsyqap/76BYVshRLW7rvvHoMHD67ovgAAAAAAAAAAkFcKWK1EY+Wn5nhnQ9Yvg61/+tVvfvObiu8JAAAAAAAAAAB5pYDVSmzoFKwvO52qOdXf42c/+1mMHj262fcEAAAAAAAAAIC8qMo6AK1XmqaRpmnU1NTEVVddFZdddlnWkQAAAAAAAAAAoFVxAlYrUO5Vgs1xBWFBnz59Yr/99ovRo0fHiSeeGF27dm22vQAAAAAAAAAAIK8UsDJ02mmnxUEHHbTB30vTNA4++ODidYBpmkaSJDFlypTo1KlTRbJUVVVFp06doqamJvr27Rs1NTUVWRcAAAAAAAAAANoyBawMbb/99rH99tuX/f6BBx5YsQIWAAAAAAAAAACw6aqyDgAAAAAAAAAAAJBXTsDKkTRNs44AAAAAAAAAAADUo4CVE6eeemrJrLq6OoMkAAAAAAAAAABAgQJWTtxwww1ZRwAAAAAAAAAAANZTlXUAAAAAAAAAAACAvFLAAgAAAAAAAAAAKJMCFgAAAAAAAAAAQJkUsAAAAAAAAAAAAMrUIesAtJxly5bFzJkzY9q0afHqq6/Ghx9+GEuWLIkOHTpETU1NfPWrX40999wzDj300Bg8eHDWcQEAAAAAAAAAoNVTwGoH3n///fiP//iPuOaaa2LlypUNnqVpGhERSZLE7Nmz46abboqIiF133TXOP//8OPHEE1s8LwAAAAAAAAAA5IUrCNu4CRMmxMCBA+Pyyy+PFStWRJqmDT5JkkRElMznzp0bJ598chx44IHx9ttvZ/xXAAAAAAAAAABA66SAlaGDDz44evbsWfK58cYbK7L+v/zLv8TYsWOLxaskSUo+EfGF8zRNY9asWbH//vvH3LlzK5IJAAAAAAAAAADaElcQZmTJkiUxc+bMqKurazDv2bNnHH/88U1e/7LLLov/+q//iogoFqoi/n7l4IbUL2G99957cfjhh8fs2bPjK1/5SpOzAQAAAAAAAABAW+EErIw89NBDUVdXV3IS1ZlnnhldunRp8trnn39+yWlWhfJVYyderf9Z/4rC9957L8aMGbPRBS4AAAAAAAAAAGgPFLAyMnXq1JJZVVVVnH322U1ad926dXHOOecUT9aqX7yKiJJCVmOf9X+v8P3xxx+Pa6+9tkn5AAAAAAAAAACgLVHAysgTTzxRUnIaOnRobLvttk1ad9y4cfHqq68WT7EqqH+yVe/evePCCy+MJ554IhYtWhSrVq2KBQsWxMMPPxw//vGPo6ampkHxqvB+mqZxySWXxJo1a5qUEQAAAAAAAAAA2goFrAwsW7YsXnnllZL5cccd16R10zSN3/3udw2KUxHR4ErBE088Md5444248MILY999943evXtHx44do1+/fjF8+PD405/+FC+++GKMGjWqWMKqX+R677334o477mhSTgAAAAAAAAAAaCsUsDLw7LPPFq8ILEiSpMkFrOnTp8eCBQsiIhpcJVgoUp1wwglx0003xZZbbvml6/Tt2zcmT54cI0eOLDkJKyJiwoQJTcoJAAAAAAAAAABthQJWBp5//vni90JRapdddon+/fs3ad31i1H1i1P9+vWLa6+9dqPX6tChQ9x2223Ru3fvBuulaRozZsyI5cuXNykrAAAAAAAAAAC0BQpYGXjzzTcb/JwkSey1115NWjNN05g0aVLJaVWFE6zOP//8DZ58tb6ampr49a9/3eAKwoiI1atXx+zZs5uUFwAAAAAAAAAA2gIFrAysX8CKiNh7772btObzzz8ftbW1EREl1wZ269YtzjjjjLLWHTt2bGy22WYl87/+9a/lBQUAAAAAAAAAgDZEASsD8+fPL5kNHjy4SWvOmjWrZFYoYh1zzDHRqVOnstbdYost4ogjjig5Bevll18uaz0AAAAAAAAAAGhLFLAysGTJkpKrAnv37t2kNRsrYBUcffTRTVr7gAMOKJm98cYbTVoTAAAAAAAAAADaAgWsDCxbtqxk1rNnzyat+dRTT5WUugqGDRvWpLXrn86VJEmkaRoffPBBk9YEAAAAAAAAAIC2QAErA40VsGpqaspe78MPP4y33norIv5+7WDBoEGDmny61g477FAy++ijj5q0JgAAAAAAAAAAtAUKWBlYs2ZNyWzFihVlr/f000+XzApFrD333LPsdQu6du1aMmtKXgAAAAAAAAAAaCsUsDLQ2GlXn332WdnrNVbAKqhEAWvLLbcsma1evbrJ6wIAAAAAAAAAQN4pYGWge/fuJbN333237PVmz579hc8qUcCqq6srmXXp0qXJ6wIAAAAAAAAAQN4pYGWgpqYm0jRtMJs7d27Z6z355JORJElERPGfhe977bVX2esWLFu2rGTW2LWEAAAAAAAAAADQ3ihgZWDAgAElsyeffLKstZ577rn46KOPIiJKSl2DBg2Kbt26lbVufe+9917JTAELAAAAAAAAAAAUsDKxzz77FL8nSRJpmsakSZNi3bp1m7zWpEmTSmZpmkaSJDF06NAm5SyYP39+ydq9evWqyNoAAAAAAAAAAJBnClgZqF/AKvj444/jtttu2+S1/vd//7fBtYP1HXrooZu8XmNeeOGFktnAgQMrsjYAAAAAAAAAAOSZAlYG9tlnn+jcuXPx58IpWBdccEGsWrVqo9eZPHlyvP766xHx95OpCjp27BiHHzlwnj8AACAASURBVH54RfLOmTOnZDZo0KCKrA0AAAAAAAAAAHmmgJWBrl27xnHHHRdpmjaYv/322zFmzJiSeWOWLl0a//zP/1xy+lWhiDVy5Mjo1q1bk7PW1dXFrFmzSvbZcccdm7w2AAAAAAAAAADknQJWRs4666zi90JpKk3TuPvuu2P06NGxcOHCL3z3nXfeiUMPPTTmz59ffH99Z5xxRkVyzp49O2pra0vmgwcPrsj6AAAAAAAAAACQZx2yDtBeDR8+PPbee++YM2dOsXxV+OcDDzwQgwYNitGjR8fIkSOjf//+UV1dHe+++27MmDEjbr/99uJVhYXyVf0TqgYOHBhHH310RXLecccdJbOamprYddddK7I+AAAAAAAAAADkmQJWhq677rrYZ599Yu3atSUlrBUrVsQdd9zRaAGqfumq/ulXhfcvuuiikisDy1FXVxe33nprca3C+vvtt1+T1wYAAAAAAAAAgLbAFYQZ2m233eLf/u3fGi1RFcpVjX3qP4+IBuWtgw46KMaMGVORfPfee2+8++67JfOhQ4dWZH0AAAAAAAAAAMg7BayMXXTRRXHcccd9YbGqsU9E41cPbrPNNjFhwoSKZbvyyisbnR966KEV2wMAAAAAAAAAAPJMAStjSZLErbfeGmPHjm20VLWhU7AKv/PVr341pk2bFv37969IrmeffTYefPDBkqsMt9lmm/jGN75RkT0AAAAAAAAAACDvFLBagerq6rj++uvjxhtvjL59+xZLVhEbPgUrTdM49thj48knn4ydd965Ypl+85vflMySJImjjjqqYnsAAAAAAAAAAEDeKWC1IieddFK8/vrrMW7cuBg+fHh06NDhC0/A6tu3b5x66qkxZ86cuOOOO6JXr14Vy/Hkk0/G3XffHRGlJ3Adc8wxFdsHAAAAAAAAAADyrkPWAWioS5cuceaZZ8aZZ54ZK1asiJdffjneeeedWLp0aXTp0iV69eoV2267bQwcOLDZMuywww4xd+7cRp9V8pQtAAAAAAAAAADIOwWsVmyzzTaLIUOGxJAhQ1p03z59+kSfPn1adE8AAAAAAAAAAMgjVxACAAAAAAAAAACUSQELAAAAAAAAAACgTApYAAAAAAAAAAAAZVLAAgAAAAAAAAAAKJMCFgAAAAAAAAAAQJkUsAAAAAAAAAAAAMqkgAUAAAAAAAAAAFAmBSwAAAAAAAAAAIAyKWABAAAAAAAAAACUSQELAAAAAAAAAACgTApYAAAAAAAAAAAAZVLAAgAAAAAAAAAAKJMCFgAAAAAAAAAAQJkUsAAAAAAAAAAAAMqkgAUAAAAAAAAAAFAmBSwAAAAAAAAAAIAyKWABAAAAAAAAAACUSQELAAAAAAAAAACgTApYAAAAAAAAAAAAZVLAAgAAAAAAAAAAKJMCFgAAAAAAAAAAQJkUsAAAAAAAAAAAAMqkgAUAAAAAAAAAAFAmBSwAAAAAAAAAAIAyKWABAAAAAAAAAACUSQELAAAAAAAAAACgTApYAAAAAAAAAAAAZVLAAgAAAAAAAAAAKJMCFgAAAAAAAAAAQJkUsAAAAAAAAAAAAMrUIesA7U11dXXWEZosSZJYu3Zt1jEAAAAAAAAAACBzClgtLE3TrCMAAAAAAAAAAAAVooCVgSRJso5QNgUyAAAAAAAAAAD4OwWsjOSxyJTn4hgAAAAAAAAAADQHBayMVKrM1FiRq9y1K7kWAAAAAAAAAAC0BwpYGWiu06/ql6U2dY8kSYrv1383jyd1AQAAAAAAAABAS1HAamF1dXUVWefqq6+Of/3Xf42lS5cWZ4Wy1NZbbx1HHHFE7LHHHrHHHntE//79o1u3blFTUxNpmsann34an376aSxYsCCeffbZeO655+L++++PxYsXR0Q0KGJ17949/vCHP8TYsWMrkhsAAAAAAAAAANoSBaycWbVqVZxyyilx++23F2eF4tXo0aPjnHPOiZEjR0ZVVdUXrrHVVlvFVlttFQMHDowDDzwwIiLWrVsXU6ZMiSuuuCKmTp1aPBGrtrY2zjjjjJgxY0Zcf/310bFjx+b9AwEAAAAAAAAAIEe+uKVDq7NmzZoYPXp0TJw4sVi6StM0BgwYEPfee29Mnjw5Ro0a9aXlqy9SXV0do0ePjilTpsRdd90V2267bYM9brzxxjj22GMrdoIXAAAAAAAAAAC0BQpYOXLOOefE9OnTi6dTRUTsvvvuMXv27DjiiCMqts+3vvWteOKJJ+LrX/96RHx+JWGapnH//ffHz372s4rtAwAAAAAAAAAAeaeAlRPTpk2La6+9tli8StM0tt9++3jkkUeiT58+Fd+vX79+MXPmzOjXr19E/L2EdeWVV8bjjz9e8f0AAAAAAAAAACCPFLBy4le/+lXxe5qmUVVVFddff31069at2fbs2bNnjBs3rngVYUREXV1dgywAAAAAAAAAANCeKWDlwHPPPRezZ88unkKVJEkMHTo0RowY0ex7f/Ob34x99923uG9ExMMPPxzz5s1r9r0BAAAAAAAAAKC1U8DKgb/85S8ls5NOOqnF9m9sr8mTJ7fY/gAAAAAAAAAA0FopYOXAE088UTI74IADWmz//fffv2T22GOPtdj+AAAAAAAAAADQWilg5cC8efOK1/8V9OvXr8X279+/f/F74RrEl19+ucX2BwAAAAAAAACA1koBKwcWL15cMuvatWuL7b/llluWzBYtWtRi+wMAAAAAAAAAQGulgNXKrVu3LlauXFkyf++991osQ2N7LVu2rMX2BwAAAAAAAACA1koBq5Wrrq6O6urqkvmbb77ZYhnmz59fMuvUqVOL7Q8AAAAAAAAAAK2VAlYO9OzZs2R29913t9j+d911V8msV69eLbY/AAAAAAAAAAC0VgpYObDzzjtHmqYREZEkSaRpGrfddlujVxNW2tKlS+P222+PJEkiIiJN00iSJHbeeedm3xsAAAAAAAAAAFo7BawcGDZsWMnsgw8+iPPPP7/Z9z733HNjyZIlJfOhQ4c2+94AAAAAAAAAANDaKWDlwDHHHNPg58IpWFdccUXcdtttzbbvhAkT4pprrinuV9+xxx7bbPsCAAAAAAAAAEBeKGDlwN577x177bVXg1mSJFFXVxcnn3xyXHXVVRXf849//GP80z/9U/HqwUIJK0mS+H//7//FrrvuWvE9AQAAAAAAAAAgbxSwcuK3v/1t8RSqNE2LZah169bFT37ykxgxYkTMnTu3yfs8++yzMWzYsPj5z38edXV1xf3q+/d///cm7wMAAAAAAAAAAG2BAlZOHHrooXHaaacVi1cFhZOpHnnkkRgyZEgceOCBcc0118TChQs3eu0FCxbE1VdfHcOGDYu99947Hn/88eI+6//zzDPPjGHDhjXHnwgAAAAAAAAAALnTIesAbLyrrroqXnzxxXjqqacalKIK3+vq6uLRRx+NRx99NCIievXqFbvvvnv0798/unXrFt26dYs0TeOzzz6LTz/9NBYsWBDPP/98LFmypLhH4bSr+lcPFuy///7xpz/9qQX/YgAAAAAAAAAAaN0UsHJks802i/vvvz8OO+yweOaZZ4rlqPqnYtW/LvDDDz+M6dOnf+ma618v+EVrfuMb34h77rknOnfuXLG/BwAAAAAAAAAA8s4VhDnTs2fPmDlzZnz7298uOa2q8L3+J03TL/009vv110zTNE488cSYMWNGdO/eveX/YAAAAAAAAACA/8/evUdZXdaLH/98BxhuM9wxRNACo0wBjQAZuRpLKj0KQUsr9dA5qcdraq7TylN51I5GmmEeKzI7pi7rMFbqMQlDbqWZoQIqqFggiAoTdxgkZvj+/vA32xn2IDC3PXvm9VprVjPP3vt5Pjurf3qv5wvNmAArD3Xq1Clmz54dP/vZz6JXr15Zt1hF1HyU4Pv9VH9v1fur1nr37h333ntvPPDAA9GxY8cm+GYAAAAAAAAAAJBfBFh5bPr06bFq1aq47rrrMiFWbbdiHUz16KoqvLrhhhti1apVce655zbK7AAAAAAAAAAA0BIIsPJcly5d4rrrrot169bFr3/96/jiF78Yffr0OeijB/f/6du3b5x//vnx8MMPx7p16+Ib3/hGFBcX5/rrAQAAAAAAAABAs9Y21wPQMAoLC2Py5MkxefLkiIhYt25dvPDCC/G3v/0t3nrrrdi2bVvs2bMnIiLat28f3bp1iyOPPDIGDBgQgwcPjn79+uVyfAAAAAAAAAAAyEsCrBaqf//+0b9//1yPAQAAAAAAAAAALZpHEAIAAAAAAAAAANSRAAsAAAAAAAAAAKCOBFgAAAAAAAAAAAB1JMACAAAAAAAAAACoIwEWAAAAAAAAAABAHbXN9QA0noqKinjzzTdjy5YtsXv37ti7d2+kaRoREWPHjs3xdAAAAAAAAAAAkP8EWC3I3/72t3jsscdi4cKFsXTp0lizZk0muKouSZIoLy+PwsLCHEwJAAAAAAAAAAAthwCrBfjVr34VM2fOjKeeeiqzVlt4dTh27NgRJSUlsWfPnhrr3/3ud2Py5Mn12hsAAAAAAAAAAFoKAVYeW7JkSVx44YWxbNmyiKgZXSVJUutnDjXMKi4ujmHDhsW9995bY/0nP/mJAAsAAAAAAAAAAP6/glwPQN3MmDEjRo0aFcuWLYs0TSNN00iSJPNTXdXrh+uqq66KiKix57x582LDhg31/wIAAAAAAAAAANACCLDy0EUXXRTXXnttVFZW1givalOfRxEOHTo0Tj755Bp7VFZWxuzZs+u8JwAAAAAAAAAAtCQeQZhnvvrVr8Zdd90VEbU/ZrAqlioqKooPfOAD0bNnz3jmmWcOGGgdzJQpU+Lpp5+usfb444/H5ZdfXqf9aFgrVqyIF198Md58883YuXNndOjQIXr37h3HHXdcnHTSSdGuXbtcjwgAAAAAAAAA0KIJsPLI7Nmz4/vf//4Bw6sBAwbEJZdcEp/85CdjyJAhmfcVFNT9orOzzjorvva1r0XEu8FXmqaxePHi2LdvX732pe7WrVsXd9xxRzzwwAOxfv36A76vS5cuceaZZ8YVV1wRw4cPb8IJAQAAAAAAAABaDwVNnti6dWutt06laRpFRUXxs5/9LFatWhVXX311DB06tM43Xu1v0KBBceyxx9ZY27lzZzzzzDMNsj+HLk3T+M53vhMf+chH4pZbbnnf+CoiYvv27XH//ffHiBEj4p//+Z9j+/btTTQpAAAAAAAAAEDrIcDKEzNnzoyysrIaYVXVrVfPP/98TJ8+vcGiq/0NGzYs82jDKkuXLm2Us6jdO++8E2eddVZ8/etfj927dx/25++9994YPnx4rFmzpuGHAwAAAAAAAABoxQRYeaCysjJ+9KMfZcVXvXv3jrlz58aAAQMa9fyhQ4dmrb388suNeibvqaysjGnTpsX//d//1fp6u3btYujQofHJT34yRowYEUVFRbW+79VXX41TTz013n777cYcFwAAAAAAAACgVRFg5YH58+dHWVlZ5u80TSNJkrj11ltj4MCBjX7+kCFDstZeeeWVRj+Xd11//fXx29/+Nmu9W7ducdttt0VZWVksXbo05s2bF3/+859j8+bN8eCDD8agQYOyPrN69er4whe+EPv27WuK0QEAAAAAAAAAWjwBVh6YP39+5veqRwEef/zxcd555zXJ+UcddVSNv9M0jbVr1zbJ2a3d8uXL46abbspaP+aYY2LJkiVx1VVXRdeuXWu81q5du5g6dWo899xzMWnSpKzPLliwIGbNmtVoMwMAAAAAAAAAtCYCrDywZMmSGn8nSRLTpk1rsvOrBz5Vj0Hcvn17k53fml1zzTVRWVlZY61z584xZ86cg95+1rlz5/j1r38dxx9/fNZr3/zmN2PXrl0NOisAAAAAAAAAQGskwMoDf/3rXzPhU5WJEyc22fn737AUEbFjx44mO7+1eu655+L3v/991vo3v/nNOO644w5pj06dOsVdd92Vtb5p06b4yU9+Uu8ZAQAAAAAAAABaOwFWHti0aVPWWr9+/Zrs/MLCwqw1tyc1vtoeE9ijR4+4/PLLD2ufUaNG1foowtrCLAAAAAAAAAAADo8AKw+Ul5dnrfXs2bPJzt+6dWvWWrt27Zrs/NaooqIiSktLs9bPPffc6NSp02Hvd8EFF2StrVy5MpYuXVqn+QAAAAAAAAAAeJcAKw/UdgNVUz4CcMuWLVlrnTt3brLzW6M///nPtf77PnXq1Drtd/rpp0fHjh2z1h977LE67QcAAAAAAAAAwLsEWHmgqKgoa622xxI2ltdeey3ze5qmERHRp0+fJju/NZo/f37WWqdOnWLUqFF12q9Dhw5RUlJySOcAAAAAAAAAAHDoBFh5oF+/fpnwqcoLL7zQZOc/+eSTNf5OkiSOOeaYJju/NVqyZEnW2oknnlivRz+OGDEia+3ZZ5+t834AAAAAAAAAAAiw8sKxxx6btbZgwYImO7+2s4YMGdJk57dGy5cvz1obPHhwvfas7fNbt26NtWvX1mtfAAAAAAAAAIDWrG2uB+DgRo4cGaWlpRHx7u1TaZrGI488Ej/4wQ+iffv2jXr2kiVL4rnnnoskSbJmonHs3bu31iiqthDvcBzo83/961/j6KOPrtfe5Ieb4uvx2fh1rscAAAAAAACgBfp1fDYibs71GAA5IcDKAxMmTMha27hxY9x9991xySWXNOrZt9xyS9ZaYWFhTJw4sVHPbc3WrVsX+/bty1o/6qij6rXvgT6/Zs2aeu17MH/605/q9fmmfNxmS9cn3o6PxKu5HgMAAAAAAIAWqE+8nesRAHJGgJUHTjrppBgwYECsXr06It67Betb3/pWnHHGGY12e9FvfvObKC0tzdx+laZpJEkSkyZNis6dOzfKmbwb19XmAx/4QL32PdDny8rK6rXvwZSUlDTq/gAAAAAAAAAAuVSQ6wE4NBdeeGGkaVpjbfPmzTF16tTYvn17g5+3cuXK+PKXv5z16MGIiIsvvrjBz+M9mzdvrnW9a9eu9dq3TZs20alTp6z1TZs21WtfAAAAAAAAAIDWTICVJy6++OLo0aNH5u+qMOrZZ5+NU045JV5//fUGO2vRokUxevTo2LJlS2at6varYcOGxaRJkxrsLLLt3Lmz1vWioqJ6713bHrt27ar3vgAAAAAAAAAArZUAK08UFxfHzTffnLkFqyqIioh46aWXYvDgwXHDDTfUK6bZuHFjXHLJJXHaaafFli1bsm6/SpIkbrvttrp/CQ7J3r17a11v27b+Twxt165d1to//vGPeu8LAAAAAAAAANBa1b/ooMlccMEF8fDDD8djjz0WSZJkIqw0TWPnzp1x/fXXx6233hqf+cxn4qyzzoqhQ4fGhz/84Vr3qoqrNm7cGPPnz4+HHnoofvvb30Z5eXmNuCvivdjrK1/5SowePbpJvmtrVllZWet6mzZt6r13bXtUVFTUe9/389RTT9Xr8y+88EJcdNFFDTQNAAAAAAAAAEDDEmDlmfvvvz9KSkri5ZdfrhFhRUQmxCotLY3S0tKIOHC0M3z48Fi9enWNx91V3a5V281X48ePjxkzZjTGV2I/B7rpqiFCqdr2qO1WrIY0atSoRt0fAAAAAAAAACCXBFh5plu3bjF//vw49dRTMxFWleohVpWq4Kb6WpqmsXz58qy99w+vqt47cuTIeOihhxrkEXgcXPv27WtdP9CjCQ9HbY8bPNB5tDy/iSnx1xiY6zEAAAAAAABogZbHkPhSrocAyBFFTR7q06dPPP3003H22WfH3Llza72xqrrq8dX7vW9/aZrGGWecEb/85S+jU6dO9RuaQ1ZcXFzr+vbt2+u9944dO7LWunTpUu99yQ//F2fG/8WZuR4DAAAAAAAAAFqUglwPQN106dIl5syZE3fccUcUFxfXGlkdKLyKqP22rOqf69y5c8ycOTMeeeQR8VUT69mzZ63rW7durde+e/bsiT179hzyeQAAAAAAAAAAHJwAK89deumlsXr16vja174WPXr0iDRNM1FVVWSVJEnWT5XqIVaaptGxY8e4+OKL49VXX40rrrii6b8Q0adPn1rXN2zYUK9933rrrcM6DwAAAAAAAACAgxNgtQDdu3ePm2++OdavXx+lpaVx/vnnR79+/TJR1cF+iouL49Of/nTMmjUr3njjjbjzzjtFOTnUt2/faN++fdb62rVr67XvunXral3/0Ic+VK99AQAAAAAAAABas7a5HoCGU1hYGFOnTo2pU6dGRMSmTZtixYoVsW7duigrK4vdu3dHRUVFdOjQIYqLi6N///4xcODAGDRoUI1bscitJEli4MCBsWLFihrrr776ar32PdDnjz322HrtCwAAAAAAAADQmgmwWrCePXvGmDFjcj0GdXDSSSdlBVhLly6t1561fb5fv37Rq1eveu0LAAAAAAAAANCaeQQhNEMjR47MWluxYkVs3769znv+6U9/OqRzAAAAAAAAAAA4dAIsaIYmTpyYtVZZWRnz5s2r035lZWXx/PPPH9I5AAAAAAAAAAAcOgEWNEPHHXdcDBw4MGv9f//3f+u0X2lpaezbt6/GWpIkcfrpp9dpPwAAAAAAAAAA3iXAgmbq3HPPzVr7zW9+E+vXrz+sfdI0jTvvvDNrffz48dG/f/86zwcAAAAAAAAAgAALmq0LL7wwCgsLa6zt3bs3vvGNbxzWPj//+c9jxYoVWeuXXXZZveYDAAAAAAAAAECABc1W375941/+5V+y1u+5554oLS09pD1WrVoVV155Zdb6CSecEJMnT673jAAAAAAAAAAArZ0AC5qxG2+8MXr06JG1ft5558UvfvGL9/3s0qVL45Of/GRs27Yt67Uf/OAHUVDgv/4AAAAAAAAAAPXVNtcD0LAqKytj8+bNsW3btti2bVuUl5dHmqYNfs7YsWMbfE+y9erVK+6+++6YMmVKjfU9e/bEF77whbjvvvviwgsvjFGjRkWvXr1ix44dsWzZsnjggQfif/7nf2Lv3r1Ze1511VUxYcKEpvoKAAAAAAAAAAAtmgArz+3atStKS0vjySefjGeffTZWrFhRa3TTkJIkiYqKikY9g/dMnjw5brrpprj22muzXpszZ07MmTPnkPc644wzYsaMGQ05HgAAAAAAAABAqybAylOrV6+Ob3/721FaWhq7du2KiGiUm65oHr7+9a9Hx44d45prronKyso67XHuuefGT3/602jXrl0DTwcAAAAAAAAA0HoV5HoADt/MmTNjyJAhcc8998TOnTsjTdNMfJUkSaP+kDtXXnllPPnkkzFs2LDD+tyRRx4Z9913X9x3333Rvn37RpoOAAAAAAAAAKB1cgNWnvnSl74U9957b43gitZj5MiRsWTJkpg3b17cf//9MW/evFi/fn3W+7p16xZjxoyJadOmxdlnny28AgAAAAAAAABoJAKsPHL11VfHz3/+84g4tPDKIwlbrokTJ8bEiRMjImLr1q3x5ptvxq5du6JDhw7Rq1evOPLII3M8IQAAAAAAAABA6yDAyhNPPfVUzJw5s0Z4laZp5u/qsVWXLl2iT58+0aVLl+jcuXOTz0rT6tatW3Tr1i3XYwAAAAAAAAAAtEoCrDxxzTXXZH6vCq+SJMn8/qlPfSq+8IUvxOjRo+ODH/xg7gYFAAAAAAAAAIBWRICVB5YtWxZPP/10jeCq6sarE044Ie66664YOXJkjqcEAAAAAAAAAIDWR4CVB373u99lfq8eYZ100kkxb948j58DAAAAAAAAAIAcKcj1ABzc/Pnzs9batWsXv/zlL8VXAAAAAAAAAACQQwKsPPDGG29EkiQREZnbr774xS/Gsccem+PJAAAAAAAAAACgdRNg5YGysrKstTPPPDMHkwAAAAAAAAAAANUJsPLA1q1bs9ZOOOGEHEwCAAAAAAAAAABUJ8DKA506dcpaO+KII3IwCQAAAAAAAAAAUJ0AKw/07t07a+2dd97JwSQAAAAAAAAAAEB1Aqw88LGPfSzSNK2xtnHjxhxNAwAAAAAAAAAAVBFg5YFTTjkla23lypU5mAQAAAAAAAAAAKhOgJUHJk+enLU2Z86cHEwCAAAAAAAAAABUJ8DKA4MGDYqJEydGmqaRJEmkaRoPP/xwbN++PdejAQAAAAAAAABAqybAyhM33HBDJEmS+XvLli3xne98J4cTAQAAAAAAAAAAAqw8cfLJJ8dll11W4xas733ve/H73/8+16MBAAAAAAAAAECrJcDKI9/73vdi7NixmQhr7969MW3atJg/f36uRwMAAAAAAAAAgFZJgJVH2rZtG48++miNCGvHjh1x2mmnxbXXXhs7d+7M9YgAAAAAAAAAANCqCLDyTFFRUcydOzf+9V//NRNh7du3L2bMmBH9+/ePq6++Op544okoLy/P9agAAAAAAAAAANDitc31AByaU089NWutqKgodu7cGUmSRJqmsW3btrj99tvj9ttvjzZt2kTfvn2je/fu0a1bt0iSpMFmSZIknnjiiQbbDwAAAAAAAAAA8pUAK08sXLjwfSOqqtfSNI2IiIqKili7dm2sXbu2QeOrqlu3AAAAAAAAAAAAAVbeqQqsaltLkiQrjkrTtNbP1IXwCgAAAAAAAAAAahJg5ZnaAqvafq96n2gKAAAAAAAAAAAajwArzwmsAAAAAAAAAAAgdwRYeaShHiUIAAAAAAAAAAA0DAFWnliwYEGuRwAAAAAAAAAAAPYjwMoT48aNy/UIAAAAAAAAAADAfgpyPQAAAAAAAAAAAEC+EmABAAAAAAAAAADUkQALAAAAAAAAAACgjgRYAAAAAAAAAAAAdSTAAgAAAAAAAAAAqCMBFgAAAAAAAAAAQB0JsAAAAAAAAAAAAOqoba4HoPFUVFTEm2++GVu2bIndu3fH3r17I03TiIgYO3ZsjqcDAAAAAAAAAID8J8BqQf72t7/FY489FgsXLoylS5fGmjVrMsFVdUmSs5WJxAAAIABJREFURHl5eRQWFuZgSgAAAAAAAAAAaDkEWC3Ar371q5g5c2Y89dRTmbXawqvDsWPHjigpKYk9e/bUWP/ud78bkydPrtfeAAAAAAAAAADQUgiw8tiSJUviwgsvjGXLlkVEzegqSZJaP3OoYVZxcXEMGzYs7r333hrrP/nJTwRYAAAAAAAAAADw/xXkegDqZsaMGTFq1KhYtmxZpGkaaZpGkiSZn+qqXj9cV111VUREjT3nzZsXGzZsqP8XAAAAAAAAAACAFkCAlYcuuuiiuPbaa6OysrJGeFWb+jyKcOjQoXHyySfX2KOysjJmz55d5z0BAAAAAAAAAKAlEWDlma9+9atx1113HTC8qrrtqnPnzjFgwIAYMWJERBz4kYQHM2XKlKy1xx9/vE57AQAAAAAAAABASyPAyiOzZ8+O73//+wcMrz70oQ/FrbfeGs8//3xs27YtVq1aFU8//XS9zjzrrLMyvydJEmmaxuLFi2Pfvn312hcAAAAAAAAAAFoCAVae2Lp1a1x++eVZ62maRlFRUfzsZz+LVatWxdVXXx1Dhw6t841X+xs0aFAce+yxNdZ27twZzzzzTIPsDwAAAAAAAAAA+UyAlSdmzpwZZWVlNcKqNE1jwIAB8fzzz8f06dMbLLra37BhwyJN0xprS5cubZSzAAAAAAAAAAAgnwiw8kBlZWX86Ec/yoqvevfuHXPnzo0BAwY06vlDhw7NWnv55Zcb9UwAAAAAAAAAAMgHAqw8MH/+/CgrK8v8naZpJEkSt956awwcOLDRzx8yZEjW2iuvvNLo5wIAAAAAAAAAQHMnwMoD8+fPz/xe9SjA448/Ps4777wmOf+oo46q8XeaprF27domORsAAAAAAAAAAJozAVYeWLJkSY2/kySJadOmNdn5Xbt2rXF2RMT27dub7HwAAAAAAAAAAGiuBFh54K9//WsmfKoyceLEJju/eoBVZceOHU12PgAAAAAAAAAANFcCrDywadOmrLV+/fo12fmFhYVZa7t27Wqy8wEAAAAAAAAAoLkSYOWB8vLyrLWePXs22flbt27NWmvXrl2TnQ8AAAAAAAAAAM2VACsP1HYDVVM+AnDLli1Za507d26y8wEAAAAAAAAAoLkSYOWBoqKirLXaHkvYWF577bXM72maRkREnz59mux8AAAAAAAAAABorgRYeaBfv36Z8KnKCy+80GTnP/nkkzX+TpIkjjnmmCY7HwAAAAAAAAAAmisBVh449thjs9YWLFjQZOfXdtaQIUOa7HwAAAAAAAAAAGiuBFh5YOTIkZnfkySJNE3jkUceiT179jT62UuWLInnnnsukiQ54EwAAAAAAAAAANBaCbDywIQJE7LWNm7cGHfffXejn33LLbdkrRUWFsbEiRMb/WwAAAAAAAAAAGjuBFh54KSTTooBAwZk/q66Betb3/pWrF27ttHO/c1vfhOlpaWZ26/SNI0kSWLSpEnRuXPnRjsXAAAAAAAAAADyhQArT1x44YWRpmmNtc2bN8fUqVNj+/btDX7eypUr48tf/nLWowcjIi6++OIGPw8AAAAAAAAAAPKRACtPXHzxxdGjR4/M31Vh1LPPPhunnHJKvP766w121qJFi2L06NGxZcuWzFrV7VfDhg2LSZMmNdhZAAAAAAAAAACQzwRYeaK4uDhuvvnmzC1YVUFURMRLL70UgwcPjhtuuCF27dpV5zM2btwYl1xySZx22mmxZcuWrNuvkiSJ2267re5fAgAAAAAAAAAAWhgBVh654IIL4jOf+UwmvqoeYe3cuTOuv/76OPLII+Occ86JX/ziF7FixYrYu3dvrXtVfW7jxo3xy1/+Ms4555wYOHBgzJo1K/bu3Vsjvqo65ytf+UqMHj268b8oAAAAAAAAAADkiba5HoDDc//990dJSUm8/PLLWRFWmqaxc+fOKC0tjdLS0oiIaNOmTa37DB8+PFavXh07d+7MrFXdrlXbzVfjx4+PGTNmNMZXAgAAAAAAAACAvOUGrDzTrVu3mD9/fnz0ox+tEV9FvBtKVUVZVT8VFRUREZm/q35fvnx57Nixo8Z7qz5fXZqmMWLEiHjooYeibVu9HgAAAAAAAAAAVCfAykN9+vSJp59+OiZNmpSJqqqrCqlqC6oO531pmsYZZ5wRTzzxRBQXFzfodwAAAAAAAAAAgJZAgJWnunTpEnPmzIk77rgjiouLaw2xalurUv2xhbV9rnPnzjFz5sx45JFHolOnTg03OAAAAAAAAAAAtCACrDx36aWXxurVq+NrX/ta9OjRo8ajBqsiq/1vutr/sYUR7z2isGPHjnHxxRfHq6++GldccUXTfyEAAAAAAAAAAMgjAqwWoHv37nHzzTfH+vXro7S0NM4///zo169fJqo62E9xcXF8+tOfjlmzZsUbb7wRd955Z/Tp0yfXXwsAAAAAAAAAAJq9trkegIZTWFgYU6dOjalTp0ZExKZNm2LFihWxbt26KCsri927d0dFRUV06NAhiouLo3///jFw4MAYNGhQjVuxAAAAAAAAAACAQyPAasF69uwZY8aMyfUYAAAAAAAAAADQYnkEIQAAAAAAAAAAQB0JsAAAAAAAAAAAAOpIgAUAAAAAAAAAAFBHbXM9AIdm8eLFWWtjx45t9HPTNI0//OEPOTkbAAAAAAAAAACaOwFWnhg/fnwkSZL5O0mSKC8vj8LCwkY99x//+EetZ1dUVDTquQAAAAAAAAAAkA8EWHkmTdNWeTYAAAAAAAAAADRHBbkegMNT/Saq1nQ2AAAAAAAAAAA0RwIsAAAAAAAAAACAOhJgAQAAAAAAAAAA1JEACwAAAAAAAAAAoI4EWLyvvXv3Zq0VFPiPDQAAAAAAAAAARAiwOIjt27dnrXXo0CEHkwAAAAAAAAAAQPMjwOJ9vfbaa1lr3bt3z8EkAAAAAAAAAADQ/AiweF+LFi3K/J6maURE9O3bN1fjAAAAAAAAAABAsyLA4oA2b94cP/7xjyNJksxakiQxaNCgHE4FAAAAAAAAAADNhwArj1UPoxrKvn374rXXXosf/ehH8YlPfCLeeuutrPeMHDmywc8FAAAAAAAAAIB81DbXA7Rmt99+e9x+++11/vygQYMaLMLat29flJeXx7Zt26KioiIi3nvkYJqmNc751Kc+1SBnAgAAAAAAAABAvhNg5dDWrVtjzZo1h/z+qiCq6vfXX3+9EaZ6T/XoqirCGjNmTAwcOLBRzwUAAAAAAAAAgHwhwGoGDuUWq+rx1eF8riEVFBTETTfd1KRnAgAAAAAAAABAc1aQ6wFo/qrir9tuuy1KSkpyPA0AAAAAAAAAADQfAixqlaZp5ufDH/5wPProo3H55ZfneiwAAAAAAAAAAGhWPIKwGajt8YKN+bmD6dq1a3zkIx+Jk08+OU4//fSYOHFikz/uEAAAAAAAAAAA8oEAK4euvPLKmD59+kHfl6ZpDBgwIBNBpWkaSZLEypUro3379g0yS0FBQRQWFkbXrl2jQ4cODbInAAAAAAAAAAC0dAKsHOratWt07dq1zp//4Ac/GIWFhQ04EQAAAAAAAAAAcDgKcj0AAAAAAAAAAABAvnIDVh5J0zTXIwAAAAAAAAAAANUIsPLEddddl7XWtq1/fAAAAAAAAAAAkEsKnjxRW4AFAAAAAAAAAADkVkGuBwAAAAAAAAAAAMhXAiwAAAAAAAAAAIA6EmABAAAAAAAAAADUkQALAAAAAAAAAACgjgRYAAAAAAAAAAAAdSTAAgAAAAAAAAAAqKO2uR6gtbnhhhve9/Vvfetbdf5sU3u/WQEAAAAAAAAAoDVI0jRNcz1Ea1JQUBBJkhzw9crKyjp/tqm936zQUP70pz9FSUlJjbWnnnoqRo0alaOJ8lcz+p8PAAAAAAAAWiD1weHz/4dCy+AGrByprXs71LiqOTRzzSkEAwAAAAAAAACAXBFg5cj+AdPhRFW5jp+aQwAGAAAAAAAAAADNQUGuBwAAAAAAAAAAAMhXbsDKgfrcIOX2KQAAAAAAAAAAaD4EWE3suuuuy8lnAQAAAAAAAACAhifAamICLAAAAAAAAAAAaDkKcj0AAAAAAAAAAABAvhJgAQAAAAAAAAAA1JEACwAAAAAAAAAAoI4EWAAAAAAAAAAAAHUkwAIAAAAAAAAAAKgjARYAAAAAAAAAAEAdCbAAAAAAAAAAAADqSIAFAAAAAAAAAABQRwIsAAAAAAAAAACAOhJgAQAAAAAAAAAA1FHbXA9Aw6isrIyXXnopli5dGhs2bIht27bFtm3bory8PNI0bdCzkiSJu+++u0H3BAAAAAAAAACAfCTAymPl5eUxe/bsuOeee+KZZ56JPXv2NPqZaZoKsAAAAAAAAAAA4P8TYOWhffv2xS233BI33XRT7Ny5MyKiwW+5AgAAAAAAAAAADk6AlWdWr14dn/vc5+L555+vEV0lSdIk5wu9AAAAAAAAAADgPQKsPLJ+/fo49dRTY+3atZlHAQIAAAAAAAAAALkjwMoTe/fujUmTJsXrr78eSZJk4qv9Qyw3VAEAAAAAAAAAQNMRYOWJH/7wh7FixYoa4VXEu48erPq9qKgoPv7xj8eQIUOib9++0aVLl+jcuXPOZgYAAAAAAAAAgJZOgJUHdu/eHTfeeGOtt16laRqDBw+O//iP/4gzzzwzOnTokMtRAQAAAAAAAACgVRFg5YEFCxbE5s2bM7ddVf/Xa6+9Nq6//vpo06ZNrscEAAAAAAAAAIBWR4CVB373u99lfq8eX11zzTXx7W9/O4eTAQAAAAAAAABA61aQ6wE4uL/85S9Za8ccc0zceOONOZgGAAAAAAAAAACoIsDKAxs3bowkSSIiMrdfTZ8+PQoLC3M8GQAAAAAAAAAAtG4CrDxQVlaWtXbaaaflYBIAAAAAAAAAAKA6AVYe2LNnT9Za//79czAJAAAAAAAAAABQnQArD3Tp0iVrrVu3bjmYBAAAAAAAAAAAqE6AlQeOOeaYSNO0xtqmTZtyNA0AAAAAAAAAAFBFgJUHhgwZkrW2YcOGHEwCAAAAAAAAAABUJ8DKA6eddlrW2pNPPpmDSQAAAAAAAAAAgOoEWHng9NNPj6Kiohprc+bMydE0AAAAAAAAAABAFQFWHiguLo4LLrgg0jSNJEkiTdN44oknYunSpbkeDQAAAAAAAAAAWjUBVp745je/GUcccUTm73379sXVV18daZrmcCoAAAAAAAAAAGjdBFh5olu3bvHTn/40kiSJJEkiImLRokVx6aWX5ngyAAAAAAAAAABovQRYeeSMM86IW2+9tcajCGfNmhXTp0+P8vLyXI8HAAAAAAAAAACtjgArz1x55ZVx5513RkFBQSbCuu++++LEE0+M++67LyoqKnI9IgAAAAAAAAAAtBptcz1Aa7N27dp673H66adH586d47LLLotdu3ZFmqbx2muvxfTp0+Pf//3fY+LEiTFmzJgYNGhQdO/ePbp165Z5bGFDOfrooxt0PwAAAAAAAAAAyEcCrCb2wQ9+sEFjqKrHEVb9vmHDhnjggQfigQceaLAz9pckiZu2AAAAAAAAAAAgBFg5kaZpg++XJEmNEAsAAAAAAAAAAGh8AqwcaOgbsKr/a/UQqzGIuwAAAAAAAAAA4D0CrDzXmLEVAAAAAAAAAADw/gpyPQAAAAAAAAAAAEC+cgNWEzv66KPdWgUAAAAAAAAAAC2EAKuJrVmzJtcjAAAAAAAAAAAADcQjCAEAAAAAAAAAAOpIgAUAAAAAAAAAAFBHAiwAAAAAAAAAAIA6EmABAAAAAAAAAADUkQALAAAAAAAAAACgjgRYAAAAAAAAAAAAdSTAAgAAAAAAAAAAqCMBVo589KMfjUsuuSRmz54dGzduzPU4AAAAAAAAAABAHbTN9QCt1auvvhqrVq2KWbNmRUTEcccdFxMmTIgJEybEuHHjomfPnjmeEAAAAAAAAAAAOBgBVo6laRoREStWrIiVK1fGD3/4w0iSJE444YQaQVbXrl1zPCkAAAAAAAAAALA/AVaOJUkSEe+GWFUxVpqmsXz58njhhRfiBz/4QRQUFMSJJ56YCbLGjBkTRUVFuRwbAAAAAAAAAAAIAVbOVUVXVSFW9fWq1yorK+PZZ5+N5557Lr73ve9FmzZtYtiwYZkga/To0dGxY8cmnx0AAAAAAAAAAFo7AVaO1RZeJUnyvkFWRUVFPPPMM/HMM8/EjBkzol27djF8+PBMkFVSUhLt27dvsu8AAAAAAAAAAACtVUGuB2itBg8eHBHvhVXvdxNW1Xr1n+qf+8c//hFPPfVU/Nd//VdMnDgxunfvHqeeemrceOON8cc//jH27t3btF8OAAAAAAAAAABaCTdg5ciyZctiy5YtsWjRoli4cGEsWLAgXnzxxUxwFREHvAnrQOtV3nnnnVi0aFEsWrQo/vM//zM6duwYJSUlmRuyhg8fHm3atGncLwgAAAAAAAAAAK2AACuHunfvHpMnT47JkydHRMTmzZtrBFkvvfRS1s1Y1cOr/W/Hqq56kFVeXh5PPPFEPPHEExER0blz5xg9enQmyBo2bFjW5wEAAAAAAAAAgIMTYDUjPXr0iClTpsSUKVMiImLTpk01gqwVK1YcUnR1sCBr586dMXfu3Jg7d25ERHTp0iXGjh2bCbKGDh3aaN8RAAAAAAAAAABaEgFWM9azZ8/47Gc/G5/97Gcj4t0gqyrGWrhwYaxYsSLz3voEWdu2bYtHH300Hn300Yh492aucePGZYKs448/vlG+HwAAAAAAAAAA5DsBVh7p2bNnTJ06NaZOnRoREX//+99rBFkrV67MvLc+QdbmzZvjoYceioceeigiInr16hXjx4/PBFkf+chHGuX7AQAAAAAAAABAvhFg5bFevXrFtGnTYtq0aRERUVZWViPIevnllzPvrU+QVVZWFg8++GA8+OCDERFx5JFHxhtvvNEo3wkAAAAAAAAAAPKJAKsF6d27d3zuc5+Lz33ucxERsXHjxkyMtXDhwnjllVcy761PkPXWW2811lcAAAAAAAAAAIC8IsBqwY444og4++yz4+yzz46IiA0bNtQIsl599dXMew81yKoeYgEAAAAAAAAAQGsnwGpFPvCBD8Q555wT55xzTkREvP322zWCrFWrVtX6ueohFgAAAAAAAAAA8B4BVivWp0+f+PznPx+f//znI+LdRwtWBVkPP/xwlJWVRZIkbr0CAAAAAAAAAIADKMj1ADQPGzZsiMWLF8cf/vCHWLx4cfz9738XXwEAAAAAAAAAwEG4AauVKisryzx6cMGCBfHKK6/UeF14BQAAAAAAAAAAByfAaiU2bdqUia0WLlwYK1euzLxWW2xVdftVkiRNOSYAAAAAAAAAAOQVAVYLtXnz5li0aFEmuHrppZcyr+0fXB0osqpar/7+D3/4wzFu3LhGmBgAAAAAAAAAAPKPAKuF2Lp1a43g6sUXX8yEUwe64ao2+7/3uOOOi3HjxmV++vTp0/DDc1jWrVsXL730Urz55puxdevW2L17d3Tt2jW6d+8eRx55ZHziE5+ILl265HpMAAAAAAAAAIBWQYCVp7Zt2xaLFy/OBFfLly+vd3CVJEkMHjw4E1uNHTs2evfu3ThfgEOyb9+++Mtf/hILFiyIBQsWxNNPPx3bt29/388UFBTExz72sZgyZUpcdNFFcdRRRzXRtAAAAAAAAAAArY8AK09s3749Fi9eHAsXLowFCxbE8uXLY9++fRFR9+CqoKAgTjzxxBrBVffu3RvnC3DI0jSNxYsXR2lpafzqV7+Kt99++7A+v2/fvnjxxRfjxRdfjJtuuinOO++8uO222/yzBQAAAAAAAABoBAKsZmrHjh3xhz/8IRNcLV26tN7BVZs2beLjH/94JrgaM2aMR9U1Q+vXr4/x48c3yF6VlZVxzz33xOOPPx73339/TJgwoUH2BQAAAAAAAADgXQKsZmLXrl01gqvnn38+KisrI6LuwVW7du3iE5/4RCa4OuWUU6KoqKhxvgBNqm3bttGnT5844ogjolu3brFt27ZYs2ZNbNq0qdb3v/nmm3H66afHb3/7WxEWAAAAAAAAAEADEmDlSHl5efzxj3/MBFfPPvtsvYOr9u3bx4gRIzLBVUlJSXTs2LFxvgBNbvDgwTFlypQYM2ZMlJSURKdOnWq8nqZpvPjiizFr1qy4++6745133qnx+u7du+Of/umf4rnnnotBgwY15egAAAAAAAAAAC2WACtHunXrlgmuIrKjq0MJrjp27Bgnn3xyJrg6+eSTo3379o0zMDlRXFwc559/fnzpS1+KYcOGve97kySJwYMHx3//93/Hv/3bv8W0adPilVdeqfGeXbt2xRVXXBG/+93vGnNsAAAAAAAAAIBWQ4CVIxUVFZEkSSaoOpTgqqioKEpKSmLcuHExduzYGDFiRLRr165J5qVpFRcXx6WXXhrXXHNN9OzZ87A/f8IJJ8T8+fNj1KhRsXbt2hqvzZ07NxYtWhTjxo1rqHEBAAAAAAAAAFotAVaOVQ+v9r8Fq0uXLjF69OjMDVfDhg2LNm3aNPWINLFevXrF6tWr6xReVde3b9/48Y9/HJ/5zGeyXnvwwQcFWAAAAAAAAAAADUCAlWNpmmZuwkqSJPr16xeXXXZZTJw4MYYOHRoFBQW5HpEm1qFDh+jQoUOD7PXpT386Bg8eHC+88EKN9cceeyzuuOOOBjkDAAAAAAAAAKA1E2A1A9UjrDfeeCNuvPHGmD9/fkyYMCHGjh0bw4cPd/MVdXbaaadlBVjr1q3L/OcOAAAAAAAAAIC6E2A1E1WPH0zTNHbu3BmPP/54PP744xER0alTpygpKYnx48fH+PHjY/jw4dG2rX90HJqjjz46a23v3r2xadOm6NWrVw4mAgAAAAAAAABoOVQ8OXagG4iqgqyIiF27dsW8efNi3rx5ERHRsWPHTJA1bty4/8fenUdJUZ57HP/1rDDMMMOwyi77vq8DCMMmu+ygrCKLKKIiCCgRAQED4q64BIW4K4io0XiNAkYBTYwmaow7qMRczzUxMUbjxv3jPSzDzPT0dFfVW1X9/ZzTB+jqrvoNs3VXPe/zqHv37hRkoVQZGRkl3k9XNQAAAAAAAAAAAAAAgMRRtWPJ2Wefrb179+rDDz88dt+JxVgnF2adWJD1n//8R88995yee+45SaYgq2fPnurbt6/69eun7t27Kz093eWPAEFx8ODBYvdlZmaqSpUq3ocBAAAAAAAAAAAAAAAIGQqwLNmyZYsk6fDhw9q9e7d2796tPXv26KOPPjr2mPIUZD3//PN6/vnnJUkVKlRQjx49jnXI6tGjR6ldkBB+u3fvLnZf48aNLSQBAAAAAAAAAAAAAAAIHwqwLKtTp46mTp2qqVOnSpI+/fTTIgVZJ3YvirUg65tvvtGePXu0Z88eSabbUY8ePY51yOrZsycFWUnirbfe0iuvvFLs/hEjRlhIAwAAAAAAAAAAAAAAED4UYPlM3bp1NW3aNE2bNk2S9MknnxQpyDp06NCxx8ZakPXtt99q79692rt3r1avXq2MjAx1795d/fr1O1aQlZmZ6fJHBhtWrVpV4v1jx471OAkAAAAAAAAAAAAAAEA4RY6cWKkD3zt06NCxYqy9e/eWWpB1spM/zSc+NiMjQ926dTvWIaugoEAVKlRwPjw89etf/1pDhw4tdn+vXr304osvepZj//79CT3/jTfe0Lx584rct2/fPvXs2TOh/SajKD8iAAAAAAAAAAAAgIRRfVB++/fvV0FBQZH7uB4KBA8FWAF38ODBIgVZH3/88bFt8RZkpaenq2vXrsc6ZBUUFKhixYrOh4drPv/8c3Xs2FF//etfi9yfkpKiAwcOqGvXrp5lifZ1GC9ecMSHAiwAAAAAAAAAAAC4ieqD8qMACwgHCrBC5qOPPipSkPXJJ58c25ZIQVaXLl3Ur18/9e3bV7169VJWVpbz4eGIH374QYMHD9bu3buLbVu0aJE2bdrkaR4KsPyDAiwAAAAAAAAAAAC4ieqD8qMACwgHCrBC7oMPPtCePXuOFWR9+umnx7YlUpD17bffOh8Wjpg3b57uuOOOYvd36NBBBw4cUGZmpqd5KMDyDwqwAAAAAAAAAAAA4CaqD8qPAiwgHNJsB4C7GjdurMaNG+ucc86RJL3//vtFCrIOHz587LEnFsqcXDRzYkHW999/73JqZ33xxRdaunSp7RiSpG7dumnu3Lmu7X/t2rUlFl9VqVJFjz76qOfFVwAAAAAAAAAAAAAAAGFHAVaSadKkiZo0aaLZs2dLkt57771jBVl79uzRZ599Vuw5kUjkWEFWEBumffXVV9qyZYvtGJKkf//7364VYN16661asWJFsfuzsrL0xBNP6NRTT3XluGXZt29fQs9/4403NG/ePIfSAAAAAAAAAAAAAAAAOIsCrCTXtGlTNW3aVHPmzJEkvfvuu3rssce0adMm/d///Z+k40VXboySgzO2bdumBQsWFLs/MzNTO3fuVK9evSykMmiNCQAAAAAAAAAAAAAAwowCLOirr77Sb3/7W+3evVt79uzR66+/rp9++klSMDteJZsHHnhAs2bNKva5Sk9P1/bt2zV48GBLyQAAAAAAAAAAAAAAAMKPAqwk9PXXXxcpuHrttdf0448/SqLgKmh27Nih6dOnHyuYOyotLU0PPvigRowYYSkZ/KhbN+mVV2ynAAAAAAAAAAAAAAAgXCjASgJff/21XnzxRe3Zs0e7d+/WH/7wh6gFV0dHDYalGKthw4ah+VhOtGvXLp155pn64Ycfityfmpqqe++9V2PHjrWUDH5VoYLtBAAAAAAAAAAAAAAAhA8FWCH0zTffFCm4evXVV48V6UQruDrRkSNHSrwf/vDkk09q4sSJ+v7774vcn5KSoq1bt2rSpEmWkgEAAAAAAAAAAAAAACQXCrBC4Ntvv9VLL710rODq97//fZE176r7AAAgAElEQVTCnJOLrmIpuCqpC1aFChVUUFCgwsJCpz8ElMPTTz+t8ePH67vvvityfyQS0Z133qmpU6daSgYAAAAAAAAAAAAAAJB8KMAKoP/+97/at2/fsYKrV155xZWCq8zMTHXv3l2FhYUqLCxUjx49lJGR4fSHg3J45plnNGbMGP33v/8tcn8kEtHtt9+uWbNmWUoGAAAAAAAAAAAAAACQnCjACoDvvvtO+/fv1+7du7Vnzx69/PLLRbofOVVwlZ6erq5dux4ruCooKFCFChWc/nAQp9/85jcaPXp0seIrSbr55ps1Z84cC6kAAAAAAAAAAAAAAACSGwVYPvT999/rwIEDxwquDhw4UKToxqmCq7S0NHXu3Fn9+vVTYWGhevfuraysLKc/HDhg9+7dGjVqlL799tti22644Qadd955FlIhaBYvll54wXYKAAAAAAAAAAAAAADChQIsH/jhhx/08ssvHyu42r9/f5FCG6cKrlJSUtSpU6djHa769Omj7Oxspz8cOOyFF17QiBEj9M033xTbdu2112rhwoUWUiGI+vSRUlKkn36ynQQAAAAAAAAAAAAAgPCgAMuSE0cK7tu3r0hxTawFVyduK6ngKhKJqH379scKrk477TTl5uY6/rHAPfv27dPw4cP1n//8p9i2DRs26OKLL7aQCkGVlyetWyctW2Y7CQAAAAAAAAAAAAAA4UEBliW9evUqsWhKKl/B1cnb2rRpc2ykYL9+/VSlShVX8sN9r7zyioYOHap///vfxbatW7dOS5YssZAKQXfppRRgAQAAAAAAAAAAAADgJAqwLDt5dOCJ90vRC64kqUWLFsc6XPXr10/VqlVzOTG88Nprr+n000/Xv/71r2Lb1qxZo+XLl1tIhTAo4ccNAAAAAAAAAAAAAABIAAVYlp3cBausgqsmTZocK7gqLCxUzZo1PUwLL7zzzjsaNGiQvvzyy2LbzjjjDA0cOFAHDhxI+DiNGzdW9erVE94PAAAAAAAAAAAAAABAMqMAyydKK7g69dRTj40ULCwsVJ06dWzEg4f279+vL774osRtu3bt0q5duxw5zt13362ZM2c6si8AAAAAAAAAAAAAAIBkRQGWD5xYcFWvXr0iHa7q169vMRkAAAAAAAAAAAAAAACAaCjAsujIkSOqXbt2kQ5XjRo1sh0LAAAAAAAAAAAAAAAAQIwowLJk8+bNKiwsVLNmzWxHAQAAAAAAAAAAAAAAABAnCrAsmTdvnu0I8KmZM2dq5syZtmMAAAAAAAAAAAAAAAAgBim2AwAAAAAAAAAAAAAAgGArLLSdAADsoQALAAAAAAAAAAAAAAAkJDvbdgIAsIcCLAAAAAAAAAAAAAAAAACIEwVYAAAAAAAAAAAAAAAAABAnCrAAAAAAAAAAAAAAAAAAIE4UYAEAAAAAAAAAAAAAAABAnCjAAgAAAAAAAAAAAAAAAIA4UYAFAAAAAAAAAAAAAAAAAHGiAAsAAAAAAAAAAAAAAAAA4kQBFgAAAAAAAAAAAAAAAADEiQIsAAAAAAAAAAAAAAAAAIgTBVgAAAAAAAAAAAAAAAAAECcKsAAAAAAAAAAAAAAAAAAgThRgAQAAAAAAAAAAAACAhEQithMAgD0UYAEAAAAAAAAAAAAAAABAnCjAAgAAAAAAAAAAAAAAAIA4UYAFAAAAAAAAAAAAAAAAAHGiAAsAAAAAAAAAAAAAAAAA4kQBFgAAAAAAAAAAAAAAAADEiQIsAAAAAAAAAAAAAAAAAIgTBVgAAAAAAAAAAAAAAAAAECcKsAAAAAAAAAAAAAAAAAAgThRgAQAAAAAAAAAAAAAAAECcKMACAAAAAAAAAAAAAAAAgDhRgAUAAAAAAAAAAAAAAAAAcaIACwAAAAAAAAAAAAAAAADiRAEWAAAAAAAAAAAAAAAAAMSJAiwAAAAAAAAAAAAAAJCQevVsJwAAeyjAAgAAAAAAAAAAAAAACVm1ynYCALCHAiwAAAAAAAAAAAAAAAAAiBMFWAAAAAAAAAAAAAAAAAAQJwqwAAAAAAAAAAAAAAAAACBOFGABAAAAAAAAAAAAAAAAQJwowAIAAAAAAAAAAAAAAACAOFGABQAAAAAAAAAAAAAAAABxogALAJJMv362EwAAAAAAAAAAAAAAEB4UYAFAkjnnHNsJAAAAAAAAAAAAAAAIDwqwACDJnHGG7QQAAAAAAAAAAAAIk5o1pfx82ykAwB4KsAAgyeTkSBMn2k4BAAAAAAAAAACAsOjbV4pEbKcAAHsowAKAJNS0qe0EAAAAAAAAAAAACItrr7WdAADsogALAAAAAAAAAAAAAADErU4d2wkAwC4KsAAAAAAAAAAAAAAAAAAgThRgAQAAAAAAAAAAAAAAAECcKMACAAAAAAAAAAAAAAAAgDhRgAUAAAAAAAAAsOrAAdsJAAAAAACIHwVYAAAAAAAAAACrune3nQAAAAAAgPhRgAUAAAAAAAAAAAAAAAAAcaIACwAAAAAAAAAAAAAAAADiRAEWAAAAAABAwHXtajsBAAAAAAAAkLwowAIAAACAJLF5s9S3r+0UANzw1FPS4sW2UwAAAAAAAADJiQIsAAAAAEgSI0dKe/ZI6em2kwBwWrVq0saNtlMAAAAAAAAAyYkCLAAAAAAAAAAAAAAAAACIEwVYAJCEIhHbCQAAAAAAAAAAAJIHHckBINwowAIAAACAJEMxNgAAAAAAAAAAzqEACwAAAAAAAAAAAAAAAADiRAEWAAAAAAAAAACAR26/na60AAAAQNhQgAUAAAAAAAAAAOCRYcOke+6RUrhCAwAAAIQGL+8BAAAAAAAAAAA8NGWK9P77tlMAAAAAcAoFWAAAAACQJBhzAgAASjN0qDRqlO0UQHJJT7edAADgpQULbCcAALiJAiwAAAAAAAAASHIpKdK990pXXGE7CQAAQDhdfrntBAAAN1GABQAAAAAAEGBZWbYTAAiLnBxp1SrbKQAAAMKpalXbCQAAbqIACwAAAAAAIMA2b7adAAAAAAAQzVdf2U4AAHAbBVgAAAAAAAAB1qeP7QQAwuDIEdsJAAAAwufhh6WffpKys20nAQC4Lc12AAAAAAAAAMTv1FNtJwAAAAAAlGTCBNsJAABeoQMWAAAAAAAAAACAR+g4B7+4/37bCQAAAMKDAiwASELTp9tOAAAAAAAAAACwqWJF2wkAAADCgwIsAEhCTZrYTmDHF1/YTgAAAAAAABKxYoXtBAAAAAAAFEcBFgAkoUjEdgI78vNtJwi2WbOks86SWrWynQQAAAAAkKwmTbKdAAAAAACA4tJsBwAAAMGwZYv585FHpIkT7WYBAAAAACSnNm1sJwAAAAAAoDg6YAEA4EO5ubYTAAAAAACSVYcOthMAAAAAABAsFGABAOAzaWnSyy9L06dLtWrZTgMAAAAASDaDB9tOAACIx+LFthMAAAAkLwqwAADwoebNpW3bpM8+k37xC9tpAAAAAADJZOVKqWNH2ykAIJgaNbJ37I0b7R0bAAAg2aXZDgAAAAAAAJCsUlKkn36ynQIAisrKknbvlvLybCdJLvXqSYcP83shmfA9Fk5/+pO0a5f02mtSaqo0eTJFrQAAAMmAAiwAAFAuR47YTgAAAAAAcFturu0EySU7W/r4Y+nzz6UWLaR//MN2InghO1vq3Fl69VXbSeCktDTprLPMDQAAAMmDEYQAAAAAAACWUNzuD0uX2k4AAEaNGtIDD9hOAS+df77tBAAAAACcQAEWAAAoFy4SAgAAv7jtNnMDEnXZZbYTAMBxp58uHToknXKK7STwwtlnm99DaT6dV9K3r+0EAAAAQDBQgAUAAABfyM+3nQAAEDTz5pkbkKhIxHYCd1C8AQRX/frSX/8qffWV7STwwtq10nvvSTfeKI0aZTtNUX4tDAMAAAD8hgIsAAAA+MLGjbYTAADgjEaNbCcAjClTbCdAkNDt2K7S/v+zs73NAXsaNpQuuEC68ELbSYpq0MB2AripTRvbCQAAAMKDAiwAAJAUWraUrr7adgpEM2uWtGkTnbAAAMFXo4btBCgvtwtPcnLc3X9p1q0zo8xO1r2791kA4ESNG5sulvPn206CsoS1SySk1q153dq6te0ESEaFhbYTSJdcYjsBAIQTBVgAACAp/PnP0tKltlOgLIsWSYcOSfv2mRtjpeC1Tp2katVsp3Dfhg22EwBA+N1/v7R3r7Rnj3l9Y0N6uvT009Kvfy0tWGBujz5qXmcBgE3nnCPddpt0663Srl220wDJac0a2wnsmz3bdgIko9GjbSeQ1q/3X8dFAAgDCrAAAPC5OnVsJwC8lZ0t9expbrm55X8+7fORiN/9Tqpb13YK9w0aZDsBAJRfly62E8SucmXzs/a006S+faUqVexliURMF6ybbjK3MWOkFM4IlmnsWNsJgOQxapR08822UwDJZ8wY2wns6t5dat/edgokowUL+P4DgLDidAsAAD43YIBUsaLtFEAwPPig9MYbUosWtpMgqJJlvEarVrYTAED5rV5tO0FsIhHpvvuSo6NimG3fbjuBUbOm7QSAO04ezXr++dLZZ9vJAiA57dghpaXZToFklJLin9easdi2TSoosJ0CAIKBAiwAAHwuPV0aN852CsC/srNN6+79+6VJk2ynAQAAye7NN6URI2ynQKL8UJQ9erT03HO2UwDumDy5+H3xdEAGkBg//L6zhakDsClIHWmnT5deekk6eDD643r39iQOAPgatd0AAATArbeaCzmvv247CeA/r78uNW5sOwUQPGlp0g8/2E4BAOFDl0E44dprpYsvtp0CcEfHjnQJRLilp9tOAADRxVMAVr++KbJ68cWSt0+ZklgmAAiDANXXAgCQuJYtbSeIT06O9LvfSffcI82YYW4AAKB0EybYTgAE3+HD0siRtlMAySkry3YCxGriRGnmTNspguW++2wnANwzZEiwOtsASD49e0qpqeV/XiQiPfyw1KhR8W1z5kjz5iWeDQCCjpeBAJCkZs2yncCOqVNtJ4hfWprJv3WruQEAUF6VK9tO4I20NGngQNspEAYPPVS0gH/ECOmMM+zl8Vrt2lLfvrZTAIC/PfSQ6eiE2AV1cRxQlowMaeVK2ykAILqzz47/uaecIr39trRli7RggXThhdKBA9IddyT3SFMAOIoCLABIUsl6UXLuXNsJgu/IEdsJALhtwADbCeCGLl2k7GzbKbxx3XVc2IMzJk40Y6C/+kr6+mvpiSek9u1tp/JGTo7tBAAAIBGMefRWw4bSgw9KPXrYToJYOPF5ev75xPcBeG3hQmn27MT2kZFhFvjfdJN0/fVS9+7OZAOAMKAACwCS1OTJ0qRJtlN4j5NPyalfP9sJgGB55hnpgQdsp4DTFiywncB9o0ZJL7yQHB8rvJOSYooXk20cGKuXAbu6dDn+d8bbFTdjhu0EcENuru0E4bJune0EyeO666R335XGjLGdBLE655zE91GrllSpUuL7gf+UtnjNxud79OjEnr9zp3T55dIVV0hvvCHdcAPv9QDATRRgAUCSikSkbdukzZttJwHcN2iQ7QRAsKSmmkLdChVsJzEdWE4/3XaKYEtLMyfbwn6hslYtadcuqU8f20kATmgDYVG9up3jVqsmdep0/N9Tp/Jz5WSFhbYTFNWzp+0EwRGtQCWRkUgo6uc/l+bMsZ0ieRQUSOnptlMgVk2bShMm2E4BP/vlL6XMzKL3ZWZKW7d6n+WssxJ7/ujR0lVXSatWSW3aOJMJAFA6CrAAIIllZkrnnms7BWxr2tR2Anf16iUtXmw7BdzExahw6t9feucd6ZNPpPXrbacJngMHTBv4G2+U3n/fnGw7WaLfOy1amH1UqCCdd15i+wIAwE/mzzd/2ho5unRp0d/TAwZIV19tOvJ5rVkz748Zi6lTpaFDbac4rnNnKT/fdopgmDix9G3164f/HIUX+vaVLr3UdgrAv3btouMeohszRvroI9M16rzzpJ/9TPrwQ2n8eNvJAAB+RwEWAABJLCMjnO3R8/PNhYJ166SnnjIfJ4LpyBHbCWBL8+bm+5iTouU3ZYrUvbt04YXSBRdIDRq4c5y335Z++kn65hvpllvcOQbcx/eYfQMH2k4A4EQpKcc7DaSleXvsjAxpyRLpkkuKb7v0Uukvf5GWL5cuuki66SbpzTfdzzR9etmPSU01Hba9lJoqPfSQdOWVplNZZqbUqJG3GU6UkiItW2bv+EESbZRSJCI9+KA/OvEGWeXKthMA/taypTP7yclxZj/wp1NOMV2jbrlFWr1aql3bdiIAQBBQgAUASDqdO5f/OXfcIZ1/vvNZvDJtWvETmKmp0u23S+3a2cnkpoMHTeec5cvdPfE4cqR7+/bKaafZTuCO5cttJ3BXMhQVhq2z2aWXSt26eXOsIUO8OQ7C4eOPbSfwrzvu8OY4dOqMHSMz4LbUVNNBsndvO8f/8ENpw4bSXwc1bWoWmVx3nbRggZSV5X6muXOlevWiP2bVKmn4cKlqVffznCgnR1q5Uvr8c+nbb6UPPvD2+CdbvNjckuG1eiLKKq7q1El69VVvsgBAvE49Vapb13YKAADgNxRgAQCSzogR5X/OnDnS7NnOZ/HKsGHH2ybPnWsKAd5/X5o503ayYMrPl15+WXr8cdtJErdnj/k4zjxTmjBBOuccqUkT26kSF/ZuInQbCp4KFaT/+R8zCrBZM6lhQ3eO06ePNGmSO/tGONEhoXReFGA0bCgVFLh/nLAoqwgESNR775nukbbUqWPv2FLJ3WerV5eeeMJ01yzJypXSZZeZ4quHH07u4qNIRNq40RTSPfKI9POfS4sWmQI1lE+rVtLOnbZTAMEV9kVpfhBtnCrglLw82wkAAOXlcSNtAADs2Lz5+N8vv1x6/nnpt7+1l8eGWrU48euUhQu962TjtkjEdPI6sZvX449LZ5xhL5MTatc2hYYbNtjL0KCBdOiQO/uePdsUhiJYcnPN76DLLzf/PuUU6W9/c27/M2aYr/n0dOf2CSSrJUucG01SmpQUc3E5O9vZ/XbvbgrFw6piRTP6FHDDqafaTuBP7dtL+/dLr70m/fOf0t//bv6vGjcuOsq2f39TfNSunXlMsqpTRxo/vuh9K1fayZLs6ten2yeSU58+0vr1tlOEV//+0po1tlMAAAA/ogMWACApnDhmLT1devZZM36vb197mQC4a92644UuNjz6aNELUoDbtm6VatSwnQIIpqOFizVqmI4l69a5f8xDh6QOHZzf77Bhzu/TT2bMsJ0gussus50AcEckYkbDFRZK48aZv5f0WrdOHbuLIIATffSR1Lmz7RSA9xhL756dO815ZRY+IQj4WQAA3qMACwAQeosWmfb1J8rMNKP49uyxEgkui0RsJ4AfpKaacW8nrz73SqdO0sGDZtXp7NlmnM0f/yj97nd28gDw1tln206A8vjnP6V//Uv69FPTQTHNg37hOTnu7JeRM+WXn+/c56N/f2f2AwBIXEqK3UU5YVHSeFL4W1DPi33wge0E0VWuLI0ebX62AEHAqEwA8B4vEwAAoVWtmrR2religNIxZgNhV7myvWPn5UnLlkl33indeKMZx9KlC52x4LxNm2wnwMmmT+fEfJBUrGgKcJxayW7zQiWr8UsW7fVA377mQmWlSokdY+5cacCAxPYBf6HoAAi+MWOkm2+WqlSxnQRAWapX96YTLZAsZs60nQAAkg+ngwEAofT3v0uHD5sRIIl2MKhd25lMftWjR9mPqVfP/RxBwoUYJIoCLEjO/SyJRLjg70f9+knXXutNJyV4K6gdBZLd5s0l35+Xd3xc2lVXxb//G2+Ubrop/ucDANxz/vlm9G9QuNUlEwiCOXNsJwDCg/euAOA9CrAAAKFUpYqUkeHMvvLzndmPX8XSnYM3awCQGDcLN1evltq3d2//iN+FF0rvvy+tWmU7CYCzzpLuvVdq2vT4fYMGSc8+KzVpYv49Zkz8+7/gAufefyBYfvjBdgIAscjJkTp0sJ0iNp07s2gHyenIETPRAAAAIKgowAIAwGe6drWdILrmzW0nAAAcddttptsjpLZtbScoWYMG0hVX2E4BQJKmTJHeflv64gvpH/+Q/ud/zGjgoxo0kJYssZcPwZSaajsBgLBJSZFGjLCdAginZcuc3d+QIc7uDwAABBsFWAAA+MyKFbYTRNehg1S9uu0UQOz8OL6BrnLJx60OWOPGxdbJMBksX247QfA0bmw7AeC91FTT4TYvr+Ttw4Z5mweA0bKl7QSAv9x8c9GujYBf9e5tO0H5nHGGs/tbuNDZ/QEAgGDjVD0AAD5So4bUq5fz+3Wy2CMSkRYscG5/CI/KlW0nKNm559pOgCChOC6YTjlF6tbNdorgmTrVdgKg/CZOtJ3AO3Xq2E4AeGf4cNsJAH/Jy5NefVXasMF2EsQiWd9HDhsm/fa3tlMUNWVK6a+hxowp/r6xWbPEjtetG9MCwmbaNNsJAABBRgEWAAA+kZkpbd8u5ebaTlK2FSukWbOS9wQTStavn+0EJWvenAuYXuveXXr+eemzz6TatW2nQdhlZko7dkiVKtlOEjznnWc7QXi51fUOZrFChQq2U3gjP992AsAb9eo5N/7zlluc2Q/gBzk5jMYFyqtmTenJJ6UePY7fl5pqFp9s21a8g3TNmokdr0IF6bHHpFq1EtsP/GP0aNsJAABBRgEWAAA+8eGHUp8+tlPEJiVF2rJFevNN20mQiDZtnNvXlCnSyJHO7c9JkYj0wANSWprtJM4YNMh2grLt3y8VFpoTkHv3mtWD6enmZ0fXrtLdd9tOiKAbP14aMUJatEj64AOpZ0/biYKnb1/TeRPlRwG6XRkZ0tq17u3fT8VzfsoCuGXIEOnpp537nTR4sDP7QfJat852AiB4BgywnaCoDh2kffukP/7R/Pnhh9I995iixpLUrZvY8Vq0kD76SLrtNmnxYrNwFcF0wQXS2LG2UwAAgowCLAAAYlS/vrv7D2KXmFatbCdAIq68MrHnZ2eb74tNm6Rf/MLfF6T79DEn3cJg3jzz56hRdnOUZsOGol8LTZpIv/yl9N130o8/Sq+8wogZJO6RR6QnnjA/f+hwF58OHWwnAOJ38cXSmjW2U7hv/HjbCRCrssbgzprlTY4gueUW6dNPTfFV69bO7bdJE+f2heQ0aZLtBMXxdQ2/O/982wmKi0Skdu3MYp2yzuneeWfix6tQwZyv2bgxOV6nhsmIEWbM+XPPSTfcYDsNACDoKMACALgmbO16Yx0BMneuuzkAJ1SvntjIwHvukb76Sjp0yHSgCcIooK5dbSdI3FVXSePGmb83bGg1SqmaNrWdAAAQdpGI6SwQ5lFjjRoFc4FG2MTahezMM6NvP/r6Dcc1bkwRNaLz8wIfr/XubTsBEN2gQaYLVFANGRLb+Vx+LoXTE09IDz0k9e/P5xgAkDgKsAAArnG7Y5QNsRSs3Hab6zGAhFSoID38sFS1qu0kKK/LL7edwA4uQPuPEyuEASBRZ51lO4F7br9dSk21nQKxmjmz9CL0fv0Yiwf4RVAvrF91lRnvDvhVdrb02GNS8+a2k0ht2sT3vJtvdjYHAABIThRgAQBcVdYqvS5dvMnhlAcfjL593LjgntBDuM2fL02bZgp4Dh5MrPsVkscll9hOYNSsKbVsaTsFjkpJkfr2tZ2ibM2a2U7gvhYtpDffNGM+gWSUl+f8OM1YOx65beDA5Pg5FhZ5eaZ7wsmvsceNMwsf0tKkCy+Mvo/p012LhxCgW1hyq1NH+s1vpDPOsHN8znMhFs2bS2+9ZTdDJBJ/18n0dGezAACA5EQBFgDAVWPHlr6taVOpdWvvsjihZk1pzpySt2VkSEuWeJsH4TR0qPP7vPVWc4H+qqvM1zGC59xzvT+mn8blLFxoOwGO2rAhGKMma9aUWrWyncJdXbsG77UU4LQtW2wncE8KZ+0CpXlzafduUxj70kvS++9L27eb0d+SKaqLpqztXpg2zXYClGb1atsJYFvr1qbD0Fdf2U5iT5g7X4ZFaqo0YoS9448ZI1WubO/4YdSpk+0EAAAEC6dyAACuuvBCafTo4vfn5Eg7dwZzrMZNN5nVySdeEDnlFOnee6Xu3e3lQng8/LC0fr0Z45mfL7VvL913H19fySwjQzrnHO+P2759+Z/j1uroefMocrVh0yapSRMz8qRrV+mRR6RFi2ynit3PfmY7ASSpZ0/TtQFwAxeF4DetW0sFBVLjxkXvHzas9IvSffpIkye7n60sbiwEgTOGDmWEPIzs7LIfE9avFTpxuSMs/6+dOkl33WU7Rfi4vTBvzx539+93VapE3750qTc5AADOoQALAOCqlBRpxw5TbDVunDRqlLRihfThh8Ht2JCZKW3bJr37rvT449JTT5mPZ8IE28kQBr17mxOqy5ZJhw5JX3whvf66Wenp1UmxChXKfkzFiu7nwHFbttgZ2ZqSYgpv/CASMZ2Xpk61nSS5LFokvfee9Nln0iuvSOPHB+sE/eTJpoiMVdB2RSLSgAHO77egwPl9AoBbUlLMop0FC8x7SsmMOzrnHPOe2fbooyVLyr4IGKvTTiv7MU6PDy2v/v3tHr+8TjlFevDB2IpvEH5t2kTfftFF3uQImxUrbCcInj59bCcwduyQfvc7KTfXdpLwqVvXvUVYrVtLffu6s++gKGsE9ahR3uQAADiHAiwAgOtSUkwXrO3bpV27pDVrpGrVbKdKXOPG0siRZiVqLAUrQCwmTbKdwFwwycgofXtqqjRkiHd5nDRzpu0E5Xf55XaLjvxWuNKwoe0ECJpFi0xB6xNPcDEqbJYts50AAMonN9d0VP7f/5U++cT8+YtfHB9TaMuUKdK6dc7tr0kTqU6d0re3amV/LPpzz5liuCAZONC8plm/3nQbR/IaPLj0bTVrll2ghZKtWiVdeaXtFMES7WvRCzk50ttvS2PHMrrZLQUFUr2WxSQAACAASURBVGGh7RThdfHFpV8nmTZNatnS2zwAgMTxkgQAAJQpP992gvIJUneWE7VsKc2YYTuFKSiMtgKtoECqVMm7PE4K4kkjpzoRwC7bF1aTXV6eGftU2ugnuMut38uxdFgJCj8UYAPwTm6u6Sjhl9d5N9wgpaU5t79IRLr66tK3r1/v3LGCwqkFLPn5pgD5+uulrCxn9ongWb1aateu+P1padLDD5tFUyi/lBRp5UrbKYLF6QWpR47E/tj27c1kghYtnM2QTPLypGbNSt9et64pqoZ7GjQwi8U6djx+X1qa6ZB6++3BPccNAMmMAiwAAKB+/aJvX7vWkxhJbcAAc+IoJ8d2EuPOO6WqVYvfn5cn3XWX93mccuaZ4bpgj+BwY/wakMzWrg3XiJEgFggDyeD0020n8IYbF/emTjXdvk7s6lCrlhmtnYzjdC6+2HYChEmlStKePaZjU4sWpkBi/Hgzgs0P73evvNKMXIVdJZ3T8YJXP+9ee63s85ko21VXlb7Nye6YTqhY0XYCd/ToIb36qrm99JJ08KDpkBrWjxcAwo4CLAAAkkCnTtG3RysMqFhR6tnT2Txhkp4e/3MbNpT27ZP+/GfpN7/x16qyBg2k3/9eOvdc8/f69c3qq9/9zl85yys9XdqxI/bHZ2VJw4ZJ27a5lwnJIdpYTwDlk5cnLVxoO4WzZs40J979qHNn2wkQr3r1bCcIvsmTo28P6lhuryxYYC4i7t9vbh99JM2aZTuVHb162U6AsKlSRbriCjN+7b33pEcekTp0sJ3KSE83o01h1/XXR98+bZo7x+3Rw/33vw0b0hnIKRMmSLfeWrRgukoV6dpr3fsaicfQoabwNKwiEXP+vqAg+hhnGyZMsJ0AAIKFAiwAAJJA06bRty9ZUvpFvy1b/DMaw4+mTo3/uXffbYrbWrZ0Lo+TGjaUNm82F00OHTKrr7wuvoql/Xx5T7qdeFIpmjvvlL7+WvrVr6Ru3cp3DAD+xEn64KtcWXruOSk723YSZ2VmSo89ZjtFyXr39sf/d7TxyCjZggW2EwRf7drS2LGlbz/vPO+yBFWlSua9Zo8ezo+qCpKgjnAHpPKNhYN/9O1rXmOWxq0uj1lZ0nXXubPvIOna1XaC2M2fb8797d1rbocO+a9z41NPcW7OFr99LQCA31GABQBwDRc5gyMzU3r6adO+vkEDMxqib1/pmWfMyDaUrqAgvudlZQXrZAzgF5z8dw6/p4MvmT6Hs2dL69ebiwFldfYMipN/ntWsaSdHWdLSpAsusJ0iOUeWJWr6dNsJwmHr1uIjjjIzpWuukUaOtJEIAPxt+HDbCSCZTpi33VbytjPPlM46y71jz59vFvTVreveMfxu2bLEnn/llY7EiFmlSmaE6WmnSTk5RbdxHiaYYvlZHMv3aFkLuwEARVGABQBAQHXv7uz+8vJM+/qDB6XPPjNtnQcPdvYYOG7LFlZBIzZDh9pOEFwUOQKlC1Lx1tixpivhsmXm9UoQhO0ixZo1Zkyira+bYcOkCy+0c2ybUhI8a1erVvTtrVsntv9kkZMj7d4tvfCCdOONZkzPwYPSJZfYTgaEG524vdGggbP7q1pVatfO2X0ifjNnmt9fI0ZIbduaboRbt0rbtrn7ui4Skc49V/rgA+mvf3XvOH7Wv39iBWhXXCE9+6xzeZB8zjij7MeUNWayUaPYJwkAAAwKsAAAVs2ebTtBcI0bZzsBYtWsmZSba7pedesmPfGENHmyd8dv08a7Y8FZNWr4d0RlEMTboc4rq1fbTgAEw/z5thMUFaTiNaekpprRyW+9JW3c6N1xBw+W7r1X2rXLZEg2nTrFP7JtzpyyH+PW6KGw6tPHdIObP7/s4jYAiSsoSGwELp0TjXPOib591Spnj7dxY3K+VorFxIl2jtunjzkP9ac/Sfv3SzNmSOnp3hw7I0M65RRvjuU3eXnSo48WLyaN9f8+EpEGDnQ+F5LD5MmxXXepWTP6Im+6vQJA+VGABQCwqksXU5RSmiZNyr/PxYvjzxMkl1zCm6CguOkm6csvpa+/ll5+2aw89FL//t4eD87ZtImT1ycLU1eZsJ1M7ds3+vaTxxgAsWjbVurVy3aK8gvrz+6WLc1rba9egz7zjDRlihmDmIwyMuIvJo5lbM2yZWY8EQD4UVpa/O+dK1SQVq50Nk9QRVu8V62aKc5xyvXXS2ef7dz+wqas90vw//v9hQvL9/iuXc0I9euukxYtMl2tPvjAnWxIbjVrmsUVo0ZJO3dK990X+3vSBx4w3QtP1qWLtH69szkBIBlQgAUAsCo9XbrhhpK35eRIV19d/n3G0l43DFJSpMceC+8FPjijRQszNgjBc+ut0tSptlPATY0ahWuk1vnnR9++bJk3ORAezZubk8cVK9pOgpNt3UqHRq/cemv5C1izsqTatct+XPXqpsgtlgKHtm0ZuQfAe5s3m47S5bV9u+kiCDPS/rLLit+fkSE9/HDJF93jFab3Nm6YPVvq3dt2CkRT1nvaCRPKv8+cHOmii8wCu1WrKH4/UePGthMEQ+XKZT/m7rulX//adA4ePbp8o8xPPVV65x3pZz8zCwUHD5Zuv1168UXeiwNAPCjAAgBYN3u2dNttUt26x+/r2VN66qnyX9hJS0uukxkpKeZNFXBU//7mBGrNmmZ13e7dsb1Rh//4beQW3LFxoylMOvHieu/e0oED0rx59nLFY8iQ0i+Q5eebLjZITuUpFl+82KwQf/RRM+6Ok/L+lJ8v/fGPphBrzhxp7lzbicKreXPphRfMavaUlNi+n9q1i33/LVuasUT/+7/SJ59I//mPef04YIAZhVynjrR0qfTcc1KlSvF/HIAf1a9vOwHKkpcnvfaa6ax0+umxj04dPtzdXEGzdq0ZPTdzpikgWbxY+vBDqbDQdrLjkqHINyPDLC646CKKGvxq4cLSz6GNHi21bu1tnrBbutR2gmAoLIw+ljwzM/HpB1WrSqtXS88+axZozJ1r9gsAKL8kbeIOAPCbefNMm/K//c1cWKhTx1xc+POfy7ef5cvdyQf39e5tVtYgMc89ZztBeLRvbzsBkkF6umnpvmyZufidmSk1aGC2bdtmN1t55eSYzoxjx0p/+cvx+2vXlu699/jHBUQzd67UtKntFIhFero0Y4a5SdIdd9jNE2YdOpjV7Ee50QG3Ro3jf+/Xz9yAsJs2Tbr00sT2QYG5+7KyTGelo92V6tWTPv3UbqYg6tHD3Pxq8mTTISjsqlUziw2uuSZ5Ryz7WbNmZiHIvHlFRwWOHWs6DJWnqxDKRqfC2GRkSIMGmUUTJRk0iGIpAPATXuIBAHwjI4MVqMkqLc2Mm0ym7mXwvy5dbCdAMsnNNbega9lSevNN6Ve/kj77zHxMY8aU72Rgaqr044/uZUR8zj9fuuUW2ykAxOLIEdsJgGCoVSvxfVCsGCyLFpnCu9JkZ3uXBUWVp3tjGKSm2k6A0gwYYBYU7d0rffut6cjbooXtVOWXny/9/e+2U5SuY8foXZ1Q1J13Sp07S4cPF72/Th3pF7+wkwkAUDIKsAAAgFVNm0obNki9etlOAhTlRncJIBmkpppRWQiXm282XT62bpW++878CcCfKMBCefG6Nz6DB5tO3giOQYOib58wwZscAPwtLc0UYgXFokXS5s3SN9+Yf3fpIt14o1RQYDdXNH7O5kc1a5oR8DfeaEYESmYs78KFZnwgAMA/KMACAABWdOxoxmu1asXKP/jPiWN43NC9u3TokLvHiBedv9zBanqEQc+e5iaZ8Rt33WU3DwB/GzvWjPEBwqZWLWn+fOmii3gvGzQ1a0pLl0o//3nxbVWqSCtWUMQKIHg2bZIuu0z6+GMzYaJVK4qrw6hqVWnVKnMDAPgXE4sBAIAV7dpJbdtywhr+lOLyq+SLLoq+ffRo9449dGj07WPHunfso2I5EZie7n4OrzRqJJ1yiu0UAAB4p21bae5c2ymAskUbR1eSDz80Y5avuEKqXNmdTHDX2rXS8uVFF0h062ZGaDdqZC8XACSialWz2LV169iLr4I4WhEAAL+jAAsA4GusPITTcnNtJwCkzp2lJk1K3z5xonvH7tlTGj++5G1NmpjV/G6rWrXsLmPz5rmfwyvxjjLhdyAAwE/KWxw9cKAZjQL42ZAhthPAa6mp0rp10iefSH/6k/T229KBA8e7fHqF1/oA3DZmTPTtK1d6kwMAgGRCARYAALBi5kw7x920yc5xnbBkSfTt+fne5EDiMjKknTulvLzi2xYulM48071jRyLS3XdLs2cXvZA6eLD05JMlZ3IjQ9++pW+vUUNq3tz9HF7o319as8a9/YdxrMDChdG3u92hDnbReSLcJk+2nQCJKG+noNRU6f77palT+dntlnr1bCcIvgkTpD59bKeIT1aW7QTBlpdnuvW1aOH9a+rcXKluXW+PCSD5jBpV+rb8fO8LTwEASAac/gAAAJ6rUEEqKHBv/9FW5w8aJFWq5N6x3dSvX/QTw9FOrMB/2rSRDh6U1q+XZswwY3r27ZNuuMH9Y2dnS3feaVZ9//GP0gcfSM88423R06ZNJXfBikSkX/7SmQu1touTduyQnn02XOMUvVBWgcaFF3qTIxFnnRXf89LSzJ81akhXXulYnEBhNHH5DR5sOwGSRf36UoMG5XtOfr50zz3SoUPSq69K771nOmN5LayjgI/+3kD80tOl7dvtLRBKxI032k6AePXqRWEqkAg6yMVmxgxpypTi96emSg89xJQAAADcwMt8AADguY0bTQcgN3TtGn3f9eub7j8lFWZUruxOJqfk50urV5e8rWpVWocHUW6utGyZtHWrdPvt3q8+rFlTatcueseZq65y59j16kl795pim7Q0cwGiZ0/p17+2P65o1qzE95GbK40dy4WVeHTuXHpBSV6edN553uaJRzydNHr0kP75T3P79FPp0kudz4VwKiy0nQDJIhIxr1niKZSsW1fq1Cn6CGY3bd9u57iwo1at8j2+Rg3zHjFoRVi9e9tOgHhUrixde63tFACSwdEFbjt2SEOHmvcNc+aY0as2CuIBAEgGXA4AAACeqV7dnGg8//z49zFtmjRyZOnbYzlpPmGCOdkwb57Z15Qp0v790ooVsWUo78p/J112mbR2bdFxg336SE8/LTVsaC0WQqxPH/c6SbVoIT3wgPT999KPP5oOYGV1cvFipevo0e4fA6VLTTVfF0OHFr2/USNz4tjWxftYFRTEX8SXlWUuynnRNS1oF5lRsh49pIsvtp0CyaRfP9PdMWjc7L4L/7nmmujbzz675PurVXM+i5vq1ZMuucR2CpTHgAHmZ2hYxq0D8L+UFLM47KmnpOefl+64Q2ra1Haq+JW1UKltW29yAABQGgqwAABJr06d6Nsvu8ybHGH2zjum4OngQXORMJFijmHDzOqtDh2Kb5s3T5o/P7b9NG8u3Xab9Pjj0r33mguYsRo3LvbHOi0lxXxNfvyxGeFy8KD0wgum8xf8w88Xw8v7/VerVvlGoVWvXr79+1G9ehSn2Jafb04Qv/66tHOn6Yz2zjtS//62k5UuI8P8Htq5M74uj152wKtShRPTJxo/3naC+P3qV1Jmpu0U4cJIm7LRdQ1+V1hoippLM2KEd1nctmiR7QQoy5o10j/+IX35pfSb30jdutlOBADB1bdv9O2nneZNDgAASkMBFgAg6ZV18tXPF3uDolkz0+km2knwWE2aZEZQvfqqGSWydKm0fLn0hz+Ygiq3OvUcVb26P0YVVqpkusDY7MaFkqWlma/TMFmxQtqwoWjntZLk5pavmNHPNm82HfcYIWhX+/amI9npp5vvLT8691zp7383F9Zuu82MMSrJkCHR9zNnTvwZoo0RLcnmzXxtHxWJJPZ/b1PfvmX/XAZsoZANNtWubUYKlmTePNMJBPBKSoo5h5GbazsJAATf0KHS5Mklb5s0KVxF1gCAYOKUKwAg6a1YUfrF0p/9TKpZ09s8iO5ogVVKiulEdfXV0rp1UseO3hz/l7/05jgIprQ06aabpO7dbSdxVkqKtGSJdPiwGZtRmnHjwlPUUaGC+X5/773ST+4Bkuk+VKVK2UXG06aVvq1r18RG0fTsWb6LemErEo1XRoYZjVzW6FMAQPBMnCi99pp01llS796mEPqxx6Rbb7WdDIDbDh2ynQCI7uc/j7594UJvcgRRJCJt2WK6Cx5djJKfL61eLd11l/sLcwEAKItP1xADABCfUaPK/5y6dc1oo0sukXbvNvdVqWJGiF1+ubP5EHxVq9pOAD977z2pYUPbKdxToYIZr9a7t/SnPxXd1qmTdOONdnK5qVEjs8LywQdtJ0HQnXWWuRB8zTVF72/YUNqxI7HixZQUMzbzhhsSSZgcHn9c+vOfTfHVpEmmSwq8E894TgCIV4cO0n332U4B+FtqatmPKW3Rol/Vr287ARDdwIHRtw8adPzvmzdL8+eX/tiyOi37VSJdAbOyzILqE8/bHy28ogALAGAbBVgAgNDIyzMFAPHo2FF6/nnpk0+k774zXa+ys53NByDcVqwId/HVUTk50u9/by5mPfusue9oC3i/jogD/GLjRtMJ6777pO+/l9q0kaZOdaYoZcMG6d13paefTnxfYTZypLnBjoUL6SYK+BEXK4HklZ0tNWkivf9+6Y+ZM8d0H3dTenrZj5kyhaJKN5TVyRfO69RJuuIK07XpZOecIw0ffvzfp50WfV9lbfer2bMT3wevXwAAfsQlEgBAaFxzTeKjr+rVcyYLgHDhpE5R6emm287MmbaTAPYdOVK+x7drZ25Oy8iQfvWr8IwBRTi1b287AQAAONmwYaV3M27eXDr1VPczRCLSiBHSk0+WvD0tTerXz/0cySglJfr/PdyxcqXUurW0aZP0t7+ZhcULF0rTpxc9B9WqlZnScN11xffRtm0wxxU2bpwcCxgBAMmJU7MAgFC4/nqzQggAAMBLc+faTnAcxaL+Ud7CvGSRliY1aGA7hfNat7adIFh43wYA/rJ+fclF0llZ0iOPePcac/VqM/a+JGvWSBUrepMjGa1dSycsr6WkSBMnSi+/LB06JP3xj+Y1Uknd4DZskK66Sqpa1fw7NdUUav3qV1KlSt7mLo/GjYvfl5kpPfgg710BAOFFARYAIPAWL5YuvNB2CgAAjnN7RAf8IT9fatnSdgr/C9vJdb98PN262U4QnzFjbCdw3sqVthMEy+mn204AIMiqVLGdIHyysqQXXzTjsrt2lTp3lubPl956y3TY8UrHjtLOnVKLFsfvq1xZuvJKaelS73Iko3btpMcfd6dTLxKXliZdfrl0+LD0xRfSl19K27b5f5LDvn3SsmVmzGmjRtKZZ0q//73UpYvtZAAAuIcRhACAwGOFFhBesZzsrVzZ/RxAeQ0YYDsBvHDnnYz8gz2zZ9tOAEmqUUPq3992imCpUsVcjKNYGSiK7omxWbdOGjmy9O2Fhd5lCZPsbLPAcfFiuzmGDJEGDZLeeEP68UdTuJGbazdTshgwQHr9demdd6SffpLuvlu65hpvM/BzMLrMTHMLiho1TIe99ettJwEAwDucKgYAuMYv3QEABNeYMdGLG1q3Pt6CHXBLeX+fLVwoNW3qThYkxqkT+i1bSg8/LI0d68z+gKOuuCK2x3Xtys8Zv3jkEV6LxOOqq8xFfj+Nk2re3HYCALHo2bP0MXUSBVhhkJoqdehgOnFRfOWtSMR0IGvVyt+j7QAAAPyKAiwAAAD4Vk6ONH586dtnzvQsChCT5cu9XyUcJP36Rd8ehNW8998vvfmmNGGC7SQIo2HDyi76rF9f2rGDxQ5+cdppthMEU2qqGXV16JB3xyyrwHHFCm9yILrBg6NvX7LEmxxwx6hRie+jalXp9ttL3tatG18jAAAAAOyhAAsAgIBLY6AwQu4XvzAn0k82Y4Z0ySXe54Fdfh5JkJlpRqKkp9tO4l8LFkTffvnl3uRIRG4uYwfLi0Kh2HXvLq1aVfr2O+6Q3n1XqlfPu0yAm6pX9+5YEyeW3nGrVi3p9NO9y4LSjRgRfbvtzxO/0xLj1Hi76dOlJ5+UCgpMQVbt2qaI8umno3fHAvzk0kttJwAAAIDTOG0MAEDAlVWA0qCBu8fPyIi+vVYtd4+P8MvJkfbvl3btkpYulZYtk155Rdq6lQsgcFbLlok9PyfHmRxesfH9M3iw1KxZydvy8qQpU7zNA/jRihXSs89Kw4dLPXpII0dKzz8v/fSTNGdOMDrFwS4/Fyvb1Lq1dNddxYszqlSRtm/3thgMpZs1S2rbtuRto0e7O14uiN87Qcp8zz1Snz7O7W/4cOmll6T/+z/p8GFpzRopP9+5/QNuO+MMFnYAAACEDT0zAAAIuI4dpexs6d//Lnm722NR1q6N3uL/yivdPb7XgnSCO0xSUsy4CidGVsSDz3tyKGvkDRKXkyM99pi52PDee8fvr1HDXJRr1MheNsAvIhFp4EBzA+CsyZNNAc9dd0n//Kd0yimm4CdoRdRhVqmS9MQT0qJF0qOPmvsyMqSzz5Y2bKBYIV6LF0tdu0qTJnl/7MGDzeeyUiXvjw34WUGBdPXVdMICAAAIEwqwAAAIuIwM6c47pTPPLL6tVi1zMsdNY8ealab/+lfxbVWrmq4NQUE3JSSCr59ga9PGFJTCfS1bSm+/bS6uHj4sVa4sjR9f+lgoAACcVLOmtHy57RSIpkEDaccO8zrh3/827yurVbOdKrgWLpQ2bjR/j6UAq1076U9/cubY333HeG6UrWlT2wnsWbJE6t9fuuUW6a23TLdvAAAABBdrhgAA8IGZMxN7/uTJ0iOPmAICyRSCTJhgxtXUrp1wvKgaNZLuv7/4qvG8POnhh90/PgAkauVKae9eVuV7KTXVjBE6/3xp2jSKrwAAsMmvCwnq1JGaN6f4yms7d0qNGxe9Lysrvi49FF8hFqtW2U6QuMqV439u586mM+OOHc7lAQAAgB10wAIAwAeGDk18H+PHS+PGSd9/b06ge3mic/hw6dAh6e67pb//Xape3YyISOQEVJgwvg7wr6ys8I1KBQAAAOLVqJH0l7+YsYEffmheL591lvT552YMJJLTpk3SJZeUvr2kruyxqFYtHGOXmzWzncDo3992gpL97Gemez4AAEDYUYAFAIBl/fpJY8Y4s69IxIwktKFKFWnRIjvHtsmvq8URfjVq2E4AJKdkHpGC2DVvXvYIGbqCAAD8Ki1Nmjix6H2ff24nC/zhtNMS216ahx82i/iCzi/nhi64wHaCkg0cSAFWkLVqZTsBAADBwQhCAAAsSU2Vpk83J5u4AGecPMYQQOlmzLCdAEg+9etTgIXYTJ0afXvbtow9BQAAwdGlixkfXpLevaVZs8q/z8aNpcLCxHI5ZciQ+J/btq1zOWJR2rmz5s39202sTx/bCZCIxo2lBg1spwAAIBgowAIA+OZkR7L561+lbdvCsdLPKevWRd++caM3OYAgqFvX+xO9QLK78ELbCRAUNWtGf419cleRZMJoZgAAgunaa6X164+fx6pYUVq4UNq5M75u7H46H5ZIAVbFis7liMUDD0hVqxa9r3Fj83nIzvY2S6wiEWnKFNspkIhLL7WdAACAYKAACwDg2Pg7W/zS5ru8GB9W3KhRUm5uydsqVZJGj/Y2D+B3Dz1E5zjAKwsXShdfbDsFguT++0teKT5ypLR8ufd5AABA2Ro0MB3LUVxGhrRsmVlQ+J//SF9+Kd1wg1Stmu1kiRk6VFqwwHaK2A0fLh08KN11l3T99dL27dJf/iK1bGk7WXR0fw22+fOlFSukzEzbSQAA8DcKsAAAOvtsqXVr2ylK9v/s3XeYXHW9P/DPlvSeEEIKJEBIARM6JEg6PRSRjoRiCIFQRBFiROAXglJEBaVIDSgooFwFy+URQa9XiJcLAjdUgdCUCEg19CTn98eREjMzu5ndmTPl9XqeeZ7s+c7OvLOz352Zc97zPT4hX1/WWy89WNm166rbO3eO+MEPIoYPzyYXVKrRoyMefjji+OMjtt46nSu0PzuKiUgPLlVr6ZtsrLNOejDs4ovT08YecUTEr38dccstDuwCQKVqbo6YOjX/eL9+Ef/8Z1o+uueelm+vFvdrNTenqz4Vs+pVJRk3LuLyy9OVo6rttVn37ulryy98IWKffdLHBEqpoSFiwYK0/PfjH2edBgAql5dlAET37hG/+EW6ssMvf5lua2qKOPjgiB/+MNts1J/ddot49tl0J9jLL6c7N2fNSk/lA6xu3XUjvvvd9N8PPhix2WbZ5qlFu+ySPi+uWJF1EqgctXgwsRQ6d46YMye9AADV4VvfSss5b7+9+tgll3x8mrdqLyDVs27dIhYtyjoFVJ911ok48MCIgw7KOgkAVCYrYAEQERHrr5+WsJYsiXjggYjnnktXHIIsrLVWxFe/GvGd76TLWytfVQcH4ymHLH7PunaNmDCh/PcLAACU35gxEf/5nxHjx3+8bfjwiOuui9h//+xy0XpHHFF4/KKLypMDaNluu2WdAADajwIWAKtYf/2ITTeNGDQo6yQAUDmuvjrrBFA6559feHzBgrbdvlM3UqvOOy/rBEC969q15esMH94+91Vvz+cTJ0bcdVfE0qURL7wQ8eijEZ/7XNapaK1dd80/1rFjxOTJZYsCtOCEEwqPH3dceXIAQHtQwAIAAGpSe66Wtf767XdbrXXIIS1fp3fv0ueg9u22W/5T6DQ3R+y+e3nzQDXo2NGn9akdjfYQV60+fSJGjSp8HaeJKl5DQ3q6rYED09dEVI9994047LDcY5deGjFsWFnjAAVsv33EiBG5xzp0iJgxo7x5AKAtvL0GAABoB+29KsA22xRe1WDnnSOamtr3PqlPo0enB6JyufDCiM02K2+eWuC0vLXv4osjNtkk6xQQceCBhcePOabw+PDhET16tF8eyq/QKfGmTYtYa63yZYFKK91BugAAIABJREFU0dAQceWVEddfH/HpT6er/e++e8Qf/hDx+c9nnQ74pG7dIn7+84ghQ1bd3rlzxGWXpftGSuXCC0t32wDUJ5/bAKCiOXgFQClNn551gvw6dEhPDTdnzupjXbpEnHNO+TNRuz7/+Yhx4yIuuCDi5Zcj+vVLTwUxdmz73ce0aRF33JF//IAD2u++SqneTsHU3mrh9f2cORFHHpl1isqW67mrFDbYIGLJkvLcV6WaMCHihhvyjx92WPq39y9/yT2+yy6lyUX5nHZaxD33RNx226rbhw1LyydQr5qbIw4+OL1QW2rh9SSrGj064qmnIn7844hnnklLWTNmRAwYULr7bG6O2HHH0t0+APXJClgAVD0HwQDI54gjCo8fd1x5chTr6KMjvvOdiLXX/njb2LERt9xiVSLa38YbR1x+ecTPfpauGNCe5auIlgtW++zTvvcHpfKpT5X29s88s7S33x4OP7zweLlOXTpvXnnup5LNnJkWaHM56qiIbbeN+MlPcq+qOWaMQnctaG6O+PWvI269NS3czZiRrtL36KOlPXANUCotrXj0rW+VJwfl1bFj+jx2xhkRX/5y6Z/DLrwwLX4BQHtSwAIAAGrWoYdGNOZ517PxxqVdyr49NDREnHhixNNPRzzySMRjj0Xcf79PadaDjh1bvs5OO5U+R3s6+OD0YH8u48dH7LlnefNALpWwosLEiVknaNncuflPW3f00RHrrtv+99ep08dfd+kSMX++lcgi0p/LLbekP/cPnzv69k1/Pt/9bvr12LERixdHzJ4dsfnmEVtuGXHuuRF33ZWuMEH1a2iI2GOPiGuuifjBD9JV6Dp3zjoVwJr58HVYoddCDQ3paSUhl9Z+UPuuu8q3YisA9UUBCwCAutO3b+HxuXPLk4PSmzw5PaVahw6rbh8yJOLnP6+eA1Ndu6afzBw5Mn+hjNrS1BQxZUr+8Q8PtFaTbt3SksDOO6+6fc89I37601XLFVDJSrkC76xZEZMmle7228uoUelqeaNGfbytQ4e04HPhhe1/f+eck5aRf/KT9PLMMxGnn97+91Ot1l474tJLI15/Pb0sXZr+fD75d3WDDSK+//2IP/854t57I045JX+JDqBSnXZa4fGhQ8uTgzW3Jq+f5s2LWH/93GNnnRUxcGD7ZKI+XX55xHbbZZ0CgFpl1z0AAHXnc58rPD59enlyUB7HHx/x1FPpjtpTT424+ur06402yjoZFHbSSfnHjjoqomfP8mVpL+uvH3Hbbelpke6+O+KJJ9JS1qBBWSeDyvC972WdoPWmTYt46KGIRYsi/uu/0oLU97/fuhX8ijFwYMS++6aXT56al4916RLRq1fpHgOq31e/Wni8vU8/DO2tpRVTW3qvT3Xo2zfiN79JT2H+YXFr0KD0w1VOPwwAVDIFLAAAMlfuwtOXvxyx1lq5x448MmL48PLmofTWXTctX511VsQRRzgwSXWYPj09fVT37qtuP+CA0qwwU06jRqWnHfT3FlbVHivBlfM0ik1NEePGpacKGjy4fPcLFGf33QuP77dfeXJARHHPV1tumRZxcxk0KP3wDdXrk78Tw4dH3HBDxJtvRrz2Wrr65Re+UNqVSKE1WnouBaC+KWABUDJWkAFaa5ddynt/660X8ctfRmy11cfbOnaMOOaYiIsuskMPqBzHHx/x7LMR118f8YMfpKvN3HCD0/UBQHtrTRmk2t8njBsXsc8+ucfWXz9izpzy5oE11dAQsXBhxGGHpSXgD40bl77HX2ed7LJRGt27R/TunZ7qGCrBrFlZJwCgkjVnHQCA2jVxYtYJgGqw227Z7OjfdtuIe+5JywzvvpuWsgYMKH8OgJb07Rtx8MFZpwAAql1DQ8Q116SnqvzBDyKWL0+3T52angK1b99M40GrdO+e/h6fdVbEX/8a0bVrxJgx1V+QBKrDnntGfOMbEaef/vHzKAB8SAELgJJxeifg3y1YEPHAAxFPPBHRuXPEzJnpJ1cbM1qXtaEh3VELAABQD7p3j7jqqrS88ve/R3TrFjFiRNapYM0NGZJeAMpt3rz0Q1I33hgxd27WaQCoJApYAACUzVZbRXzta1mnqF0DB7Z8nS23LH2OUmrNqWEAAIDCBg5s3fsHAGB1Q4dGnHKKAhYAq8porQEAAKC9rb12xMYb5x/v0iVi2rTy5QEAAAAAAKgHClgAAGvA6jtUuhNOyD82e3ZEhw7lywKVZuTIrBMAXksBAFS+z3ym5esMG1byGFSoQvueIiKmTy9PDgCoNApYAAD/0tCQdQJou6OOSpdAb2padfv++0ecd142mahM9fg3b8iQiOHDs04BAABQ2caOjejTJ//4dttFdO1avjxUll13LTy+++7lyQEAlUYBCwAAakhDQ8S550Y8+WTExRdHXHRRxAMPRNx4o9WvICJi7tysE9Sfjh2zTgAAtFU9lvehnjU2RnzrW7nHmpsjzjlnzW7P35DasuOOEbvtlntsiy0iDjusvHkAoFIoYAEAQA0aNixizpyIY4+N2HTTrNNA5TjyyIj58yO6dMk6Sf049dSsEwAAAGvqiCMivve9iLXX/njb8OERN90UMWFCdrnIXlNTxPXXp++vP/ywX0NDxH77Rdxyi/fbANSv5qwDAAAAlIJP2JLP6adHHH10xO9+l3594YURixZlm6lWdekSsfXWWaegHDp3jnj33axTAABUp0p9/3rccREzZ0Y88USaceON0/IN9O4dccUVEd/4RsSrr0b06BExaFDWqQAgWwpYAAAA1J2114444ID03wMHRkyalP+6n/98eTLVossvj+jaNesUlMOll6arJOSz337lywIAlSJJsk4AbdelS8TYsVmnoFL1759eAACnIASgBQcdlHUCgOpgxzpUr222idhkk9xjjY0Rhx5a3jy14uqrIw45JOsUlMvEiel8yWfq1PJlAYByqNQViwAAgGwoYAFQ0LBhWScAACitzp0jfvaziHXXXXV7hw7p6QkLrY5FfvvsU777Ov/88t0XuW2wQcQ3v5l7bKedImbNKm8eAACAUrvsssLjVgIGqC9OQQhAQT7NB6uyyhGQz5w5WSegLTbaKOLJJyN+9KOIp55KT7MxY8bqpSwq0w47ZJ2AiIgvfjGdM+eeG/HssxHdukUcfXTEccdFNDVlnQ4AAKB9TZxYeHzKlPLkAKAyKGABUPWUxGgvfpeAQo4+OuL7388/7lON1a9jx4jDD886BcXYdNPy3dfQoS1fp0eP0ueoRA0N6d9Cfw8BAIB6MGpUxPz5EWecsfrY1KlWAgaoN05BCEBFs9oQUAmU8ypHls8LX/hC/lLF3ntHbLxxefMAq5o2rTz3s/feEY0F9qYMGRKx4YblyULr7LVX1gkAAIBa9bWvRVx9dVrG6tIlon//iNNOi/iP/4hothQKQF1RwAKAEvjKVwqPf+1r5ckBQPsZNSripz+NWH/9Vbd/9rMR116rqAdZK9cc7N49Ytdd84/vu295cvCx448vPH7cceXJAQAA1J/Gxogjjoh49NGIt9+OeOmliDPPjOjVK+tkAJSbAhYAlEBLKzBMnVqeHAC0r512ivjLXyJuvz3iF79Id67dfHP9nm4M6tU11+Re5erTn44455yyx6l7hx2WnkI0l002SR8XAAAqmzMhAADVzsKHABTUvXvWCarTDjtEzJ4dcdllq4/NmRMxZUr5MwHQPpqb07/zQP1aa62Ihx6KWLgw4g9/SFff2nPPiP32i2hqyjpd/dlyy4irroo4+uiIt976ePsGG0T8/OfpaUAAAMiOFaMBgHqggAU15I477ogdChwNTHyEhCLMmBHx1a9mnaI6fe97EZtvHvGd70S88kp6oO6LX0yXIwYAoLp17hxxzDHphewdckh6asjrr09P+zFsWHo6yOY63PPlrT8A1UBBGgCAWlOHu6GgNr399tsxa9asrGNQg4YMiRg1KuKxx7JOUn06dEhXwZo9O+skAABQ+/r1izjhhKxT5HfFFRGF3rYfdFD5sgBAqW22WcQDD+QfP+208mWpFfVYLAcAqCaNWQcA2sepp54aTz/9dNYxqFHXX59+wh8AAIDiTJoU0VhgT9zUqeXLUkmOPLLw+De+UZ4c0KFD1gmgtkyZkn+sS5eIbbYpX5ZaUehnCkSst17L1xk5svQ5AKhfClhQA/7nf/4nvvvd72Ydgxq2xRYR99wTccABEYMHp6tiAQBQv5zirPr16lV4/JRTypOjnmy0UcTZZ+ce2223+j1V+aRJhccnTixPDpg5s/B4374R665bniyVqGvXrBNQbf7f/8tfdLjqqoju3csapyaMHp11AqhsI0cWPnbRs2fEpz9dvjwA1B8FLKhy77//fsycOTNWrlz50bbGQh+phSKNGRNxww0Rf/1rxPPPZ50GAIBK19CQdQIKaanss+ee5clRb04+OX1ftcUWEWutFTFsWMS550bcdFNEU1PW6bJx0EERu+6ae+zoox0ko3yGD48YNCj/+MSJhVexq3Xrrpt+KA9aq2fPiDvvjDjuuPTfXbpEbL11xC23OO0uUDqzZ+cfO/LI+n3NDUB51PFbRqgNX//61+Phhx/+6OuuXbvGjBkzMkwEAABApTvxxIh+/XKPHXhgxKc+VZr7HTeuNLfbXvr2bfk6AwcWf/sNDenKwvfdF/HyyxFPP52uNtatW/G3We2amtJS2qmnpgfoIyIGDIg477yICy/MNhv1paEh4tprc5es1lor4oILyp+pkjQ0KOey5gYNivje9yLeeCPi7bfTFfb9HgGl9NWvRhx22Orb99474pxzyp8HgPqigAVV7KGHHoqz/+38BWeeeWYMGzYsm0AAAABUhaFDI269NWLs2I+3NTVFHHpoxJVXlm4Fsz33rOxPnW+2WeESVqdOEbvsUr489aJnz4izzop4/fWIlSsjli5NVwvr2DHrZNSbHXaI+M1v0pXXGhsjmpsj9t8/4r/+K/27We+++c1VnzcAoNI0NkZcc03EAw9EfOMb6eVPf4r4j/+I6NAh63QA1LrmrAMAxVmxYkXMnDkzPvjgg4+2bb755nHiiSfGggULMkwGAABANdhuu/TAxP/+b8S776blglIXDLp3Tz+RfvXVpb2fYjU2Ruy7b8Tll+ce32OPtIRFaTh1KZVg2rT0wuq6dUsPYl95ZcQJJ2SdBirD3LlZJwBy2XTT9AIA5WQFLKhSF1xwQdxzzz0ffd3U1BRXXHFFNFXyR4kBANpo++2zTgBQ+b74xcLjX/7yx/9uaIjYZpuIiRPLt7rLRReV536K9Z3vRGy55erbR46MuOKK8ucBqCRdukQcf3zE9OlZJ4HsNTRETJqUdQoAACqFAhZUoSVLlsTpp5++yrYTTjghtsy1hxgAoIbstJPTEQG0ZMKEto2XWpcuEfvsk22GQrp2jVi0KOLaa9NTj+2/f8Rll0U8+GBE795ZpwMAKsWZZ0b065d1CgAAKoVTEEIVmjVrVrz99tsffb3eeus57SBAmSRJ1gmgvnXuHDFnTsQFF2SdBKBy7bVXernlltXHPvvZ9DR6FNahQ8Shh6YXAFbnlKHUs379Ik46yekHAQBYlRWwoMpcccUVceedd66y7ZJLLolu3bpllAigdtiBDNXhvPMiJk/OOgVA5WpsjPjhDyO+8pWIHj3SbT17Rsybl67q5DUPAG3VUvFk2LCyxIBMPPdc+rqq0RE2AAA+wQpYUEVeeOGFOPnkk1fZtv/++8f06dMzSgQAUH4dOkRcd13EkCFZJwGoXD16RJx9dsT8+REffJD+7XQKVwDay5ZbpqvTvvtu7vHtty9vnix06NDydbp0KX0Oyq9r16wTAABQifTzoYrMmTMn3njjjY++7t27d1x44YUZJgIAoFr16pV1AqAcOnaM6NZN+QqA9tWlS8TFF+ceW3vttARc60aOjOjdu/B1Pve58mQBAACyp4AFVeLGG2+MW265ZZVt5557bqyzzjoZJQIAoJpdcEHh8V12KU8OAACq0+c/H7FwYcSGG368bY89In772/pYrbaxMWLq1Pzjm2wSYdctAADUD6cghCrwyiuvxAknnLDKtgkTJsSsWbMySgQAQLWbMCGiuTli+fLc41OmlDcPAADV5/DDI2bMiFi2LC0k9eiRdaLyuuiiiEWLIpYuXXV7ly7padMBAID6oYAFVeDEE0+Ml1566aOvO3bsGJdddlk0NDRkmKp1Fi1a1KbvX7x4cTslAQDgkwYPjvj2tyP+recfERHjx0d84QvlzwQAQPVpaqrf01sPHJgWsM49N+KWWyKSJP2gw6mnRowdm3U6AACgnBSwoMLddtttcd2/fVxq3rx5MXr06IwSrZntttsu6wgAAORx3HERa68dcfbZEU89lX5S/8gjI7785YhOnbJOBwAAlW/o0IhLLkkvAABA/VLAggq2bNmymD179irbRo4cGfPmzcsoEQAAtaShIeKAA9ILAADZGTIk6wQAAAC0RWPWAYD85s6dG88999xHXzc0NMTll18enSxHAAAAAABVY6+9Co+fc055cgBUqiTJOgEAQNtYAYua98orr8TcuXOzjhEREdtss00cddRRrbruH//4x7j00ktX2TZz5syYOHFiKaIBAAA1YOzYiP/7v/zjX/lK+bIA2Wi2tw8q0s47R9xyS+6xLl0iPv3p8uYBqk81F5QaGrJOAABQenbJUPP++c9/xlVXXZV1jIhITynYmgLWe++9F0ceeWQkn3hHNWDAgDjvvPNKGa8k7r777jZ9/+LFi1c7DSMAAJDbfvsVLmDtvnv5spRbNR+QgjWx6aYRDz6Yf3z+/PJlAVpv9uyIX/4y4te/Xn3s6qsj1l67/JmAyqGgBABQ/RSwoALNnz8/Hn/88VW2XXDBBdGnT5+MEhVv/PjxWUegyq23XsvXmTKl9DkAAKrBnDnpQdynn159bO+9I7w8p1I0NbV8nSRxMDKXSZPyF7A6dIgYN668eYDWaWyMuPnmiIULI664IuKddyI23DBdnXL77bNOBwAAQFs1Zh0AWNUDDzwQ3/zmN1fZtuuuu8aBBx6YUSLIVu/eEZtvnn+8R4+I7bYrXx4AgErWt2/Er34VMXXqx9uamyOOOCLi2mvTg79QCb70pcLj666rfJXPGWdEbLBB7rGLL47o1au8eYDW69w54phjIv7854hHH01XxFK+AgAAqA12vUIFWb58ecycOTOWL1/+0bZu3brFpZdemmEqyN5pp+Uf++pXW/fpeQCAejF6dMQdd0Q8/njEffdFPPtsuipWjx5ZJ4OPbb55RPfu+ccnTixflmrTt286xw8//OP3QqNGRVx3XcSsWZlGAwAAAKhbTkFIzRs2bFgkSZJ1jFY5//zz489//vMq2+bPnx9Dhw7NKBFUhr33jrjoooivfS3i9dfTbZ07R5xwQsTcudlmAwCoVCNGZJ0A8uvYMeLyyyMOPnj1sQEDIs49t/yZqsmwYelpzK68Mv26sdGKYQAAAABZUsCCCnLjjTeu8vWgQYNi3Lhx8ac//WmNbuevf/1rzu25bqdnz56x8cYbr9HtQxaOPTZixoyI//7viCSJ2GqriHXWyToVAABQrIMOSldwmj8/4pFH0m2f/WzEggURgwdnm61aWA0YAAAAoDIoYEEF+feVul544YXYfvvt2+32x48fv9q2SZMmxe9///t2uw8opZ49I6ZPzzoFAADQXvbfP2K//SLeey9dwalTp6wTAQAAAMCaU8ACAAAAIDMNDekpxgEAAACgWjVmHQAAAAAAAAAAAKBaKWABAAAAAAAAAAAUSQELKsgDDzwQSZK0+XLGGWfkvP1c1/39739f3v8kADWrT5+Wr9OjR+lzAAAAAFBdkiTrBAAAbaOABQBAu9h114jm5vzj3btHjBtXvjwAAAAAAABQDgpYAAC0i65dI6ZNyz++664RTU3ly0Nt69695etssknpcwAAAAAAAChgAQDQbhYujBg4cPXtw4ZFXHpp2eNQw3r1ivjUp/KPNzRE7Ltv+fIAAAAAAAD1SwELgKJMnVp4/POfL08OKLckyTpBZRs4MGLx4ojTTovYbrv0ctZZEfffH9GvX9bpqDWHHZZ/bK+9Inr3Ll8WAAAAAACgfilgAVCUffYpPP6Zz5QnB7SnhoasE9SGfv0izjwz4q670suppyrCUBonnRQxY8bq2zfdNF2NDSidY48tPN63b+tOFQoAANQ++9wAgHqggAVAUQ49NP+pn6ZOjdh11/LmAaD+NDRE/OAHEYsWRXz5yxFf+lLETTdF3Hef0h+U2qabRvTokX980iQHWQAAAACA+tGcdQAAqlP37hG33hpx3HERv/51uq2hIWL//SO+972IZs8wQA0ZOrTl6+y1V+lzkNu4cekFKJ8OHSIuuST3KnS9e0ecd175MwEAAAAAZMUKWAAUbf31I371q4gnnoi4996IZ56JuOGGiP79s04G0L46d47Yfvv84717R2yxRfnyAFSCQw5JV6EbPvzjbTvsEHH77atuAwAAAACoddYngRo0efLkrCNQZxxgA+rB2WdHTJkSsXz56mPnnx/R6KMNQB2aMSPi4IMjXn89/TvYp0/WiQAAgGqUJFknAABoGwUsqEGTJ09WwgKAdrb99hE/+UnEySdHPPlkuq1//4hTT42YOTPbbABZamqK6Ncv6xQAAEClamjIOgEAQOkpYAEAtEHPni1fp2vX0uegPD7zmYg99oh4+OH0k5kbbeTxBQAAAAAAqHcKWAAAbbDbbunKHytW5B7v1i1i/PjyZqK0mpoixo7NOgUAAAAAAACVojHrAAAA1axbt4iJE/OP77hjRLPKOwAAAAAAANQsBSwAgDa65pqI/v1X3z5kSMRll5U9DgAAAAAAAFBG1mMAAGij9daLePDBiG99K+KOO9Jtu+0WceKJuYtZAAAAAAAAQO1QwAIAaAcDB0acf37WKQAAAAAAAIBycwpCAAAAoOolSdYJAAAAAIB6pYAFAAAAAAAAAABQJAUsAAAAAAAAAACAIilgAQAAAAAAQEa6dGn5OuutV/ocAAAUTwELAAAAAAAAMtKnT8RGGxW+zowZ5ckCAEBxFLAAAAAAAAAgQ5/9bP6x7baLGDCgfFkAAFhzClgAAAAAAACQoTPPjJg4cfXtAwZE3HBD+fMAALBmmrMOAAAAAAAAAPWsY8eIO+6IuOmmiJ/+NGLlyohx4yLmzIno2TPrdAAAtEQBCwAAAAAAADLW3Bxx8MHpBQCA6uIUhAAAAAAAAAAAAEVSwAIAAAAAAAAAACiSAhYAAAAAAAAAAECRFLAAAP5lq61avs7QoaXPAQAAAAAAAFQPBSwAgH8ZPz6iZ8/84yNGRAweXL48AAAAAFAPkiTrBAAAbaOABQDwL01NEV/4Qv7xL32pfFkAAAAAoBY0NGSdAACg9BSwAAA+4YwzImbOXHXHUIcOEfPmRRx1VHa5AAAAAAAAgMrUnHUAAIBK0tQUceWVEaecEvHf/50WsXbaKWLIkKyTAQAAAAAAAJVIAQsAIIcRI9ILAAAAAAAAQCFOQQgAAAAAAAAAAFAkBSwAAAAAAAAAAIAiKWABAAAAAAAAAAAUSQELAAAAAAAAAACgSApYAAAAAAAAAAAARVLAAgAAAAAAAAAAKJICFgAAAAAAAAAAQJEUsAAAAAAAAAAAAIqkgAUAAAAAAAAAAFAkBSwAAACg6u2/f9YJAAAAAIB6pYAFAAAAVL3PfKbw+N57lycHAADV64QTCo9vu215cgAAUH0UsAAAAICqN2BAxMyZuceamyNOOqm8eQAAqD577ll4fN99y5MDAIDqo4AFAAAA1ISLLoo4+OCIhoaPt/XvH3HttRGf/nR2uQAAqA6TJ0fstlvusREjImbNKmscAACqiAIWAAAAUBM6d464/vqIxx6LuPnmiFtuiXjmmbSUBQAALWlqSl9PHnJI+u8P7bhjxC9+EdGrV3bZAACobM1ZBwAAAABoTyNGpBcAAFhTvXtH/PCHEWefHfHiixE9enhtCQBAyxSwAAAAAAAA4BOGDEkvAADQGk5BCAAAAAAAAJTEhhu2fJ1OnUqfAwCglBSwAAAAAAAAgJI4+ODC4yNHRvTpU54sAAClooAFAAAAAAAAlET//hGTJuUf32+/8mUBACgVBSwAAAAAAACgZH7844ghQ1bfvsMOEWecUf48AADtrTnrAAAAAAAAAEDtGjgw4rHHIq64IuJPf4pobIzYZ5+IvfdO/w0AUO0UsAAAAAAAAICS6tYt4sQTs04BAFAaOuUAAAAAAAAAAABFUsACAAAAAAAAAAAokgIWAAAAAAAAAABAkRSwAAAAAAAAAAAAiqSABQAAAAAAAAAAUCQFLAAAAAAAAAAAgCIpYAEAAAAAAAAAABRJAQsAAAAAAAAAAKBIClgAAAAAAAAAAABFUsACAAAAAAAAAAAokgIWAAAAAAAAAABAkRSwAAAAAAAAAAAAiqSABQAAAAAAAAAAUCQFLAAAAAAAAAAAgCIpYAEAAAAAAAAAABRJAQsAAAAAAAAAAKBIClgAAAAAAAAAAABFUsACAAAAAAAAAAAokgIWAAAAAAAAAABAkRSwAAAAAICqtN9+hcdnzSpPDgAAAKC+KWABAAAAAFVp+vTC47vuWp4cAAAAQH1TwAIAAAAAqtKBB0Zsu23usWnTIvbYo7x5AAAAgPqkgAUAAAAAVKVOnSJ+9rOIgw6KaPzXns7m5ojDD4+48cb03wAAAAClZhcEAAAAAFC1Bg6M+NGPIr797Yg33ojo0ydi7bWzTgUAAADUEwUsAAAAAKDqrbNOegEAAAAoN6cgBAAAAAAAAAAAKJICFgAAAAAAAAAAQJEUsAAAAAAAAAAAAIqkgAUAAAAAAAAAAFAkBSwAAAAAAAAAAIAiKWABAAAAAAAAAAAUSQELAAAAAAAAAACgSApYAAAAAAAAAAAARVLAAgAAAAAAAAAAKJJ+AllYAAAgAElEQVQCFgAAAAAAAAAAQJEUsAAAAAAAAAAAAIqkgAUAAAAAAAAAAFAkBSwAAAAAAAAAAIAiKWABAAAAAAAAAAAUSQELAAAAAAAAAACgSApYAAAAAAAAAAAARVLAAgAAAAAAAAAAKJICFgAAAAAAAAAAQJEUsAAAAAAAAAAAAIqkgAUAAAAAAAAAAFAkBSwAAAAAAAAAAIAiKWABAAAAAAAAAAAUSQELAAAAAAAAAACgSApYAAAAAAAAAAAARVLAAgAAAAAAAAAAKJICFgAAAAAAAAAAQJEUsAAAAAAAAAAAAIqkgAUAAAAAAAAAAFAkBSwAAAAAAAAAAIAiKWABAAAAAAAAAAAUSQELAAAAAAAAAACgSApYAAAAAAAAAAAARVLAAgAAAAAAAAAAKJICFgAAAAAAAAAAQJEUsAAAAAAAAAAAAIqkgAUAAAAAAAAAAFAkBSwAAAAAAAAAAIAiKWABAAAAAAAAAAAUSQELAAAAAAAAAACgSApYAAAAAAAAAAAARVLAAgAAAAAAAAAAKJICFgAAAAAAAAAAQJEUsAAAAAAAAAAAAIqkgAUAAAAAAAAAAFAkBSwAAAAAAAAAAIAiKWABAAAAAAAAAAAUqTnrAACFvPXWW6ttW7x4cQZJAAAAAAAAANpXrmOfuY6RApVNAQuoaEuWLFlt2+zZszNIAgAAAAAAAFB6uY6RApXNKQgBAAAAAAAAAACKpIAFAAAAAAAAAABQJAUsAAAAAAAAAACAIjUkSZJkHQIgnxdeeCF++ctfrrJtgw02iG7dumWUqPotXrw4Zs+evcq2yy67LMaMGZNRIqgN5haUhrkFpWFuQWmYW1Aa5haUhrkFpWFuQWnU8tx66623YsmSJats23333WPQoEEZJQKK0Zx1AIBCBg0aFEcddVTWMWremDFjYvz48VnHgJpjbkFpmFtQGuYWlIa5BaVhbkFpmFtQGuYWlIa5BVQSpyAEAAAAAAAAAAAokgIWAAAAAAAAAABAkRSwAAAAAAAAAAAAiqSABQAAAAAAAAAAUCQFLAAAAAAAAAAAgCIpYAEAAAAAAAAAABRJAQsAAAAAAAAAAKBIClgAAAAAAAAAAABFUsACAAAAAAAAAAAokgIWAAAAAAAAAABAkRSwAAAAAAAAAAAAiqSABQAAAAAAAAAAUCQFLAAAAAAAAAAAgCIpYAEAAAAAAAAAABRJAQsAAAAAAAAAAKBIDUmSJFmHAAAAAAAAAAAAqEZWwAIAAAAAAAAAACiSAhYAAAAAAAAAAECRFLAAAAAAAAAAAACKpIAFAAAAAAAAAABQJAUsAAAAAAAAAACAIilgAQAAAAAAAAAAFEkBCwAAAAAAAAAAoEgKWAAAAAAAAAAAAEVSwAIAAAAAAAAAACiSAhYAAAAAAAAAAECRFLAAAAAAAAAAAACKpIAFAAAAAAAAAABQJAUsAAAAAAAAAACAIilgAQAAAAAAAAAAFEkBCwAAAAAAAAAAoEgKWAAAAAAAAAAAAEVSwAIAAAAAAAAAACiSAhYAAAAAAAAAAECRFLAAAAAAAAAAAACKpIAFAAAAAAAAAABQpOasAwBQPo888kg89NBD8cILL8SyZcuic+fO0b9//xg9enRsvvnm0aFDh6wjQtm8/PLLcf/998eTTz4Zb775ZiRJEr169Yrhw4fH5ptvHv379y9blg8++CD+/Oc/x2OPPRYvv/xyvPvuu9G9e/cYNGhQjBkzJkaPHl22LBERS5YsiQcffDCee+65WLZsWXTs2DH69u0bI0eOjC233DK6dOlS1jzk9/bbb8ejjz4aTzzxRLz66qvxxhtvRIcOHaJPnz7Rp0+f2HjjjWPkyJHR0NBQtkzmVn7mVnVIkiT+9re/xXPPPRfPP/98/OMf/4i333473nvvvejRo0f06tUr+vfvH5tttlkMHjy4bLnMrfzMLdrK/MrP/KJY5lV+5lX1e++992Lx4sXx+OOPx8svv/zR49i9e/cYMmRIbLjhhjFixIiS7Wczv/IzvyjW3/72t3jggQfi6aefjjfffDOampqid+/eMWLEiNhiiy2iV69eZcvyzjvvxH333RePP/54vPrqq/H+++9H9+7dY+jQoTF27NjYYIMNypYlwjGFavXqq6/GvffeG0uXLo3XX389li1bFl27do3evXvH2muvHVtssUUMHDiwLFnMr/zML6hBCQA17bnnnktOPvnkZPDgwUlE5L307NkzOeSQQ5J77rkn68jUoCVLliQ33XRTMnfu3GSHHXZI+vTpk/P38He/+11Jc7z//vvJwoULk3HjxiUNDQ1550NjY2Myfvz4ZOHChcn7779fsjz33HNP8rnPfS7p0aNHwfk5ePDg5JRTTkmee+65kmX5xz/+kSxYsCDZcMMNC2bp3LlzstdeeyW//e1vS5aF/F588cXkhhtuSI466qhk5MiRSWNjY8HHKyKSPn36JHvuuWdy6623JitWrChJLnMrP3Or8j3xxBPJNddck8yePTsZP358i783n7wMGDAgOfTQQ5Pf/e53ycqVK9s9m7mVn7lVm1auXJlMnDgx7+N5xhlntNt9mV/5mV+VrbXPUWtyaa+5ZV7lZ15Vv3fffTe5/vrrk5133jnp0qVLi/Oqc+fOyfjx45N58+Ylf/zjH5Ply5e36f7Nr/zMr8p0xhlnlOQ5qz2fw5YtW5ZceOGFyZgxYwreR3Nzc7LDDjskN998c0ne933ot7/9bbLXXnslnTt3Lphn+PDhyYIFC5J//OMfJcvimEJ1euqpp5J58+Ylw4cPb9X8GTx4cDJnzpzk/vvvb/cs5ld+5hfUNgUsgBq1cuXK5Oyzz27VTqF/vxx66KHJG2+8kfV/gSrV2rJVrkspC1h33XVXMnr06DWeD6NHj07uvvvuds3y+uuvJzNmzFjjLF26dEnOOeecdn8zetVVV63R4/ThZfr06cnf/va3ds3C6l588cXk4osvTiZPntyqwlWhy7Bhw5Jbb721XfOZW/mZW5Xva1/7Wpvm1CcvY8eObdffaXMrP3Ordl1yySUFH8P2KomYX/mZX5WvvZ632ntumVf5mVfV79prr03WXXfdNs2ztuzvML/yM78qV6UXsG699dZkyJAha3x/48aNSx599NF2/Vn99a9/TXbbbbc1ztK3b9/k6quvbtcsjilUp9deey2ZOXNmwYJua/4uPv/88+2Sx/zKzfyC+qCABVCD3nnnnWSPPfZo05vXESNGJE8//XTW/xWqUK9evYr+vStVAWvhwoVJhw4dis7VsWPH5JprrmmXLEuWLElGjBjRpvm55557Ju+++26bs6xYsSI56qij2pRlnXXWSe677752+MmQz8yZM9v0GOW6HH744e3yO2Ru5WZuVY+5c+e269xqaGhIvvKVr7Q5l7mVm7lV255//vmkZ8+eBR+/9iiJmF+5mV/Voz2ft9prbplXuZlX1e+VV15Jdt9993aZZ8Xu7zC/cjO/Kl+5CljXXXfdGmdbsGBBm4oqPXr0SG677bZ2+Tnde++9yTrrrNOmn8Hs2bPbpdzomEJ1evDBB5NBgwa1y3zq2bNnm3+3za/czC+oHwpYADVm+fLlyfTp0/O+SOvQoUOy6aabJtOmTUu22WabpHv37nmvu/766ydLly7N+r9Elam0AtaPfvSjgm/61ltvvWTSpEnJxIkTC36itbGxMfnxj3/cpixLly5Nhg0bVvAN5rbbbptMmzYtGTt2bMGdrLvvvnubTyd39NFHF/z/brzxxsnUqVOT7bbbruAnSvv165c88sgjbcpCfq0pYPXu3TsZOXJkMmHChGTChAnJqFGjWlwta4899mjTKSnMrfzMrepRqIDV2NiYDB06NNliiy2SKVOmJJMmTUo233zzVj3PHXPMMUVnMrfyM7dqW6H3MB9e2loSMb/yM7+qR0vzpJhLW+aWeZWfeVXdnnnmmWTUqFEF506PHj2SESNGfPQ+bMyYMXnLxMXs7zC/8jO/Kl85Cli9e/dO3nnnnTXKdfbZZ+e9vYaGhmT48OHJlClTku233z4ZMGBA3ut27tw5+f3vf9+mn9HDDz+c9O3bN+999O3bN9luu+2SqVOnJqNHjy64n6ct70GTxDGFarV48eJkrbXWKjhP+vXrl2y11VbJtGnTkm233bbFlak6d+6c3H777UXlMb9yM7+gvihgAdSY0047Le8b0m9/+9vJ66+/vsr133///eSnP/1p3k+wTZkypc07RagvlVTAWrx4cd4lfQ866KDk4YcfXu17HnrooeSggw7K+T1du3ZNHnrooaKyrFixIpk8eXLO2x0xYkRy8803r1aGee2115Jvf/vbeX+mp59+elFZkiRdpj/XbXbq1Ck5/fTTkxdffHG1/L/5zW+SrbfeOuf3jR49Olm2bFnRecgvVwGra9euycEHH5xceeWVyV/+8pec3/f6668n119/fbLpppvmnXOzZs0qKpO5lZ+5VV0+WcDacMMNk8MPPzy58sorkwcffLDgjvwnnngiOeuss5KBAwfmnV8LFy5c4zzmVn7mVm277rrrVnl88h1sbktJxPzKz/yqLrl+5osWLWrTpdjTzZhX+ZlX1e2ll15KNtpoo5yPRa9evZJTTjklufvuu3OuiLFy5crkiSeeSK6++upkr732+miOrOn+DvMrP/OrOjz//PNtfn768HLZZZflfOyOPfbYNcp0++235yxZNDY2Jscff3zyzDPPrPY9ixYtSnbaaaec9z9gwICiixDLli3LW/Lceuutk9tvv321vzFLly5NTj/99KRTp045v68tp0tzTKH6fPDBB8nYsWNz/vybm5uTY489Nlm8eHHO733++eeTBQsW5C2oDhgwIHnttdfWKI/5lZ/5BfVFAQughjz44INJU1PTai/Ihg4dmjz55JMFv3fZsmXJzjvvnPMF3SWXXFKm/wG1INfOtfXWWy/Ze++9k69//evJbbfdltx77705f9fas4C1cuXKZNttt13tPhoaGpIrrriixe+//PLLcx78GzduXFHLDl988cU5/8+77LJLizv6nnzyyWTo0KE530z/3//93xpnWbp0ac5P5fbp0yf53//934Lf+8EHHySHH354zv/LKaecssZZaNknC1jbbrttcuWVVyZvvvlmq79/+fLlyemnn57zMWtoaEjuuuuuNcpjbuVnblWfa665JjnnnHOK/tT7G2+8kRxwwAE5H7c+ffokr776aqtvy9zKz9yqbS+99NJqn9qeM2dOzses2AKW+ZWf+VV9cv28s2Be5WdeVbfly5cnEyZMyPkYHHTQQcnf//73Nbq9V199NfnmN7+5Rr9L5ld+5ld9OvbYY3M+bvfff3+rb+Ptt9/O+bvYqVOn5Fe/+lWL35+vQLH//vsX9X86+eSTc97eEUcckXzwwQcFv/eee+7JWZzp2bPnGv+NShLHFKrVRRddlPPn3q9fv+RPf/pTq27j+eefTzbbbLOct/PFL36x1VnMr/zML6g/ClgANWTHHXdc7YVYt27dWn1Q8a233ko22WSTnC/afRKM1hozZkyy9957J2eddVbyn//5n8nLL7+82nWefvrpnG8c2rOAdf311+e8j/nz57f6NubPn5/zNtZ06f5//vOfOZc83mSTTZK33nqrVbfxyCOPJF27dl3tNnbeeec1ypIkSTJr1qzVbqexsTG58847W/X9K1asSKZNm7babXTs2DF59tln1zgPhc2cOTMZP358ctttt7Xpds4666ycv8+TJ09eo9sxt/Izt+rTihUr8i4l35oDZB8yt/Izt2rbgQceuMrjMmjQoOSNN97I+btcbAHL/MrP/Ko+uX4Ps2Be5WdeVbd8v5cnnXRS2TKYX/mZX/XnnXfeyVmG2HLLLdfodr7+9a/nnBPXXnttq2/jiCOOyHkbixYtWqMszzzzTM7TdE6bNq3Vq9rceeedOVcbmj179hplSRLHFKrVVltttdrPvKGhIfnDH/6wRrfz97//Penfv/9qt9W/f/9W/z6aX/mZX1B/FLAAasR99/1/9u4zPIpy///4J5UklEDoNXQp0ougKEERVIoixQKCiiBSPPpT9KhHERVEj4qK6BERQQRBAQtHRKTjIURDEaQJUpLQpCQhhfT5P/DCv3Fmkq1JNnm/rmsfcE/u73yzO58lu3vvzHbLP1BnzJjhVJ2tW7da1nnjjTe81DnKoqJYgGV1CubWrVsbOTk5DtfIzs62fIHTrl07p3p5/fXXPfIC8uWXX7ass2PHDodrnDx50vJUyuPGjXOql6NHjxohISGmOg8//LBTdVC4hIQEj9Sx+xa1v7+/6RINBSFb1shW2Xb8+HHLbzTefPPNDtcgW9bIVum2cuVK02OyfPlywzCsF5m4ugCLfFkjX77J6nEvDuTKGrnybUeOHLF8/EaNGlWkfZAva+SrbPr7paov39577z2Ha1y6dMmoUaOGqYaziwCTkpIs6wwcONCpOpMmTTLVCAkJMY4ePepUnQcffNBUp1y5ck5dto3PFHzTiRMnLO/vQYMGuVTvjTfesKznyFnzyZc98gWUTSzAAoBSYuzYsaY/wCIiIhz+NtpfWZ3WtGXLll7oGmWVtxdg2b0oWbJkidO1Pv30U8tajp7K2TAM44orrjDNv+mmm5zuJS0tzfKbp8682Th9+nTT/KCgICM+Pt7pfqxeiFauXNnIyMhwuhaKxvLlyy2P548//tih+WTLHtnCddddZ3rcmjRp4tBcsmWPbJVeycnJRt26dfM9Hrfeeuuf262OY1cWYJEve+TLN1kdg0WNXNkjV75t+PDhpvu8evXqTl1W2l3kyx75KpuioqJMj1VYWJiRnJzscI3Fixe7nYXLrBYT+vv7GydPnnRo/qVLl4zw8HC3snBZXFycERgYaKrlzOIOPlPwTZs2bbI8pj/55BOX6sXHx1vWc+T9QvJlj3wBZRMLsACgFMjOzrY8FbOr39xatmyZ5R/NO3fu9HDnKKu8vQDL6psuVatWNbKyspyulZWVZfkm4T/+8Q+H5tt902XFihVO92IYhjFx4kTLF26OfhO2TZs2pvnOfpPostjYWMvf7YsvvnCpHrwvJSXF8jF78cUXHZpPtuyRLYwfP970mIWFhTk0l2zZI1ul19/fjK5YsWK+D1CtHitXFmCRL3vkyzdZ3c9FjVzZI1e+6/jx45YftL7//vtF2gf5ske+yp7Dhw8bfn5+psfJ2bPSDRgwwFSjbdu2LvV05swZy7Mfz5w506H5dl+Mc+ZscH/Vv39/Uy1Hz3THZwq+67PPPvPocWQYhlGhQgVTvVdeeaXQeeTLGvkCyi5/AQB8XkxMjBITE03jgwcPdqlev379FBoaahpftWqVS/WAovbtt9+axgYOHKigoCCnawUFBWngwIGmcUfzYNVLaGiobr75Zqd7kaQhQ4aYxi5cuKCYmJhC5544cUJ79uwxjbv6XNGpUyc1bNjQNM5zRclVoUIFValSxTR++vRph+aTLWtkC5IUHh5uGvP3d+wlN9myRrZKr02bNumDDz7INzZt2jTVq1fP4/siX9bIF9xBrqyRK982f/585eTk5BurWLGihg8fXqR9kC9r5Kts+vDDD2UYhmn8gQcecLhGVlaW1q9fbxp39dipUaOGrr32WtO4O7lq1KiROnTo4FI/Vrn6+eefdfLkyULn8pmC77LKhfTH+36uqlSpkmksICCgwDnkyx75AsouFmABQClg9UduWFiYunfv7lK9kJAQXX311Q7tByhp4uPjdfjwYdP4DTfc4HJNq7mHDh1SQkJCoXOtcnPNNdcoJCTEpV66d+9u+WLLkXza/Yyn7xueK0q24OBg01hhb6hIZMvZXiSyVdb8/vvvprHatWsXOo9sOdeLRLZ83aVLl/TAAw/k+9Dgqquu0oQJEzy+L/LlXC8S+ULhyJVzvUjkylcsWbLENDZs2DCVL1++yHogX871IpGv0iw3N1cLFiwwjbdo0UI9evRwuE5MTIzS0tJM454+drZs2aLs7OxC51odY57uxW4/jvwMnyn4hpo1a1qOnz9/3uWaVnPt9nMZ+XKuF/IFlA0swAKAUiA2NtY01r59e5e+HXdZ165dTWPbt293uR5QVKzyIFkf046ym+tIJnbs2OHRXoKDg9W+fXuXerG6b+rUqaO6deu63I/V7/Lbb78pKSnJ5ZrwnrS0NJ09e9Y07sgiEbJlj2xBkn744QfT2DXXXFPoPLJlj2yVTs8991y+D5cDAwM1Z84ch88Y5wzyZY98wVXkyh658l1xcXHav3+/adzq7FHeRL7ska+yZ9WqVZZnmRk9erRTdayOnYCAAHXs2NHl3qyOnYyMDO3bt6/AeYmJiTpy5IhD9RxVr149y/d0XM0Vnyn4hk6dOll+mfLHH390qd7OnTuVmZlpGu/WrVuB88iXPfIFlF0swAKAUmD37t2msTZt2rhV02p+UlKS4uLi3KoLeJtVHkJDQ9W0aVOXazZr1szyG54///xzgfOOHz9u+cadN/JZWC9S0T1X2O0LxW/z5s3Ky8szjTdp0qTQuWTLHtnC999/r4MHD5rGR4wYUehcsmWPbJU+sbGxmjlzZr6xxx9/XG3btvXK/siXPfJVOl26dElxcXHauXOn9u7dq1OnTll+mOYOcmWPXPmuDRs2WI7bffCclZWlQ4cOafv27Tp48KDOnz9vezkoZ5Ave+Sr7Jk7d65pLCgoSCNHjnSqjtXj2bRpU8uzsTnK7tgp7Fi2O7ZKe674TMHzKlSooD59+pjG58+f79L/R/PmzTONtWvXrtD/f8iXc/2QL6BsYAEWAPi47Oxsyz+w3HlzpqD5v/32m1t1AW+zOl1/48aN5efn53JNPz8/NW7c2DReWB6sepG8k8+4uDjl5OQ43Q/PFWXLRx99ZBoLCgqyfNPm78iWc/2QrbLj+PHjGjNmjGk8KirKoVPdky3n+iFbvis7O1ujR49Wbm7un2NNmjTRc88957V9ki/n+iFfvmv8+PFq27atKlSooMjISHXs2FFXXnml6tSpo5CQEDVs2FDDhw/Xf/7zH507d86tfZEr5/ohV77B6kxPjRo1Uo0aNf7894ULF/Taa6+pW7duKl++vJo3b67OnTurRYsWqlatmkJDQ3X99ddr+vTptsdmYciXc/2Qr9Lr9OnTWrVqlWl84MCB+XLpCG8cO7Vr17a8PGlJylVhvfCZgu974oknTGM7d+7U22+/7VSd//3vf3r//fdN408//XShc8mXNfIFlG0swAIAHxcfH295NhN3TsFd0Pxjx465VRfwtuPHj5vG3M2DXY3C8mDViyf6sZqfm5ur+Ph42znZ2dmWp253t5fq1asrODjYNM5zRcmzZ88erVixwjR+ww03KDw8vND5ZMsa2Sq78vLytHTpUnXv3t10TNaqVUvz5893qA7Zska2Sp8ZM2aYvgX8n//8x61vRxeGfFkjX6XPe++9pz179li+NyD9cfwtXrxYDz30kBo0aKAHH3zQ5QUi5MoaufJte/fuNY21bt1a0h9/873++utq2LChJk+erJiYGMvFQpmZmdqwYYOeeeYZtWzZUvfff7/TZ6QgX9bIV9kzf/58y5w98MADTtfyVq7q1KljGnMlV+XKlVO1atXc6sXq90lISChwYSOfKfi+qKgojRs3zjT+f//3f3r11Vdt/y78q6+++kr9+/dXdnZ2vvEhQ4Zo2LBhhc4nX9bIF1C2sQALAHzc77//bjles2ZNt+razT979qxbdQFvs8qEu3mwq1FYHqx68fPzc/rbeo70Ulg/58+ft3zh54n7xur34bmiZMnLy9O4cePynXXksscff9yhGmTLGtkqnfbt26dt27blu/3www/69ttv9cEHH2j8+PFq0KCB7rzzTp06dSrf3KZNm2rjxo2KjIx0aF9kyxrZKl3279+vadOm5Ru755571Lt3b6/ul3xZI19l26VLlzRnzhy1a9dOc+bMcXo+ubJGrnyb1UKpOnXqKC0tTf369dPjjz+ulJQUh+vl5OToo48+Uvv27bVu3TqH55Eva+Sr7LG6HFqDBg0cOnv331k9niUpV+5myq6XvLw8Xbhwwale7Gq524tErrxl1qxZGjRoUL6xvLw8Pfnkk2rdurXeeOMNxcbG6sKFC8rJydHFixe1b98+zZs3Tz179tRtt91mutxsnz59tHDhQof2T74c78Wulru9SOQLKGkCi7sBAIB77P7Qc+RsJgUJCAhQWFiY0tPT842fP3/erbqAt1llwt08SFKlSpVMY4XlwaqX8uXLKyAgwOO9FNaPt54r7PrhuaJkmT59urZu3Woa79+/v0OXSJPIljO9SGTL140fP16bNm1yak6FChU0fvx4Pffcc5any7dDthzvRSJbvigvL0+jR49WZmbmn2NVq1bVG2+84fV9ky/He5HIV1mTnp6uBx98UD/88IMWLFjg8CXOyJXjvUjkylf8fUG99MfZkQYMGKANGza4XDcxMVE33XSTPv74Y911112F/jz5crwXiXyVVps2bdKhQ4dM4/fdd5/8/Z07p0R6eroyMjJM4yUpV97q5XI/dgtQ+EyhdAgMDNSyZcv06quvaurUqfmO9wMHDuixxx5zuFZoaKieeuopPf300w4915Mv8gXAGmfAAgAfl5qaajleoUIFt2tb1UhLS3O7LuBNVpkorjwUZS+F9cNzRdn1/fffa8qUKabx8PBwzZ492+E6ZMvxXrzZD9kqeSpUqKAZM2YoPj5er7zyilOLrySy5Uwv3uyHbHnPrFmzFB0dnW/s9ddfd/tSEI4gX4734s1+yJd3BAcHKyoqSi+++KK++OILHThwQOfOnVNWVpZSUlIUFxenDRs26KWXXlKHDh1s6yxcuFCPPvqow/slV4734s1+yJXn5OXlWT5+8+bNMy2+qlmzpqZMmaJt27bp999/V2ZmphISEvTdd99p3LhxKleunKlOTk6ORpB4HLgAACAASURBVI8erZ9//rnQXsiX4714sx/yVbzmzp1rGvP399f999/vdK2SduyQK3iDv7+//vnPf+ro0aN6+umn1bx5c6fmt27dWlOnTtWxY8f07LPPOrzQtqQdQ+QLQEnBGbAAwMf9/frclwUGuv8UHxQUZBrLyspyuy7gTVaZKK48FGUvhfXDc0XZtH//fg0bNszycg3vv/++GjRo4HAtsuV4L97sh2yVPKmpqXrqqaf01Vdf6dFHH9XgwYOd+mY22XK8F2/2Q7a849ixY3rmmWfyjd1www0aNWpUkeyffDneizf7IV+e1b17d40ePVp33HGH7Yc4QUFBqlChgurXr6+oqCg988wz2rhxox566CEdOHDA9PNvvfWWOnbsqJEjRxa6f3LleC/e7IdceY7V2Tsk81mxRo4cqVmzZpnOhFG3bl3VrVtXffr00eTJk3XHHXcoNjY2389cunRJQ4YM0b59+2yPL4l8OdOLN/shX8UnOTlZy5cvN43feOONTr1/cVlJO3bIFbzJz89PYWFhTp9l6eTJk/r111+1f/9+py7ZV9KOIfIFoKTgDFgA4ONyc3Mtx909JbhdjZycHLfrAt5klYniykNR9lJYPzxXlD0nT57UzTffrKSkJNO2Rx55RHfccYdT9ciW4714sx+yVTIZhqHo6GgNGzZM1157rX777TeH55Itx3vxZj9kyzsefPDBfN/GDQkJ0X/+858i2z/5crwXb/ZDvjxr69atGj16tNPfoI+KitKOHTs0ZMgQy+1PP/206XImVsiV4714sx9y5TmO3JdjxozR/PnzbS9DdFnjxo21fv16denSxbTt8OHD+vjjjwucT74c78Wb/ZCv4rNo0SJdunTJNP7AAw+4VK+kHTvkCt6QkZGhyZMnq2HDhvrXv/6ln376yan5iYmJWrRokaKiotSzZ08dPnzYoXkl7RgiXwBKChZgAYCPs1s174k/uqxqFPRNPaAksMpEceWhKHsprB+eK8qWc+fO6cYbb9Tx48dN226//Xa99tprTtckW4734s1+yFbR2LhxowzDyHdLT0/XyZMntXXrVr311lu67rrrLOdu3bpV3bt31y+//OLQvsiW4714sx+y5Xnz58/XmjVr8o09++yzatq0aZH1QL4c78Wb/ZCvkiM0NFSLFi1Sr169TNtOnDjh0OWpyZXjvXizH3LlOYXdly1bttTbb78tPz8/h+pVrFhRixYtUlhYmGnbK6+8IsMwbOeSL8d78WY/5Kv4WF1+sHr16rr11ltdqlfSjh1yBU87ceKEunTpotdee810RsewsDANGzZM77zzjr7++mtt3rxZq1at0kcffaQxY8aodu3apnqbN29W+/bt9e233xa675J2DJEvACUFC7AAwMeVK1fOctzuNKfOsDp1qd3+gJLC6hgtrjwUZS+F9cNzRdmRnJysvn37at++faZtN910kz799FOXvnFFthzvxZv9kK3iExoaqtq1a6t79+56+OGHtWnTJu3atcvyDAdnz55V3759lZiYWGhdsuV4L97sh2x51pkzZ/R///d/+cauvPJKTZ48uUj7IF+O9+LNfshXyRIcHKw5c+ZYflBjddmnvyNXjvfizX7IlecEBwcXuH3KlCkKCQlxqmazZs107733msYPHTqkvXv32s4jX4734s1+yFfx2LVrl3bu3Gkav+eee1xeXFDSjh1yBU86d+6cevXqZfnlr0mTJun48eNaunSpJkyYoAEDBujaa6/VzTffrHvvvVdz5szRsWPHNHv2bNOC4bS0NA0aNEibNm0qcP8l7RgiXwBKChZgAYCPq1ixouX4xYsX3a6dkpJiGivsdOtAcbPKRHHloSh7KawfnivKhpSUFPXt21c7duwwbevVq5dWrFhR6AcMdsiW4714sx+yVbK0a9dOW7dutbyc08mTJ00LUKyQLcd78WY/ZMuzJkyYkG8Bor+/vz744IMi/2Yu+XK8F2/2Q75KnqZNm+quu+4yjf/00086d+5cgXPJleO9eLMfcuU5AQEBtpf0jIiI0O233+5S3bFjx1qOb9y40XYO+XK8F2/2Q76KxwcffGA57urlB6WSd+yQK3jSQw89pEOHDuUb8/Pz04IFC/T222+rWrVqBc4PDg7W+PHjFR0drcqVK+fblpmZqXvuuUfJycm280vaMUS+AJQULMACAB9XtWpVy/GkpCS36mZmZiozM9Ph/QElhdUx6m4eJFm+4CwsD1bbMzIyLLPlbi+F9eOt5wq7fniuKHppaWm65ZZbFBMTY9rWo0cPrVy5UqGhoS7XJ1uO9yKRrbIkMDBQixcvVps2bUzbPvnkEyUkJBQ4n2w53otEtnzBF198YTqLzkMPPaRu3boVeS/ky/FeJPJV1gwYMMA0lpeXp+3btxc4j1w53otErnyF3f3ZvXt3lxcPt23b1vSBtiRt27bNqT7IF/kqCzIyMrR48WLT+NVXX62WLVu6XDc4ONhygWVJypW3eimsHz5T8G3/+9//tGzZMtP4k08+qZEjRzpVq23btvr0009N4/Hx8XrzzTdt55Ev8gXAGguwAMDH1apVy3L8zJkzbtU9deqUU/sDSgqrY9TdPEjWmSgsDyUpn1WqVLE885G7veTl5ens2bNO9QLPS09PV79+/fTDDz+YtnXr1k2rVq1S+fLl3doH2bJGtiBJQUFBevXVV03jOTk5lm+K/hXZska2fFNSUpImTJiQb6xu3bqaPn16sfRDvqyRL0hSp06dLMcLOw7IlTVy5dvq1atnOd6+fXuXa/r5+Vku0C/omCBf1shX6bds2TLLhQnunP3qspKeq7NnzyovL8/jvZQrV85yEWhBvUh8puAr3nnnHdNYRESEnn76aZfq3XTTTerdu7dp/L333ivw+CRfjvcikS+grGABFgD4uDp16lhe4zkuLs6tuvHx8ZbjjRo1cqsu4G1Wx6i7eZCsM1FYHuy2eyOfISEhBb7Y8vf3V2RkpMd7OXHihHJzc03jPFcUnUuXLmnAgAHatGmTaVvnzp21evVq21NfO4NsWSNbuOzGG2+0/Nah1cLIvyJb1siWb9q0aZPpTeFRo0Zp37592rZtm1M3KwkJCZY/a3cpB/JljXxBkmrUqGE5/vvvvxc4j1xZI1e+ze7+jIiIcKuu1d+G58+fd6oP8kW+yoK5c+eaxipWrKhhw4a5XdsbucrNzdXJkycd2ldh2+1qOcMqVw0bNpSfn5/tHD5T8F2GYej77783jQ8cONCt9/+GDx9uGjtz5oz27NljO4d8WSNfQNnGAiwA8HF+fn5q0qSJafzXX391q67d/KZNm7pVF/C2Zs2amcaOHTumrKwsl2tmZWXp+PHjDu3Lke3eyGfTpk0LfOFn14+3nisKu2/gGRkZGbr11lu1fv1607YOHTpozZo1Cg8P98i+yJZz/ZCtsicgIMDyLAmFvcFGtpzrh2yVbIZhmMamT5+u7t27O32z8uGHH1r+7I4dOyx/nnw51w/5giRlZ2cXuJ1cOdcPufINdpc4CwsLc6uu1VmIU1NTbX+efDnXD/kqHQ4fPqzNmzebxu+66y63z+QteefYOXbsmOX/lyUpV4X1wmcKvisuLs5yMW+PHj3cqnvNNddYju/cudN2DvmyRr6Aso0FWABQCnTo0ME0tmvXLrdqWs2vV6+eqlWr5lZdwNus8pCbm6tffvnF5Zp79uyx/FZkYZcjqF69uurWrWsa90Y+Hbk0gtV9s3v3bssPS93pJTAwUFdeeaXLNeGYzMxMDRo0yPJbb23bttX333+vKlWqeGx/ZMse2cJl1atXN40lJiYWOIds2SNbcBf5ske+YHemq8LOnECu7JEr32V3SU67Myw6Kjk52TRW0Gs08mWPfJVeH374oeXj6InLD0rWx058fLwuXLjgck27HBR2LLdp00aBgYEO13OEYRjavXu3071IfKbgq6wunSpJNWvWdKuu3ZkIz507ZzuHfNkjX0DZxQIsACgFrrrqKtPYvn373HqjKDo62qH9ACVN586d5e9v/hPH6ph2lNXcgIAA2zdp/8oqN+70kpycrP379zu0H0d+Jjk5Wfv27XO5H6vfpV27dpanWYbnZGVl6fbbb9fq1atN21q3bq21a9daXu7CHWTLuV7IVtmUlpZmGgsODi5wDtlyrheyBWeQL+d6IV9ly/bt2y3HGzRoUOA8cuVcL+TKN3Tr1k0BAQGm8cIuyVkYq/kFfUhKvpzrhXz5vtzcXC1YsMA03rZtW3Xp0sUj+7A7vjydq2rVqqlx48YFzgsJCVHbtm092svevXstPwNwNVd8plDy5eTkWI4HBQW5Vddufl5enu0c8mWPfAFlFwuwAKAU6N27t2ksNzdXa9eudane2bNnLU8ta7UfoKSpXLmyOnfubBr/7rvvXK5pNbdz586qXLlyoXOtcrNjx44Cvz1UkLVr11p+e9WRfEZFRVl+E8jV+yYnJ8fy0nc8V3hXdna2hg4dqlWrVpm2tWzZUuvXr7c8C4+7yJY9soXLEhISTGOFfQuVbNkjW3AX+bJHvrBy5UrL8cK+0U+u7JEr3xUeHq5u3bqZxn/66SeXa2ZlZVmeNSMyMtJ2DvmyR75Kp2+++UanTp0yjXvq7FeSdOWVV1q+JvN0rm644YZCL6UpWR9j69evt11U40ovQUFB6tmzp0u98JlCyWe3kNfV5+bL7M6sVdB7jOTLuV7IF1A2sAALAEqBli1bWl5TeunSpS7V+/zzz03fbPDz81O/fv1cqgcUtQEDBpjG1qxZo6SkJKdrJSYmas2aNabxgQMHOjS/f//+pheIeXl5+vzzz53uRbLOdbNmzdSiRYtC51asWNHyBaKrzxVr1qyxvLSWo/cNnJeTk6M77rhDX3/9tWnbFVdcofXr16tGjRpe2z/Zska2IElnzpzRzz//bBpv1apVoXPJljWy5Xtuu+02GYbhkZuVKVOmWP5sVFSUbU/kyxr5Ktt+++03LVmyxDTerFmzQs+AJZErO+TKtw0ePNg09uOPP7p0XEvSli1blJGRYRrv1atXgfPIlzXyVTrNnTvXNBYSEqIRI0Z4bB9+fn7q37+/aXzZsmWWCwILs2/fPsvLgjp67Fhl/MKFC/r++++d7kWyzkBUVFShlxSW+EzBV9m97xcbG+tWXbtFxwUtwCJf9sgXUIYZAIBSYcqUKYakfLegoCAjISHBqTp5eXlGq1atTLV69erlpc5RFh09etR0jEkyNmzY4JH6R44cMfz8/Ez1X3nlFadrvfLKK6Y6fn5+xtGjRx2u0bNnT1ON1q1bG3l5eU71Eh8fbwQFBZlqTZ061eEaH330keV9HxMT41QvhmEYN998s6lOo0aNnK4Dx+Tk5BhDhw61fPyaNWtmnDhxwus9kC17ZAtTp061PAY+//zzQueSLXtkq+yyetynTJnidB3yZY98lU2ZmZlGr169LB97R48fcmWPXPmuM2fOWD7+M2fOdKneoEGDLI/tc+fOFTiPfNkjX6XLyZMnjcDAQNPjcPfdd3t8Xxs2bLA8dpYuXep0rYceeshUp0KFCkZqaqpD8/Py8oxGjRqZatx8881O9xITE2P5ey1YsMDhGnym4JuaNm1quq8bN25s5OTkuFxzxIgRlsfTqVOnCpxHvuyRL6BsYgEWAJQSJ06cMIKDg01/hN17771O1bF7M2P58uVe6hxlkbcXYBmGYfTr189Uv2rVqsb58+cdrnHu3DkjIiLCVGfAgAFO9fL5559b/r7z5893qs6oUaNMNcqVK2ecPHnS4Rrp6elG9erV3X7BZvfi+vXXX3eqDhyTm5tr3H333Zb3eZMmTYz4+Pgi64VsWSNbZdsvv/xihIaGmh638PBwIz093aEaZMsa2Sq7rB4vVxZgGQb5skO+fMuqVasKXbhRmPT0dGPIkCGWj1fFihWdqk+urJEr33b//fdbHteFffj8d2vXrrVcRDV48GCH5pMva+SrdJk+fbrl47B+/XqP7ysvL89o06aNaV/Nmzc3MjMzHa5z8OBBy/ffJ02a5FQ///73vy1/d2ffF42KijLVqFGjhnHp0iWHa/CZgm+aOHGi5f09b948l+r98ssvRkBAgKleu3btCp1LvuyRL6BsYgEWAJQi48aNs/xD7LPPPnNo/q+//mqEh4eb5l955ZVGbm6ul7tHWVIUC7Cio6Mt9zFw4ECHjufc3FxjwIABpvl+fn7Gtm3bnOolNzfXaN26talW5cqVjUOHDjlU47PPPrP8fcaPH+9UL4ZhGDNmzLCs9e9//9uh+WfPnjUiIyMtX4SmpKQ43Q8KlpeXZ9x7772Wj1mjRo2MuLi4Iu2HbNkjW77lH//4h/HFF184/e39v4uNjTVq1Khh+dg7s1iEbNkjW2WTu5n6K/Jlj3z5jltvvdUICwszJkyYYERHRzv9/9fGjRuNli1bWj7ekoxZs2Y5VY9c2SNXvuvo0aOWi+qvvfZah+/7gwcPGnXq1LE8tnft2uVQDfJlj3yVHlZn8GnSpInbr8/sLFmyxPLYmTBhgkPz09PTjc6dO5vmh4SEGMePH3eql4sXL1ouJoyMjDTOnj3rUI1XX33V8vd59dVXnerFMPhMwRf973//s3zMKlSoYOzcudOpWufPnzeaN29uWW/GjBkO1SBf9sgXUPawAAsASpGzZ89afrutXLlyxuLFiwucu3PnTqN+/fqWfwx645tHKNuKYgGWYRjGyJEjLfdz5513Gmlpabbz0tLSjDvuuMNy7qhRo1zqZd26dZb1GjRoUOgL48WLF1t+WyYiIsKlb8FnZGQYzZo1s3wztrBvfB49etRo27at5e/y0UcfOd0LCjdhwgTL+zssLMxYsmSJER0d7fZtx44dTvVEtqyRLd9y+XIqV155pfHyyy87/AHSZb/99psxadIky2+JSn9827OgPFghW9bIVtlk9Zi5ugDLMMiXHfLlO2699dZ893GdOnWM++67z3jrrbeMDRs2GEeOHDHOnTtnZGVlGWlpaUZCQoKxceNGY9q0aUaHDh0sH6fLt2HDhrnUE7myRq5828svv2x5/3fs2LHQY2nFihW2C/PHjh3rVB/kyxr5Kh3szkI2ffp0r+7X6pKakoz/+7//M7Kzs23nnT171vbyva7+fTpv3jzLem3bti30MqGvvfaa5Vn2mjVr5tQZh/76+/GZgu/p37+/5f1eqVIlY8mSJQ7V+PHHH40mTZpY1qlTp45T72mQL/vfj3wBZQsLsACglPniiy8s/yCT/rjW9RdffGGcPn3ayMnJMRITE42NGzcaY8eONYKCgiznPProo8X9K8HH2C2u8tTNmUVaiYmJltd9v/xG4cyZM439+/cbGRkZRkZGhrFv3z7jjTfesH1h06hRIyMxMdHl++aRRx6xrBsUFGQ8+OCDxqZNm4ykpCQjJyfHOHXqlLFixQrjpptusr0vvvzyS5d7+fHHHy3fBJVkdO/e3Vi0aJERHx9vZGdnGykpKca2bduMxx9/3ChfvrzlnNtvv93lXlAwq2/nevoWGRnpVE9kyx7Z8h1Wbw42bdrUGDp0qDFt2jTjk08+MVauXGls3rzZ2LBhg/HVV18ZH3zwgTFp0iSja9euBWYqIiLC2Ldvn9M9kS17ZKvssXrc3FmARb7skS/f8PcFWJ66DRs2zMjKynKpJ3Jlj1z5rtzcXOPmm2+2fBz8/f2Nvn37Gm+//bbx3//+19i8ebOxYsUK44UXXihwoeNVV11lZGRkONUH+bJHvnzf8OHDTY9DYGCgU5ekdMXRo0eNypUrWx4HrVq1Mj744APjyJEjfy5m3rVrlzF16lSjatWqttl29f9QwzCM2267zbJu+fLljcmTJxsxMTFGSkqKkZ2dbcTFxRmffPKJ0a1bN8s5wcHBxo8//uhyL3ym4HsOHjxoVKlSxfZxa9++vfHmm28a27dvN86dO2dkZ2cbSUlJxoEDB4x58+bZ/l8n/bGo9fPPP3eqH/Jlj3wBZQsLsACgFJo+fbrtH3TO3Pr37+/WH7kom0rSAizDMIw9e/bYvpBz5la1alVjz549bt03WVlZRr9+/TxyP7z88stu9WIYhrFw4ULD39/f7V66dOliJCcnu90PrJXEBViGQbYKQrZ8g923M929NWrUyPjll19c7ots2SNbZYvVY+fOAizDIF8FIV8ln6cXYFWqVMmYO3eu232RK3vkynelpKQYPXr08Mix1LFjR5cXlZAve+TLdyUmJlpe6nPgwIFFsv9169YZISEhbh87jRs3NhISEtzqJTk52fKya87e/P39jU8++cTt+4bPFHzPli1bLPPk7u2NN95wqR/yZY98AWUHC7AAoJSaOXOm7SVxHLmNGDHC6W/nAYZR8hZgGYZh7N692/abo46+6HP3zcrLMjIyLL/p5+gtMDDQePPNNz3Si2EYxpIlS4ywsDCX++nTp49b36JF4UrqAizDIFsFIVsln6cXYAUGBhqPPfaYkZqa6nZvZMse2So7rB4/dxdgGQb5Kgj5KtleeOEFo1q1am7/fxUREWE8+uijRlxcnMd6I1f2yJXvSk9PN0aNGuVW3u68804jPT3drT7Ilz3y5Zveeecdy8fj66+/LrIeNmzY4Nb/qR07dvTY/6MXLlwwevfu7XIv5cuXNz777DOP9GIYfKbgi2JiYozmzZu79f/V5Vt4eLgxf/58t/ohX/bIF1A2sAALAEqxbdu2GZ06dXLqj7jatWsbCxcuLO7W4cNK4gIsw/jjBde4ceOcepETEBBgPPTQQ155Q27hwoVG7dq1nfrdO3XqZMTExHi8l/379zv9YjQ8PNyYOXOmkZub6/F+kF9JXoBlGGSrIGSrZNu+fbvxzDPPGB07djT8/Pxczk+tWrWMxx57zNi/f79H+yNb9shW2WD1OHpiAZZhkK+CkK+SLS8vz9i9e7fx/vvvG+PGjTO6d+9u1KhRo8D/x8qVK2d07drVmDhxorFkyRLj0qVLXumNXNkjV75t9erVRseOHZ16/Hr06GGsW7fOYz2QL3vky/dMnjzZ6Nu3b77boEGDjJycnCLtIyEhwRg2bJhTx05ISIjxr3/9y+P/l+bk5BgzZ840wsPDneqnd+/exoEDBzzai2HwmYIvSktLM5555hmjevXqTj1ufz22R44c6bGFT+TLHvkCSj8/wzAMAQBKtbVr1+qTTz7R2rVrdeLECdP2ypUr69prr9WQIUN0xx13qFy5csXQJUqLzMxM7dy502v1W7VqpUqVKrk8Py4uTh9++KG++eYb/fzzz8rJycm3PTAwUO3atVO/fv00evRoNWjQwN2WbWVmZmrp0qVatmyZtmzZoqSkJNPP1KtXT71799bw4cPVu3dvr/UiSTExMVqwYIHWrFmjI0eO6O9/JpYvX17du3fXoEGDdM8996hixYpe7Qe+hWzZI1slX3Jysn788Uf99NNP2r9/v44dO6b4+HglJycrLS1Nfn5+qlixoipVqqSIiAi1atVKHTp0UOfOnXX11VcrICDAa72RLXtkq3R7/vnnTWNRUVGKiory2D7Ilz3y5VuysrJ0+vRppaam6tKlSwoICFDlypUVHh6u8PBw+fv7F1kv5MoeufJtP/74o1auXKno6GgdPHhQ58+fV3Z2tqpUqaLq1aurUaNGuv7669WnTx9deeWVXumBfNkjX3DVvn37NG/ePK1evVr79+9XXl5evu3lypVTly5dNHDgQN13332qVq2a13pJSUnRxx9/rC+//FLR0dFKS0vLt93Pz0+NGzdW3759NWrUKHXt2tVrvUh8puCLsrKytGLFCq1bt04xMTHat2+fcnNzLX+2YcOG6tq1q3r06KG7775bVatW9Xg/5Mse+QJKLxZgAUAZk5SUpJMnTyotLU0hISGqVq2aateuXdxtAcUiOztbcXFxSk5OliSFh4erQYMGCgoKKpZ+Tp06pXPnzikjI0Ply5dX3bp1FR4eXiy9pKamKiEhQampqQoKClJERITq1asnPz+/YukHvoVs2SNbcAfZske24C7yZY98wVXkyh65grvIlz3yBVdlZGQoPj5eFy9e/HMxc/369b36hRs7hmEoISFBFy5cUHZ2tipUqKD69eurfPnyRd6LxGcKvio7O1sXLlxQUlKSUlJSFBoaqsqVKysiIkKhoaFF2gv5ske+gNKFBVgAAAAAAAAAAAAAAAAA4KKiO/80AAAAAAAAAAAAAAAAAJQyLMACAAAAAAAAAAAAAAAAABexAAsAAAAAAAAAAAAAAAAAXMQCLAAAAAAAAAAAAAAAAABwEQuwAAAAAAAAAAAAAAAAAMBFLMACAAAAAAAAAAAAAAAAABexAAsAAAAAAAAAAAAAAAAAXMQCLAAAAAAAAAAAAAAAAABwEQuwAAAAAAAAAAAAAAAAAMBFLMACAAAAAAAAAAAAAAAAABexAAsAAAAAAAAAAAAAAAAAXMQCLAAAAAAAAAAAAAAAAABwEQuwAAAAAAAAAAAAAAAAAMBFLMACAAAAAAAAAAAAAAAAABexAAsAAAAAAAAAAAAAAAAAXMQCLAAAAAAAAAAAAAAAAABwEQuwAAAAAAAAAAAAAAAAAMBFLMACAAAAAAAAAAAAAAAAABexAAsAAAAAAAAAAAAAAAAAXMQCLAAAAAAAAAAAAAAAAABwEQuwAAAAAAAAAAAAAAAAAMBFLMACAAAAAAAAAAAAAAAAABexAAsAAAAAAAAAAAAAAAAAXMQCLAAAAAAAAAAAAAAAAABwEQuwAAAAAAAAAAAAAAAAAMBFLMACAAAAAAAAAAAAAAAAABexAAsAAAAAAAAAAAAAAAAAXMQCLAAAAAAAAAAAAAAAAABwEQuwAAAAAAAAAAAAAAAAAMBFLMACAAAAAAAAAAAAAAAAABcFFncDAAAAAAAAAHBZTk6ODh8+rOPHjyshIUHJyclKT09XSEiIwsPDVadOHXXs2FG1a9cu7lYBAAAAAAAksQALXADZsgAAIABJREFUAAAAAAAAQDE6efKkVq1apejoaMXGxurAgQPKysoqdF5kZKTuuecePfDAA4qMjCyCTgEAAAAAAKz5GYZhFHcTAAAAAAAAAMqmGTNm6KmnnnJ5fkhIiJ555hk9+eSTCgoK8mBnAAAAAAAAjvEv7gYAAAAAAAAAwFUZGRl69tlnNXjwYGVmZhZ3OwAAAAAAoAziEoQAAAAAAAAASoTIyEj16NFD3bp10xVXXKHGjRsrPDxcISEhSk1N1dGjRxUdHa2FCxdq165d+eauXLlSDz74oObPn188zQMAAAAAgDKLSxACAAAAAAAAKDbLly/X4cOHddttt+mKK65waI5hGHr//fc1adIk5eTk5Nu2YcMGRUVFeaFTAAAAAAAAayzAAgAAAAAAAOCTZs+erYkTJ+Ybu+uuu7R48eJi6ggAAAAAAJRFLMACAAAAAAAA4JPy8vLUuHFjHT9+/M+xypUrKzExsRi7AgAAAAAAZY1/cTcAAAAAAAAAAK7w9/fXDTfckG8sKSlJqampxdQRAAAAAAAoi1iABQAAAAAAAMBn1axZ0zSWkpJSDJ0AAAAAAICyigVYAAAAAACgSERFRcnPz89027hxY3G3BsCHJSUl5ft3QECAIiIiiqmbP2zcuNHy+a6w2yOPPFKsfbvr+eefd+n35v8BAAAAAICvCyzuBgAAAAAAgOMMw1BmZmZxt1GokJCQ4m4BZdTGjRvVq1evP/89ZcoUPf/888XXkA+4cOGCVq9erXXr1mnv3r06evSoUlJSlJ2drYoVK6pmzZpq2bKlunXrpv79+6tVq1bF3XI+P/zwQ75/t2/fXuXKlSumbgAAAAAAQFnEAiwAAAAAAHzI8ePH1ahRo+Juo1CGYRR3C0CxOXnypGJjY7V9+3bFxsYqNjZWv//+u+XPFucCsd9++03Tpk3T4sWLbRd2JiYmKjExUQcOHNAXX3yhJ598Ut26ddMTTzyhQYMGFXHHZl999ZX27NmTb+zee+8tnmYAAAAAAECZxQIsAAAAAAAAwEWnT582LbY6ffp0cbdVIMMwNH36dL300kvKyMhwev62bdt0++23q2/fvvroo49Uu3ZtL3RZuNWrV+uee+7JN9amTRuNHTu2WPoBAAAAAABlFwuwAAAAAAAAACdNnTpVc+bM0cmTJ4u7Faekp6dr2LBh+uabb9yu9d1336lTp076+uuv1blzZw90Z88wDKWmpurEiRP66aeftHjxYq1evTrfzzRq1EgrV65UcHCwV3sBAAAAAAD4OxZgAQAAAAAAAE7auXOnzy2+ysjI0MCBA7Vu3TqP1Tx16pRuvPFGrV+/Xh06dPBY3XvvvVcLFixw6GcDAgI0YsQIzZw5U1WqVPFYD95w7bXXas2aNbbbAwN9++3af/3rX/rnP/9pu71Pnz7asmVLEXYEAAAAAEDR8C/uBgAAAAAAAICCxMfH68KFC17dR05Ojvbu3evVfRS3CRMmFLj4qnnz5vr3v/+t2NhYnTt3TsnJyTp8+LA+/fRTDRgwQH5+fpbzkpKSNHDgQJ07d85brdu6++67dejQIc2fP7/EL76SJH9/f4WEhNjefH0BVmBgYIG/n78/b0cDAAAAAEonXvECAAAAAOBDGjZsKMMw3L5FRkZa1u/Zs6dH6gOeNHr0aDVv3lxz5sxRXl6ex+tv3LhR7du31/XXX6/k5GSP1y8JlixZonnz5lluCwwM1IwZM7R37149/vjj6tSpk6pWrapKlSqpSZMmuvPOO/X1119r69atatSokWWNhIQE3XvvvV78DawtXrxYffr00bvvvqucnJwi3z8AAAAAAIDEJQgBAAAAAEAR2bhxY3G3AB+0fPlyff/995KkBx98UB988IFmz56trl27ul37xIkTevzxx7VkyZI/x5577jm99dZbbtVt2LChOnXqpE6dOqlz585/LmgqLhcvXtSjjz5quS0gIECffvqphgwZUmidbt26aevWrYqKitLBgwdN27/55ht9+eWXuu2229zuuV+/fqpVq9af/87NzVVSUpKOHz+un376SUlJSX9uO3z4sCZMmKAFCxZo+fLlqlevntv7BwAAAAAAcAYLsAAAAAAAAFAiGYahZ555Jt9YbGysunXrpvvvv18vv/yyqlev7nTd7OxszZw5Uy+++KJSU1PzbXv33Xf12GOPqUGDBg7VioyMzLfQqrgXW1l54403dPr0acttU6ZMcWjx1WW1atXSl19+qc6dOystLc20/YknntDAgQPdvtTc0KFDNXToUMttOTk5+u9//6vnnntOe/bs+XP8xx9/VK9evRQdHa1q1aq5tX8AAAAAAABncAlCAAAAAAAAlEh+fn5au3atRo8erYCAgD/HDcPQhx9+qCuuuEKzZ89Wbm6uwzXXrFmjNm3a6MknnzQtvurZs6c2b97s0OKr6dOn69y5czp27JiWL1+up556Sn369Clxi6/S0tI0a9Ysy22tW7fWU0895XTNFi1amBbGXXbo0CEtX77c6ZrOCAwM1G233abY2FiNHDky37bLZ8MCAAAAAAAoSizAAgAAAAAAQIlVr149zZ07V7/88otuv/32fNsSExM1ceJEderUSf/73/8KrHP8+HENHjxYffv2NV0+r3379vrmm2+0ceNGde/e3aG+WrVqVeIWW1lZsmSJLly4YLlt6tSpCgx07QT5jzzyiO1Zpt59912XajorODhY8+bN09VXX51v/LPPPtMvv/xSJD0AAAAAAABILMACAAAAAACAD2jRooWWL1+umJgY9erVK9+2n3/+Wddee61GjhxputReZmamXnrpJbVq1UorVqzIt61JkyZatGiRduzYoVtuucXrv0Nx+OSTTyzH69evr0GDBrlcNzQ0VA888IDltk2bNik+Pt7l2s4ICAjQtGnTTOOffvppkewfAAAAAABAklz7ihsAAAAAAIAPOXLkiL7++mtt3rxZ+/bt05kzZ5SamqrQ0FBVrVpVbdu2Vc+ePTV8+HDVrFnTqdqGYSgmJkZfffWVtm/frgMHDigpKUmZmZmqXr26atWqpQ4dOui2225T7969Va5cOS/9lmYHDhzQunXrFB0drV9//VVxcXFKSUlRRkaGQkNDFRERoUaNGqlDhw7q1auX+vbtq5CQkCLrzxVdu3bV+vXr9d133+npp5/Wjh07JP3xOCxcuFCLFi3K9/Ovvvqq8vLy8o3VqlVLzz77rMaMGaOgoKAi672onT9/Xps3b7bcduedd8rf373vZg4fPlwzZswwjRuGoS+//FKTJk1yq76jrrvuOlWpUkWJiYl/jsXExBTJvkuqQ4cOad26ddq1a5d2796tM2fOKDk5WRcvXpSfn59CQ0MVFhamiIgINWjQQJGRkWrRooWuuuoqdejQoUifpwAAAAAAKA1YgAUAAAAAAHyOn5+f5bhhGPn+/fPPP+tf//qXvvnmG9M2SUpJSVFKSoqOHTumr7/+Wk8++aTGjBmjadOmqUqVKgX2YBiGFi9erBdffNF0SbvLTpw4oRMnTmj79u2aO3euateurddff1133XWXg7+p8zIzMzV//nzNnj1be/bssf25tLQ0paWlKT4+Xps3b9Zbb72lSpUq6b777tMTTzyhOnXqeK1HT+jbt6/69OmjpUuX6tlnn9Xhw4clybTY6q//Dg8P1+TJk/Xoo48qLCysSPstDuvWrTPdH5f169fP7fpXXnmlGjRooLi4ONO27777rsgWYPn7+ysyMjLfAqxTp04Vyb5Lkry8PM2fP19z5swpdAFaVlaWkpOTderUKe3duzfftuDgYPXs2VNDhw7V7bff7hOX2gQAAAAAoLhxCUIAAAAAAFAkoqKi5OfnZ7pt3LjR4/syDEPPP/+8OnfurP/+97+Wi6+s5OTk6L333lO7du20e/du2587efKkbrzxRo0YMcJ28ZWVU6dO6e6779bgwYOVnZ3t8DxHrVixQs2aNdO4ceMKXHxl5+LFi3rrrbd0xRVXaNasWR7vz9P8/Px05513av/+/Xr33XdVu3Zty58LCQnR448/riNHjuiZZ54pE4uvJNlmKyQkRN27d/fIPq6//nrL8U2bNtku/vKG4ODgIttXSbR9+3Z17dpVo0ePdvvsX1lZWfr+++81duxYvfjiix7qEAAAAACA0o0FWAAAAAAAoFTJzc3VXXfdpalTpyonJ8elGvHx8br22mtNZ4aR/risX5cuXbRu3TqXe1yxYoWGDRvmsUVYGRkZGj16tAYPHqz4+Hi366Wmpurhhx/WHXfcoczMTA906H0FXU7Pz89P/v7+tmdOK61iY2Mtx9u2beuxBUtdunSxHE9NTdWhQ4c8sg9HnDx5Mt+/a9WqVWT7Lm7ff/+9rrvuOm3fvr24WwEAAAAAoMxiARYAAAAAAChVxo4dq6VLl7pd5+LFixowYIBSU1P/HDt69Kh69uxpWuzhii+//FIvv/yy23VSU1PVp08fzZs3z+1af/fZZ59p0KBBysrK8nhtTzAMQ8uWLVPr1q01btw428vOXbp0Sa+++qoaN26sV155RZcuXSriTotebm6u7VnQ2rVr57H9FFRr586dHttPQQ4fPqyEhIR8Y40bNy6SfRe32NhYDRgwQOnp6cXdCgAAAAAAZRoLsAAAAAAAQKkxd+5c00KkSpUqadSoUfr888/1yy+/6OzZszp//rz27dunuXPn2l5CTfpjwdULL7wgSUpPT9egQYP0+++/5/uZFi1a6Omnn9aGDRt06NAhJSUl6cSJE4qOjtaUKVNUt25d2/ovv/yyDh8+7PLvm52drf79+2vLli22P1OxYkWNGDFCH374oXbu3Km4uDhdvHhRcXFx2rZtm2bMmKGrrrrKdv63336rSZMmudyjt6xfv15du3bV0KFD9euvv/45/vczYf3130lJSfrnP/+pZs2aae7cucrNzS2yfotafHy8MjIyLLc1b97cY/tp2rSp7baiOgPWW2+9ZRrr379/key7OOXm5mrs2LG2Z6kLCgrSwIEDNWvWLK1fv15Hjx7V2bNnlZqaqjNnzujQoUPatm2b5s2bp0cffVTXXHONAgICivi3AAAAAACgdAgs7gYAAAAAAAA85ZFHHsn377Fjx+qll15S9erVTT8bERGhli1bavTo0fr88881cuRIywUrb7/9tiZPnqxp06bp559//nO8evXqeuWVVzRq1CjTop/w8HDVqVNH3bp102OPPaaHHnpIixYtMtXOyMjQ1KlTtXDhQpd+34kTJ2rTpk2W20JCQvTUU0/p4YcfVuXKlU3bK1asqPr16+uqq67Sk08+qZUrV+of//iHjh49avrZOXPm6MYbb9SQIUNc6tOTdu7cqX/+859as2aNaduIESPUr18/3XXXXX+OPfHEEwoLC9PLL7/855mvTpw4oTFjxuj111/XtGnTdPvttxdZ/0XF6nG8rGHDhh7bT82aNRUaGmp5VrEjR44UOv/EiROqXbt2gZeQLMhXX32l9957L99YtWrV1KdPH5fq+ZIVK1bYnmVs8ODBevPNN1WvXj3L7eXLl1eNGjXUtGnTfAswL1y4oNWrV2v+/Plau3atV/oGAAAAAKA04gxYAAAAAACg1EhLS5MkBQQEaM6cOXr//fctF1/93dChQ7VkyRLLbZmZmZo4caLeeeedP8eaNGmi6Oho3XfffYUuHKlYsaI+/vhjDRgwwHL7ihUrlJKSUmiPf7dq1SrNmTPHclujRo20detWPffcc5aLr6wMGDBA27ZtU6dOnSy3P/zww3/ev8Xht99+0913361OnTqZFl+1a9dOW7Zs0cKFC1WrVq1828qVK6dnn31W+/fv16BBg/JtO3DggAYPHqxu3brZLmTzVfHx8bbbateu7dF92dWLi4srdO4HH3ygtm3batGiRU5dRi8rK0svvfSShg4dajqT2auvvqrQ0FCHa/mqZcuWWY6PGjVKy5Yts118VZCIiAjdfffdWrNmjfbt26dbbrnF3TYBAAAAACgTWIAFAAAAAABKnX//+98aM2aMU3NuvfVW0wKdyz777LM/F3lUrlxZ69evV5MmTRyu7e/vr9mzZ1suCklPT7ddSGEnOztbEydOtNxWq1Ytbdy4UR06dHCqpiTVqFFDa9assVy4cerUKb377rtO13TXmTNnNHHiRLVs2VKffvqpDMP4c1vlypU1a9Ysbd++XT169CiwTmRkpFasWKHvvvtOV1xxRb5tMTExioqK0i233JLvLGe+7Ny5c7bbHFmU6IwaNWpYjp8/f96h+Xv37tWIESNUvXp1DRkyRK+99prWrl2rQ4cO6ezZs0pLS9Pvv/+u/fv36/PPP9fDDz+sevXq6dlnn1V2dna+WsOGDdO9997r7q/kEzZs2GAaCw0N1ZtvvumR+i1atCgTZxIDAAAAAMATWIAFAAAAAABKlRtuuMF0KUJHOTJv9uzZatCggdO169evr6FDh1pu27Jli1O15s2bZ3mJOX9/f33xxRcu9XdZRESEPv74Y8tts2bNUl5ensu1nWUYhnr27KnZs2fnW2jj5+en+++/X7/++qsmTpyogIAAh2v26dNHu3fv1owZM1S+fPl827799lt17tzZoTM3lXQFLX6qVKmSR/dVsWJFp3uwkp6eruXLl2vy5Mm68cYb1bx5c9WoUUMVKlRQzZo11apVKw0bNkyzZs3S2bNnTfOHDx+uxYsXy8/Pz6Xfw5dkZ2dbLrK75pprHD7rHQAAAAAA8BwWYAEAAAAAgFLlpZdecnkBRo8ePWzP5iNJrVq10t133+1qaxoyZIjl+M6dO52qM2vWLMvxESNGqFu3bk739Xe9evVSz549TePx8fFav3692/Ud5efnpxdeeCHfWOfOnRUdHa0PP/zQ5TM5BQcH68knn9TBgwd1xx135Ns2duxYtxawlRSpqam22+wWTLnKrp4jl9b0xGKp2rVra+nSpfrkk0+cWozny86dO5fvbHCXefrsZgAAAAAAwDEswAIAAAAAAKVG586d3VqA5O/vr44dO9put7vsn6O6dOliOb53717TpdTsxMbGau/evZbbpkyZ4nJvfzdp0iTL8VWrVnlsH44YNmyYevfurapVq+o///mPYmJidNVVV3mkdt26dbVkyRKtX79erVu3VvXq1fXSSy95pHZxy8zMtN0WFBTk0X0FBwdbjmdlZRU69+mnn9b69ev1xBNPqHv37goJCXFonxUqVNAtt9yiJUuW6OjRoxo2bJhTPfu6sLAwy/HScPY2AAAAAAB8UWBxNwAAAAAAAOApt9xyi9s1WrVqpdWrV1tuu/nmm92qXatWLUVEROjChQv5xrOzs3X+/HnVqlWr0BorV660HO/SpYsaN27sVn9/df3118vPz890lp2NGzd6bB+OmjdvnsqXL6+IiAiv1O/Vq5d27dqlgwcPqkqVKl7ZR1EraEFfYKBn3xK0q+fIAqygoCD16tVLvXr1kiTl5OTo119/1dGjR5WQkKCUlBRdunRJYWFhqlSpkiIiItS6dWs1b95c/v5l97ul4eHhCgkJUUZGRr7x6Oho7dmzR23atCmmzgAAAAAAKJtYgAUAAAAAAEqNq6++2u0aNWvWtByvXbu2GjZs6JH6f1+AJUkXL150aAHWhg0bLMdvvfVWt3v7qypVqqhFixbav39/vvHLZ+vy9FmUClK/fn2v7yMwMFCtW7f2+n5KAk9c9s9b9QIDA9WqVSu1atXKYzVLq+7du5ueD/Ly8nTbbbfpv//9r1q2bFlMnQEAAAAAUPaU3a+JAQAAAACAUqd58+Zu16hQoYLleLNmzdyuXVD95OTkQucahqFdu3ZZbmvXrp1bfVmpU6eOaSwrK0vHjh3z+L7gWQUtkHP0cpeOsqtnd2lCeIbdossjR46oXbt2GjNmjH766aci7goAAAAAgLKJBVgAAAAAAKDU8MTl48LCwrxWu6D66enphc6Nj49XSkqK5bYWLVq41ZeVqlWrWo6fOHHC4/uCZ5UrV852m6cXYNldapAFWN41ZswY2zP2ZWdna+7cueratasiIyM1fvx4LV26VKdOnSriLgEAAAAAKBu4BCEAAAAAACg1wsPDfbK29MfZrQoTHx9vu81TZ+hyRGJiYpHtC66xO9OaJKWmpqp8+fIe21dqaqrleMWKFT22D5iFhYVpwYIF6tevn3Jzc21/Li4uTu+9957ee+89SVJkZKS6d++u6667TlFRUVyqEAAAAAAAD+AMWAAAAAAAoNTw8/PzydqOOnv2bHG3IEm6dOlScbeAQtidvUySLl686NF92dUrqAd4Rt++fbVw4UKFhoY6POf48eNasmSJxo8fr1atWql27dqaNGmSoqOjvdgpAAAAAAClGwuwAAAAAAAAfERJWfjk6UvYeVJUVJQMw/jz9vzzzxd3S8WioMVPv//+u0f3ZVePBVhF46677lJMTIyioqJcmn/69Gm98847uvrqq9WuXTutWLHCoTPyAQAAAACA/48FWAAAAAAAAD4iJyenuFuQ5NjlElG86tevb7vt9OnTHt2XXb2CeoBntWnTRhs2bNDatWs1dOhQlStXzqU6u3fv1uDBg9W7d2+dOnXKw10CAAAAAFB6sQALAAAAAADAR4SEhBR3C/ARjRo1st129OhRj+3nzJkzSk9Pt9zWuHFjj+0Hjrnhhhv02Wef6cyZM1q2bJkmTJig1q1bO30J1fXr16tDhw767bffvNQpAAAAAAClS2BxNwAAAAAAAADHVKxY0XK8UqVKOnPmTJH1ERQUVGT7gmsaNGigcuXKKTMz07Tt119/9dh+Dh8+bLutWbNmHtsPnBMeHq7Bgwdr8ODBkqQLFy5o69at2rLl/7V3t6FV1/0fwD9Hp7nNeY+LNLUbdEIq5SrM0nmT5BAyuzGKJCIfpCI+EFZPyiCRAiFJWQ8qigq16IbFImm4Ha/utZypoKlYCpaWkFNxW3Pn/+APF9f/71np2dnZzq7XC/bk+9n5fN+HgcJ47/z+FV988UXs3LnzHx8levLkyaisrIzdu3dHUVFRLmIDAABA3lLAAgAAAMgTHT3SrampKc6fPx/Dhw/PcSJ6qr59+8akSZNi165dl8z27NmTtXv+btfNN9+ctXvonGHDhsWCBQtiwYIFEfG//2Z89tlnsXXr1qipqenw8aY//fRTbNiwIZ555plcxgUAAIC84xGEAAAAAHniuuuuiz590v8659ChQzlOQ09XXl6e9vzHH3+M1tbWrNyxc+fOtOcDBw6M8ePHZ+UOsm/QoEHx0EMPxQcffBBHjx6NBx98sMPv3bBhQ6RSqRymAwAAgPyjgAUAAACQJ4qKimLixIlpZ9u3b89xGnq6ioqKtOfNzc3x9ddfZ+WO+vr6tOczZszosCxIzzJ69Oh47733YunSpWnnJ0+ezOqnpgEAAEBv5LcgAAAAAHlkxowZac8//vjjHCehp5szZ04kEom0s9ra2k7v37dvX/zyyy9pZ/Pmzev0fnJr/fr1UVRUlHa2d+/eHKcBAACA/KKABQAAAJBHFi5cmPZ8165dPqWG/2PEiBFx1113pZ1t2bIl2tvbO7X/3XffTXueSCTivvvu69Rucq+kpCSmT5+ednbq1KkcpwEAAID8ooAFAAAAkEdmz54d11577SXnqVQqqqqquiERPdljjz2W9vz48ePx0UcfZbz3woUL8dprr6WdzZgxI8aMGZPxbrrP8OHD056nUqkcJwEAAID8ooAFAAAAkEcKCgpixYoVaWfbtm2Lt99+O8eJ6MkefvjhGDp0aNrZc889FxcvXsxo78svvxx//PFH2tlTTz2V0U6634kTJ9Kejxo1KsdJAAAAIL8oYAEAAADkmRUrVsTo0aPTzp588sloaGjoknubmpq6ZC9dZ+DAgbF8+fK0s/3798e6deuueOfBgwdj7dq1aWc33HBDPPDAA1e8kytz9OjRDgtwmTpx4kR89dVXaWc33nhjVu8CAACA3kYBCwAAACDPFBUVxcaNG9POWltbY/78+VFdXZ21+w4fPhwrV66MsWPHZm0nubN69eooLS1NO1uzZk18+OGHl73r1KlTsXDhwjh//nza+Ysvvhh9+/bNKCeXL5lMxpgxY2LZsmVx6NChTu/766+/4oknnoi2trZLZmPHjo3y8vJO3wEAAAC9mQIWAAAAQB669957O/xko+bm5li2bFncfffdUVdXl9H+Y8eOxcaNG2Pu3LkxYcKEeOWVV+Ls2bOdidzrtLa2RnNz82V9daStre2yd7S3t2eUc/DgwbF+/fq0s4sXL8bixYvjpZde+sfHEX777bcxbdq0OHDgQNr5/Pnz4/77788oI1fuwoULUV1dHWVlZTFz5szYuHFjh48Q/Dt79+6NioqK2LZtW9r5448/HolEorNxAQAAoFcr6O4AAAAAAGRmw4YNcfz48aipqUk7r6uri7q6uigrK4s5c+bEnXfeGWVlZTFs2LAYMmRItLe3x5kzZ+LMmTPx22+/xd69e2PPnj2xe/fu2LdvX47fTf6ZN29eJJPJTu1Yu3Zth4/z+//q6+ujoqIio3seffTR+Pzzz+Ott966ZNbW1hZVVVXxxhtvxNKlS2PWrFkxbty46NevX/z++++xc+fO2Lx5c9TU1EQqlUq7/5prrok333wzo2x0Tnt7e+zYsSN27NgRK1eujClTpsTUqVPjlltuiZtuuilGjBgRQ4cOjUGDBkVLS0s0NTXFkSNHorGxMWpra6OhoaHDn+uECROiqqoqx+8IAAAA8o8CFgAAAECe6tu3b7z//vuxZMmS2Lp1a4ffd+DAgThw4EBs2rQph+noaaqrq+PYsWNRX1+fdn7w4MFYvXr1Fe8dPHhw1NTUxMiRIzsbkU5KpVLR2NgYjY2N8frrr3dq1+DBg+Odd96JwsLCLKUDAACA3ssjCAEAAADyWP/+/WPz5s2xbt266NevX3fHoQcrLCyMTz75JO65556s7SzHk2rpAAADsElEQVQtLY1t27bF1KlTs7aT7nf11VdHMpmM8vLy7o4CAAAAeUEBCwAAACDPJRKJePrpp2PXrl0xZ86cLrlj+vTp8eqrr3bJbnKnuLg4amtr4/nnn4+rrrqqU7vmzp0b33//fdx+++1ZSsflGjlyZAwcODDrexOJRCxZsiR2794dU6ZMyfp+AAAA6K08ghAAAAD+C61atSr+/PPPS87HjRuX+zBkzeTJk6Ouri6+/PLL2LRpU9TU1MT58+cz2jVgwIC44447Yu7cubF48eK4/vrrs5yW7tKnT5949tln45FHHokXXnghtmzZEi0tLZf9+ttuuy2qqqpi0aJFXZiSv1NZWRmnT5+OZDIZtbW1sX379ti/f3+0t7dntK+kpCQWLVoUy5cvj1tvvTXLaQEAAKD3S6RSqVR3hwAAAAB6v4qKikgmk5ec19fXR0VFRe4D/Rdobm6O+vr6+Oabb6KxsTGOHj0av/76a5w7dy5aW1ujqKgoSkpKoqSkJEaNGhUTJkyIsrKymDx5ckybNi0GDBjQ3W+BHDh9+nR8+umn/y7x/Pzzz9HU1BQXL16M4uLiKC0tjYkTJ8a0adOisrIyJk2a1N2Re7yGhoaYNWvWJeczZ86MhoaGLrnz7Nmz8d1338UPP/wQhw8fjiNHjsSxY8fizJkzce7cuWhpaYni4uIYNGhQDBkyJMaPHx9TpkyJqVOnxuzZs6OwsLBLcv0n/w8AAADQWylgAQAAAABkUXcUsPKBAhYAAAC9VZ/uDgAAAAAAAAAAAJCvFLAAAAAAAAAAAAAypIAFAAAAAAAAAACQIQUsAAAAAIAcSCaTkUgkOvxatWpVd0fslDVr1vzt+0smk90dEQAAALqEAhYAAAAAAAAAAECGFLAAAAAAAAAAAAAypIAFAAAAAAAAAACQIQUsAAAAAAAAAACADCVSqVSqu0MAAAAAAPQW7e3t0draesWvKygoiIKCgi5IlBttbW3R1tZ2xa/r379/9Onjb4UBAADIXwpYAAAAAAAAAAAAGfJnRQAAAAAAAAAAABlSwAIAAAAAAAAAAMiQAhYAAAAAAAAAAECGFLAAAAAAAAAAAAAypIAFAAAAAAAAAACQIQUsAAAAAAAAAACADClgAQAAAAAAAAAAZEgBCwAAAAAAAAAAIEMKWAAAAAAAAAAAABlSwAIAAAAAAAAAAMiQAhYAAAAAAAAAAECGFLAAAAAAAAAAAAAypIAFAAAAAAAAAACQIQUsAAAAAAAAAACADP0PlSR1qvLtrxgAAAAASUVORK5CYII=;" vertex="1" parent="WIyWlLk6GJQsqaUBKTNV-1">
          <mxGeometry y="159" width="230" height="122" as="geometry" />
        </mxCell>
        <mxCell id="J8QKMWwpoNsyeHYwLZxF-18" value="" style="rounded=0;whiteSpace=wrap;html=1;" parent="WIyWlLk6GJQsqaUBKTNV-1" vertex="1">
          <mxGeometry x="289" y="441" width="270" height="120" as="geometry" />
        </mxCell>
        <mxCell id="J8QKMWwpoNsyeHYwLZxF-5" value="" style="ellipse;whiteSpace=wrap;html=1;aspect=fixed;fillColor=#fff2cc;strokeColor=#d6b656;" parent="WIyWlLk6GJQsqaUBKTNV-1" vertex="1">
          <mxGeometry x="410.5" y="487.5" width="39.5" height="39.5" as="geometry" />
        </mxCell>
        <object label="x0" id="_86lbjDXmj_31HlodiXY-0">
          <mxCell style="ellipse;whiteSpace=wrap;html=1;aspect=fixed;fillColor=#dae8fc;strokeColor=#6c8ebf;" parent="WIyWlLk6GJQsqaUBKTNV-1" vertex="1">
            <mxGeometry x="279" y="119" width="40" height="40" as="geometry" />
          </mxCell>
        </object>
        <mxCell id="_86lbjDXmj_31HlodiXY-2" value="x1" style="ellipse;whiteSpace=wrap;html=1;aspect=fixed;fillColor=#dae8fc;strokeColor=#6c8ebf;" parent="WIyWlLk6GJQsqaUBKTNV-1" vertex="1">
          <mxGeometry x="279" y="199" width="40" height="40" as="geometry" />
        </mxCell>
        <mxCell id="_86lbjDXmj_31HlodiXY-3" value="x2" style="ellipse;whiteSpace=wrap;html=1;aspect=fixed;fillColor=#dae8fc;strokeColor=#6c8ebf;" parent="WIyWlLk6GJQsqaUBKTNV-1" vertex="1">
          <mxGeometry x="279" y="279" width="40" height="40" as="geometry" />
        </mxCell>
        <mxCell id="_86lbjDXmj_31HlodiXY-4" value="xn" style="ellipse;whiteSpace=wrap;html=1;aspect=fixed;fillColor=#dae8fc;strokeColor=#6c8ebf;" parent="WIyWlLk6GJQsqaUBKTNV-1" vertex="1">
          <mxGeometry x="279" y="370" width="40" height="40" as="geometry" />
        </mxCell>
        <mxCell id="_86lbjDXmj_31HlodiXY-7" value="" style="endArrow=none;dashed=1;html=1;dashPattern=1 3;strokeWidth=2;fillColor=#dae8fc;strokeColor=#6c8ebf;entryX=0.5;entryY=1;entryDx=0;entryDy=0;exitX=0.5;exitY=0;exitDx=0;exitDy=0;" parent="WIyWlLk6GJQsqaUBKTNV-1" source="_86lbjDXmj_31HlodiXY-4" target="_86lbjDXmj_31HlodiXY-3" edge="1">
          <mxGeometry width="50" height="50" relative="1" as="geometry">
            <mxPoint x="299" y="429" as="sourcePoint" />
            <mxPoint x="539" y="299" as="targetPoint" />
            <Array as="points" />
          </mxGeometry>
        </mxCell>
        <mxCell id="_86lbjDXmj_31HlodiXY-8" value="" style="ellipse;whiteSpace=wrap;html=1;aspect=fixed;fillColor=#fff2cc;strokeColor=#d6b656;" parent="WIyWlLk6GJQsqaUBKTNV-1" vertex="1">
          <mxGeometry x="399" y="235" width="40" height="40" as="geometry" />
        </mxCell>
        <mxCell id="_86lbjDXmj_31HlodiXY-9" value="" style="ellipse;whiteSpace=wrap;html=1;aspect=fixed;fillColor=#fff2cc;strokeColor=#d6b656;" parent="WIyWlLk6GJQsqaUBKTNV-1" vertex="1">
          <mxGeometry x="399.01" y="296" width="40" height="40" as="geometry" />
        </mxCell>
        <mxCell id="_86lbjDXmj_31HlodiXY-10" value="N1^n" style="ellipse;whiteSpace=wrap;html=1;aspect=fixed;fillColor=#fff2cc;strokeColor=#d6b656;" parent="WIyWlLk6GJQsqaUBKTNV-1" vertex="1">
          <mxGeometry x="399" y="370" width="40" height="40" as="geometry" />
        </mxCell>
        <mxCell id="_86lbjDXmj_31HlodiXY-11" value="" style="ellipse;whiteSpace=wrap;html=1;aspect=fixed;fillColor=#e1d5e7;strokeColor=#9673a6;" parent="WIyWlLk6GJQsqaUBKTNV-1" vertex="1">
          <mxGeometry x="559" y="235" width="40" height="40" as="geometry" />
        </mxCell>
        <mxCell id="_86lbjDXmj_31HlodiXY-12" value="" style="ellipse;whiteSpace=wrap;html=1;aspect=fixed;fillColor=#e1d5e7;strokeColor=#9673a6;" parent="WIyWlLk6GJQsqaUBKTNV-1" vertex="1">
          <mxGeometry x="559" y="296" width="40" height="40" as="geometry" />
        </mxCell>
        <mxCell id="_86lbjDXmj_31HlodiXY-13" value="" style="ellipse;whiteSpace=wrap;html=1;aspect=fixed;fillColor=#e1d5e7;strokeColor=#9673a6;" parent="WIyWlLk6GJQsqaUBKTNV-1" vertex="1">
          <mxGeometry x="559" y="370" width="40" height="40" as="geometry" />
        </mxCell>
        <mxCell id="_86lbjDXmj_31HlodiXY-14" value="" style="ellipse;whiteSpace=wrap;html=1;aspect=fixed;fillColor=#e1d5e7;strokeColor=#9673a6;" parent="WIyWlLk6GJQsqaUBKTNV-1" vertex="1">
          <mxGeometry x="559" y="171" width="40" height="40" as="geometry" />
        </mxCell>
        <mxCell id="_86lbjDXmj_31HlodiXY-15" value="" style="ellipse;whiteSpace=wrap;html=1;aspect=fixed;fillColor=#fff2cc;strokeColor=#d6b656;" parent="WIyWlLk6GJQsqaUBKTNV-1" vertex="1">
          <mxGeometry x="399" y="171" width="40" height="40" as="geometry" />
        </mxCell>
        <mxCell id="_86lbjDXmj_31HlodiXY-17" value="" style="endArrow=none;dashed=1;html=1;dashPattern=1 3;strokeWidth=2;entryX=0.5;entryY=1;entryDx=0;entryDy=0;exitX=0.5;exitY=0;exitDx=0;exitDy=0;fillColor=#e1d5e7;strokeColor=#9673a6;" parent="WIyWlLk6GJQsqaUBKTNV-1" source="_86lbjDXmj_31HlodiXY-13" target="_86lbjDXmj_31HlodiXY-12" edge="1">
          <mxGeometry width="50" height="50" relative="1" as="geometry">
            <mxPoint x="489" y="279" as="sourcePoint" />
            <mxPoint x="539" y="229" as="targetPoint" />
          </mxGeometry>
        </mxCell>
        <mxCell id="_86lbjDXmj_31HlodiXY-19" value="yi" style="ellipse;whiteSpace=wrap;html=1;aspect=fixed;fillColor=#f8cecc;strokeColor=#b85450;" parent="WIyWlLk6GJQsqaUBKTNV-1" vertex="1">
          <mxGeometry x="769" y="280.5" width="40" height="40" as="geometry" />
        </mxCell>
        <mxCell id="_86lbjDXmj_31HlodiXY-22" value="" style="strokeWidth=2;html=1;shape=mxgraph.flowchart.annotation_1;align=left;pointerEvents=1;rounded=0;shadow=0;glass=0;fillColor=#dae8fc;strokeColor=#6c8ebf;" parent="WIyWlLk6GJQsqaUBKTNV-1" vertex="1">
          <mxGeometry x="259" y="139" width="21" height="251" as="geometry" />
        </mxCell>
        <mxCell id="_86lbjDXmj_31HlodiXY-25" value="Input layer" style="text;html=1;strokeColor=none;fillColor=none;align=center;verticalAlign=middle;whiteSpace=wrap;rounded=0;shadow=0;glass=0;fontSize=18;fontStyle=1" parent="WIyWlLk6GJQsqaUBKTNV-1" vertex="1">
          <mxGeometry x="239" y="80" width="110" height="30" as="geometry" />
        </mxCell>
        <mxCell id="_86lbjDXmj_31HlodiXY-26" value="Convolution layer" style="text;html=1;strokeColor=none;fillColor=none;align=center;verticalAlign=middle;whiteSpace=wrap;rounded=0;shadow=0;glass=0;fontSize=18;fontStyle=1" parent="WIyWlLk6GJQsqaUBKTNV-1" vertex="1">
          <mxGeometry x="367" y="80" width="113" height="40" as="geometry" />
        </mxCell>
        <mxCell id="_86lbjDXmj_31HlodiXY-27" value="Hidden layer " style="text;html=1;strokeColor=none;fillColor=none;align=center;verticalAlign=middle;whiteSpace=wrap;rounded=0;shadow=0;glass=0;fontSize=18;fontStyle=1" parent="WIyWlLk6GJQsqaUBKTNV-1" vertex="1">
          <mxGeometry x="510" y="80" width="130" height="30" as="geometry" />
        </mxCell>
        <mxCell id="_86lbjDXmj_31HlodiXY-28" value="Output layer " style="text;html=1;strokeColor=none;fillColor=none;align=center;verticalAlign=middle;whiteSpace=wrap;rounded=0;shadow=0;glass=0;fontSize=18;fontStyle=1" parent="WIyWlLk6GJQsqaUBKTNV-1" vertex="1">
          <mxGeometry x="717" y="80" width="110" height="30" as="geometry" />
        </mxCell>
        <mxCell id="_86lbjDXmj_31HlodiXY-33" value="" style="endArrow=none;html=1;fontSize=18;entryX=0;entryY=0.5;entryDx=0;entryDy=0;exitX=1;exitY=0.5;exitDx=0;exitDy=0;" parent="WIyWlLk6GJQsqaUBKTNV-1" source="_86lbjDXmj_31HlodiXY-0" target="_86lbjDXmj_31HlodiXY-15" edge="1">
          <mxGeometry width="50" height="50" relative="1" as="geometry">
            <mxPoint x="590" y="350" as="sourcePoint" />
            <mxPoint x="640" y="300" as="targetPoint" />
          </mxGeometry>
        </mxCell>
        <mxCell id="_86lbjDXmj_31HlodiXY-34" value="" style="endArrow=none;html=1;fontSize=18;entryX=0;entryY=0.5;entryDx=0;entryDy=0;exitX=1;exitY=0.5;exitDx=0;exitDy=0;" parent="WIyWlLk6GJQsqaUBKTNV-1" target="_86lbjDXmj_31HlodiXY-8" edge="1">
          <mxGeometry width="50" height="50" relative="1" as="geometry">
            <mxPoint x="319" y="215" as="sourcePoint" />
            <mxPoint x="640" y="296" as="targetPoint" />
          </mxGeometry>
        </mxCell>
        <mxCell id="_86lbjDXmj_31HlodiXY-35" value="" style="endArrow=none;html=1;fontSize=18;entryX=0;entryY=0.5;entryDx=0;entryDy=0;exitX=1;exitY=0.5;exitDx=0;exitDy=0;" parent="WIyWlLk6GJQsqaUBKTNV-1" target="_86lbjDXmj_31HlodiXY-9" edge="1">
          <mxGeometry width="50" height="50" relative="1" as="geometry">
            <mxPoint x="319" y="295" as="sourcePoint" />
            <mxPoint x="640" y="296" as="targetPoint" />
          </mxGeometry>
        </mxCell>
        <mxCell id="_86lbjDXmj_31HlodiXY-37" value="" style="endArrow=none;html=1;fontSize=18;entryX=0;entryY=0.5;entryDx=0;entryDy=0;exitX=1;exitY=0.5;exitDx=0;exitDy=0;" parent="WIyWlLk6GJQsqaUBKTNV-1" target="_86lbjDXmj_31HlodiXY-15" edge="1">
          <mxGeometry width="50" height="50" relative="1" as="geometry">
            <mxPoint x="319" y="215" as="sourcePoint" />
            <mxPoint x="640" y="296" as="targetPoint" />
          </mxGeometry>
        </mxCell>
        <mxCell id="_86lbjDXmj_31HlodiXY-38" value="" style="endArrow=none;html=1;fontSize=18;entryX=0;entryY=0.5;entryDx=0;entryDy=0;" parent="WIyWlLk6GJQsqaUBKTNV-1" target="_86lbjDXmj_31HlodiXY-15" edge="1">
          <mxGeometry width="50" height="50" relative="1" as="geometry">
            <mxPoint x="320" y="296" as="sourcePoint" />
            <mxPoint x="640" y="296" as="targetPoint" />
          </mxGeometry>
        </mxCell>
        <mxCell id="_86lbjDXmj_31HlodiXY-39" value="" style="endArrow=none;html=1;fontSize=18;entryX=0;entryY=0.5;entryDx=0;entryDy=0;exitX=1;exitY=0.5;exitDx=0;exitDy=0;" parent="WIyWlLk6GJQsqaUBKTNV-1" target="_86lbjDXmj_31HlodiXY-15" edge="1">
          <mxGeometry width="50" height="50" relative="1" as="geometry">
            <mxPoint x="319" y="295" as="sourcePoint" />
            <mxPoint x="510" y="266" as="targetPoint" />
          </mxGeometry>
        </mxCell>
        <mxCell id="_86lbjDXmj_31HlodiXY-40" value="" style="endArrow=none;html=1;fontSize=18;exitX=1;exitY=0.5;exitDx=0;exitDy=0;entryX=0;entryY=0.5;entryDx=0;entryDy=0;" parent="WIyWlLk6GJQsqaUBKTNV-1" source="_86lbjDXmj_31HlodiXY-4" target="_86lbjDXmj_31HlodiXY-15" edge="1">
          <mxGeometry width="50" height="50" relative="1" as="geometry">
            <mxPoint x="590" y="350" as="sourcePoint" />
            <mxPoint x="399" y="179" as="targetPoint" />
          </mxGeometry>
        </mxCell>
        <mxCell id="_86lbjDXmj_31HlodiXY-41" value="" style="endArrow=none;dashed=1;html=1;dashPattern=1 3;strokeWidth=2;fontSize=18;entryX=1;entryY=0.5;entryDx=0;entryDy=0;exitX=0;exitY=0.5;exitDx=0;exitDy=0;" parent="WIyWlLk6GJQsqaUBKTNV-1" source="_86lbjDXmj_31HlodiXY-10" target="_86lbjDXmj_31HlodiXY-3" edge="1">
          <mxGeometry width="50" height="50" relative="1" as="geometry">
            <mxPoint x="590" y="420" as="sourcePoint" />
            <mxPoint x="640" y="370" as="targetPoint" />
          </mxGeometry>
        </mxCell>
        <mxCell id="_86lbjDXmj_31HlodiXY-43" value="" style="endArrow=none;html=1;fontSize=18;entryX=1;entryY=0.5;entryDx=0;entryDy=0;exitX=0;exitY=0.5;exitDx=0;exitDy=0;" parent="WIyWlLk6GJQsqaUBKTNV-1" source="_86lbjDXmj_31HlodiXY-8" target="_86lbjDXmj_31HlodiXY-0" edge="1">
          <mxGeometry width="50" height="50" relative="1" as="geometry">
            <mxPoint x="590" y="350" as="sourcePoint" />
            <mxPoint x="640" y="300" as="targetPoint" />
          </mxGeometry>
        </mxCell>
        <mxCell id="_86lbjDXmj_31HlodiXY-44" value="" style="endArrow=none;html=1;fontSize=18;entryX=1;entryY=0.5;entryDx=0;entryDy=0;exitX=0;exitY=0.5;exitDx=0;exitDy=0;" parent="WIyWlLk6GJQsqaUBKTNV-1" source="_86lbjDXmj_31HlodiXY-9" target="_86lbjDXmj_31HlodiXY-0" edge="1">
          <mxGeometry width="50" height="50" relative="1" as="geometry">
            <mxPoint x="590" y="350" as="sourcePoint" />
            <mxPoint x="640" y="300" as="targetPoint" />
          </mxGeometry>
        </mxCell>
        <mxCell id="_86lbjDXmj_31HlodiXY-45" value="" style="endArrow=none;html=1;fontSize=18;entryX=1;entryY=0.5;entryDx=0;entryDy=0;exitX=0;exitY=0.5;exitDx=0;exitDy=0;" parent="WIyWlLk6GJQsqaUBKTNV-1" source="_86lbjDXmj_31HlodiXY-9" edge="1">
          <mxGeometry width="50" height="50" relative="1" as="geometry">
            <mxPoint x="590" y="346" as="sourcePoint" />
            <mxPoint x="319" y="215" as="targetPoint" />
          </mxGeometry>
        </mxCell>
        <mxCell id="_86lbjDXmj_31HlodiXY-46" value="" style="endArrow=none;dashed=1;html=1;dashPattern=1 3;strokeWidth=2;fontSize=18;exitX=0;exitY=0.5;exitDx=0;exitDy=0;" parent="WIyWlLk6GJQsqaUBKTNV-1" source="_86lbjDXmj_31HlodiXY-10" edge="1">
          <mxGeometry width="50" height="50" relative="1" as="geometry">
            <mxPoint x="590" y="350" as="sourcePoint" />
            <mxPoint x="320" y="140" as="targetPoint" />
          </mxGeometry>
        </mxCell>
        <mxCell id="_86lbjDXmj_31HlodiXY-47" value="" style="endArrow=none;dashed=1;html=1;dashPattern=1 3;strokeWidth=2;fontSize=18;exitX=0;exitY=0.5;exitDx=0;exitDy=0;" parent="WIyWlLk6GJQsqaUBKTNV-1" source="_86lbjDXmj_31HlodiXY-10" edge="1">
          <mxGeometry width="50" height="50" relative="1" as="geometry">
            <mxPoint x="590" y="350" as="sourcePoint" />
            <mxPoint x="320" y="220" as="targetPoint" />
          </mxGeometry>
        </mxCell>
        <mxCell id="_86lbjDXmj_31HlodiXY-48" value="" style="endArrow=none;dashed=1;html=1;dashPattern=1 3;strokeWidth=2;fontSize=18;exitX=0;exitY=0.5;exitDx=0;exitDy=0;entryX=1;entryY=0.5;entryDx=0;entryDy=0;" parent="WIyWlLk6GJQsqaUBKTNV-1" source="_86lbjDXmj_31HlodiXY-10" target="_86lbjDXmj_31HlodiXY-4" edge="1">
          <mxGeometry width="50" height="50" relative="1" as="geometry">
            <mxPoint x="590" y="321" as="sourcePoint" />
            <mxPoint x="640" y="271" as="targetPoint" />
          </mxGeometry>
        </mxCell>
        <mxCell id="_86lbjDXmj_31HlodiXY-49" value="weight 1 (w1)" style="text;html=1;strokeColor=none;fillColor=none;align=center;verticalAlign=middle;whiteSpace=wrap;rounded=0;shadow=0;glass=0;fontSize=10;" parent="WIyWlLk6GJQsqaUBKTNV-1" vertex="1">
          <mxGeometry x="330" y="129" width="80" height="20" as="geometry" />
        </mxCell>
        <mxCell id="_86lbjDXmj_31HlodiXY-50" value="w2" style="text;html=1;strokeColor=none;fillColor=none;align=center;verticalAlign=middle;whiteSpace=wrap;rounded=0;shadow=0;glass=0;fontSize=10;" parent="WIyWlLk6GJQsqaUBKTNV-1" vertex="1">
          <mxGeometry x="326" y="152" width="40" height="20" as="geometry" />
        </mxCell>
        <mxCell id="_86lbjDXmj_31HlodiXY-51" value="w3" style="text;html=1;strokeColor=none;fillColor=none;align=center;verticalAlign=middle;whiteSpace=wrap;rounded=0;shadow=0;glass=0;fontSize=10;" parent="WIyWlLk6GJQsqaUBKTNV-1" vertex="1">
          <mxGeometry x="327" y="175" width="40" height="20" as="geometry" />
        </mxCell>
        <mxCell id="_86lbjDXmj_31HlodiXY-54" value="w4" style="text;html=1;strokeColor=none;fillColor=none;align=center;verticalAlign=middle;whiteSpace=wrap;rounded=0;shadow=0;glass=0;fontSize=10;" parent="WIyWlLk6GJQsqaUBKTNV-1" vertex="1">
          <mxGeometry x="305" y="187" width="40" height="20" as="geometry" />
        </mxCell>
        <mxCell id="_86lbjDXmj_31HlodiXY-56" value="&lt;font style=&quot;font-size: 18px&quot;&gt;input data (time-series)&lt;br&gt;&lt;/font&gt;" style="text;html=1;strokeColor=none;fillColor=none;align=center;verticalAlign=middle;whiteSpace=wrap;rounded=0;shadow=0;glass=0;fontSize=10;fontStyle=1" parent="WIyWlLk6GJQsqaUBKTNV-1" vertex="1">
          <mxGeometry x="14.64" y="119" width="210" height="49" as="geometry" />
        </mxCell>
        <mxCell id="_86lbjDXmj_31HlodiXY-62" value="" style="endArrow=none;html=1;fontSize=10;entryX=0;entryY=0.5;entryDx=0;entryDy=0;dashed=1;exitX=1;exitY=0.5;exitDx=0;exitDy=0;" parent="WIyWlLk6GJQsqaUBKTNV-1" target="_86lbjDXmj_31HlodiXY-11" edge="1" source="_86lbjDXmj_31HlodiXY-15">
          <mxGeometry width="50" height="50" relative="1" as="geometry">
            <mxPoint x="440" y="176" as="sourcePoint" />
            <mxPoint x="480" y="206" as="targetPoint" />
          </mxGeometry>
        </mxCell>
        <mxCell id="_86lbjDXmj_31HlodiXY-63" value="" style="endArrow=none;html=1;fontSize=10;entryX=0;entryY=0.5;entryDx=0;entryDy=0;dashed=1;exitX=1;exitY=0.5;exitDx=0;exitDy=0;" parent="WIyWlLk6GJQsqaUBKTNV-1" target="_86lbjDXmj_31HlodiXY-12" edge="1" source="_86lbjDXmj_31HlodiXY-15">
          <mxGeometry width="50" height="50" relative="1" as="geometry">
            <mxPoint x="440" y="176" as="sourcePoint" />
            <mxPoint x="480" y="206" as="targetPoint" />
          </mxGeometry>
        </mxCell>
        <mxCell id="_86lbjDXmj_31HlodiXY-64" value="" style="endArrow=none;html=1;fontSize=10;entryX=0;entryY=0.5;entryDx=0;entryDy=0;dashed=1;" parent="WIyWlLk6GJQsqaUBKTNV-1" target="_86lbjDXmj_31HlodiXY-14" edge="1">
          <mxGeometry width="50" height="50" relative="1" as="geometry">
            <mxPoint x="440" y="256" as="sourcePoint" />
            <mxPoint x="480" y="206" as="targetPoint" />
          </mxGeometry>
        </mxCell>
        <mxCell id="_86lbjDXmj_31HlodiXY-65" value="" style="endArrow=none;html=1;fontSize=10;dashed=1;" parent="WIyWlLk6GJQsqaUBKTNV-1" target="_86lbjDXmj_31HlodiXY-11" edge="1">
          <mxGeometry width="50" height="50" relative="1" as="geometry">
            <mxPoint x="440" y="255" as="sourcePoint" />
            <mxPoint x="480" y="206" as="targetPoint" />
          </mxGeometry>
        </mxCell>
        <mxCell id="_86lbjDXmj_31HlodiXY-66" value="" style="endArrow=none;html=1;fontSize=10;entryX=0;entryY=0.5;entryDx=0;entryDy=0;dashed=1;" parent="WIyWlLk6GJQsqaUBKTNV-1" edge="1" target="_86lbjDXmj_31HlodiXY-12">
          <mxGeometry width="50" height="50" relative="1" as="geometry">
            <mxPoint x="440" y="256" as="sourcePoint" />
            <mxPoint x="560" y="336" as="targetPoint" />
          </mxGeometry>
        </mxCell>
        <mxCell id="_86lbjDXmj_31HlodiXY-68" value="" style="endArrow=none;html=1;fontSize=10;entryX=0;entryY=0.5;entryDx=0;entryDy=0;dashed=1;" parent="WIyWlLk6GJQsqaUBKTNV-1" edge="1" target="_86lbjDXmj_31HlodiXY-12">
          <mxGeometry width="50" height="50" relative="1" as="geometry">
            <mxPoint x="440" y="316" as="sourcePoint" />
            <mxPoint x="560" y="336" as="targetPoint" />
          </mxGeometry>
        </mxCell>
        <mxCell id="_86lbjDXmj_31HlodiXY-69" value="" style="endArrow=none;html=1;fontSize=10;exitX=1;exitY=0.5;exitDx=0;exitDy=0;dashed=1;entryX=0;entryY=0.5;entryDx=0;entryDy=0;" parent="WIyWlLk6GJQsqaUBKTNV-1" source="_86lbjDXmj_31HlodiXY-10" edge="1" target="_86lbjDXmj_31HlodiXY-14">
          <mxGeometry width="50" height="50" relative="1" as="geometry">
            <mxPoint x="430" y="330" as="sourcePoint" />
            <mxPoint x="560" y="180" as="targetPoint" />
          </mxGeometry>
        </mxCell>
        <mxCell id="_86lbjDXmj_31HlodiXY-70" value="" style="endArrow=none;html=1;fontSize=10;entryX=0;entryY=0.5;entryDx=0;entryDy=0;exitX=1;exitY=0.5;exitDx=0;exitDy=0;dashed=1;" parent="WIyWlLk6GJQsqaUBKTNV-1" target="_86lbjDXmj_31HlodiXY-11" edge="1" source="_86lbjDXmj_31HlodiXY-10">
          <mxGeometry width="50" height="50" relative="1" as="geometry">
            <mxPoint x="440" y="460" as="sourcePoint" />
            <mxPoint x="480" y="280" as="targetPoint" />
          </mxGeometry>
        </mxCell>
        <mxCell id="_86lbjDXmj_31HlodiXY-71" value="" style="endArrow=none;html=1;fontSize=10;exitX=1;exitY=0.5;exitDx=0;exitDy=0;entryX=0;entryY=0.5;entryDx=0;entryDy=0;dashed=1;" parent="WIyWlLk6GJQsqaUBKTNV-1" edge="1" target="_86lbjDXmj_31HlodiXY-12" source="_86lbjDXmj_31HlodiXY-10">
          <mxGeometry width="50" height="50" relative="1" as="geometry">
            <mxPoint x="440" y="460" as="sourcePoint" />
            <mxPoint x="560" y="340" as="targetPoint" />
          </mxGeometry>
        </mxCell>
        <mxCell id="_86lbjDXmj_31HlodiXY-86" style="edgeStyle=orthogonalEdgeStyle;rounded=0;orthogonalLoop=1;jettySize=auto;html=1;exitX=1;exitY=0.5;exitDx=0;exitDy=0;entryX=0;entryY=0.5;entryDx=0;entryDy=0;fontSize=10;" parent="WIyWlLk6GJQsqaUBKTNV-1" source="_86lbjDXmj_31HlodiXY-75" target="_86lbjDXmj_31HlodiXY-19" edge="1">
          <mxGeometry relative="1" as="geometry" />
        </mxCell>
        <mxCell id="_86lbjDXmj_31HlodiXY-75" value="&lt;div&gt;&lt;b&gt;&lt;font style=&quot;font-size: 12px&quot;&gt;Flatten &lt;br&gt;&lt;/font&gt;&lt;/b&gt;&lt;/div&gt;&lt;div&gt;&lt;b&gt;&lt;font style=&quot;font-size: 12px&quot;&gt;+ &lt;br&gt;&lt;/font&gt;&lt;/b&gt;&lt;/div&gt;&lt;div&gt;&lt;b&gt;&lt;font style=&quot;font-size: 12px&quot;&gt;Dense layer&lt;/font&gt;&lt;/b&gt;&lt;/div&gt;" style="rounded=0;whiteSpace=wrap;html=1;shadow=0;glass=0;fontSize=10;fontStyle=1;fillColor=#f5f5f5;strokeColor=#666666;fontColor=#333333;" parent="WIyWlLk6GJQsqaUBKTNV-1" vertex="1">
          <mxGeometry x="679" y="230" width="50" height="141" as="geometry" />
        </mxCell>
        <mxCell id="_86lbjDXmj_31HlodiXY-77" value="" style="endArrow=none;html=1;fontSize=10;entryX=1;entryY=0.5;entryDx=0;entryDy=0;exitX=0;exitY=0.5;exitDx=0;exitDy=0;" parent="WIyWlLk6GJQsqaUBKTNV-1" source="_86lbjDXmj_31HlodiXY-75" target="_86lbjDXmj_31HlodiXY-14" edge="1">
          <mxGeometry width="50" height="50" relative="1" as="geometry">
            <mxPoint x="674" y="305.5" as="sourcePoint" />
            <mxPoint x="480" y="276" as="targetPoint" />
          </mxGeometry>
        </mxCell>
        <mxCell id="_86lbjDXmj_31HlodiXY-79" value="" style="endArrow=none;html=1;fontSize=10;entryX=1;entryY=0.5;entryDx=0;entryDy=0;" parent="WIyWlLk6GJQsqaUBKTNV-1" target="_86lbjDXmj_31HlodiXY-11" edge="1">
          <mxGeometry width="50" height="50" relative="1" as="geometry">
            <mxPoint x="680" y="300" as="sourcePoint" />
            <mxPoint x="480" y="276" as="targetPoint" />
          </mxGeometry>
        </mxCell>
        <mxCell id="_86lbjDXmj_31HlodiXY-83" value="" style="endArrow=none;html=1;fontSize=10;exitX=1;exitY=0.5;exitDx=0;exitDy=0;" parent="WIyWlLk6GJQsqaUBKTNV-1" source="_86lbjDXmj_31HlodiXY-12" edge="1">
          <mxGeometry width="50" height="50" relative="1" as="geometry">
            <mxPoint x="430" y="326" as="sourcePoint" />
            <mxPoint x="679" y="301" as="targetPoint" />
          </mxGeometry>
        </mxCell>
        <mxCell id="_86lbjDXmj_31HlodiXY-84" value="" style="endArrow=none;dashed=1;html=1;dashPattern=1 3;strokeWidth=2;fontSize=10;exitX=1;exitY=0.5;exitDx=0;exitDy=0;entryX=0;entryY=0.5;entryDx=0;entryDy=0;" parent="WIyWlLk6GJQsqaUBKTNV-1" source="_86lbjDXmj_31HlodiXY-13" edge="1" target="_86lbjDXmj_31HlodiXY-75">
          <mxGeometry width="50" height="50" relative="1" as="geometry">
            <mxPoint x="430" y="330" as="sourcePoint" />
            <mxPoint x="670" y="310" as="targetPoint" />
          </mxGeometry>
        </mxCell>
        <mxCell id="_86lbjDXmj_31HlodiXY-93" value="" style="endArrow=classic;html=1;fontSize=10;fillColor=#dae8fc;strokeColor=#6c8ebf;" parent="WIyWlLk6GJQsqaUBKTNV-1" source="BPp37XixHK6xMraPsEmh-0" edge="1">
          <mxGeometry width="50" height="50" relative="1" as="geometry">
            <mxPoint x="229.2800000000002" y="219" as="sourcePoint" />
            <mxPoint x="260" y="220" as="targetPoint" />
          </mxGeometry>
        </mxCell>
        <mxCell id="J8QKMWwpoNsyeHYwLZxF-4" value="" style="edgeStyle=entityRelationEdgeStyle;fontSize=12;html=1;endArrow=ERzeroToOne;endFill=1;entryX=0.975;entryY=0.25;entryDx=0;entryDy=0;entryPerimeter=0;" parent="WIyWlLk6GJQsqaUBKTNV-1" target="J8QKMWwpoNsyeHYwLZxF-5" edge="1">
          <mxGeometry width="100" height="100" relative="1" as="geometry">
            <mxPoint x="412.5" y="507" as="sourcePoint" />
            <mxPoint x="450.5" y="492" as="targetPoint" />
          </mxGeometry>
        </mxCell>
        <mxCell id="J8QKMWwpoNsyeHYwLZxF-6" value="" style="endArrow=none;html=1;entryX=0;entryY=0.5;entryDx=0;entryDy=0;exitX=1;exitY=0;exitDx=0;exitDy=0;" parent="WIyWlLk6GJQsqaUBKTNV-1" target="J8QKMWwpoNsyeHYwLZxF-5" edge="1" source="J8QKMWwpoNsyeHYwLZxF-17">
          <mxGeometry width="50" height="50" relative="1" as="geometry">
            <mxPoint x="339" y="561" as="sourcePoint" />
            <mxPoint x="410.5" y="479" as="targetPoint" />
          </mxGeometry>
        </mxCell>
        <mxCell id="J8QKMWwpoNsyeHYwLZxF-7" value="" style="endArrow=none;html=1;exitX=1;exitY=0.5;exitDx=0;exitDy=0;" parent="WIyWlLk6GJQsqaUBKTNV-1" edge="1" source="J8QKMWwpoNsyeHYwLZxF-15">
          <mxGeometry width="50" height="50" relative="1" as="geometry">
            <mxPoint x="330.5" y="447" as="sourcePoint" />
            <mxPoint x="410.5" y="507" as="targetPoint" />
          </mxGeometry>
        </mxCell>
        <mxCell id="J8QKMWwpoNsyeHYwLZxF-8" value="" style="endArrow=none;html=1;" parent="WIyWlLk6GJQsqaUBKTNV-1" edge="1" source="J8QKMWwpoNsyeHYwLZxF-16">
          <mxGeometry width="50" height="50" relative="1" as="geometry">
            <mxPoint x="330.5" y="487" as="sourcePoint" />
            <mxPoint x="410.5" y="507" as="targetPoint" />
          </mxGeometry>
        </mxCell>
        <mxCell id="J8QKMWwpoNsyeHYwLZxF-9" value="" style="endArrow=none;dashed=1;html=1;dashPattern=1 3;strokeWidth=2;entryX=1;entryY=0.5;entryDx=0;entryDy=0;exitX=1;exitY=0;exitDx=0;exitDy=0;" parent="WIyWlLk6GJQsqaUBKTNV-1" edge="1" target="J8QKMWwpoNsyeHYwLZxF-16" source="J8QKMWwpoNsyeHYwLZxF-17">
          <mxGeometry width="50" height="50" relative="1" as="geometry">
            <mxPoint x="330.5" y="557" as="sourcePoint" />
            <mxPoint x="330.5" y="497" as="targetPoint" />
          </mxGeometry>
        </mxCell>
        <mxCell id="J8QKMWwpoNsyeHYwLZxF-10" value="relu " style="text;html=1;strokeColor=none;fillColor=none;align=center;verticalAlign=middle;whiteSpace=wrap;rounded=0;" parent="WIyWlLk6GJQsqaUBKTNV-1" vertex="1">
          <mxGeometry x="450" y="487.5" width="40" height="20" as="geometry" />
        </mxCell>
        <mxCell id="J8QKMWwpoNsyeHYwLZxF-11" value="" style="endArrow=none;html=1;exitX=1;exitY=0.5;exitDx=0;exitDy=0;entryX=0;entryY=0.5;entryDx=0;entryDy=0;" parent="WIyWlLk6GJQsqaUBKTNV-1" source="J8QKMWwpoNsyeHYwLZxF-5" target="J8QKMWwpoNsyeHYwLZxF-12" edge="1">
          <mxGeometry width="50" height="50" relative="1" as="geometry">
            <mxPoint x="360.5" y="337" as="sourcePoint" />
            <mxPoint x="499" y="507" as="targetPoint" />
          </mxGeometry>
        </mxCell>
        <mxCell id="J8QKMWwpoNsyeHYwLZxF-12" value="output" style="text;html=1;strokeColor=none;fillColor=none;align=center;verticalAlign=middle;whiteSpace=wrap;rounded=0;" parent="WIyWlLk6GJQsqaUBKTNV-1" vertex="1">
          <mxGeometry x="499" y="497.25" width="40" height="20" as="geometry" />
        </mxCell>
        <mxCell id="J8QKMWwpoNsyeHYwLZxF-13" value="" style="shape=singleArrow;direction=south;whiteSpace=wrap;html=1;" parent="WIyWlLk6GJQsqaUBKTNV-1" vertex="1">
          <mxGeometry x="406.95" y="410" width="23.05" height="30" as="geometry" />
        </mxCell>
        <mxCell id="J8QKMWwpoNsyeHYwLZxF-15" value="x0" style="text;html=1;strokeColor=none;fillColor=none;align=center;verticalAlign=middle;whiteSpace=wrap;rounded=0;" parent="WIyWlLk6GJQsqaUBKTNV-1" vertex="1">
          <mxGeometry x="299" y="451" width="40" height="20" as="geometry" />
        </mxCell>
        <mxCell id="J8QKMWwpoNsyeHYwLZxF-16" value="x1" style="text;html=1;strokeColor=none;fillColor=none;align=center;verticalAlign=middle;whiteSpace=wrap;rounded=0;" parent="WIyWlLk6GJQsqaUBKTNV-1" vertex="1">
          <mxGeometry x="299" y="477.25" width="40" height="20" as="geometry" />
        </mxCell>
        <mxCell id="J8QKMWwpoNsyeHYwLZxF-17" value="xn" style="text;html=1;strokeColor=none;fillColor=none;align=center;verticalAlign=middle;whiteSpace=wrap;rounded=0;" parent="WIyWlLk6GJQsqaUBKTNV-1" vertex="1">
          <mxGeometry x="299" y="536" width="40" height="20" as="geometry" />
        </mxCell>
        <mxCell id="BPp37XixHK6xMraPsEmh-2" value="" style="endArrow=none;dashed=1;html=1;exitX=1;exitY=0.5;exitDx=0;exitDy=0;entryX=0;entryY=0.5;entryDx=0;entryDy=0;" edge="1" parent="WIyWlLk6GJQsqaUBKTNV-1" source="_86lbjDXmj_31HlodiXY-15" target="_86lbjDXmj_31HlodiXY-14">
          <mxGeometry width="50" height="50" relative="1" as="geometry">
            <mxPoint x="380" y="392" as="sourcePoint" />
            <mxPoint x="430" y="342" as="targetPoint" />
          </mxGeometry>
        </mxCell>
        <mxCell id="BPp37XixHK6xMraPsEmh-3" value="" style="endArrow=none;dashed=1;html=1;entryX=1;entryY=0.5;entryDx=0;entryDy=0;exitX=0;exitY=0.5;exitDx=0;exitDy=0;" edge="1" parent="WIyWlLk6GJQsqaUBKTNV-1" source="_86lbjDXmj_31HlodiXY-13" target="_86lbjDXmj_31HlodiXY-9">
          <mxGeometry width="50" height="50" relative="1" as="geometry">
            <mxPoint x="380" y="380" as="sourcePoint" />
            <mxPoint x="430" y="330" as="targetPoint" />
          </mxGeometry>
        </mxCell>
        <mxCell id="BPp37XixHK6xMraPsEmh-4" value="" style="endArrow=none;dashed=1;html=1;entryX=0;entryY=0.5;entryDx=0;entryDy=0;exitX=1;exitY=0.5;exitDx=0;exitDy=0;" edge="1" parent="WIyWlLk6GJQsqaUBKTNV-1" source="_86lbjDXmj_31HlodiXY-15" target="_86lbjDXmj_31HlodiXY-13">
          <mxGeometry width="50" height="50" relative="1" as="geometry">
            <mxPoint x="440" y="180" as="sourcePoint" />
            <mxPoint x="430" y="330" as="targetPoint" />
          </mxGeometry>
        </mxCell>
        <mxCell id="BPp37XixHK6xMraPsEmh-5" value="" style="endArrow=none;dashed=1;html=1;exitX=0;exitY=0.5;exitDx=0;exitDy=0;" edge="1" parent="WIyWlLk6GJQsqaUBKTNV-1" source="_86lbjDXmj_31HlodiXY-13">
          <mxGeometry width="50" height="50" relative="1" as="geometry">
            <mxPoint x="560" y="420" as="sourcePoint" />
            <mxPoint x="440" y="260" as="targetPoint" />
          </mxGeometry>
        </mxCell>
        <mxCell id="BPp37XixHK6xMraPsEmh-6" value="" style="endArrow=none;dashed=1;html=1;entryX=0;entryY=0.5;entryDx=0;entryDy=0;exitX=1;exitY=0.5;exitDx=0;exitDy=0;" edge="1" parent="WIyWlLk6GJQsqaUBKTNV-1" source="_86lbjDXmj_31HlodiXY-10" target="_86lbjDXmj_31HlodiXY-13">
          <mxGeometry width="50" height="50" relative="1" as="geometry">
            <mxPoint x="380" y="351" as="sourcePoint" />
            <mxPoint x="430" y="301" as="targetPoint" />
          </mxGeometry>
        </mxCell>
        <mxCell id="BPp37XixHK6xMraPsEmh-7" value="" style="endArrow=none;dashed=1;html=1;dashPattern=1 3;strokeWidth=2;exitX=0.5;exitY=0;exitDx=0;exitDy=0;entryX=0.525;entryY=1;entryDx=0;entryDy=0;entryPerimeter=0;fillColor=#fff2cc;strokeColor=#d6b656;" edge="1" parent="WIyWlLk6GJQsqaUBKTNV-1" source="_86lbjDXmj_31HlodiXY-10" target="_86lbjDXmj_31HlodiXY-9">
          <mxGeometry width="50" height="50" relative="1" as="geometry">
            <mxPoint x="380" y="380" as="sourcePoint" />
            <mxPoint x="420" y="350" as="targetPoint" />
          </mxGeometry>
        </mxCell>
      </root>
    </mxGraphModel>
  </diagram>
</mxfile>
